<svg id="레이어_1" data-name="레이어 1" xmlns="http://www.w3.org/2000/svg" viewBox="0 0 500 500"><defs><style>.cls-1{fill:#ba88f8;}.cls-2{fill:#f0e3a0;}.cls-3{fill:#080705;}.cls-4{fill:#0e0e0a;}.cls-5{fill:#0c0b08;}</style></defs><path d="M473.34,193.42c0,28.59-14.07,52-28.88,74.88-15.22,23.56-26.07,48.43-26.93,76.93-.44,14.35-5.19,20.34-19.06,23-11.41,2.19-22.94,3.74-34.63,3.44-6.61-.18-10.17-3-10.69-10-.7-9.3-9.84-18.62-19.13-19.72-4.54-.54-4.24,3.61-4.16,6.17.16,5,.73,10-.7,15-2.12,7.39-6.31,11.32-14.51,11.73-9.8.48-19.57,2.05-29.31,3.45-16,2.32-20.88-.74-24.63-16.65a64.89,64.89,0,0,0-6.92-17.51c-4.59-8-17.43-11.89-24.56-6.17a30,30,0,0,0-9.46,14.95C215,371.06,203.18,374.5,186.92,371c-3.17-.68-6.56-.22-9.81-.59-4.1-.47-7.06-2.55-8.06-6.82-1.1-4.77-3.84-8.74-6.3-12.85-4-6.67-7.5-7.7-14.56-4.2-4.45,2.22-7.57,5.81-10.29,9.83-4.56,6.75-10.65,9.62-18.88,8-7.43-1.43-15-2.15-22.43-3.65-7.9-1.6-13.86-5.8-16.41-14a37.66,37.66,0,0,0-3.45-7.53c-2.21-3.79-4.3-5.38-10-4.62-14.29,1.9-27.32-3.43-38.64-12.23-3.49-2.71-.2-4.39,2.06-5.31C39,313.49,45.71,307,52.8,300.88a7.71,7.71,0,0,0,2.88-6.45c.62-41.24,20.93-72.7,54-93.92,35.68-22.91,72.47-44.94,114.13-56.38a25.33,25.33,0,0,1,2.91-.84c32.46-5,63.84-15.94,96.86-18,4.79-.3,9.59-1,14.17,1.07a6.09,6.09,0,0,0,4.4.28c31.1-8.49,62.35-6.16,93.58-1,13.17,2.19,22.17,9.72,27.4,22.28C469.17,162.53,474.18,177.21,473.34,193.42Z"/><path class="cls-1" d="M459.42,153.27c-22.53-18.47-52.49-19.17-78.17-2.12-15.59,10.34-28,24-38.39,39.41s-20.41,31.34-30.67,47a134.77,134.77,0,0,1-37.35,38.3c-2,1.36-4.17,4-6.64,2.79-2.95-1.44-1.85-5-1.68-7.55.32-4.77,1.13-9.51,1.87-14.24.29-1.82.82-3.91-1.37-4.47-2.4-.61-2.73,1.82-3.11,3.4-1.65,6.92-3.33,14.08-1.66,21,1.4,5.81-1.11,8.37-5.28,10.85-15.61,9.24-32.58,14.76-50.16,18.72-6.65,1.49-13.25,3.2-19.9,4.68-4,.89-6.36-.42-6.07-5,.71-11.48-3.2-23.21,1.93-34.47.62-1.38.78-3.2-1-3.87s-2.68.87-3.29,2.29a38,38,0,0,0-3,16.27c.17,7.07.16,14.16.75,21.2.29,3.42-1,4.28-3.93,4.91-19.48,4.18-39.27,2.61-58.93,3.19-3.23.09-5-1.58-6-4.67a32.41,32.41,0,0,1-.58-17.92c.4-1.7,1.47-4.49-1.4-5.1s-2.69,2.19-3.07,4c-1.24,6-2.11,12,.08,17.94,1.51,4.08.09,6.52-4.14,6.71-8.29.36-16.62.86-24.88.39-6.84-.39-13.41-10.39-13-20,.93-21.43,4.71-42.16,18.39-59.67C90,223,102,209.31,118.64,199.65c1,5.91-2,9.42-4.53,13-6.38,9.28-11.3,19.12-12.46,30.52-.22,2.17-1.45,5.2,1.6,5.75,3.75.68,2.58-3.07,2.8-4.87,1.24-10.05,6.71-18.3,10.61-27.3,10.45-24.16,31.65-35.06,53.2-45.9,17.86-9,36.63-15.74,55.47-22.29a20.21,20.21,0,0,1,4.34-1.31c2.13-.23,5-1.49,6.19.75s-1.3,4.15-2.94,5.6A193.76,193.76,0,0,0,202.1,188C193,201.06,184,214.25,180.85,230.33a63,63,0,0,0-.84,6.74c-.11,1.32.2,2.68,1.78,2.85,1.88.2,2.43-1,2.72-2.76,5.58-31.92,27.7-53.25,47.19-76.89,14.05-17.05,31.6-21.15,51.07-24.11,15.47-2.36,30.75-6,46.47-6.5,1.94-.06,4.75-.8,5.53,1.2,1,2.63-1.9,3.81-3.69,4.89-19.37,11.69-34.18,28.32-48.83,45.08-8.61,9.85-13.71,21.71-18.15,33.86-.64,1.76-2,4.14.92,5,2.3.72,2.72-1.45,3.33-3.15,12.07-33.71,36.67-56.85,65.15-76.53,4.16-2.88,6.34-7.43,11.26-9.76,10.17-4.8,20.86-3.27,31.29-3.87,20.19-1.17,40.45-.94,60.26,4.12C449.72,134,455,139.22,459.42,153.27Z"/><path class="cls-1" d="M458.2,230c-4.28,14.52-12.23,26.58-19.57,39.11-7.86,13.39-20.95,18.63-32.73,26.25-1.89,1.22-5.94,1.87-3.92,5.1s4.41-.2,6.36-1.27c4-2.18,7.74-4.77,11.69-7,3.41-1.94,5.4-1.34,4.42,3.1a34.81,34.81,0,0,1-1.86,6.55c-6.35,14.49-10.33,29.36-10,45.45.21,9.76-3.48,13.54-13.05,15.82a148,148,0,0,1-34.53,4c-4,0-7.11-1.08-7.22-5.74-.28-11.62-7.8-17.34-17.21-21.81-2.66-1.26-8-1.59-6.55-5.67,1.69-4.77,3-11.07,10.28-11.52,12.37-.76,23.1-6.93,34.56-10.71,1.61-.53,3.77-1.28,2.91-3.6-1.14-3.07-3.26-1.09-5-.53-11.94,3.88-23.21,9.5-36.13,10.78-7.21.71-9.65,8.71-11.4,14.77-2.17,7.5-4.72,14.91-4,23.37.88,10-3.49,13-13.47,13.93-9.79.89-19.53,2.43-29.29,3.73-10.61,1.41-14.24-.87-16.78-11.32a95.19,95.19,0,0,0-7.92-21.17c-4.3-8.42-10.6-11.71-19.68-10.3-16.65,2.57-33.56.41-50.29,3.43-12.38,2.24-24.71,5.05-37.34,6.19-7.13.64-12.1,6.14-15.85,12-3.95,6.16-9.12,8.24-16.14,6.76a107.41,107.41,0,0,0-12-1.83c-11.64-1.09-21-4.85-24.12-17.77-.72-3-3.19-5.74-5.39-8.12-2.66-2.88-1.25-5.87-.57-8.54.79-3.08,4-2.16,6.43-2.33,26.55-1.84,53.26.29,79.74-2.67,28.36-3.17,56.72-7.32,82.69-19.87,30.58-14.79,57.41-34.5,74.86-64.66,3.42-5.91,5.9-6,8.85-.06,5.73,11.54,17.13,14.34,27.9,17.67,19.94,6.18,40.3,6.42,60.72,2.68,12.79-2.35,23.53-8.78,33.05-17.44C453.2,234.49,455.7,232.25,458.2,230Z"/><path class="cls-2" d="M395.3,251.74c-19.43.57-34.94-3.37-50.16-9.24-8.9-3.44-11.78-12.09-17.37-18.38-1.12-1.27.35-2.37,1-3.31,13.21-20.27,25.32-41.35,44-57.43,16.19-13.9,34.42-21.95,56.11-19.49,15,1.7,26.36,10,35.47,21.58,2.22,2.83,2.27,6.57,2.95,10a94.16,94.16,0,0,1,.92,27.16,31.72,31.72,0,0,1-8.64,19.38C441.22,241.35,420.18,254.27,395.3,251.74Z"/><path class="cls-1" d="M197,367.11c-1.51-.08-3-.14-4.53-.25-18.49-1.37-19.79-2.45-26.54-19.85-1.12-2.87-.24-3.53,2.18-4a377,377,0,0,1,48.6-6.44c5.65-.41,6.92,2.13,3.54,6.59a68.51,68.51,0,0,0-8,14.51C208.11,367.34,207.5,367.68,197,367.11Z"/><path class="cls-1" d="M56.63,303.86c2,7.93,5.93,13.55,12.61,17,2.46,1.27,2.73,3.55,1.68,5.84-1.43,3.16-4.32,4.25-7.48,3.92-10-1-20-2.28-28.57-9.74A194.77,194.77,0,0,0,56.63,303.86Z"/><path class="cls-3" d="M417.16,220.67c-12.65-.29-24.32-4-35.29-10.13-2-1.12-5.88-2-4.35-5,1.74-3.44,4.35-.16,6.28.85,8.33,4.33,16.94,7.74,26.31,9.06,14.35,2,27-1.32,37.78-11.29,1.51-1.39,3.18-4.44,5.46-1.77,2.08,2.45-1,3.93-2.46,5.36C441.45,216.67,430.08,220.72,417.16,220.67Z"/><path class="cls-4" d="M441.63,191.08c-4.42-1.05-12.71.53-13-3.31-.4-5,7.73-4,12-5.91,1.83-.83,5.23-2.72,5.87-.08.57,2.42,0,5.51,0,8.33C446.55,191.82,443.55,190.81,441.63,191.08Z"/><path class="cls-5" d="M389.15,191.7c-3.34.54-6.06,0-5.52-.83,2-3.09-.6-5.78,0-8.4.33-1.38,2.68-.86,4.11-.45,4.11,1.17,8.2,2.39,12.26,3.71,1.18.38,2.48,1.07,2.43,2.54-.07,1.84-1.52,2.38-3.11,2.52C395.35,191.16,391.34,191.51,389.15,191.7Z"/></svg>