<svg xmlns="http://www.w3.org/2000/svg" viewBox="0 0 71.81 42.61"><defs><style>.cls-1{fill:#ba88f8;}.cls-2{fill:#020202;}.cls-3{fill:#0d0a11;}.cls-4{fill:#0c0910;}.cls-5{fill:#e8888f;}</style></defs><g id="레이어_2" data-name="레이어 2"><g id="레이어_1-2" data-name="레이어 1"><path d="M20.36,10.82c4.35-4.51,10.41-5.2,15.1-1.69,2.31-4.21,6.61-5.38,10.66-6.71a48.34,48.34,0,0,1,19-2.27,12.74,12.74,0,0,1,5,1.21c2,1.05,2.26,2.3.69,4a65.69,65.69,0,0,1-8.32,6.83c-3.15,2.38-6.36,4.69-9.29,7.34-2.76,2.49-2.94,3.15-1.61,6.64.91,2.38,2,4.7,2.81,7.1,1.13,3.2.17,5.35-2.94,6.64-3.58,1.49-7.38,1.57-11.18,1.45a3.74,3.74,0,0,1-2.49-1.54,3.84,3.84,0,0,1-.74-.93c-1.27-2.71-3.67-3.21-6.29-3.21a26.18,26.18,0,0,0-6.43.43,6.29,6.29,0,0,0-4,3,22.53,22.53,0,0,1-1.59,2.39c-1.15,1.45-2.48,1.56-3.92.37a8.41,8.41,0,0,1-2.39-3.67A29.46,29.46,0,0,1,10.77,25.3c.09-1.23.3-2.45.49-3.67S11.18,20.08,10,20a13.68,13.68,0,0,1-6.5-1.77C1.37,16.89-.17,15.14,0,12.41A6,6,0,0,1,2.82,7.89c3.89-2.79,10.86-2.95,14.9-.35A6.1,6.1,0,0,1,20.36,10.82Z"/><path class="cls-1" d="M70.87,2.93c-1.9.15-3.53.35-5.17.38A6.24,6.24,0,0,0,61.51,5c-1.44,1.25-2.86,2.79-4.58,3.39s-3.72.28-5.58.14a5.64,5.64,0,0,0-5,1.77A14.64,14.64,0,0,1,45,11.34c-.28.24-.86.47-.48.9s.74-.11,1-.37A7.83,7.83,0,0,1,53,9.25a8.23,8.23,0,0,0,7.63-2.61,8.62,8.62,0,0,1,7-2.73,24.93,24.93,0,0,0,3.33-.25A5.87,5.87,0,0,1,69.09,6C65,9.59,60.42,12.61,56.14,16a55.12,55.12,0,0,0-4.67,4.11,4.18,4.18,0,0,0-1.16,4.67C51,27,52,29.08,52.86,31.23a30.78,30.78,0,0,1,1,2.93,3.52,3.52,0,0,1-1.73,4.49,13.3,13.3,0,0,1-5.79,1.73c-1.67.18-3.35.15-5,.29a3.16,3.16,0,0,1-2.75-1.15A8.69,8.69,0,0,1,37.28,38a5.52,5.52,0,0,0-5-2.95,28.93,28.93,0,0,0-8.1.34,6.8,6.8,0,0,0-4.59,3.36,18.91,18.91,0,0,1-1.44,2.2c-.92,1.2-1.79,1.27-2.94.29A8.15,8.15,0,0,1,13,37.7a30.34,30.34,0,0,1-1.07-15.81c.31-1.82-.17-2.46-2-2.62a13,13,0,0,1-6.24-1.83A6.24,6.24,0,0,1,.85,14c-.17-.58-.11-1,.6-1.13l.12,0c3.61-1.29,3.64-1.33,7,1.09a2.32,2.32,0,0,0,2.7.34c.78-.39,1.64-.61,2.45-.95.28-.12.85-.14.63-.65s-.64-.12-.94,0c-.9.31-1.81.62-2.68,1a1.29,1.29,0,0,1-1.43-.15c-1-.72-2.08-1.34-3.05-2.11a1.75,1.75,0,0,0-2-.24c-.92.37-1.89.64-2.83.95-.57.19-.74,0-.55-.57a6.13,6.13,0,0,1,2.29-3c3.63-2.66,10.33-2.85,14.11-.38A5.4,5.4,0,0,1,19.15,10a2.48,2.48,0,0,1,.09,2.9c-.21.32-.75.84-.24,1.11s.71-.48.89-.84a8.79,8.79,0,0,1,6.56-5.24c3.39-.58,6.61-.22,9.2,2.43a14.27,14.27,0,0,0,1.18,1c.19.15.43.29.62,0s0-.43-.15-.62c-.36-.4-1.16-.6-1.08-1.17a4.22,4.22,0,0,1,1.2-2A12.44,12.44,0,0,1,42,4.79,46.9,46.9,0,0,1,66.64,1.1,6.44,6.44,0,0,1,70.87,2.93Z"/><path class="cls-2" d="M28.75,25a6.68,6.68,0,0,1-4.45-2,3.77,3.77,0,0,0-3-1.52c-.28,0-.65-.05-.64-.38s.43-.38.73-.34a11.63,11.63,0,0,0,4.16,0c.38-.09.87-.09,1.13-.32,1.07-.95,1.91-.51,3,.13a5.22,5.22,0,0,0,5.56.15c.27-.15.6-.39.8,0s-.23.54-.44.59c-1.44.35-2.25,1.56-3.33,2.39A5.77,5.77,0,0,1,28.75,25Z"/><path class="cls-3" d="M31.79,16.12a6.2,6.2,0,0,1,2,1.37c.25.33-.18.54-.44.4a12.21,12.21,0,0,1-1.9-1.21C31.14,16.43,31.4,16.2,31.79,16.12Z"/><path class="cls-4" d="M25.55,16.53c-.3.53-.94.61-1.44.87-.3.16-.61.43-1,.19a.24.24,0,0,1-.05-.4,5.28,5.28,0,0,1,2.21-1C25.46,16.13,25.54,16.3,25.55,16.53Z"/><path class="cls-5" d="M24.23,21.75a7.87,7.87,0,0,0,3.53-1c.29-.2.52-.05.75.11a8.35,8.35,0,0,0,4.13,1.36C30.36,25.14,26.46,24.9,24.23,21.75Z"/></g></g></svg>