<svg id="레이어_1" data-name="레이어 1" xmlns="http://www.w3.org/2000/svg" viewBox="0 0 500 500"><defs><style>.cls-1{fill:#656765;}.cls-2{fill:#686a68;}.cls-3{fill:#000401;}.cls-4{fill:#8bc771;}.cls-5{fill:#fee14f;}.cls-6{fill:#8bc770;}.cls-7{fill:#f9f6e2;}.cls-8{fill:#fde04e;}.cls-9{fill:#010502;}</style></defs><path class="cls-1" d="M212.19,429a.72.72,0,0,0-.07-.43,2.94,2.94,0,0,1,2.54.43Z"/><path class="cls-2" d="M220.15,428.51a.44.44,0,0,0-.05.44h-2.47A3,3,0,0,1,220.15,428.51Z"/><path class="cls-3" d="M217.51,428.83h-3c-.83-.52-1.75-.14-2.63-.26a19.18,19.18,0,0,1-7-1.37c-5.2-2.08-10.63-3.59-15.38-6.69a45.16,45.16,0,0,1-5.48-4.23,8.08,8.08,0,0,1-2.92-4.5,9,9,0,0,0-3.16-5.09c-5.12-4.8-10.07-9.78-13.72-15.86a53.9,53.9,0,0,1-8.14-26.68,331,331,0,0,1,.54-33.64c.87-11.78,3.13-23.39,4.95-35.06,2.57-16.51,7-32.62,9.9-49,3.86-22.21,9.95-43.84,17.05-65.14,6.6-19.81,13.89-39.42,23.19-58.18,2.6-5.25,5.77-10.2,7.88-15.7,1.95-5.06,3.36-10.19,3.11-15.67,0-.42,0-.83,0-1.24.12-1.77.83-3.06,2.76-3.2,1.69-.14,2.82,1.09,3,3.21a35.54,35.54,0,0,1-2.76,17.21c-3.43,7.72-4.33,15.85-4.65,24.15-.15,3.87-.57,7.73-.48,11.24,2.25-5.68,4.62-11.72,8.22-17.2,5.34-8.14,10.19-16.64,16.68-23.95,5.69-6.42,11.51-12.72,17.78-18.58A28.28,28.28,0,0,0,269,76.24c.65-1.21,1.52-2.22,3.06-2.13a2.76,2.76,0,0,1,2.21,4.07c-3.47,8-2.61,16.65-4.15,24.93a41.73,41.73,0,0,0-.1,14.06c.05.32,0,.68.45.93a19.71,19.71,0,0,0,2.95-4.2A163.4,163.4,0,0,1,284.9,95.46c3-4.38,6.2-8.72,9.13-13.19a26.42,26.42,0,0,1,9.18-8.8c4.61-2.62,9.49-2.35,14.42-2.22a19.68,19.68,0,0,1,7.16,1.69c2.44,1,4.51,2.38,5.45,5a5.63,5.63,0,0,0,1.67,2.12,11.59,11.59,0,0,1,3.78,8.12c.24,6.6,1.15,13.18,1,19.76-.12,6.91-.56,13.83-1.17,20.73-.36,4.06-1,8.16-.59,12.57,1.65-.93,2.81-2.13,4.2-3,2.65-1.59,3.72-1.28,4.89,1.52v1c-1.26,4.87-2.56,9.74-2.29,14.83.5,9.3-1.23,18.43-2.05,27.63-.89,9.86-1.85,19.71-3.35,29.5-2.2,14.38-4.78,28.67-8.84,42.66-2.56,8.8-4.42,17.79-7.17,26.55-3.22,10.25-7,20.31-11.06,30.22-6.27,15.19-12.46,30.42-19.84,45.1a160.55,160.55,0,0,1-19.28,30.49,121.21,121.21,0,0,1-33.75,28.27,29.25,29.25,0,0,1-5.29,2.05,2.22,2.22,0,0,0-1.71,2.1c-.69,5.87-3.27,8.14-9.3,8.35C219.25,428.69,218.34,428.31,217.51,428.83Z"/><path class="cls-4" d="M215.64,127.17c-.58,12.88.9,25.82-2.68,38.37-2.94,10.32-3.65,20.91-3.79,31.58-.11,8.09-1,16.14-1.71,24.19a36.42,36.42,0,0,0,.1,5.43c.49,8.82-.68,17.58-.72,26.38,0,5.83-.31,11.65,0,17.51.18,3.21,0,6.66,0,10-.13,14.2-.25,28.39,0,42.59.21,11.29,1,22.63.13,33.9-.61,8.23-.82,16.51-1,24.7-.17,7.49-4.45,12.75-6.65,19.08-.36,1-1.14.72-1.85.56-4.83-1.1-9.49-1.16-13.53,2.31-.85.74-1.34.09-1.88-.37-13.91-11.91-21.45-26.74-21.4-45.38a346.36,346.36,0,0,1,5.37-57.57c4.37-25.53,9.69-50.87,15.52-76.07C189,192.2,200.16,161.17,213.71,131,214.3,129.72,215,128.46,215.64,127.17Z"/><path class="cls-5" d="M281,138.89a9.35,9.35,0,0,0-5.95-1.46c-3,.06-5.75-1.33-8.67-1.79-1.1-.18-.69-.91-.4-1.46,2.23-4.22,3.47-9,7.66-12.09a15.84,15.84,0,0,0,4.62-6.33,119.84,119.84,0,0,1,8.25-14.05,3.18,3.18,0,0,1,3.76-1.52,10.9,10.9,0,0,1,4.65,2.15c1.57,1.24,2.75,2.63,1.48,4.8a4.18,4.18,0,0,0-.41,1.41,2.16,2.16,0,0,0,4.18,1.09,54.55,54.55,0,0,1,4.47-10.14c.68-1.25.64-2.51-.69-3.19a2.17,2.17,0,0,0-3.14,1c-.46.87-.95,1.72-1.54,2.78-2.3-1.87-4.66-3.57-7.63-4.13-1.07-.2-.69-1-.3-1.5,4-4.64,6.74-10.23,11.27-14.37,5.44-5,15.18-5.64,21.51-1.84,1.66,1,1.27,2.32.87,3.66a64.81,64.81,0,0,0-3,16,7.28,7.28,0,0,0,0,1.47c.22,1.28.95,2.2,2.3,2.11a2.06,2.06,0,0,0,2.05-2.29,52.62,52.62,0,0,1,2.54-14.43c1.43.89,1.62,2.36,1.7,3.64.46,7.31.78,14.64,1.16,22.38-1.75-1.11-3.2-2.09-4.72-3-3.53-2.08-7.24-3.46-11.47-2.88-1.54.21-2.59.85-2.44,2.44s1.46,2,2.93,1.86c6.1-.55,10.18,3.59,14.79,6.46.72.44.47,1.33.4,2.07-1.23,14.7-1.74,29.47-3.81,44.1-.78,5.57-.45,11.21-.9,16.79-.79,9.65-3.45,18.94-5.72,28.29-3.21,13.28-6.75,26.47-11.9,39.16-.3.75-.64,1.5-1.06,2.48-1.25-1.78-2.59-3.12-4.78-3.13-.91,0-1.13-.89-1.42-1.54-2.49-5.54-6.86-7.93-12.79-7.86-.75,0-2.41.58-1.52-1.37,2.7-5.94,3.91-12.38,6.35-18.41.12-.3.2-.63.34-.92.58-1.19.53-3.48,1.75-3.39,2.1.15,4.51.83,5.61,3.06a3.89,3.89,0,0,0,3.35,2.39c2.4.36,4.22,1.55,4.81,4.26.4,1.85,1.93,2.63,3.79,2.38a2.16,2.16,0,0,0,1.5-3.39c-2.35-3.3-4.35-7-9-7.63a1.29,1.29,0,0,1-.76-.59c-1.55-2.61-4.12-3.7-6.83-4.51-1.17-.34-1.39-.89-1-2,3.34-9.38,5.91-19,8.66-28.56.21-.73.26-1.61,1.32-1.28,1.56.48,3.62.11,4.28,2.28.14.46.07,1,.22,1.46a2,2,0,0,0,2.2,1.57,2.06,2.06,0,0,0,2-2.05c.42-3.45-1.87-6.54-6-7.16-2.37-.36-2.48-1.11-1.9-3.1,1.42-4.81,2.7-9.66,3.91-14.53.42-1.72,1.12-2.09,2.71-1.36a21.17,21.17,0,0,1,5.82,4.5c1.19,1.17,2.44,2,3.79.58,1.19-1.28.5-2.52-.62-3.64-2.58-2.58-5.17-5.12-8.88-6-1.17-.27-.89-.94-.63-1.68.57-1.62.42-3.1-1.47-3.52s-2.4.95-2.81,2.42C306,160.13,302,174.31,298.1,188.5c-3.54,12.95-8.61,25.38-12.54,38.19-.45,1.47-.92,2.94-1.46,4.66-1.91-1.93-3.53-3.82-5.8-4.87a18.88,18.88,0,0,0-3.44-1.31c-3.62-.88-3.63-.84-2.27-4.39,1.74-4.53,3.42-9.08,5.22-13.59.42-1,.16-2.91,1.72-2.84,1.82.07,3.81.43,5,2.27.35.56.57,1.19.91,1.75a2.07,2.07,0,0,0,3,.82,2,2,0,0,0,.95-2.73,8.65,8.65,0,0,0-6.87-6.06c-2-.34-2.1-1-1.56-2.76a164.15,164.15,0,0,1,13-30.31,3.77,3.77,0,0,1,1.32-1.73c1.34-.78,1.92-2,.84-3.28s-2.65-1-4-.19a6.47,6.47,0,0,0-1.81,2.6c-6.7,11.79-11.38,24.4-15.48,37.29-2.36,7.41-5.34,14.61-8.06,22-5-4.49-6.38-5.12-13.31-6,.8-3.92,2.85-7.29,4.55-10.81,1-2.15,2.11-4.28,3.09-6.46a3.9,3.9,0,0,1,6.58-1,2.31,2.31,0,0,1,.45.59c.75,1.61,1.9,2.81,3.63,1.66s.87-3-.05-4.34c-1.93-2.91-5-3.83-8.18-3.7-4.24.17-8.25-1.73-12.49-1-.7.11-1-.45-1.41-.84a7.65,7.65,0,0,0-8.21-1.83,15.92,15.92,0,0,1-7.44.43,65.42,65.42,0,0,1,7.43-16.31c1.79-3,3.69-5.86,5.41-8.86a3,3,0,0,1,2.73-1.7c3.24-.08,6.57-.93,9.45,1.56.86.74,2,.33,2.91-.46,1.63-1.39,6.05-.8,7.19.88a.68.68,0,0,1-.07.88c-1.51,2.31-1.5,5.37-3.73,7.34a2,2,0,0,0-.44,2.49c.57,1.25,1.74,1.23,2.73,1.27a2.4,2.4,0,0,0,2.59-1.86,60.7,60.7,0,0,1,3.16-8c.64-1.52,1.45-1.82,3-1.52,2.47.47,4.81,1,6.57,3a2.13,2.13,0,0,0,3.28.26c1.15-1.1.81-2.41-.21-3.5a13.12,13.12,0,0,0-8.52-4c-1.23-.13-1.78-.25-1.18-1.72,2.18-5.33,4.27-10.69,6.32-16.07.31-.82.67-1.21,1.56-1.16,3.75.24,7.44.56,9.76,4.19.76,1.19,1.86,1.69,3.14.82s1.23-2.18.42-3.46a12,12,0,0,0-8.45-5.41c-1-.2-2.1-.38-3.24-.58,1.68-4.74,4.31-8.83,6.84-13a1.82,1.82,0,0,1,.85-.8c3.29-1.18,9.68,1,11.54,4.1,1.22,2,3,2.08,4.95,1.78a1.85,1.85,0,0,0,1.49-1.77c.1-1-.24-2-1.22-2.17-1.4-.27-2-1.3-2.76-2.24-2.64-3.28-6.42-3.76-10.22-4.06-6.44-.52-6.42-.47-9.81,5.09A61,61,0,0,0,281,138.89Z"/><path class="cls-4" d="M336.68,147c.69,13.8-1.39,27.28-2.58,40.83a404.67,404.67,0,0,1-7.88,52.07c-9.43,42.67-24.93,83.13-45,121.83-10.64,20.5-25.57,37.11-45.61,48.89a49.51,49.51,0,0,1-8.42,3.45,2.23,2.23,0,0,1-2.29-.4c-5.95-4.44-12.73-7.18-19.67-9.53-1.67-.57-2.14-1.2-1.17-2.71a6.53,6.53,0,0,0,.6-1.35c1.77-4.7,3.9-7.74,10.13-7.92,13.94-.4,23.78-9,32.28-19.19a200.06,200.06,0,0,0,25.06-37.3c5.16-10.12,10.65-20.06,15.72-30.22,4.54-9.12,9.52-18,12.8-27.72,2.53-7.44,6.8-14.08,9.21-21.61s5.82-14.53,8.1-22a427.66,427.66,0,0,0,12.48-50.61c1.1-6.29.5-12.69,1.21-19,.43-3.77.95-7.54,1.21-11.32C333,150.23,334.81,148.58,336.68,147Z"/><path class="cls-6" d="M267,87.74c-.58,3.66-1.21,7.31-1.74,11a79,79,0,0,0,0,23.44,8,8,0,0,1-.71,4.75c-2.83,6.28-6.06,12.26-10.87,17.28a15.36,15.36,0,0,0-2.81,4.06c-5,10.71-12.12,20.26-17.06,30.93-4.25,9.19-8.67,18.29-13,27.45a25,25,0,0,0-2.78,10.44,1.7,1.7,0,0,1-.46,1.34c-2.27,2.23-3.55,5.13-5.34,8-1.07-2.61-.36-5.1-.14-7.5q1.53-16.65,1.85-33.37c.13-7.23,2.38-14.12,3.74-21.16.26-1.37.64-2.74.78-4.13a16.76,16.76,0,0,1,3.61-9c2.49-3.15,3.52-7.06,5.12-10.66A152.09,152.09,0,0,1,253,101.43c3.49-4,7.25-7.67,10.91-11.47.84-.87,1.76-1.67,2.64-2.5Z"/><path class="cls-5" d="M285.43,299.74c-.48-4.13-2.45-6.3-5.92-7.17a7.07,7.07,0,0,1-4.17-3.28,8.08,8.08,0,0,0-5.59-3.69,10,10,0,0,1-5.73-3A21.54,21.54,0,0,0,253.51,277c-1.66-.42-2.23-.95-1.59-2.83,2.66-7.78,5.82-15.36,9-22.93a2,2,0,0,1,2-1.35c4.65-.3,8.26,1.78,11.44,4.85a10.88,10.88,0,0,0,6.11,3.33c2.93.44,5,2.39,6.46,4.94,1.06,1.88,2.26,3.14,4.67,3.44,3.1.4,6.14,6.57,5,9.47-2.68,6.55-5.08,13.22-8.49,19.44C287.37,296.66,286.52,297.94,285.43,299.74Z"/><path class="cls-5" d="M210.94,364.68a156.69,156.69,0,0,0,.68-16.21c0-7.59-.88-15.16-.09-22.75a9.5,9.5,0,0,1,2.6-6c2.62-2.68,6.31-2.55,8.55.45,1.09,1.45,2.22,2.49,3.81,1.19s.56-2.85-.42-4.12a9.61,9.61,0,0,0-7-3.72c-1.64-.16-1.72-.72-1.14-2,1.2-2.61,2.35-5.25,3.52-7.88.64-1.43,1.13-2.94-.74-3.77s-2.7.45-3.28,2c-1.6,4.1-4.36,7.79-4.42,12.45,0,1-1,1.22-1.74,1.84a24.79,24.79,0,0,1-.31-5.85c0-4.79.12-9.58.06-14.37a2.12,2.12,0,0,1,1.73-2.44c2.76-.9,5.27-.64,7.27,1.5,1.51,1.63,3.24,1.71,5.18,1.4a9,9,0,0,1,10.36,6,3.56,3.56,0,0,1-.19,2.39c-1.63,5.63-4.54,10.75-6.6,16.21-1.19,3.14-2,6.62-3.48,9.4-4.67,8.59-5.23,18.71-10.7,26.94-1.46,2.19-2,5-3,7.46Z"/><path class="cls-5" d="M228.75,270.61c-2.81-2.5-5.68-3.63-9.54-2.76-2.38.54-5-1.07-7.69-.26-.64.19-.56-.67-.55-1.11.06-7.59.26-15.17.72-22.75.06-.91.33-1.27,1.29-1.34a11.32,11.32,0,0,0,5.56-1.84c1.73-1.14,3.56-.37,5.26.08,3.57,1,7.08,1.87,10.88,1.41,2.57-.32,4.08,2.15,3.17,4.52-2.84,7.45-5.63,14.92-8.45,22.38C229.2,269.47,229,270,228.75,270.61Z"/><path class="cls-5" d="M238.68,298.4a4.36,4.36,0,0,1-.57-.52C235,293.14,230.6,291.2,225,292a3.06,3.06,0,0,1-2.66-.8,9.58,9.58,0,0,0-9.15-2.27c-1.47.39-2.13.26-2.13-1.61,0-4.19.48-8.39-.2-12.59-.31-1.93,1.19-3.16,3.6-2.93s5,1.29,7.67.18c1.26-.51,2.65,1.09,3.71,2.1a6,6,0,0,0,6.37,1.78c4.84-1.25,8.71,1.34,12.24,4.37.91.78.29,1.74.08,2.53A99.11,99.11,0,0,1,240.11,295C239.65,296.09,239.18,297.21,238.68,298.4Z"/><path class="cls-5" d="M222.92,214.83a25.23,25.23,0,0,1,2.7-8c1.7-3.56,3.67-7,5.41-10.53a2,2,0,0,1,2.52-1.27,16.41,16.41,0,0,0,8.51-.43c2.22-.73,4.18-.57,5.28,2.05.57,1.37,1.88,1.46,3.17,1a10.75,10.75,0,0,1,4.88-.27c1.55.18,2.34.61,1.34,2.41-1.68,3-3.19,6.13-4.64,9.26a51.86,51.86,0,0,0-2.71,6.87c-.47,1.54-.85,2.14-2.43,1.11a6,6,0,0,0-3.17-1.2C236.84,216.17,230,214.17,222.92,214.83Z"/><path class="cls-5" d="M258.15,350.46c-.44-2-.64-3.35-1.07-4.66-1.4-4.2-4.71-6.19-8.72-7.15-1.41-.34-1.71-.71-1.11-2.09,3.52-8.06,7-16.15,10.41-24.24.46-1.07.85-1.54,2.15-1,2,.81,3.84,1.67,5,3.7,1.51,2.62,3.93,4.43,6.27,6.26,1.48,1.16,1.74,2.18,1,4.14C268.69,334.26,263.22,341.89,258.15,350.46Z"/><path class="cls-5" d="M240.52,240.05a8.86,8.86,0,0,0-8.45-2.24c-1.95.39-4-.64-6-1.18-3.78-1-7.56-1.84-11.09.81a2.51,2.51,0,0,1-.7.24c-.79.27-1.75.63-2.36.1s-.17-1.68.19-2.26c2.95-4.73,5.18-10,8.95-14.12,2.75-3,6.54-2.84,10.15-1.91a15.62,15.62,0,0,0,7.28.42,8.79,8.79,0,0,1,2.71-.06c4.93.55,5.62,1.6,4,6.23S242.61,235.42,240.52,240.05Z"/><path class="cls-5" d="M210.11,384.18c0-4.2,1.19-8.32.86-12.54a1.35,1.35,0,0,1,1-1.47,8.58,8.58,0,0,0,4.58-5.83c1.06-3.86,3.38-7.11,4.9-10.74.53-1.27,1.49-1.16,2.44-1.05,3.63.42,6.47,2.68,9.56,4.33,1.11.59.12,1.51-.17,2.13a165.36,165.36,0,0,1-12.07,21.75c-.87,1.3-2,2.49-2.23,4.08-.27,2.29-1.61,3-3.64,2.94a4.46,4.46,0,0,0-.73.13C210.2,388.59,210.2,388.59,210.11,384.18Z"/><path class="cls-5" d="M246.65,276.15c-3.94-3.06-8-5.3-13.09-5a12.18,12.18,0,0,1,.39-1.79c3.19-8,5.79-16.25,9.25-24.16a2.42,2.42,0,0,1,2.75-1.74,22.79,22.79,0,0,1,10.66,3.43c.7.43,1.09.81.67,1.76A258.66,258.66,0,0,0,246.65,276.15Z"/><path class="cls-5" d="M242.79,335.82c-2.65-3.91-6.36-5.37-10.27-6-2.5-.39-2.22-1.2-1.45-2.93,2.35-5.34,4.57-10.74,6.89-16.09A27.92,27.92,0,0,0,240.1,304c.29-1.85,1.47-2.18,2.82-1.74a21.88,21.88,0,0,1,10.43,7.12c.53.65.28,1.21,0,1.83Z"/><path class="cls-7" d="M215.67,424.41c-5.73-.37-11-2.93-16.47-4.93a32.22,32.22,0,0,1-11.32-6.81c-1.11-1.06-2.47-2.13-1.81-4a4.83,4.83,0,0,1,4.09-3.13,11.37,11.37,0,0,1,5.38,0c9.2,3,18.47,5.81,26.52,11.5a4.09,4.09,0,0,1,2.08,3.88c-.17,1.87-1.79,2.19-3.17,2.65a18.56,18.56,0,0,1-2.89.62C217.36,424.35,216.61,424.35,215.67,424.41Z"/><path class="cls-5" d="M283.26,304.26l-.48,1c-2.12,4.17-4.26,8.32-6.36,12.5-.57,1.16-1,1.63-2.19.46-2.36-2.27-5-4.22-6.79-7.08a9.41,9.41,0,0,0-5.85-3.84c-1.39-.36-1.8-.92-1.19-2.41,1.94-4.7,3.7-9.47,5.56-14.2.58-1.46,3.8-1.4,5.07.38a15,15,0,0,0,8.53,6.27,1,1,0,0,1,.61.38C281.22,299.9,281.34,302.51,283.26,304.26Z"/><path class="cls-5" d="M250.51,159.16c2.21-5.95,5.71-10.74,9.3-15.59,2.77-3.74,5.58-4.32,9.54-2.72a17.08,17.08,0,0,0,7,1c1.57,0,2.29.49,1.56,2.27-2.23,5.49-4.42,11-6.49,16.54-.53,1.43-1.14.73-1.81.41-1.85-.87-3.82-2.56-5.73-1.82-3.37,1.31-6.46.16-9.66-.11C253.12,159.08,252,159.16,250.51,159.16Z"/><path class="cls-5" d="M299.86,268.36c-1.72-2.1-2.7-4.8-5.17-5.49-2.7-.75-4.16-2.53-5.68-4.58a11.56,11.56,0,0,0-6.44-4.32c-1.37-.37-1.65-.64-1.05-2.08,1.35-3.17,2.45-6.45,3.58-9.71a2.21,2.21,0,0,1,2.41-1.77c5.12-.25,8.78,1.48,10.67,6.5a4.4,4.4,0,0,0,3.52,2.83c1.34.18,1.81,1.15,2.67,1.82,1.82,1.4,1.32,2.77.64,4.44C303.37,260,302.17,264.24,299.86,268.36Z"/><path class="cls-5" d="M257.12,351.76A214,214,0,0,1,243.73,370c-.73.92-1.23,1-2.12.15a18.39,18.39,0,0,0-3.14-2.38c-3.31-2.13-3.24-2.07-1.65-5.82q3.68-8.75,7.12-17.59c.64-1.66,1.38-1.94,3.08-1.5,3.62.95,6.12,2.81,6.45,6.76C253.67,352,255.26,351.91,257.12,351.76Z"/><path class="cls-5" d="M255.51,305.17c-3.26-3.85-7.49-5.65-11.69-7.51,2-5.23,4.42-10.28,5.41-15.83.14-.81.41-1.47,1.43-1.17,4,1.2,8,2.56,11,5.77a1.75,1.75,0,0,1,.37,2.17C259.86,294,257.76,299.42,255.51,305.17Z"/><path class="cls-5" d="M262.76,245.37c1.94-4.71,3.8-9.25,5.68-13.78.89-2.16,2.33-2.76,4.7-2.27,4.3.88,6.75,3.79,8.9,7.2a1.33,1.33,0,0,1,.15,1.39c-2,3.82-2.93,8-4.51,12-.34.84-.73,1.15-1.56.42A18.52,18.52,0,0,0,262.76,245.37Z"/><path class="cls-5" d="M245.77,239c1.68-5.14,3.32-10.1,4.91-15.08.34-1.07,1-1.24,2-1.3,4.94-.27,8.71,1.79,11.65,5.65a1.08,1.08,0,0,1,.17,1.28c-1.68,4-3.31,8.05-5,12.06-.28.67-.4,1.68-1.67.92A27.86,27.86,0,0,0,245.77,239Z"/><path class="cls-5" d="M230.21,333.87a13.92,13.92,0,0,1,10.22,5.76c.51.67.24,1.18,0,1.81-1.4,3.42-2.83,6.84-4.11,10.31-.48,1.28-1,1.15-1.94.57-3-1.87-6.08-3.64-9.66-4.13-1-.14-1-.57-.74-1.3,1.14-3.6,2.25-7.22,3.42-10.81A2.67,2.67,0,0,1,230.21,333.87Z"/><path class="cls-8" d="M223.22,385.57a106.19,106.19,0,0,0,9.09-14.91c.47-.88,1-1,1.72-.41a1.63,1.63,0,0,0,.23.11c6.31,3.27,6.38,3.81,1,8.22a77.3,77.3,0,0,1-9.34,6.42A2.93,2.93,0,0,1,223.22,385.57Z"/><path class="cls-9" d="M327.39,139.22a1.86,1.86,0,0,1-1.35,2.1,2,2,0,0,1-2.56-.9,11.63,11.63,0,0,0-5.92-5.94c-1.66-.71-2.11-3.4-1-4.45,1.51-1.39,2.47-.33,3.92.65a18.46,18.46,0,0,1,6,6A4.86,4.86,0,0,1,327.39,139.22Z"/></svg>