<svg id="레이어_1" data-name="레이어 1" xmlns="http://www.w3.org/2000/svg" viewBox="0 0 500 500"><defs><style>.cls-1{fill:none;}.cls-2{fill:#fecf00;}.cls-2,.cls-3,.cls-4,.cls-5,.cls-6,.cls-7{stroke:#000;stroke-miterlimit:10;stroke-width:3px;}.cls-3{fill:#3faafe;}.cls-4{fill:#190200;}.cls-6{fill:#00b31e;}.cls-7{fill:#fe2d0a;}</style></defs><path class="cls-1" d="M336.33,228.92a56.58,56.58,0,0,0-14.4,0,73.61,73.61,0,0,1-50.5,55.19c0,.7-.05,1.39-.05,2.1a57.75,57.75,0,0,0,115.5,0c0-.71,0-1.4-.05-2.1A73.61,73.61,0,0,1,336.33,228.92Z"/><path class="cls-1" d="M401.07,271.08a58.67,58.67,0,0,0,7.19.46,57.75,57.75,0,1,0-57.75-57.75c0,.71,0,1.4.05,2.1A73.63,73.63,0,0,1,401.07,271.08Z"/><path class="cls-1" d="M307.7,215.89c0-.7.05-1.39.05-2.1a57.75,57.75,0,1,0-115.5,0c0,.71,0,1.4.05,2.1a73.61,73.61,0,0,1,50.5,55.19,56.58,56.58,0,0,0,14.4,0A73.61,73.61,0,0,1,307.7,215.89Z"/><path class="cls-1" d="M354.23,234.18a57.91,57.91,0,0,0,28.94,31.64A58,58,0,0,0,354.23,234.18Z"/><path class="cls-1" d="M304,234.18a58,58,0,0,0-29,31.64A58,58,0,0,0,304,234.18Z"/><path class="cls-1" d="M196,234.18a58,58,0,0,0,28.95,31.64A58,58,0,0,0,196,234.18Z"/><path class="cls-1" d="M145.77,234.18a58,58,0,0,0-28.94,31.64A57.91,57.91,0,0,0,145.77,234.18Z"/><path class="cls-1" d="M178.07,228.92a56.58,56.58,0,0,0-14.4,0,73.61,73.61,0,0,1-50.5,55.19c0,.7,0,1.39,0,2.1a57.75,57.75,0,0,0,115.5,0c0-.71,0-1.4-.05-2.1A73.61,73.61,0,0,1,178.07,228.92Z"/><path class="cls-1" d="M149.44,215.89c0-.7.05-1.39.05-2.1a57.75,57.75,0,1,0-57.75,57.75,58.67,58.67,0,0,0,7.19-.46A73.63,73.63,0,0,1,149.44,215.89Z"/><path class="cls-2" d="M228.57,284.11c0,.7.05,1.39.05,2.1a57.75,57.75,0,0,1-115.5,0c0-.71,0-1.4,0-2.1a57.67,57.67,0,0,1,32.6-49.93,57.51,57.51,0,0,0,3.67-18.29,73.42,73.42,0,0,0-52.07,70.32c0,.28,0,.56,0,.85a73.48,73.48,0,0,0,147,0A73.36,73.36,0,0,1,228.57,284.11Z"/><path class="cls-3" d="M165.22,212.94a73.49,73.49,0,1,0-73.48,74.35c1.9,0,3.78-.09,5.65-.23,0-.29,0-.57,0-.85a73.88,73.88,0,0,1,1.56-15.13,58.67,58.67,0,0,1-7.19.46,57.75,57.75,0,1,1,57.75-57.75c0,.71,0,1.4-.05,2.1a57.72,57.72,0,0,1-32.61,49.93,57.51,57.51,0,0,0-3.66,18.29,73.49,73.49,0,0,0,52.07-70.32C165.24,213.51,165.22,213.23,165.22,212.94Z"/><path class="cls-4" d="M257.2,271.08a56.58,56.58,0,0,1-14.4,0,73.19,73.19,0,0,1,1.57,15.13c0,.28,0,.56,0,.85,1.87.14,3.75.23,5.65.23s3.78-.09,5.65-.23c0-.29,0-.57,0-.85A73.19,73.19,0,0,1,257.2,271.08Z"/><path class="cls-4" d="M196,234.18a57.41,57.41,0,0,0-17.89-5.26,73.61,73.61,0,0,0,50.5,55.19,57.78,57.78,0,0,0-3.66-18.29A58,58,0,0,1,196,234.18Z"/><path class="cls-2" d="M192.3,215.89a73.36,73.36,0,0,0-15.78-2.95c-1.87-.14-3.75-.23-5.65-.23s-3.79.09-5.65.23c0,.29,0,.57,0,.85a73.89,73.89,0,0,1-1.57,15.13,56.58,56.58,0,0,1,14.4,0,57.62,57.62,0,0,1,46.84,36.9,57.41,57.41,0,0,0,17.89,5.26A73.61,73.61,0,0,0,192.3,215.89Z"/><path class="cls-4" d="M242.8,271.08a57.41,57.41,0,0,1-17.89-5.26,57.78,57.78,0,0,1,3.66,18.29,73.36,73.36,0,0,0,15.78,2.95c0-.29,0-.57,0-.85A73.19,73.19,0,0,0,242.8,271.08Z"/><path class="cls-5" d="M323.48,212.94a73.48,73.48,0,0,0-147,0,73.36,73.36,0,0,1,15.78,2.95c0-.7-.05-1.39-.05-2.1a57.75,57.75,0,1,1,115.5,0c0,.71,0,1.4-.05,2.1a57.66,57.66,0,0,1-32.61,49.93,57.78,57.78,0,0,0-3.66,18.29,73.49,73.49,0,0,0,52.07-70.32C323.5,213.51,323.48,213.23,323.48,212.94Z"/><path class="cls-6" d="M386.83,284.11c0,.7.05,1.39.05,2.1a57.75,57.75,0,0,1-115.5,0c0-.71,0-1.4.05-2.1A57.66,57.66,0,0,1,304,234.18a57.51,57.51,0,0,0,3.66-18.29,73.49,73.49,0,0,0-52.07,70.32c0,.28,0,.56,0,.85a73.48,73.48,0,0,0,147,0A73.36,73.36,0,0,1,386.83,284.11Z"/><path class="cls-7" d="M408.26,140.29a73.49,73.49,0,0,0-73.48,72.65,73.36,73.36,0,0,1,15.78,2.95c0-.7-.05-1.39-.05-2.1a57.75,57.75,0,1,1,57.75,57.75,58.67,58.67,0,0,1-7.19-.46,57.59,57.59,0,0,1-46.84-36.9,57.55,57.55,0,0,0-17.9-5.26,73.33,73.33,0,0,0,66.28,58.14c1.87.14,3.75.23,5.65.23a73.5,73.5,0,0,0,0-147Z"/><path class="cls-6" d="M350.56,215.89a73.36,73.36,0,0,0-15.78-2.95c-1.86-.14-3.75-.23-5.65-.23s-3.78.09-5.65.23c0,.29,0,.57,0,.85a73.19,73.19,0,0,1-1.57,15.13,56.58,56.58,0,0,1,14.4,0,57.59,57.59,0,0,1,46.84,36.9,57.39,57.39,0,0,0,17.9,5.26A73.63,73.63,0,0,0,350.56,215.89Z"/></svg>