<svg id="레이어_1" data-name="레이어 1" xmlns="http://www.w3.org/2000/svg" viewBox="0 0 500 500"><defs><style>.cls-1{fill:#fcfcfc;}.cls-2{fill:#c3c3c3;}.cls-3{fill:#404040;}.cls-4{fill:#424242;}.cls-5{fill:#1c6410;}.cls-6{fill:#fef6ec;}.cls-7{fill:#fbe0ac;}.cls-8{fill:#454e3e;}.cls-9{fill:#3f3d3b;}.cls-10{fill:#3f5238;}.cls-11{fill:#2e5a26;}.cls-12{fill:#41453c;}.cls-13{fill:#3f493a;}.cls-14{fill:#3e3c3a;}.cls-15{fill:#464d40;}.cls-16{fill:#3c4936;}.cls-17{fill:#2d5b24;}.cls-18{fill:#41483c;}.cls-19{fill:#42483c;}.cls-20{fill:#414a3b;}.cls-21{fill:#3d3b39;}.cls-22{fill:#394034;}.cls-23{fill:#2e5b25;}.cls-24{fill:#3d5236;}.cls-25{fill:#40473b;}.cls-26{fill:#405139;}.cls-27{fill:#2c5c23;}.cls-28{fill:#3f483a;}.cls-29{fill:#3c4337;}.cls-30{fill:#3f453a;}.cls-31{fill:#3a3836;}.cls-32{fill:#40493a;}.cls-33{fill:#2f5a26;}</style></defs><path class="cls-1" d="M126.44,66.24c-4.55,1.74-7.47,5.1-9.37,9.46,0-2.94.06-5.87,0-8.8,0-1,.18-1.25,1.2-1.21,2.74.09,5.48,0,8.22,0,.19.13.26.24.18.36S126.51,66.24,126.44,66.24Z"/><path class="cls-2" d="M126.44,66.24a2.24,2.24,0,0,0,0-.52h4.11a1.67,1.67,0,0,0,0,.5Z"/><path d="M246.77,434.14c-3.94-1.45-8.14-1.16-12.21-1.69-20.65-2.67-40.69-7.24-58.84-18a17.16,17.16,0,0,0-2.37-1.13,8.26,8.26,0,0,1-5.35-6.77c-4.39-26.39-8.61-52.79-11.11-79.45-.92-9.82-2.83-19.53-3.4-29.39-.07-1.25-.93-1.6-1.69-2.16-3.09-2.31-5.74-5-7.15-8.69-2-5.3-.46-9.94,4.42-12.73a7.8,7.8,0,0,0,2.72-2.54,100.66,100.66,0,0,1,18.79-21.2c2.9-2.5,4.29-5.95,5.91-9.3,2.13-4.42,2.2-8.08,0-13-15.67-34.5-29.09-70-43.51-105-4.94-12-10.14-23.86-13.91-36.28-.66-2.18-.73-4.54-2-6.55V75.56c1.11-5.41,4.43-8.59,9.81-9.67,1.24.09,2.49-.22,3.71.19,5.39,1,8.86,4.35,11.11,9.07,4,8.36,6.7,17.24,10.15,25.81,9.84,24.4,21.11,48.17,31.63,72.27,4.6,10.56,10.15,20.6,15.32,30.86,2.05,4,1.92,4.2,6.07,2.35,5.22-2.32,10.85-2.19,16.35-2.87a86.56,86.56,0,0,0,20.89-5.4,19.68,19.68,0,0,0,5.95-3.66c2.8-2.47,4.13-5.37,3.12-9.13a10,10,0,0,1-.24-1.73c-.28-3.4.49-4.37,3.82-4.26,10.44.33,20.62,1.52,30.7,5,32.31,11.09,56.84,31,72.76,61.43,4.26,8.13,9.22,15.87,15.81,22.41a8.2,8.2,0,0,0,1.5,1.39c3.78,2.2,6.63,5.1,7.38,9.61v1.18a18.47,18.47,0,0,0-.63,3.7c-.26,1.38-.55,3-1.66,3.66-5.75,3.26-4.73,8.95-5,14-.69,13.27-1.83,26.49-2.84,39.72-1.18,15.28-3.35,30.48-3.79,45.82a97.92,97.92,0,0,1-1.25,12.53c-.73,4.62-3.5,7.8-7.52,9.89-10.67,5.54-21.39,10.95-32.82,14.85-16.3,5.57-32.95,9-50.24,9.13-3.46,0-7-.24-10.45.5H263.2a4.48,4.48,0,0,0-3.52,0h-5.87a4.48,4.48,0,0,0-3.52,0Z"/><path class="cls-3" d="M250.29,434.14a2.6,2.6,0,0,1,3.52,0Z"/><path class="cls-4" d="M259.68,434.14a2.61,2.61,0,0,1,3.52,0Z"/><path class="cls-5" d="M257.12,429c-25.15-1.32-49.88-4.57-72.86-15.88-3-1.46-5.82-3.22-8.8-4.67-1.89-.92-2.29-2.54-2.57-4.29-1.29-8-2.62-15.94-3.82-23.93q-2.3-15.3-4.42-30.62c-2-14.36-2.75-28.88-5.2-43.19-.18-1.05-.07-2.15-.15-3.22-.29-4.21-.33-4,4-3.26,7.58,1.27,15.19,2.41,22.82,3.25,10.45,1.16,20.93,2.06,31.41,2.94s20.89.47,31.34.8c9.85.31,19.69-.16,29.53-.2a311.42,311.42,0,0,0,77.46-10c4.06-1.06,8-2.54,12-3.91,1.62-.56,2.31-.33,2.17,1.56-.59,7.87-1.1,15.74-1.65,23.61-.42,5.93-.77,11.87-1.29,17.79-.87,9.89-1.89,19.77-2.79,29.66-.5,5.43-1.14,10.86-1.27,16.31s-.7,11.08-1.24,16.61c-.3,3.11-2.42,4.83-4.9,6.12a243.75,243.75,0,0,1-30.4,13.78,172.56,172.56,0,0,1-37.2,8.65c-5,.61-10.09,1-15.15,1.18-5.64.2-11.3.05-17,.05Z"/><path class="cls-6" d="M199.54,288.49a124.3,124.3,0,0,1,19-8.66C236.29,273.39,249.9,261.72,260,246c4.56-7.12,6.06-15.36,5-23.9a12.5,12.5,0,0,0-.69-2.82,2.49,2.49,0,0,0-2.76-1.71,2.29,2.29,0,0,0-2.28,1.92c-.82,4.77-4.32,7.55-7.73,10.27-6.21,5-13.38,8.37-20.28,12.22-.85.48-1.69,1-2.55,1.43-1.48.83-2.18,2-1.37,3.63s2.35,1.92,3.95,1c9.23-5.26,19-9.64,26.94-16.93.27-.25.6-.43,1.44-1-.76,5.17-1.82,9.65-4.44,13.55-9.8,14.57-22.56,25.46-39.28,31.5a184.31,184.31,0,0,0-25.86,11.6,4.28,4.28,0,0,1-2.76.72c-8.52-1.19-17-2.59-24.82-6.42s-8.1-4.49-2.89-11.32c11-14.41,25-24.72,41.72-31.66,13-5.42,25.24-12.27,36-21.59,8.41-7.29,14.52-16.28,19.9-25.86a6.18,6.18,0,0,0,.88-5.22,3.93,3.93,0,0,1,3.11,1c9.8,7.1,20.55,12.86,29.71,20.84,13.72,12,24.83,25.92,32.05,42.77.75,1.76,1.64,3.39,3.82,2.53,2.39-.94,1.83-2.87,1-4.69-9.72-22.17-25-39.69-44.87-53.28-4.1-2.81-8.3-5.48-12.44-8.22,0,0,0-.19,0-.33a3.67,3.67,0,0,1,2.49,0c20.23,5.93,39.24,14.2,55,28.71a121.47,121.47,0,0,1,24.45,31.61c5.32,9.79,11.05,19.32,19.47,27.27-7.86,2.91-15.73,5-23.52,7.3-21.68,6.49-44,8.44-66.46,10-22.89,1.61-45.67-.69-68.49-1.75C208.81,289,204.17,288.74,199.54,288.49Z"/><path class="cls-7" d="M182.2,228.57c-3.72-8.67-7.38-16.83-10.75-25.11q-22.08-54.17-44-108.39a88.14,88.14,0,0,1-4.3-13.67c-.6-2.67-1-5.41,1.23-7.72,2.9-3,6.56-3.11,9.57-.24a20.65,20.65,0,0,1,4.87,8.25c12.86,35.62,29.34,69.71,44.58,104.31,3.59,8.14,8.83,15.41,12.09,23.7.35.89,1.15,1.71-.11,2.79C190.22,216.91,186.32,222.42,182.2,228.57Z"/><path class="cls-5" d="M294.92,300.85l-4.21.09c-1.5.55-3,.13-4.58.26h-5c-1.45.12-2.92-.26-4.35.24l-3.05.09c-1.18.52-2.43.14-3.64.26h-26.8c-4.67-.16-9.34.32-14-.26l-3.65-.08c-1.3-.65-2.77.17-4.07-.51-4.73.26-9.41-.41-14.11-.67-.94-.57-2.08.08-3-.49l-2.83-.08c-1.07-.67-2.38.15-3.45-.53l-2.4-.06c-.89-.62-2,.11-2.91-.52-2.4.26-4.72-.42-7.08-.65-.89-.63-2,.11-2.9-.52l-1.8-.07c-.89-.62-2,.11-2.9-.52a76.82,76.82,0,0,1-17.47-2.65,17,17,0,0,1-11.5-9.94c-.71-1.6-.08-2.88.46-4.18.37-.9,1.23-1.25,2-.26,3.05,3.72,7.21,5.72,11.55,7.47,9.51,3.83,19.52,5.23,29.63,6.21a1.71,1.71,0,0,0,.56-.14c1.9.69,3.94-.2,5.84.51l3,.09c1,.47,2.09.13,3.13.24s1.86-.24,2.73.26l4.71.09c1,.47,2.08.13,3.13.23s1.85-.23,2.72.27c2.17-.34,4.31.68,6.48.09,1.18.48,2.41.12,3.61.23.91.1,1.86-.23,2.74.26l2.44.09c1,.48,2.07.13,3.1.24h2.79c.94.1,1.92-.23,2.82.26l2.44.09c1.23.49,2.51.12,3.77.24s2.6-.28,3.86.25c1.38-.35,2.73,1,4.13.1a213.88,213.88,0,0,0,22.22,0l1.74-.07c1.51-.73,3.21.18,4.72-.54l2.87-.06c1.52-.68,3.19.14,4.71-.49l6.51-.69c.89-.61,2,.1,2.91-.5l2.32-.09c.92-.6,2.05.09,3-.5l7.09-.66c.88-.64,2,.1,2.89-.52,9.6-.91,18.91-3.21,28.2-5.64,9-2.36,17.92-5.12,26.76-8.08,1.29-.43,2.83-2,4.21-.31,1,1.2-.45,5.27-2,6.25a10.21,10.21,0,0,1-2.38,1.14c-11.13,3.35-22,7.55-33.63,9.22-7.47,1.08-14.75,3.26-22.3,3.85-.89.63-2-.11-2.9.52l-2.36.07c-1.29.67-2.76-.14-4.06.5l-3.51.09c-1.64.52-3.33.14-5,.26C297.49,300.73,296.18,300.36,294.92,300.85Z"/><path class="cls-6" d="M181.71,241.78a69.91,69.91,0,0,1,15.81-24,28.21,28.21,0,0,1,19.32-8.48,78.37,78.37,0,0,0,20.36-3.8c1.14-.36,2.27-1.21,3.87-.55C225.44,223.85,202.56,230.81,181.71,241.78Z"/><path class="cls-8" d="M279,296.87c-.8.82-1.83.51-2.77.51q-8.34,0-16.68,0c-.94,0-2,.33-2.77-.5Z"/><path class="cls-9" d="M229.25,301.53h14c.2.1.26.21.21.32s-.13.17-.19.17l-12.16.07C230.43,302.09,229.73,302.17,229.25,301.53Z"/><path class="cls-10" d="M243.26,302c0-.16,0-.33,0-.49l12.33,0c.19.12.26.23.2.35s-.13.17-.2.17Z"/><path class="cls-10" d="M262,301.52h8.21c.19.12.25.24.18.35s-.13.16-.2.16H262c-.2-.12-.26-.23-.2-.34S262,301.52,262,301.52Z"/><path class="cls-11" d="M262,301.52a4.34,4.34,0,0,0,0,.51h-6.47a4.51,4.51,0,0,0,0-.52Z"/><path class="cls-12" d="M199.25,293.85c-1.95-.17-4,.55-5.84-.51C195.36,293.47,197.38,292.74,199.25,293.85Z"/><path class="cls-10" d="M280.82,300.93h5.28c.19.12.25.24.18.35s-.14.17-.21.17l-5.25,0c-.2-.11-.26-.23-.2-.33S280.76,300.93,280.82,300.93Z"/><path class="cls-13" d="M298.44,300.35h5.32c-1.7,1.08-3.55.39-5.34.49-.19-.12-.26-.23-.19-.34S298.37,300.35,298.44,300.35Z"/><path class="cls-14" d="M286.07,301.45l0-.52h4.61C289.27,302.06,287.62,301.31,286.07,301.45Z"/><path class="cls-15" d="M293.07,295.71c-1.48,1-3.14.29-4.71.49C289.84,295.13,291.5,295.8,293.07,295.71Z"/><path class="cls-16" d="M285.49,296.26c-1.47,1.06-3.15.34-4.72.54C282.23,295.66,283.91,296.43,285.49,296.26Z"/><path class="cls-17" d="M280.82,300.93c0,.17,0,.33,0,.5h-4.08C278,300.43,279.46,301.11,280.82,300.93Z"/><path class="cls-18" d="M221.53,300.94c1.36.16,2.82-.51,4.07.51C224.24,301.34,222.78,302,221.53,300.94Z"/><path class="cls-19" d="M252.68,296.78h-4.12c-.21-.1-.28-.21-.21-.32s.13-.17.2-.17C249.94,296.36,251.41,295.73,252.68,296.78Z"/><path class="cls-20" d="M307.27,300.27c1.25-1,2.71-.35,4.06-.5C310.09,300.85,308.63,300.16,307.27,300.27Z"/><path class="cls-21" d="M270.23,302c0-.17,0-.34,0-.51h3.44C272.66,302.55,271.4,302,270.23,302Z"/><path class="cls-22" d="M198.12,299.17c1.16.13,2.42-.44,3.45.53C200.41,299.62,199.14,300.2,198.12,299.17Z"/><path class="cls-23" d="M298.44,300.35c0,.17,0,.33,0,.5h-3.5C296,299.89,297.26,300.49,298.44,300.35Z"/><path class="cls-24" d="M228.59,295.61c-1.16-.13-2.43.46-3.48-.49h3.46c.2.1.27.21.21.32S228.66,295.61,228.59,295.61Z"/><path class="cls-17" d="M248.55,296.29a4,4,0,0,0,0,.49c-1.17-.13-2.45.47-3.51-.49Z"/><path class="cls-25" d="M302.49,294.52c-.85.88-1.93.42-2.91.5C300.41,294.06,301.5,294.58,302.49,294.52Z"/><path class="cls-26" d="M218.63,295h-2.94c-.2-.1-.27-.21-.21-.32s.13-.17.2-.17C216.68,294.59,217.78,294,218.63,295Z"/><path class="cls-27" d="M215.68,294.54a4,4,0,0,0,0,.49c-1-.11-2.07.39-2.91-.5Z"/><path class="cls-28" d="M307.78,293.93c-.87.88-2,.42-3,.5C305.67,293.5,306.77,294,307.78,293.93Z"/><path class="cls-26" d="M208.07,294.44h-2.95c-.2-.1-.27-.21-.2-.32s.13-.17.2-.17C206.12,294,207.22,293.45,208.07,294.44Z"/><path class="cls-17" d="M205.12,294a4,4,0,0,0,0,.49c-1-.1-2.06.39-2.91-.5Z"/><path class="cls-29" d="M317.76,292.75c-.84.89-1.91.43-2.89.52C315.69,292.31,316.77,292.8,317.76,292.75Z"/><path class="cls-29" d="M178.13,296.83c1,.09,2.06-.37,2.9.52C180,297.3,179,297.78,178.13,296.83Z"/><path class="cls-26" d="M239.74,296.2h-2.93c-.2-.1-.27-.21-.2-.32s.13-.17.19-.17l2.91,0c.2.1.28.21.22.33S239.8,296.2,239.74,296.2Z"/><path class="cls-29" d="M182.83,297.42c1,.09,2.06-.38,2.9.52C184.74,297.89,183.65,298.37,182.83,297.42Z"/><path class="cls-30" d="M192.81,298.59c1,.09,2.07-.38,2.91.52C194.73,299.06,193.64,299.55,192.81,298.59Z"/><path class="cls-31" d="M228.59,295.61c0-.17,0-.34,0-.5,1,0,2.06-.44,2.89.5Z"/><path class="cls-29" d="M313.69,299.7c.84-.89,1.92-.43,2.9-.52C315.76,300.13,314.68,299.65,313.69,299.7Z"/><path class="cls-32" d="M204.4,299.78c1,.09,2.13-.42,3,.49C206.39,300.26,205.29,300.67,204.4,299.78Z"/><path class="cls-33" d="M236.8,295.71c0,.17,0,.33,0,.5-1-.12-2.07.38-2.92-.51Z"/><path class="cls-31" d="M239.74,296.2c0-.17,0-.34,0-.51,1,0,2.07-.44,2.9.51Z"/><path d="M263.58,406.54c-17.87-1.9-35.6-4.41-51.79-13.05-7.31-3.89-11.07-9.9-12.06-18.14a84.15,84.15,0,0,1,1.79-28.44,7.64,7.64,0,0,1,3.23-4.67c6.08-4.52,13.12-7.14,19.91-10.28q14.76-6.81,29.58-13.47a17.07,17.07,0,0,1,9.88-1.11c15.88,2.13,31.36,6,46.71,10.44,7.59,2.22,12.66,6.78,14.86,14.65,2.76,9.83,3.34,19.94,4.44,30a5.05,5.05,0,0,1-1.89,4.62c-4,3.64-8.78,5.76-13.62,7.88-10.82,4.75-21.23,10.37-32.16,14.9-3.87,1.61-7.66,3.43-11.51,5.1C268.61,406,266.22,406.86,263.58,406.54Z"/><path class="cls-6" d="M324.77,371.62c.36,1.26-.54,1.92-1.39,2.59a35.43,35.43,0,0,1-7.31,4.26c-16,7.22-31.68,15-47.85,21.8a16.12,16.12,0,0,1-1.63.63c-3.27,1-4,.52-3.23-2.73,1.28-5.65-.3-11.08-.9-16.57s-1.19-10.68-2.15-16c-.53-2.89.64-4.06,3.05-4.88,14.9-5,28.88-12.15,43.14-18.64a33,33,0,0,0,8.2-5c1-.85,1.51-.8,2.34.09a13.66,13.66,0,0,1,3.15,5.52c2.38,7.9,3.36,16,4.05,24.2C324.37,368.47,324.58,370,324.77,371.62Z"/><path class="cls-6" d="M204.58,365.76c-.54-5.94,1.14-11.62,2.11-17.39.28-1.69,1.15-2.05,2.7-1.21,9.69,5.27,20.19,8.08,30.83,10.7,4.65,1.15,9,3.65,13.69,5,.89.25,1,1,1.09,1.86,1.14,8.81,2.33,17.62,3.48,26.43.35,2.66-.3,5.25-.54,7.87-.13,1.37-.92,1.21-1.83,1.14a116.71,116.71,0,0,1-40.27-10.46c-8.12-3.75-10.92-10.36-11.25-18.62C204.52,369.28,204.58,367.52,204.58,365.76Z"/><path class="cls-6" d="M310.89,333.41c-5.26,3.86-11,6-16.43,8.44-10.74,4.83-21.38,9.9-32.49,13.95-4.12,1.5-7.56,2.24-11.5.34-9.36-4.5-19.88-5.42-29.4-9.42-2.07-.86-4.13-1.76-6.2-2.61-1.59-.65-1.37-1.34-.1-2.09a8.42,8.42,0,0,1,1.3-.67c13.81-5.14,26.66-12.42,40.31-17.93a11.76,11.76,0,0,1,6.14-.84c15.65,1.87,30.84,5.83,46,10C309.15,332.8,309.79,333,310.89,333.41Z"/></svg>