<svg id="레이어_1" data-name="레이어 1" xmlns="http://www.w3.org/2000/svg" viewBox="0 0 500 500"><defs><style>.cls-1{fill:#b8ee77;}.cls-2{fill:#040202;}.cls-3{fill:#120607;}.cls-4{fill:#150809;}.cls-5{fill:#0a0304;}.cls-6{fill:#0f0506;}.cls-7{fill:#f2b4b3;}</style></defs><path d="M254,66c14.79-.11,25,3.57,32,12.31,6.15,7.67,13.8,9.76,22.59,10.21,19.37,1,38.72-.89,58.09-.6,6.53.09,13.05.44,19.39,2.11,9.53,2.52,11.87,7.22,8.18,16.36-3.26,8.07-8.43,15-13.37,22.06-8.18,11.72-17,23-24,35.51-4.14,7.4-6.22,14.7-3.67,23.41a55.36,55.36,0,0,1-1.4,36.42c-4.9,12.86-2.8,25.78,5.26,37.22a70.44,70.44,0,0,1,13.17,43.17c-.3,18.27,2.32,36.52,1.13,54.85-1.12,17.36-3,34.4-14.87,48.47-1.64,1.95-1.86,4.67-1.84,7.23.05,7.22-3.76,11.95-10.05,14.63a47.53,47.53,0,0,1-30.26,2.78c-2.66-.63-6.11-1.55-7-3.91-2.46-6.88-7.35-4.71-12.08-4.24a55.36,55.36,0,0,1-18.2-1.05c-2.58-.61-3-.06-3.55,2.37-1.86,7.86-4.36,9.47-12.61,8.39s-16.79-1.85-24.94-3.83c-14.93-3.62-29.6-.71-44.41.32-24.4,1.7-48.79,2-72.78-4-1-.26-2-.56-3-.91-13.65-4.89-15.75-14.19-4.25-23,7.44-5.71,10.31-13,11.78-21.34,2.07-11.81,4.3-23.62,5.48-35.53,1.71-17.19,9-32.73,13.25-49.15a20.67,20.67,0,0,0,.59-9.17c-2.92-16.86-4.12-33.9-1.52-50.9a57,57,0,0,1,18.1-33.84c5.82-5.36,7.64-10.62,4.9-18.41s-.54-15.84,1.5-23.59c4.16-15.79,14-28.08,25.13-39.42,8.27-8.39,15.56-17.12,21.12-27.91C221.09,75.08,237.78,67.48,254,66Z"/><path class="cls-1" d="M329,92.55c17.82-.36,34.16-1.89,50.45.11,13.83,1.69,15.5,5.4,8.61,17.61-7.78,13.78-18,25.91-26.68,39.1-3,4.56-5.91,9.21-8.58,14-4.25,7.58-6.39,15.46-3.36,24.19,1.08,3.13.86,6.71,1.86,9.89,2.59,8.17-1,13.14-7.75,17.05s-13.57,6.65-21.35,7c-1.9.1-5.16-.74-4.86,2.24.27,2.72,3.48,1.51,5.35,1.47,7.52-.17,14.42-2.62,20.94-6.26,1.75-1,3.54-1.9,6.33-3.39-2.14,7.68-4.2,14.18-4.18,21.17,0,9.58,2.31,18.39,7.85,26.14,9.15,12.8,13.08,26.78,12.88,42.62-.23,18.28,2.22,36.56,1,54.88-1.06,16.1-3.13,31.9-14.16,44.9-2.3,2.7-2.47,6.22-2.52,9.59-.07,5-2.58,8.32-6.92,10.39-9.26,4.42-18.93,5.65-28.87,3-6.73-1.81-9.17-7.61-6.31-14.2a14.25,14.25,0,0,0,1.21-6.75c-1-16.59-1.87-33.19-3.14-49.76-.78-10.26-3-12-13.18-11-6,.61-12,1.87-18,3-5.36,1-7.69,4.88-8.06,9.95a437.22,437.22,0,0,0-1.25,44.18,28.48,28.48,0,0,0,2.72,12.2,12.18,12.18,0,0,1-.43,12.1c-2.43,3.94-6.53,2-9.87,1.6-10.64-1.41-21.2-3.36-31.85-4.63-4.47-.54-6.18-2.28-6.25-6.75-.2-12.19.37-24.42-2.3-36.49-3.14-14.2-10.14-26.19-20.2-36.5-1.2-1.23-2.82-3.57-4.63-2-2.06,1.79.29,3.36,1.56,4.59,15.84,15.36,21.65,34.58,21.67,56.05,0,3.59-.61,7.3.13,10.72,1.61,7.39-1.92,9.38-8.41,10.17-28.37,3.45-56.66,4.13-84.87-1.24A32.9,32.9,0,0,1,111.8,419c-3.88-2.5-4.84-5.65-1.94-9.55a7.52,7.52,0,0,1,1.57-2c15-9.45,15.79-25.3,18.25-40.38,2.12-13.08,3.51-26.32,6.48-39.19,2.59-11.21,7.5-21.82,10.21-33.07a15.13,15.13,0,0,0,.48-6.77,159.69,159.69,0,0,1-2.32-48.34c1.48-13.57,7.67-24.73,17-34.38.87-.91,1.9-1.67,2.8-2.56,5.24-5.22,5.24-5.19,13.22-4.91,1.59.05,3.62.52,4.13-1.77.3-1.29-.89-1.62-1.92-2-10-3.5-13.23-8.46-12.67-19.24.93-18,9.19-32.54,21-45.42,4.42-4.8,9-9.42,13.55-14.14a60.88,60.88,0,0,0,12.18-18.22c8.49-19.76,36.31-32.22,55.55-25.32,5.67,2,10.92,5,14.43,9.81,5.71,7.81,13.72,10.38,22.56,10.51,11.21.16,21.17,2.89,29.38,10.85,1,1,2.31,2.41,3.64.61,1.09-1.49,0-2.82-1.2-3.78C335.62,97.69,333,95.66,329,92.55Z"/><path class="cls-1" d="M305.05,389.17c-1.05,7.27,3.07,16.66-1.09,26-1.45,3.25-3.21,4.43-6.44,4.73a72.94,72.94,0,0,1-13.86.13c-9.46-.92-12.48-3.4-13.28-12.93-1.35-16,.05-31.95,1-47.91a6.32,6.32,0,0,1,5.56-6.05c6-1.05,12-1.9,18-3,5.55-1,7.68,1.62,8,6.81C303.54,367,304.26,377.08,305.05,389.17Z"/><path class="cls-2" d="M298.41,181.68c-8-.91-16.25-.35-24.18-3-3.23-1.07-6.44-2.18-8.71-4.83s-3.31-5.91-1.8-9.37c1.41-3.24,4.52-3,7.12-2.56,15,2.29,30.19,2.3,45.29,3.42,3.56.26,7.58.5,8.13,5.25.59,5-3.11,7.07-7,8.49C311.28,181.3,304.87,181.07,298.41,181.68Z"/><path class="cls-3" d="M287.42,228.51c-5.12-.23-9.05-.79-12.72-2.49-1.08-.5-2.47-1.13-2-2.75s1.71-1.68,3-1.1c6.45,2.87,13.06,2.5,19.72,1,1.34-.32,2.66-.35,3.18,1.08.75,2.07-1.12,2.58-2.41,2.85C293,227.77,289.65,228.16,287.42,228.51Z"/><path class="cls-4" d="M269.08,143.88c-2-1-6.05,2.32-6-3.24.05-4.27,1.22-6.24,5.62-3.83.55.3,1.17.47,1.72.77,2.28,1.22,6.82.92,6.36,3.88C276.27,144.89,271.93,143.23,269.08,143.88Z"/><path class="cls-5" d="M333.83,142.25c1.15,2.69.91,4.93-2.67,3.77s-10.24.89-9.94-3.41c.27-4,7.26-3.28,11.31-4.11C335.56,137.88,334.82,140.42,333.83,142.25Z"/><path class="cls-6" d="M298.13,150.37c2,.4,4.63-.27,4.64,2.35,0,2.44-2.35,1.69-3.84,1.61-1.72-.1-4.37.71-4.61-1.78C294,149.55,297,151,298.13,150.37Z"/><path class="cls-7" d="M296.64,177.68c-6.38-.65-12.5-.41-18.45-1.9-2.85-.72-5.7-1.46-8.13-3.19-2-1.39-3.73-3.28-2.73-5.76.89-2.22,3.37-1.27,5-1,13.9,2.46,28,2.21,42,3.14,2.05.13,5.47-.61,5.87,2.27.43,3.09-2.94,3.71-5.22,4.44C308.91,177.62,302.58,177.45,296.64,177.68Z"/></svg>