<svg id="레이어_1" data-name="레이어 1" xmlns="http://www.w3.org/2000/svg" viewBox="0 0 500 500"><defs><style>.cls-1{fill:#fff;}.cls-1,.cls-2,.cls-3,.cls-4{stroke:#000;stroke-linecap:round;stroke-linejoin:round;stroke-width:4px;}.cls-2{fill:#9bb783;}.cls-3{fill:none;}.cls-4{fill:#36541f;}</style></defs><ellipse class="cls-1" cx="236.18" cy="150.76" rx="16.74" ry="7.05" transform="translate(-41.1 191.07) rotate(-40.82)"/><path class="cls-2" d="M223.51,163.28V457.74s10,9.59,26.15,0l-.35-312.68S234.72,168.1,223.51,163.28Z"/><path class="cls-3" d="M142.24,332.42s36.21,18.9,50.39,31.49c0,0,20.83,26.2,30.88,44.59,0,0,10.05,7.37,26.15,0"/><path class="cls-4" d="M141.11,332.42s-41.38-1.57-72.87,22.05C68.24,354.47,124.24,354.47,141.11,332.42Z"/><path class="cls-4" d="M63.52,294.64S122,334,139.22,332.4C139.22,332.4,110.75,297.79,63.52,294.64Z"/><path class="cls-4" d="M113.9,266.3s21.56,61.36,26.52,66.1c0,0,9.69-6.27-3.95-28.87A119.84,119.84,0,0,0,113.9,266.3Z"/><path class="cls-3" d="M189.77,361.52s-5-33.82-1.87-44.84-4.72-110.21-11-127.53"/><path class="cls-4" d="M198.92,115.15s-4.72,74-18.89,80.3C180,195.45,162.71,178.13,198.92,115.15Z"/><path class="cls-4" d="M108.39,185.21s51.55-5.52,67.5,27.94c0,0-15.54,2-23.41-7.47C149.33,204.11,114.69,189.94,108.39,185.21Z"/><line class="cls-3" x1="181.76" y1="215.29" x2="175.89" y2="213.15"/><path class="cls-4" d="M180.67,207.47s41.08-22.26,75.72-14.39C256.39,193.08,183.67,226.58,180.67,207.47Z"/><path class="cls-3" d="M250.09,299.32s33.07-48,36.22-55.85,9.44-17.32,20.46-22S401.24,171,412.26,163.17"/><path class="cls-4" d="M338.84,204.75s-10-10.09,10.44-55.75C349.28,149,348.87,200.67,338.84,204.75Z"/><path class="cls-4" d="M345.31,201.25s6.34-46.74,33.1-71.93C378.41,129.32,362.58,197.6,345.31,201.25Z"/><path class="cls-4" d="M436.48,215.91s-31.3-1.57-37.6-6.29c-4.72-1.58-27.65.58-39.81-8.37C359.07,201.25,387.49,175,436.48,215.91Z"/><path class="cls-3" d="M348.13,200.08c1.94.09,10.94,1.17,10.94,1.17"/><path class="cls-4" d="M342.84,202.59s55.25,15.69,71,39.3C413.84,241.89,342.68,229.41,342.84,202.59Z"/><path class="cls-3" d="M282.37,249s7.08-38.58,5.51-98.41"/><path class="cls-4" d="M233.56,58.47s50.71,59.68,54.49,92.82C288.05,151.29,257.18,140.34,233.56,58.47Z"/><path class="cls-4" d="M333.24,133s-32-3.65-45.36,14.46C287.88,147.43,292.79,157.09,333.24,133Z"/><path class="cls-4" d="M346.14,75.72s-65.17,34.06-59,70.6C287.18,146.32,329.6,108.71,346.14,75.72Z"/><path class="cls-4" d="M266.62,38s.89,92.51,18.56,101.36C285.18,139.36,291.82,86.81,266.62,38Z"/><path class="cls-3" d="M223.51,299s13.13,6.68,26.15,0"/></svg>