<svg id="레이어_1" data-name="레이어 1" xmlns="http://www.w3.org/2000/svg" viewBox="0 0 500 500"><defs><style>.cls-1{fill:#050505;}.cls-2{fill:#fefefe;}.cls-3{fill:#414040;}.cls-4{fill:gray;}.cls-5{fill:#7d7d7c;}.cls-6{fill:#444343;}.cls-7{fill:#8a8a8a;}.cls-8{fill:silver;}.cls-9{fill:#4d4c4b;}.cls-10{fill:#f5f5eb;}.cls-11{fill:#caae79;}.cls-12{fill:#f4ad4e;}.cls-13{fill:#f1d865;}.cls-14{fill:#d2eba7;}.cls-15{fill:#b95748;}.cls-16{fill:#f3e6d0;}.cls-17{fill:#856d4d;}.cls-18{fill:#358358;}.cls-19{fill:#e5be38;}.cls-20{fill:#060505;}.cls-21{fill:#060606;}.cls-22{fill:#060605;}.cls-23{fill:#070605;}.cls-24{fill:#050605;}</style></defs><path class="cls-1" d="M223.72,394.6h-1.11c-4.68-1-9.47-.85-14.21-1.37a132.39,132.39,0,0,1-31.58-7.76c-24.53-9-46.72-22.19-67-38.53-7.61-6.12-14.35-13.21-20.89-20.48-7-7.74-13.53-15.81-20.09-23.89-3.92-4.84-7.49-9.78-7.23-16.44v-2.21c.73-4,.3-8.05.45-12.07.25-6.44.63-12.91.37-19.33-.59-14.2,5.64-24.85,16.39-33.32a65.51,65.51,0,0,1,16.37-9.7,8.06,8.06,0,0,0,4.63-4.78,137.56,137.56,0,0,0,6-17.8A40.22,40.22,0,0,1,113,173.07c14-18.33,31.75-32.18,51.86-43.25A305.37,305.37,0,0,1,203.51,112c10.71-4.09,21.87-5.78,33.26-6.28,6.73-.3,13.45-.42,20.17-.23a230.9,230.9,0,0,1,38.71,3.9c15.17,3,28.78,9.5,41.77,17.68a202.41,202.41,0,0,1,38,31.51c7.91,8.23,13.77,17.73,18.9,27.76,2.29,4.49,5.18,8.77,5.7,14,.16,1.57,1.56,2.19,2.73,2.91a203,203,0,0,1,24.74,17.2c6.15,5.14,10.31,11.48,10.67,19.81.14,1.26-.32,2.58.28,3.81v1.11c-.62,3.25-.12,6.54-.28,9.8v7.25c.16,1.69-.32,3.42.28,5.09v5.53a5.74,5.74,0,0,0,0,3.88v2.21c-.66,4.8-.8,9.68-2.34,14.36a55.28,55.28,0,0,1-5.79,13.11c-5.27,8.11-11,15.89-16.83,23.6-7.89,10.35-18.41,17.43-27.91,25.81-4.72,4.17-10.05,7.06-15.45,10-11.74,6.47-23.62,12.37-36.93,15.15-13.71,2.87-27,7.44-40.93,9.49a344.2,344.2,0,0,1-37.93,3.61c-7.65.28-15.29.08-22.94.22h-2.71C227,394.47,225.34,394,223.72,394.6Z"/><path class="cls-2" d="M438,255.11c.13-3.31-.9-6.67.46-9.93v10C438.27,255.41,438.12,255.4,438,255.11Z"/><path class="cls-3" d="M438.44,267.32c-1-1.61-.45-3.37-.43-5.07.18-.15.32-.11.43.09Z"/><path class="cls-4" d="M223.72,394.6c1.59-1.11,3.34-.37,5-.45.14.12.18.22.12.32s-.11.13-.17.13Z"/><path class="cls-5" d="M438.44,262.34a.8.8,0,0,0-.43-.09c0-1.27,0-2.55,0-3.83.18-.21.33-.2.47,0Z"/><path class="cls-6" d="M438.44,276.73a3.21,3.21,0,0,1,0-3.88Z"/><path class="cls-7" d="M438,240.15a2.61,2.61,0,0,1,.48,0v3.87C437.29,242.89,438.12,241.46,438,240.15Z"/><path class="cls-8" d="M438.44,258.46a2.42,2.42,0,0,0-.47,0c0-1.1,0-2.2,0-3.31a.9.9,0,0,1,.46,0Z"/><path class="cls-8" d="M228.7,394.6c0-.15,0-.3.05-.45l2.74,0a1.55,1.55,0,0,0,0,.48Z"/><path class="cls-9" d="M105.19,208.63c1.32,9.21,4.64,17.46,7.87,25.79,6.3,16.17,17.1,28.54,31.47,37.77,14.81,9.5,31.17,15.2,48.48,18.43,11.28,2.1,22.61,4,33.93,5.83a34.42,34.42,0,0,0,6.31.62c13.39-.3,26.79,1.89,40.19-.92,13.67-2.88,27.52-5,40.69-9.86a130,130,0,0,0,41.7-24.39c7.54-6.63,14.95-13.35,21.9-20.57,7.45-7.74,13.82-16.28,17.74-26.44.74-1.91.83-4.06,2.31-6.26.48,3.76.41,7,.7,10.28a187.74,187.74,0,0,1-.27,35c-.55,5.58-.18,11.21-.59,16.83-1.2,16.26-6.44,30.73-16.77,43.54-6.18,7.66-13.63,13.66-21.58,19.15-9.84,6.81-19.57,13.86-30.5,18.9-7.76,3.58-15.33,7.81-23.85,9.32-8.32,1.49-16.69,2.71-25.09,3.56-14.41,1.44-28.88,1.43-43.34,1.13a264.63,264.63,0,0,1-38.89-4.14C175,358.37,155.79,347.56,138.45,333c-7.64-6.45-14.79-13.25-20.45-21.58-7.61-11.21-11.69-23.72-13.7-37A265.77,265.77,0,0,1,101,234.88c0-8.09,1.47-16.09,2.78-24.07A2.52,2.52,0,0,1,105.19,208.63Z"/><path class="cls-9" d="M402.83,210.19a194.64,194.64,0,0,1,17,11.58c3.23,2.45,6.59,4.78,8.76,8.31,2.84,4.61,4.89,9.34,4.42,15.06-.69,8.46.57,16.93.45,25.41-.19,13.81-3.38,26.61-11.43,38.24a250.2,250.2,0,0,1-22,27.63c-4.22,4.55-9.88,7.43-14.33,11.66-10.7,10.2-24.14,15.74-37,22.1-7.68,3.78-16.38,4.8-24.63,7-11.2,3-22.36,6.12-33.86,7.71-7,1-14,1.78-21.07,2.47a328.35,328.35,0,0,1-39.42,1.73c-19.47-.41-38.36-3.66-56.49-11.11a249.65,249.65,0,0,1-56-32.49c-10.39-7.89-19.3-17.37-27.87-27.14-6.43-7.34-12.49-15-18.53-22.65a15.28,15.28,0,0,1-3.74-10.39c.57-13.79,1-27.59,1.77-41.36.24-4.51,2.57-8.37,5.33-11.93,5.68-7.31,13.15-12.25,21.22-16.43a16.31,16.31,0,0,1,2.57-.78c-1.15,8.72-2.58,17.17-2,25.73,1.17,17.42,2,34.92,7.3,51.75,5,16,14.21,29.17,26.83,40.11,8.44,7.31,17,14.43,26.76,19.94a128.71,128.71,0,0,0,42.59,15.35c22.3,3.72,44.69,4.06,67.16,3.54,10.85-.26,21.58-2,32.32-3.46,17.76-2.49,33.19-10.62,48-20,10.43-6.59,21.06-13.06,29.86-21.79,12.08-12,21.33-25.59,24.15-43,1.87-11.51,1.87-23.08,2.72-34.62.56-7.56.49-15.1.34-22.64C403.92,220.76,403.29,215.83,402.83,210.19Z"/><path class="cls-10" d="M258.33,243.82c-5.86-.8-12.46-1-18.32-4.35-1.77-1-3.71-.95-5.62-1.13-5.32-.52-10.63-.48-16-.53s-10.72-1.35-16.1-1.68c-5.2-.32-9.84-2.61-14.81-3.71-2.46-.55-4.77-2.95-7.18-4.45a58.42,58.42,0,0,1-9.76-7.23c-3.18-3-3.5-4.8-1.72-8.83a12.09,12.09,0,0,1,3.33-4.35,94.37,94.37,0,0,1,19.32-13.23,18.29,18.29,0,0,0,7.12-5.91c3.52-5,8.47-8.44,13.9-11.09,10.58-5.18,21.3-10.13,33.05-12,7.51-1.22,15-3.28,22.73-2.16a18.39,18.39,0,0,1,11.14,5.39,10.82,10.82,0,0,0,6.08,3c9.56,1.85,18.09,6,26.14,11.34q6.68,4.43,13.56,8.52c5,3,7.92,7.52,10.07,12.7,1,2.45-.37,4.54-3.45,5-3.37.51-6.78.74-10.16,1.17a54.32,54.32,0,0,0-6,1c-2,.49-3.63,1.66-4,3.74s1.1,3.53,2.65,4.81c1.17,1,3.59,1,3.24,3.19-.38,2.4-2.29,3.7-4.49,4.43-5.32,1.77-10.69,3.38-16,5.25-8,2.82-15.48,6.79-23.78,8.74A84.65,84.65,0,0,1,258.33,243.82Z"/><path class="cls-11" d="M357.33,253.78a140.89,140.89,0,0,1-25.61,19c-15.64,8.86-32.63,13.31-50.06,16.62-5,.94-10,1.74-15,2.7-1.89.36-2.57-.09-2.58-2.14,0-7.92-1.05-15.83-.05-23.75a6.45,6.45,0,0,0-.83-4.54c-2.63-3.77-1-8-1.62-12-.15-1,.68-1.09,1.48-1.19,11-1.29,21.31-4.84,31.37-9.34A141.17,141.17,0,0,1,312,233.19c4.48-1.34,8.51-3.14,10.24-7.94.38-1,1.21-.88,2-1,10-1.78,20.1-2.12,30.15-3.21a3,3,0,0,1,1.81.41,16.24,16.24,0,0,0,6.13,1.53c2.18.17,3.76.71,4.8,2.93.95,2,3.1,2.42,5.24,2.38a13.08,13.08,0,0,1,6.47,1.08c1.34.7,1.59,1.38.5,2.71-4.91,6-10.82,11.08-16.09,16.74a1.71,1.71,0,0,1-2,.47c-4.81-1.35-9.71-.52-14.57-.41a2.23,2.23,0,0,0-2.5,2.35c0,1.73,1,2.51,2.63,2.49,2.39,0,4.79-.17,7.18-.19A7.16,7.16,0,0,1,357.33,253.78Z"/><path class="cls-12" d="M239.45,145.62c-1.07,4.64-2.32,9.25-3.16,13.93a4.23,4.23,0,0,1-3.41,3.83,150.46,150.46,0,0,0-24.57,10.53A39.54,39.54,0,0,0,194,186.23a10.17,10.17,0,0,1-4,3.25,90.46,90.46,0,0,0-17.13,11.09c-1.21,1-1.86,1-3.19,0-6-4.84-11.8-9.93-17.4-15.29a27.78,27.78,0,0,0-16.62-8c-1.49-.13-1.76-.86-1.33-2,2.43-6.57,9.48-11.59,16.7-7.83,5.23,2.71,10.33,5.67,15.48,8.52,1.66.91,3.46,2,4.72-.33s-.76-3.22-2.39-4.11c-4.35-2.41-8.71-4.79-13-7.25-.71-.4-2.08-.49-1.85-1.6a2.66,2.66,0,0,1,2.6-2.11,30.69,30.69,0,0,1,3.59.09c5.5.47,7.17-.81,8-6.23s2.78-7.39,8.09-8.16a7.48,7.48,0,0,1,7.88,3.32c2.85,4.07,6,7.92,9,11.89,1.08,1.43,2.32,2.69,4.11,1.34s.95-3-.2-4.53c-3.09-4-6-8.14-9.25-12.07-2-2.44.38-3.6,1.23-5.16.7-1.29,1.54-2.3,3.5-1.4,2.51,1.17,4.46.14,5.56-2.41a20.25,20.25,0,0,1,.83-2c1.51-2.66,3.18-2.76,4.94-.37.53.73,1.1,1.75,1.85,2,2.48.71,2.42,2.23,2.06,4.32-.62,3.63-.86,7.32-1.39,11-.28,1.88,0,3.5,2.06,3.81s2.65-1.38,2.9-3.17c.63-4.65.94-9.34,1.86-14a3.14,3.14,0,0,1,2-2.59,86.44,86.44,0,0,1,10.05-3.81,24.45,24.45,0,0,0,6.08-2.56c1.82-1.19,3.45-.77,5,.73,3.66,3.64,3.44,6.61.05,10.29a70.25,70.25,0,0,1-19.49,14.73,2.32,2.32,0,0,0-1.25,3,2.38,2.38,0,0,0,3.15,1.49,17.93,17.93,0,0,0,5.83-3.07c5-3.6,10.44-6.58,14.19-11.71Z"/><path class="cls-13" d="M222.09,242.44c5.58.19,10.71-.18,15.17,1.53a95.37,95.37,0,0,0,12.33,3.72c.45.1.91.18,1.36.25,5.8.91,5.75.91,5.91,6.89.08,3.24-.78,6.69,2,9.4.34.33.25,1.24.18,1.87-.91,8-.07,16,.19,24,.07,2.07-.43,2.69-2.55,2.63-5.3-.16-10.61-.05-16.57-.05,1.54-2.7,2.67-4.56,3.67-6.49.61-1.18.91-2.5-.21-3.58-1.33-1.3-2.82-1.13-3.76.35a46.71,46.71,0,0,0-3.94,7.25c-.67,1.63-1.48,1.94-3.06,1.75-10.59-1.32-21.16-2.81-31.63-5-9.09-1.87-18.32-3.14-27.08-6.38-.61-.22-1.2-.47-2.1-.83,3.51-2.44,4.28-6,4.56-9.76a30.07,30.07,0,0,1,1.51-6.43,4.33,4.33,0,0,1,2.67-2.95,8.48,8.48,0,0,0,5.5-7.07c.37-3.05,3-3.12,4.79-4.3.89-.59.93.61,1,1.13.13,2.11.2,4.23.23,6.35a13.13,13.13,0,0,0,3.11,8.65,46.3,46.3,0,0,1,4.26,6.44,5,5,0,0,1,.58,4.72c-.62,1.58-.42,3,1.41,3.55s2.77-.42,3.36-2a9.19,9.19,0,0,0-.48-7.74,37.05,37.05,0,0,0-4.88-7.67,9.34,9.34,0,0,1-2.39-6.57c0-2,.28-4.18-.3-6-1.15-3.77.62-6.09,3.16-8.3a2.11,2.11,0,0,1,1.72-.72c4,.67,8.09.39,12.07,1.29a3.38,3.38,0,0,1,2.47,1.53c1.37,2.41,3.94,3.56,5.85,5.41a2.24,2.24,0,0,0,3.26-.13,2.41,2.41,0,0,0,.07-3.49A43.36,43.36,0,0,0,222.09,242.44Z"/><path class="cls-9" d="M111.91,186.37c1.71-5.17,4.73-8.43,7.43-11.89,13.87-17.77,31.72-30.56,51.33-41.23a303.83,303.83,0,0,1,37-16.66c7.44-2.83,15.3-4,23.18-4.7,7.51-.66,15-1.62,22.59-1.13,19.17,1.23,38.43,2,56.75,8.76,11.77,4.35,22.23,11.08,32.51,18.1a154.94,154.94,0,0,1,29.08,25.75,5.53,5.53,0,0,1,.5.94c-2.54-.23-4.9.33-5.92-3-.87-2.83-3.64-4.46-6.12-5.74-3.41-1.74-5.91-4.53-8.89-6.75-5.55-4.13-11.43-7.75-17.17-11.58a15.77,15.77,0,0,0-9.44-2.62c-2.23.07-4.46-.34-5.8-2.08-3-3.94-6.89-4.18-11.14-2.93a2.9,2.9,0,0,1-3.68-1.23c-3.53-4.81-8.92-5.12-14.17-5.36a83.41,83.41,0,0,1-15.25-2.26c-3.11-.73-6.27-1.18-9.35-2.07-1.58-.46-3.47-.72-4.89.08-5.31,3-10.53,1.5-15.83.16a55.71,55.71,0,0,0-7.55-1.5,6.79,6.79,0,0,0-7.84,6c-.32,2-1.59,2.81-3.21,3.35-5.06,1.71-10.19,3.22-14.93,5.75-1.6.86-2.6,0-3.52-1.15-3.94-5-8.94-4.87-12.54.5-1.06,1.59-1.78,2.66-4.16,2.25-2.54-.43-4.63,1.45-5.76,3.62-1.55,3-3.44,3.76-6.88,3.54-7.86-.51-14.4,3.61-15.06,11.94-.16,2-1.12,2.63-3.09,2.36-4.51-.62-8.47.28-10.89,4.64-.71,1.29-1.92.83-3,.87A17.68,17.68,0,0,0,129.49,174c-.13.45-.44,1-.33,1.33,1,3.58-1.59,4.24-4,5.1A75.34,75.34,0,0,0,111.91,186.37Z"/><path class="cls-14" d="M388.67,217.77a51.56,51.56,0,0,1-4.47,7.62c-.47.7-.86,1.06-1.71.41-2.78-2.13-6-2.57-9.42-2.46-.92,0-1.79.06-2.28-1.07-1.26-2.9-3.84-3.85-6.7-4.11-3.3-.31-6.21-1.12-8.7-3.58-2.34-2.31-5.67-3-8.69-4.07a2.16,2.16,0,0,0-2.91,1.38,2.35,2.35,0,0,0,1.22,3.25,32.27,32.27,0,0,1,3,1.46A146.36,146.36,0,0,0,332.37,218c-1.18.2-2.38.32-3.53.63-4,1.1-7.75,1.22-10.49-2.68,4.28-1,8.75-1.25,13.2-1.71,7.93-.82,11.2-7.08,7.33-14.08-1.19-2.15-1.75-4.6-3.49-6.51s-3.58-3.44-5.41-5.12c2.37-2,2.37-2,3.65-9.15,1.44,3,3.95,3.2,6.59,3.37,5.24.32,10.49.52,15.74.42a38.27,38.27,0,0,0,3.86-.24c1.61-.17,2.59-1.07,2.42-2.75s-1.32-2.27-2.94-2.17a160.7,160.7,0,0,1-18.23-.18c-2.2-.12-2.69-1-2.54-2.8,0-.37,0-.74,0-1.11.21-4,.22-3.86,4.19-4a78.28,78.28,0,0,0,9.92-.74c7.93-1.21,15.82.21,23.73.11,1,0,1.46.66,1.91,1.33,1.19,1.75,2.28,3.57,3.51,5.29s.38,2.18-1.27,2.15c-2.58,0-5.15-.12-7.73-.14-1.78,0-3.14.54-3.05,2.66s1.51,2.32,3.11,2.27c3.76-.12,7.55.59,11.3-.24,1.23-.27,1.82.25,2.34,1.29,2.17,4.26,4.44,8.47,6.61,12.73a8.93,8.93,0,0,1,.51,7.23c-.87,2.52-1.6,5.09-2.33,7.66-.3,1.09-.74,1.38-1.93,1.07a34.85,34.85,0,0,0-4.92-.65,2.32,2.32,0,0,0-2.78,2.07c-.24,1.63.72,2.61,2.32,2.85A18.38,18.38,0,0,1,388.67,217.77Z"/><path class="cls-15" d="M121.08,229.68c3,0,4.68,1.44,6.6,2.24a23.34,23.34,0,0,0,6.57,2c1.61.16,2.79-.43,3.06-2.06s-.61-2.63-2.28-2.81a10.55,10.55,0,0,1-3.7-1.05c-.57-.3-1.67-.25-1.37-1.32a1.82,1.82,0,0,1,1.59-1.37c1.19-.12,2.39-.12,3.58-.27,7-.89,13.93-.93,20.58,2a7.54,7.54,0,0,0,2.4.58,2.06,2.06,0,0,0,2.5-1.64,2.37,2.37,0,0,0-1.67-3c-2.71-.88-5.4-1.84-8.15-2.6-1.66-.45-1.45-1.08-.49-2s2.19-1.92,3.9-1.44c2.65.75,5.35,1.34,8,2a1.93,1.93,0,0,1,1.15.67c3.19,5.75,8.77,8.8,13.86,12.41a4.44,4.44,0,0,1,.56.74c-4.05.44-7.9.93-11.77,1.27-1.76.16-3.24.61-3.09,2.65.16,2.21,1.87,2.49,3.67,2.32,4.95-.48,9.89-1,14.84-1.5,4.61-.5,8.92.7,13.56,2.27a25.74,25.74,0,0,1-8.89,6.42c-2.68,1.26-4.27,3-4.58,6a4.69,4.69,0,0,1-3.2,4.13,8,8,0,0,0-4.84,5.35A32.4,32.4,0,0,0,171.6,270a8.2,8.2,0,0,1-3,6.21c-1.64,1.4-2.77,1.34-4.52.59-10.14-4.36-19.75-9.56-27.79-17.24-6.84-6.54-12.74-13.81-16.68-22.51a4.79,4.79,0,0,1-.8-2.73,77,77,0,0,1,9.71,7.31c1.43,1.21,3,2.41,4.53.65s.21-3.34-1.33-4.59A129.33,129.33,0,0,0,121.08,229.68Z"/><path class="cls-16" d="M361.66,163.45c-7.17.14-14.13,1.78-21.24,1.47-4.44-.19-6.13,1.45-6.58,5.94-.19,1.88,0,3.56-2.67,4.31-2.42.68-2.82,3.35-2.91,5.77a3.76,3.76,0,0,1-5.58,3c-4.39-2.7-8.68-5.55-13.09-8.2A67.7,67.7,0,0,0,287.67,167a20,20,0,0,1-2.88-.9,7.66,7.66,0,0,1-1.2-.63c.3-1.05,1.27-1.06,1.93-1.44a4.09,4.09,0,0,0,2.06-5.35c-1.49-4.71-1-5.75,3.45-7.54,1.36-.55,2.58-1.25,2.38-2.94s-1.34-2.13-3-2.16c-1.79,0-1.93-1.84-2.3-3-.44-1.37,1.1-1.11,1.83-1.41,4.33-1.79,8.7-3.47,13-5.32a42.61,42.61,0,0,1,8.49-2.28,2.55,2.55,0,0,1,2.63,1,14.5,14.5,0,0,0,11.62,4.75,8,8,0,0,1,4.52,1c6.36,4,12.72,8,19.16,12.83-5.2,1.44-10.12,1.67-14.93,2.46-.91.15-1.82.3-2.72.49a2.25,2.25,0,0,0-1.95,2.82c.27,1.67,1.45,2.24,3,2,5.73-.86,11.55-1.36,17.15-2.74C355.34,157.3,358.48,160,361.66,163.45Z"/><path class="cls-17" d="M137.3,183c5.32,1.45,10.13,3.57,13.6,7.59a68.28,68.28,0,0,0,12.57,11.15c.75.52,1.41,1.18,2.16,1.71,1.44,1,1.89,2,.45,3.5a9.82,9.82,0,0,0-2.42,4.91c-.39,2.16-1.53,2-3.12,1.58-2.56-.72-5.15-1.31-7.73-2a3.09,3.09,0,0,0-3.06.77,27.74,27.74,0,0,0-5.52,6.1c-1.47,2.46-4.45,1.4-6.74,1.74-1.75.27-1.16-1.74-1.6-2.7-.58-1.24-.76-2.65-1.23-3.94a2.34,2.34,0,0,0-4.5,1.19,5,5,0,0,0,.3,1.33c1,2.43,1.24,3.78-1.91,5.57-2.86,1.62-4.85,3.73-8.55,2.75-1.6-.43-3.11,1.24-4.33,2.8a34.18,34.18,0,0,1-3.34-8.76c-1.28-6.19-3.58-12.17-3.69-18.59a14.23,14.23,0,0,1,.36-3.55c.59-2.42.85-4.63,4.26-5,2-.23,3.91-1.92,5.81-3,1.63-1,2.35-.26,2.68,1.3,1.27,5.93,4,11.45,4.63,17.56a2.25,2.25,0,0,0,2.62,2.24,2.39,2.39,0,0,0,2.23-2.93,36.6,36.6,0,0,0-1.22-5.92c-1.19-4.25-2.42-8.49-3.8-12.68-.56-1.68-.26-2.4,1.45-3.05,4.19-1.6,4-1.64,6.21,2.18,2.78,4.88,5.75,9.65,8.69,14.43a24.45,24.45,0,0,1,2.06,4.51,2.29,2.29,0,0,0,2.82,1.62,2.24,2.24,0,0,0,1.68-2.78,14.8,14.8,0,0,0-2.26-5.6c-2.61-4.33-5.28-8.63-7.91-13C138.36,185.06,137.85,184,137.3,183Z"/><path class="cls-18" d="M234.18,123.74c1.5-2,3-1.13,4.54-1,3.3.36,6.39.82,7.51,4.7.21.73,1,1.3,1.53,1.94,1.08,1.3,2.43,1.85,3.84.71s1.19-2.54.1-3.88a9,9,0,0,1-.56-.94,5.81,5.81,0,0,1,3.11.13,8.24,8.24,0,0,0,6.6-1.12c2.77-1.9,4.77-1,5.7,2.23,1.48,5,3.16,10,4.79,15a2.22,2.22,0,0,0,3,1.66,2.4,2.4,0,0,0,1.74-3,61.68,61.68,0,0,0-2.84-8.92c-.67-1.88-1.21-3.8-2-6.22,8.17,2.45,16.14,2.82,24.07,3.49a5.53,5.53,0,0,1,1.82.62c1.16.56,2.74,1.17,2.73,2.46s-1.75,1.36-2.79,1.78a115.22,115.22,0,0,1-11.1,4.18c-2.94.84-3.92,2.67-3,5.09,1.43,3.74,1.9,7-.88,10.4-1,1.16-.45,3.22-.15,4.86.44,2.34-1.8,4.58-3.77,3.42-9.46-5.53-19.28-3.07-29.08-1.66-2.19.31-4.38.56-6.54,1-1.45.29-1.57-.12-1.23-1.39.89-3.38,1.68-6.78,2.48-10.19a14.56,14.56,0,0,0,0-7.64c-.67-2.16.62-4.15.19-6.29C242.89,129.57,239.89,125.63,234.18,123.74Z"/><path class="cls-19" d="M245.29,221.91c-5.84.26-11.39-1.61-17.11-2.3a6.22,6.22,0,0,0-3.72-4.07c-8.54-4.17-10.89-12.47-6-20.55,4.48-7.4,9.8-13.81,18.37-16.77,14-4.85,27.69-3.53,40.67,3.24,7.28,3.8,11,10.34,11.19,18.75a7.32,7.32,0,0,1-3.13,6.42c-9.94,7.32-20.74,12.29-33.39,12.22C249.44,218.83,246.81,219.15,245.29,221.91Z"/><path class="cls-1" d="M245.29,221.91c-.12-2.55,1.07-3.61,3.64-3.61,8.57,0,16.85-1.38,24.63-5.19a105.14,105.14,0,0,0,10.42-6.2c3.9-2.5,4.6-5.9,3.72-10-1.32-6.25-4.25-11.62-10-14.52-14.36-7.22-29.17-8.7-44.14-1.81-8.07,3.72-12.78,10.76-16.21,18.51-2.75,6.23,1.42,13.65,8.5,16.25,2.17.8,3.2,2,2.35,4.32-1.64,1.12-3.28.8-5,.1-10.53-4.34-14.42-15.84-9.09-25.9,10.66-20.1,28.73-24.25,46.72-22,6.3.79,12.51,2.27,18.14,5.39,9.26,5.13,13.85,13.12,14,23.66a10.35,10.35,0,0,1-4.2,8.62c-11,8.55-23.22,13.71-37.35,13.61C249.34,223.09,247,224.27,245.29,221.91Z"/><path class="cls-1" d="M324.68,256.11c2,1.43,3.47,2.65,5.1,3.62,1.35.8,2.22,1.74,1.64,3.31-.65,1.76-2.2,1.75-3.71,1.5-1.06-.18-1.71-1-2.48-1.68-6.93-5.8-14.75-8.85-23.91-7.79a14.36,14.36,0,0,0-7.66,3.52c-1.35,1.13-2.83,1.76-4.12.31s-.54-3.07.89-4.24c5.95-4.87,12.81-5.63,20.06-4.28,8.59,1.59,8.57,1.64,17.07-.19,2.06-.44,4.16-.72,6.26-1,1.67-.21,3,.44,3.25,2.2s-.86,2.61-2.65,2.75A47.74,47.74,0,0,0,324.68,256.11Z"/><path class="cls-1" d="M301.45,258.39c9.25.16,16.59,4.14,22.31,11.32,1.07,1.35,1.74,2.79.21,4.12-1.68,1.46-3,.49-4.18-1a23.38,23.38,0,0,0-19-9.55c-2.53,0-3.87.78-4.5,3.29-1.08,4.28-1.53,8.5-.15,12.78.59,1.8.79,3.66-1.55,4.22-2.14.51-2.83-1.16-3.31-2.85a27.83,27.83,0,0,1,1.16-18.12C294.07,258.47,297.71,258.26,301.45,258.39Z"/><path class="cls-1" d="M349.16,237.4c4.87.43,10,.88,15.12,1.36,1.74.16,3.1.8,2.82,2.89s-1.69,2.18-3.29,2c-8.32-.82-16.64-1.65-25-.79-1.28.13-2.56.25-3.82.49-1.7.31-3-.1-3.33-1.92s.71-2.66,2.42-3C339,237.43,344,238,349.16,237.4Z"/><path class="cls-20" d="M275.05,282.59a42.76,42.76,0,0,1,1.54-5.57c1.63-3.9,3.49-7.7,5.26-11.54.77-1.68,1.95-2.92,3.86-2s1.43,2.65.66,4.26c-1.58,3.32-3.1,6.67-4.67,10a17.51,17.51,0,0,0-1.54,5.55c-.19,1.77-1.19,2.71-3,2.43S275.07,284.16,275.05,282.59Z"/><path class="cls-21" d="M314.36,274a2.5,2.5,0,0,1-1.29,2.66,2.2,2.2,0,0,1-2.81-.32c-2-2.39-4.32-3.87-7.64-3.45-1.08.13-1.84-.78-2-1.9a2.09,2.09,0,0,1,.94-2.41,8.13,8.13,0,0,1,7.42.32A10.38,10.38,0,0,1,314.36,274Z"/><path class="cls-22" d="M184.5,181.7a2.28,2.28,0,0,1-1.08,2.1c-3.72,2.52-7.3,5.24-11.23,7.45-1.51.85-3.1,1.22-4.09-.49s.05-3,1.68-4c3.5-2.17,6.9-4.51,10.32-6.81a2.91,2.91,0,0,1,3.33-.36A2.14,2.14,0,0,1,184.5,181.7Z"/><path class="cls-23" d="M186.17,171.66a2.1,2.1,0,0,1-2.07-1.11c-1.25-2.4-3.14-4.27-4.87-6.28-1.08-1.25-1.54-2.66-.16-3.88s2.84-.7,4,.66c1.92,2.21,4.06,4.26,5.25,7C189.21,170,188.13,171.7,186.17,171.66Z"/><path class="cls-22" d="M220.4,282.27c0,1.94-.64,3-2.12,3.24-1.63.24-2.46-.66-2.89-2.25-1-3.76-1-7.63-1.53-11.45a77.91,77.91,0,0,0-2.48-12.41c-.53-1.75-.83-3.45,1.26-4.12,2.25-.72,3,.93,3.56,2.78a87.32,87.32,0,0,1,3.06,17.33A36.83,36.83,0,0,0,220.4,282.27Z"/><path class="cls-22" d="M251.59,266.61c-.13.65-.28,1.85-.61,3a2.28,2.28,0,0,1-3,1.7c-1.42-.32-1.83-1.37-1.8-2.7.13-4.67.12-4.66-4.22-6.42a64.53,64.53,0,0,1-11.16-5.33c-1.63-1.06-2.5-2.41-1.34-4.11s2.68-1.09,4.1-.12c3.76,2.55,8.07,3.93,12.2,5.69S251.73,262.43,251.59,266.61Z"/><path class="cls-21" d="M372.29,196c-7.88-1.12-15.91-.25-23.87-1.13-1.83-.2-3.08-.71-3-2.72a2.48,2.48,0,0,1,3.07-2.42c7.93,1.25,16,.13,23.9,1.24,1.72.24,3.14.67,3,2.76C375.31,195.61,374,196.06,372.29,196Z"/><path class="cls-21" d="M365.36,199.79c3.58.29,7.16.57,10.73.88,1.68.14,2.91.9,2.74,2.75s-1.5,2.33-3.19,2.19c-3.76-.3-7.52-.6-11.29-.86-1.87-.13-3.7-.42-3.54-2.84s2-2.3,3.73-2.17l.82.07Z"/><path class="cls-20" d="M177.27,246a4.66,4.66,0,0,1-2,2.88c-4.49,3.71-9.6,6.49-14.52,9.56a2.17,2.17,0,0,1-3.18-.63,2.5,2.5,0,0,1,.69-3.66c2.52-1.69,5.11-3.28,7.69-4.89s5.09-3,7.09-5.23a2.2,2.2,0,0,1,3-.58A2.46,2.46,0,0,1,177.27,246Z"/><path class="cls-20" d="M152.84,238.72h-4.13c-1.34,0-2.4-.39-2.58-1.89A2.25,2.25,0,0,1,148,234c3.31-.77,6.59-.1,9.86.19,1.2.1,1.76,1.27,1.6,2.52a2,2,0,0,1-1.95,2c-1.56.08-3.13,0-4.69,0Z"/><path class="cls-21" d="M323.85,172.63a2.49,2.49,0,0,1-4.28,2.1c-3.62-4.4-7.24-8.81-10.77-13.28a2.36,2.36,0,0,1,.31-3.47,2.33,2.33,0,0,1,3.61.45c3.58,4.32,7.11,8.68,10.63,13A3.74,3.74,0,0,1,323.85,172.63Z"/><path class="cls-21" d="M309.48,141.12c1.92-.19,2.95.34,3.27,1.69a2.32,2.32,0,0,1-1.71,3c-.87.28-1.76.51-2.64.72-1.56.37-3.32.4-2.4,3,.35,1-.52,1.9-1.58,2.25a2.46,2.46,0,0,1-2.92-.92,5.35,5.35,0,0,1,1.48-7.67A21.8,21.8,0,0,1,309.48,141.12Z"/><path class="cls-24" d="M268,149.88c.12,1.7-.34,2.61-1.52,3.11a2.19,2.19,0,0,1-2.91-.85c-2.4-3.86-5.77-6.92-8.48-10.51a10.69,10.69,0,0,1-1.25-2.14,2.2,2.2,0,0,1,.75-2.93c1.12-.75,2.45-.8,3.24.3,3,4.1,6.56,7.69,9.65,11.68A3.69,3.69,0,0,1,268,149.88Z"/></svg>