<svg id="레이어_1" data-name="레이어 1" xmlns="http://www.w3.org/2000/svg" viewBox="0 0 500 500"><defs><style>.cls-1{fill:#6da01c;}.cls-1,.cls-2,.cls-3{stroke:#000;stroke-linecap:round;stroke-linejoin:round;}.cls-1,.cls-2{stroke-width:4px;}.cls-2{fill:none;}.cls-3{fill:#efd97f;stroke-width:3px;}</style></defs><path class="cls-1" d="M47.62,141.92s182.76,108.2,228.65,309.32h5.36S233.6,222.82,47.62,141.92Z"/><path class="cls-1" d="M291.73,451.24h-10.1s43.26-155.86,33.72-274.4C315.35,176.84,319.89,368.66,291.73,451.24Z"/><path class="cls-1" d="M275.85,429.21s21.79-133.83-126.72-282.35c0,0,139.44,101,137.16,286.22l-4.66,18.16Z"/><path class="cls-1" d="M291.19,412.28s15.34-309.71,0-334.57c0,0,2.82,302.24-6.94,312.41l3.34,37.63Z"/><path class="cls-1" d="M135.5,48.76S280.34,166.92,278.25,353.38l5.7,34.07S303.09,163.21,135.5,48.76Z"/><path class="cls-2" d="M96.72,251.09s42.33-124.58,130.48-88.52"/><path class="cls-2" d="M113.7,100.54S261.9-118.67,286.32,355.36"/><path class="cls-2" d="M361.68,225.89S267.61,188.41,285.35,338"/><path class="cls-2" d="M366.56,121s-84.7-49.86-100.26,59.54"/><path class="cls-2" d="M125.26,146.86s48.66-112.21,122.1-35.67"/><ellipse class="cls-3" cx="447.52" cy="260.63" rx="2.72" ry="6.13" transform="translate(-48.02 411.11) rotate(-47.11)"/><ellipse class="cls-3" cx="439.34" cy="251.09" rx="2.72" ry="6.13" transform="translate(-43.64 402.07) rotate(-47.11)"/><ellipse class="cls-3" cx="428.44" cy="245.64" rx="2.72" ry="6.13" transform="translate(-43.13 392.35) rotate(-47.11)"/><ellipse class="cls-3" cx="414.82" cy="241.56" rx="2.72" ry="6.13" transform="translate(-44.49 381.06) rotate(-47.11)"/><ellipse class="cls-3" cx="398.47" cy="238.83" rx="2.72" ry="6.13" transform="translate(-47.72 368.21) rotate(-47.11)"/><ellipse class="cls-3" cx="383.48" cy="233.38" rx="2.72" ry="6.13" transform="translate(-10.38 448.79) rotate(-60)"/><ellipse class="cls-3" cx="371.22" cy="230.66" rx="2.72" ry="6.13" transform="translate(-50.43 345.63) rotate(-47.11)"/><ellipse class="cls-3" cx="361.68" cy="230.66" rx="2.72" ry="6.13" transform="translate(-18.92 428.55) rotate(-60)"/><ellipse class="cls-3" cx="350.78" cy="227.93" rx="2.72" ry="6.13" transform="translate(-13.25 434.04) rotate(-62.53)"/><ellipse class="cls-3" cx="345.33" cy="218.39" rx="6.13" ry="2.72"/><ellipse class="cls-3" cx="356.23" cy="219.76" rx="6.13" ry="2.72" transform="translate(-27.65 52.93) rotate(-8.18)"/><ellipse class="cls-3" cx="367.13" cy="222.48" rx="6.13" ry="2.72" transform="translate(-27.92 54.51) rotate(-8.18)"/><ellipse class="cls-3" cx="391.65" cy="229.29" rx="6.13" ry="2.72"/><ellipse class="cls-3" cx="414.82" cy="233.38" rx="6.13" ry="2.72"/><ellipse class="cls-3" cx="425.03" cy="238.83" rx="2.72" ry="6.81" transform="translate(95.76 598.38) rotate(-76.85)"/><ellipse class="cls-3" cx="403.23" cy="229.29" rx="2.72" ry="6.81" transform="translate(88.2 569.78) rotate(-76.85)"/><ellipse class="cls-3" cx="403.23" cy="236.11" rx="2.72" ry="6.81" transform="translate(38.76 528.51) rotate(-69.09)"/><ellipse class="cls-3" cx="378.71" cy="226.57" rx="6.81" ry="2.72"/><ellipse class="cls-3" cx="382.8" cy="221.12" rx="6.81" ry="2.72" transform="translate(-16.25 30.89) rotate(-4.53)"/><ellipse class="cls-3" cx="438.9" cy="168.87" rx="2.72" ry="6.13" transform="translate(-14.05 295.3) rotate(-36.64)"/><ellipse class="cls-3" cx="432.6" cy="158.01" rx="2.72" ry="6.13" transform="translate(-8.81 289.39) rotate(-36.64)"/><ellipse class="cls-3" cx="422.87" cy="150.67" rx="2.72" ry="6.13" transform="translate(-6.36 282.14) rotate(-36.64)"/><ellipse class="cls-3" cx="410.21" cy="144.17" rx="2.72" ry="6.13" transform="translate(-4.98 273.3) rotate(-36.64)"/><ellipse class="cls-3" cx="394.63" cy="138.52" rx="2.72" ry="6.13" transform="translate(-4.69 262.88) rotate(-36.64)"/><ellipse class="cls-3" cx="380.88" cy="130.44" rx="2.72" ry="6.13" transform="translate(34.45 335.55) rotate(-49.53)"/><ellipse class="cls-3" cx="369.32" cy="125.53" rx="2.72" ry="6.13" transform="matrix(0.8, -0.6, 0.6, 0.8, -1.94, 245.21)"/><ellipse class="cls-3" cx="359.94" cy="123.8" rx="2.72" ry="6.13" transform="translate(32.15 317.28) rotate(-49.53)"/><ellipse class="cls-3" cx="349.72" cy="119.14" rx="2.72" ry="6.13" transform="translate(40.76 321.72) rotate(-52.07)"/><ellipse class="cls-3" cx="346.09" cy="108.77" rx="2.72" ry="6.13" transform="translate(176.25 429.34) rotate(-79.53)"/><ellipse class="cls-3" cx="356.56" cy="112.09" rx="2.72" ry="6.13" transform="translate(230.34 463.9) rotate(-87.71)"/><ellipse class="cls-3" cx="366.78" cy="116.75" rx="2.72" ry="6.13" transform="translate(235.5 478.59) rotate(-87.71)"/><ellipse class="cls-3" cx="389.66" cy="127.9" rx="2.72" ry="6.13" transform="translate(193.09 487.85) rotate(-79.53)"/><ellipse class="cls-3" cx="411.7" cy="136.13" rx="2.72" ry="6.13" transform="translate(203.03 516.25) rotate(-79.53)"/><ellipse class="cls-3" cx="420.76" cy="143.35" rx="2.72" ry="6.81" transform="translate(120.84 471.42) rotate(-66.38)"/><ellipse class="cls-3" cx="401.05" cy="130.01" rx="2.72" ry="6.81" transform="translate(121.25 445.37) rotate(-66.38)"/><ellipse class="cls-3" cx="399.81" cy="136.71" rx="2.72" ry="6.81" transform="translate(74.92 406.86) rotate(-58.62)"/><ellipse class="cls-3" cx="377.43" cy="122.87" rx="2.72" ry="6.81" transform="matrix(0.18, -0.98, 0.98, 0.18, 188.03, 471.7)"/><ellipse class="cls-3" cx="382.44" cy="118.26" rx="2.72" ry="6.81" transform="translate(225.23 486.4) rotate(-84.06)"/><ellipse class="cls-3" cx="68.31" cy="315.89" rx="6.13" ry="2.72" transform="translate(-249.75 373.23) rotate(-88.02)"/><ellipse class="cls-3" cx="67.32" cy="303.37" rx="6.13" ry="2.72" transform="matrix(0.03, -1, 1, 0.03, -238.19, 360.15)"/><ellipse class="cls-3" cx="71.15" cy="291.8" rx="6.13" ry="2.72" transform="translate(-222.94 352.81) rotate(-88.02)"/><ellipse class="cls-3" cx="77.86" cy="279.26" rx="6.13" ry="2.72" transform="translate(-203.92 347.42) rotate(-88.02)"/><ellipse class="cls-3" cx="87.47" cy="265.75" rx="6.13" ry="2.72" transform="translate(-181.15 343.97) rotate(-88.02)"/><ellipse class="cls-3" cx="94.18" cy="251.28" rx="6.13" ry="2.72" transform="translate(-172.86 277.8) rotate(-75.13)"/><ellipse class="cls-3" cx="100.9" cy="240.67" rx="6.13" ry="2.72" transform="translate(-143.11 333.19) rotate(-88.02)"/><ellipse class="cls-3" cx="107.63" cy="233.91" rx="6.13" ry="2.72" transform="translate(-146.07 277.89) rotate(-75.13)"/><ellipse class="cls-3" cx="113.39" cy="224.27" rx="6.13" ry="2.72" transform="translate(-134.53 265.37) rotate(-72.59)"/><ellipse class="cls-3" cx="110.48" cy="213.67" rx="6.13" ry="2.72" transform="translate(-118.89 141.2) rotate(-45.13)"/><ellipse class="cls-3" cx="103.75" cy="222.36" rx="6.13" ry="2.72" transform="translate(-112.81 107) rotate(-36.94)"/><ellipse class="cls-3" cx="97.99" cy="232.01" rx="6.13" ry="2.72" transform="translate(-119.77 105.48) rotate(-36.94)"/><ellipse class="cls-3" cx="85.52" cy="254.19" rx="6.13" ry="2.72" transform="translate(-154.95 135.45) rotate(-45.13)"/><ellipse class="cls-3" cx="72.07" cy="273.49" rx="6.13" ry="2.72" transform="translate(-172.59 131.6) rotate(-45.13)"/><ellipse class="cls-3" cx="68.72" cy="284.58" rx="6.81" ry="2.72" transform="translate(-209.47 193.4) rotate(-58.28)"/><ellipse class="cls-3" cx="77.35" cy="262.4" rx="6.81" ry="2.72" transform="translate(-186.52 190.22) rotate(-58.28)"/><ellipse class="cls-3" cx="82.17" cy="267.21" rx="6.81" ry="2.72" transform="translate(-195.38 233.77) rotate(-66.04)"/><ellipse class="cls-3" cx="92.72" cy="243.1" rx="6.81" ry="2.72" transform="translate(-144.97 137.28) rotate(-45.13)"/><ellipse class="cls-3" cx="85.97" cy="242.15" rx="6.81" ry="2.72" transform="translate(-136.89 114.24) rotate(-40.6)"/><ellipse class="cls-3" cx="79.21" cy="185.09" rx="6.13" ry="2.72" transform="matrix(0.03, -1, 1, 0.03, -108.51, 257.85)"/><ellipse class="cls-3" cx="78.22" cy="172.57" rx="6.13" ry="2.72" transform="translate(-96.95 244.77) rotate(-88.02)"/><ellipse class="cls-3" cx="82.05" cy="161" rx="6.13" ry="2.72" transform="translate(-81.69 237.43) rotate(-88.02)"/><ellipse class="cls-3" cx="88.76" cy="148.46" rx="6.13" ry="2.72" transform="translate(-62.68 232.03) rotate(-88.02)"/><ellipse class="cls-3" cx="98.37" cy="134.95" rx="6.13" ry="2.72" transform="matrix(0.03, -1, 1, 0.03, -39.9, 228.59)"/><ellipse class="cls-3" cx="105.08" cy="120.48" rx="6.13" ry="2.72" transform="translate(-38.34 191.12) rotate(-75.13)"/><ellipse class="cls-3" cx="111.8" cy="109.87" rx="6.13" ry="2.72" transform="translate(-1.87 217.81) rotate(-88.02)"/><ellipse class="cls-3" cx="118.53" cy="103.11" rx="6.13" ry="2.72" transform="translate(-11.55 191.2) rotate(-75.13)"/><ellipse class="cls-3" cx="124.29" cy="93.47" rx="6.13" ry="2.72" transform="translate(-2.08 184.1) rotate(-72.59)"/><ellipse class="cls-3" cx="121.38" cy="82.87" rx="6.13" ry="2.72" transform="translate(-22.99 110.42) rotate(-45.13)"/><ellipse class="cls-3" cx="114.65" cy="91.56" rx="6.13" ry="2.72" transform="translate(-32.01 87.29) rotate(-36.94)"/><ellipse class="cls-3" cx="108.89" cy="101.21" rx="6.13" ry="2.72" transform="matrix(0.8, -0.6, 0.6, 0.8, -38.97, 85.77)"/><ellipse class="cls-3" cx="96.42" cy="123.39" rx="6.13" ry="2.72" transform="translate(-59.05 104.66) rotate(-45.13)"/><ellipse class="cls-3" cx="82.97" cy="142.69" rx="6.13" ry="2.72" transform="translate(-76.69 100.81) rotate(-45.13)"/><ellipse class="cls-3" cx="79.62" cy="153.78" rx="6.81" ry="2.72" transform="translate(-93.05 140.65) rotate(-58.28)"/><ellipse class="cls-3" cx="88.25" cy="131.6" rx="6.81" ry="2.72" transform="translate(-70.09 137.47) rotate(-58.28)"/><ellipse class="cls-3" cx="93.07" cy="136.41" rx="6.81" ry="2.72" transform="translate(-69.38 166.06) rotate(-66.04)"/><ellipse class="cls-3" cx="103.62" cy="112.3" rx="6.81" ry="2.72" transform="translate(-49.07 106.49) rotate(-45.13)"/><ellipse class="cls-3" cx="96.87" cy="111.35" rx="6.81" ry="2.72" transform="translate(-49.14 89.85) rotate(-40.6)"/><ellipse class="cls-3" cx="80.38" cy="231.4" rx="6.13" ry="2.72" transform="translate(-157.49 289.92) rotate(-84.66)"/><ellipse class="cls-3" cx="80.13" cy="218.84" rx="6.13" ry="2.72" transform="matrix(0.09, -1, 1, 0.09, -145.22, 278.27)"/><ellipse class="cls-3" cx="84.63" cy="207.52" rx="6.13" ry="2.72" transform="matrix(0.09, -1, 1, 0.09, -129.86, 272.48)"/><ellipse class="cls-3" cx="92.06" cy="195.39" rx="6.13" ry="2.72" transform="translate(-111.04 268.89) rotate(-84.66)"/><ellipse class="cls-3" cx="102.44" cy="182.47" rx="6.13" ry="2.72" transform="translate(-88.76 267.5) rotate(-84.66)"/><ellipse class="cls-3" cx="109.99" cy="168.42" rx="6.13" ry="2.72" transform="translate(-84.38 220.21) rotate(-71.77)"/><ellipse class="cls-3" cx="117.32" cy="158.22" rx="6.13" ry="2.72" transform="translate(-51.12 260.32) rotate(-84.66)"/><ellipse class="cls-3" cx="124.43" cy="151.86" rx="6.13" ry="2.72" transform="translate(-58.73 222.55) rotate(-71.77)"/><ellipse class="cls-3" cx="130.75" cy="142.57" rx="6.13" ry="2.72" transform="translate(-48.91 214.29) rotate(-69.24)"/><ellipse class="cls-3" cx="128.46" cy="131.83" rx="6.13" ry="2.72" transform="translate(-55.17 119.09) rotate(-41.77)"/><ellipse class="cls-3" cx="121.24" cy="140.1" rx="6.13" ry="2.72" transform="translate(-57.27 90.47) rotate(-33.59)"/><ellipse class="cls-3" cx="114.92" cy="149.4" rx="6.13" ry="2.72" transform="translate(-63.47 88.53) rotate(-33.59)"/><ellipse class="cls-3" cx="101.17" cy="170.82" rx="6.13" ry="2.72" transform="translate(-88.08 110.82) rotate(-41.77)"/><ellipse class="cls-3" cx="86.62" cy="189.3" rx="6.13" ry="2.72" transform="translate(-104.08 105.82) rotate(-41.77)"/><ellipse class="cls-3" cx="82.63" cy="200.17" rx="6.81" ry="2.72" transform="translate(-128.67 152.76) rotate(-54.92)"/><ellipse class="cls-3" cx="92.53" cy="178.53" rx="6.81" ry="2.72" transform="translate(-106.75 151.66) rotate(-54.92)"/><ellipse class="cls-3" cx="97.07" cy="183.61" rx="6.81" ry="2.72" transform="translate(-110.61 185.6) rotate(-62.68)"/><ellipse class="cls-3" cx="109.01" cy="160.16" rx="6.81" ry="2.72" transform="translate(-78.99 113.33) rotate(-41.77)"/><ellipse class="cls-3" cx="102.33" cy="158.82" rx="6.81" ry="2.72" transform="translate(-75.25 94.33) rotate(-37.25)"/></svg>