<svg xmlns="http://www.w3.org/2000/svg" viewBox="0 0 49.01 70.32"><defs><style>.cls-1{fill:#f8ea80;}.cls-2{fill:#080804;}.cls-3{fill:#0d0c07;}.cls-4{fill:#0f0e08;}</style></defs><g id="레이어_2" data-name="레이어 2"><g id="레이어_1-2" data-name="레이어 1"><path d="M30.12,61.89a16.84,16.84,0,0,1-6.25-1.08c-1.29-.48-1.48-.39-1.88.9a4.61,4.61,0,0,1-.2.56c-.52,1-.37,1.6.77,2.12a24.06,24.06,0,0,1,4.91,3,5.07,5.07,0,0,1,1,.9c.67.89.43,1.57-.67,1.86A12.75,12.75,0,0,1,22.64,70,70.18,70.18,0,0,1,8.53,66.4a13.85,13.85,0,0,1-6.81-5.05c-2.65-3.78-2.23-7.62,1.2-10.7.51-.46.6-.7.22-1.31a8.89,8.89,0,0,1,3.35-12.8,3,3,0,0,0,1.69-2,27,27,0,0,1,1.53-3.62A13.1,13.1,0,0,0,10.45,29c.14-.62,0-1.28.15-1.9.18-1-.81-.79-1.2-1.18a5.28,5.28,0,0,1-1.22-1.61C6.21,19.94,7,12.1,12,8.55a9.07,9.07,0,0,1,7.2-1.81,3.52,3.52,0,0,1,2.59,1.74c.13.24.11.71.61.53.34-.12.69-.2.76-.65a6.27,6.27,0,0,1,.22-.93c1.53-5.24,5-7.85,10.49-7.37,5.28.46,9.47,2.92,12,7.76a7.91,7.91,0,0,1,.77,5c-.38,2.43-.28,5-1.28,7.27a6,6,0,0,0-.27,5,5.32,5.32,0,0,1-.2,4,16.6,16.6,0,0,0-.7,2.53c-.08.33-.19.79.11,1s.7,0,1-.18c.72-.43,1.43-.87,2.14-1.31.37-.23.73-.57,1.2-.28s.44.81.4,1.29a28.48,28.48,0,0,1-1.4,5.67A47.07,47.07,0,0,1,46,42.3c-1,2.36-.91,4.91-1.46,7.35C43,56.86,36.84,61.89,30.12,61.89Z"/><path class="cls-1" d="M48.27,31.77a25.4,25.4,0,0,1-1.4,5.83c-.25.84-.51,1.68-.84,2.49-1.25,3-1.56,6.23-2.22,9.38A14.45,14.45,0,0,1,29.08,61.16a15.43,15.43,0,0,1-5-1.06c-1.61-.59-2.28-.26-2.78,1.33-.71,2.29-.71,2.29-3.05,1.68a26.44,26.44,0,0,1-5.4-1.9c-1.3-.66-2.71-1.26-3.16-2.88-.06-.22-.2-.35-.43-.28s-.26.26-.23.48a3.41,3.41,0,0,0,1.62,2.27,18.61,18.61,0,0,0,5.77,2.54c3.22.89,6.52,1.55,9.27,3.64.48.36,1,.67,1.46,1s1,.61.8,1.07-.87.41-1.37.45a16.84,16.84,0,0,1-3.82-.29A70.14,70.14,0,0,1,8.87,65.73a14,14,0,0,1-6-4.14c-4.2-5-1.51-10.26,3.51-12,.37-.13,1.24.06,1-.62S6.49,48.94,6,49c-.65.07-1.36,1-1.82.52a4.78,4.78,0,0,1-1.55-3.15,16.26,16.26,0,0,1,.25-4.77C3.4,39.4,5,38.14,6.85,37.2a3,3,0,0,0,2-2.42,10.11,10.11,0,0,1,1.33-3.18,10.43,10.43,0,0,0,1.17-5.06c0-.45,0-.77-.59-.84a2.35,2.35,0,0,1-1.73-1.34c-2.27-4-1.58-13.45,5.3-16.34a7.43,7.43,0,0,1,4.56-.58A3.79,3.79,0,0,1,20.25,8c1.14.75,1.15,1.36.05,2.08-.25.16-.72.26-.53.65s.6.15.9,0a10.44,10.44,0,0,1,4.59-1.57c.26,0,.64,0,.62-.41s-.46-.3-.74-.29c-1.38,0-1.38,0-.93-1.28C25.89,2.15,29.85-.14,35,.88a14.76,14.76,0,0,1,8.75,5A8.56,8.56,0,0,1,45.84,13c-.48,3.07-.51,6.22-2.14,9a1.43,1.43,0,0,0,.09,1.27,8.09,8.09,0,0,1,0,6.72,2.86,2.86,0,0,0-.33,1.5c.16,1.3-.64,1.87-1.57,2.4A20.23,20.23,0,0,1,33.94,36c-.34,0-.95-.23-.9.41s.58.32.9.29c3.39-.34,6.74-.81,9.52-3.07.12-.1.27-.25.4-.24,1.55.19,2.59-.86,3.78-1.55C47.81,31.75,48,31.59,48.27,31.77Z"/><path class="cls-2" d="M26.79,36.73a19.41,19.41,0,0,1-5.56-1.12c-.29-.1-.72-.15-.6-.58s.52-.23.79-.14A18.59,18.59,0,0,0,28.35,36c.27,0,.61-.06.64.34s-.34.38-.6.39C28,36.75,27.52,36.73,26.79,36.73Z"/><path class="cls-3" d="M30.41,18.44l3,.76c.27.07.45.21.4.49s-.35.29-.57.24c-1-.24-2-.49-3-.76-.25-.07-.59-.17-.45-.55S30.17,18.39,30.41,18.44Z"/><path class="cls-3" d="M22.75,20.23c-.05.08-.1.2-.19.25l-2.85,1.69a.33.33,0,0,1-.51-.09.35.35,0,0,1,.11-.51c.94-.57,1.89-1.14,2.86-1.68C22.43,19.74,22.72,19.79,22.75,20.23Z"/><path class="cls-4" d="M27.12,23.27c-.45-.07-1.1-.05-1.06-.58.07-.71.8-.81,1.41-.83.42,0,1,0,1,.54C28.44,23.18,27.62,23.07,27.12,23.27Z"/></g></g></svg>