<svg id="레이어_1" data-name="레이어 1" xmlns="http://www.w3.org/2000/svg" viewBox="0 0 500 500"><defs><style>.cls-1{fill:#9ad3e2;}.cls-1,.cls-2,.cls-3{stroke:#000;}.cls-1,.cls-2,.cls-3,.cls-4{stroke-linecap:round;stroke-linejoin:round;stroke-width:4px;}.cls-2{fill:#606060;}.cls-3{fill:#999292;}.cls-4{fill:none;stroke:#fff;}.cls-5{fill:#fff;opacity:0.75;}</style></defs><ellipse class="cls-1" cx="247.29" cy="248.44" rx="174.94" ry="83.14"/><path class="cls-2" d="M174.54,180.89l37.12,10.58s20-21,14.85-34.83-26.11-21.46-39-18.52S164.15,161.84,174.54,180.89Z"/><path class="cls-3" d="M122.58,205.14s36.37,8.66,41.57,6.93,28.22-23.76,27.1-35.26-6.89-28.59-34.32-26.11-43.61,19-45,30.68S122.58,205.14,122.58,205.14Z"/><path class="cls-3" d="M214.68,176.81s9.52,14.84,34.06,14.66,29.73-1.92,36.66-22.7-22.77-31.86-32.17-30.65S189,141.55,214.68,176.81Z"/><path class="cls-2" d="M77.12,222.22s52.39,17.56,64.51,7.17,8.66-24.25-6.93-43.3-55.36-19.06-66.65,0S62.84,218.51,77.12,222.22Z"/><path class="cls-3" d="M62.18,249S42.9,238.05,53.3,217.27s45.62-9.94,52.25-5,16.2,31.89,6.22,31.42S67.6,253,62.18,249Z"/><path class="cls-2" d="M74.85,290.46s-31.95,3-37.14-14.3-13.14-35.08,28.07-40.92,58.53-9.31,56.8,18.4S99.78,284,93,290.46,74.85,290.46,74.85,290.46Z"/><path class="cls-3" d="M133.81,330.87S71.07,338.07,62.18,314s26.35-41.94,43.37-41.65,44.74,5.5,51.67,9S181.41,326.69,133.81,330.87Z"/><path class="cls-2" d="M207.9,345.71S133,357.57,133,322.92s24.25-43.3,46.77-38.1,38.11,15.59,39.84,20.78S222.2,344.25,207.9,345.71Z"/><path class="cls-2" d="M311.43,181.38s-26.82,10.77-38.55-9.58,36.39-37.44,46.11-21.1S321.87,174.94,311.43,181.38Z"/><path class="cls-3" d="M358.15,194.75s-35.84,3.83-48.23-3.28-6.66-31.81,0-32.45,24.55-7.82,35.52-8.56,14.25-.12,20.41,14.29S366.81,194.75,358.15,194.75Z"/><path class="cls-3" d="M386.26,212.3c-10.79-.08-42.1-.39-32.51-39.28s70.38,1.92,70.3,8.36S419.56,212.53,386.26,212.3Z"/><path class="cls-2" d="M402.88,243.72c-6.63-.47-35.36-7.31-22.73-31.61s58.53-17.66,77.15,8.47-11.6,30.83-18.14,29.35S402.88,243.72,402.88,243.72Z"/><path class="cls-2" d="M377,276.17s-8.44-29.46,29.67-36.39,62.29,23.65,59.72,32.61-9.49,31.48-37.21,34.95S376.76,276.19,377,276.17Z"/><path class="cls-3" d="M343.17,307.58c2.85-3.71,23.2-49.79,71.05-24.15s-16.71,61.27-35.52,64.24-31.75,0-31.75,0Z"/><path class="cls-2" d="M302.62,352.51s45.14,3.33,57.26-8.8-2.24-47.35-16.71-43.59-32.12-7-45.81,12.23S302.62,352.51,302.62,352.51Z"/><path class="cls-3" d="M212.41,349s24.28,27.91,90.21,3.52c17.42-5.34,7-45.17-5.26-50.37-9.56-4.05-31-17.6-49.2-8.8s-45,10.52-40.26,33S212.41,349,212.41,349Z"/><path class="cls-4" d="M292.33,286.55s55.43,3.46,76.21-32.91"/><path class="cls-4" d="M300.12,271.76s39.26,2.75,54-26.16"/><path class="cls-5" d="M245.09,169.6s17.19-32.78,56.69-8.66c0,0,25.2-21.9,47.35,6.94,0,0,78.73,17.21,36.53,52.07,0,0-36.07,24.86-56.44,4.52,0,0-44.37,21.92-64.43-14.13C264.79,210.34,220.16,210.82,245.09,169.6Z"/><path class="cls-5" d="M101.43,264.65s4.53-40.53,42.68-23.45c0,0,13.94-30.43,39.6-3.88,0,0,67.42-.17,43.57,48.77,0,0-21.76,36.34-43.64,18.79,0,0-29.18,35.13-55.19.09C128.45,305,93.08,316.41,101.43,264.65Z"/></svg>