<svg id="레이어_1" data-name="레이어 1" xmlns="http://www.w3.org/2000/svg" viewBox="0 0 500 500"><defs><style>.cls-1{fill:silver;}.cls-2{fill:#010101;}.cls-3{fill:#ba7137;}.cls-4{fill:#e1be78;}.cls-5{fill:#754b42;}</style></defs><path class="cls-1" d="M285.93,367.47a2.57,2.57,0,0,1-.05-.68,12.66,12.66,0,0,1,12.59-.05,1.22,1.22,0,0,0,0,.73Z"/><path class="cls-2" d="M298.47,366.74l-12.59.05c-18.69-1.15-36.14-6.78-52.95-14.69a28.63,28.63,0,0,1-9.9-7.48c-6.22-7.46-12.35-15-19.55-21.86-5,4.68-10.41,9.12-17.28,11.49a37.91,37.91,0,0,1-22.12,1.18c-8.46-2.16-16.72-5-24.06-9.92a12.24,12.24,0,0,0-5.27-2.33C117,321,105.23,310.76,98,294.9c-4.89-10.74-9.23-21.67-9-33.81a3,3,0,0,0-.41-1.52c-9-15.13-8.47-31.26-4.33-47.47,3.38-13.28,9.18-25.3,21.41-33,2.41-1.53,3.31-4.38,4.64-6.8,5.28-9.59,12.28-17.09,23.57-19.4,2-.41,3.37-1.84,4.89-3.06,8.85-7.13,18.46-13.35,29.84-14.7,10.4-1.24,20.92-2.34,31.38-2.57,16.33-.35,30.75,6.21,44.29,14.75a24.49,24.49,0,0,1,7.43,7.79c.74,1.14,1.43,1.91,3,1.28,8.36-3.37,17.25-3.88,26.08-4.67,1-.09,2.07.31,2.82-1.08,5.47-10.27,15.29-12.69,25.63-13.28,15.34-.88,29,4.94,42.36,11.71A89.26,89.26,0,0,1,367,159a8.37,8.37,0,0,0,8.53,1.5c4.51-1.49,6.78-.26,9,4.11,1.93,3.82,1.61,8.11,2.9,12.06,3.12,9.52,7.92,18.28,12,27.35,8,17.73,14.93,35.8,17.88,55.16,2.65,17.43,1.14,34.61-3.42,51.54a38.13,38.13,0,0,1-9.19,16.1c-4.91,5.29-9.73,10.66-15.09,15.52-1.24,1.12-2.45,2.53-4.13,2.67-5.72.49-9.23,4.6-13.33,7.78a66.83,66.83,0,0,1-28.78,13.27c-7.1,1.36-13.82.49-20-3.27a4.64,4.64,0,0,0-4.57-.43A72.37,72.37,0,0,1,298.47,366.74Z"/><path class="cls-3" d="M260.22,354.75a172.3,172.3,0,0,0,24.65-16.36,134.87,134.87,0,0,0,16.76-16.18c1.88-2.17,3.32-4.6.63-6.84-2.52-2.1-4.58-.3-6.33,1.76-10.78,12.63-23.85,22.36-38.31,30.35-2.15,1.18-4.36,4.11-6.08,3.8-4.27-.79-8.28-3-12.53-4.7.66-1.78,2.2-2.18,3.43-2.81,27.71-14.33,50.13-35.13,70.89-57.94,21.91-24.06,39.33-51.3,55.76-79.22,1.89-3.22,3.7-6.55,4.41-10.28.41-2.1-.13-4-2.43-4.65s-3.76.3-4.65,2.43c-5.72,13.81-14.25,26-22.25,38.5-20.75,32.37-45.51,61.27-75.69,85.3a175.49,175.49,0,0,1-28.22,18.4c-1.11.58-2.21,1.17-3.27,1.82-6.28,3.83-6.62,4.09-11.17-2.07-6.52-8.82-15.78-15.37-20.68-25.46-4.61-9.5-9.22-19-10.21-29.74a75.58,75.58,0,0,1,5.37-35.41,3.35,3.35,0,0,1,.2-.37c2.2-3.3,1.27-7.91,3.69-10.81,9.78-11.75,20.14-22.94,34.23-29.79,3-1.45,5.89-3.12,8.87-4.6,2.41-1.2,4-2.9,2.67-5.61s-3.7-2.23-6.06-1.18c-16,7.13-26.39,15.11-42,32.52-1.36-6.14.31-11.35,3.22-16.3,9.58-16.26,23-28.5,38.75-38.79,16.4-10.67,34.19-12.39,52.7-11,23.26,1.8,44.79,8.9,63.88,22.66,2,1.44,4,1.48,5.5-.53,1.85-2.47.55-4.41-1.54-6-9.38-7.15-19.92-12-31-15.85-13.25-4.6-26.76-8-41.8-8.25a29.14,29.14,0,0,1,17.83-6.82c13.23-.57,25,4.33,36.57,9.88a82.22,82.22,0,0,1,16.14,10.25c3.79,3.06,8,4.44,12.78,3.51,1.95-.38,3.28-.15,3.55,2.14,1.38,11.85,7.23,22,12.14,32.58,8.45,18.15,15.85,36.65,19.08,56.57,2.6,16,1.21,31.81-2.71,47.44a34.27,34.27,0,0,1-8.41,15.11,123.74,123.74,0,0,1-14.71,14.1c3.83-7.5,1.56-16.3,7.17-23.7,9.79-12.92,12.1-28,8.52-43.91a49.74,49.74,0,0,1-1.05-7c-.2-2.66-1-4.85-4-4.73-3.39.13-3.87,2.68-3.48,5.42.44,3.15,1,6.29,1.58,9.42a46.82,46.82,0,0,1-8.22,37.51,26.73,26.73,0,0,0-5.48,14.39c-.39,5.68-2.8,11.24-4.56,16.78-.65,2-2.87,2.94-4.44,4.27a60.73,60.73,0,0,1-28,13.9,22,22,0,0,1-11.1-.63c-1.94-.61-3-1.49-1.12-3.37a.91.91,0,0,0,.25-.34c1.91-6.41,6.75-9.38,12.49-12.28,9.16-4.65,14.58-13.15,18.4-22.41,6-14.48,9.75-29.49,9.23-45.33,0-.69,0-1.39,0-2.08-.21-2.49-1.25-4.44-4-4.38s-3.58,2.07-3.47,4.62a98.17,98.17,0,0,1-4.1,31.22c-2.43,8.45-5.42,16.62-10.78,23.74-7.69,10.22-17.23,13.64-29.53,10.38-2.39-.63-4.28-.25-5.17,2-1,2.56.31,4.27,2.79,5.13a21.45,21.45,0,0,0,6.85,1.64c2.93,0,2.49,1.38,1.32,3.06-2.35,3.37-5.87,5-9.61,6.21-14.41,4.77-29,4-43.59,1.14C267.49,356.45,264.33,355.67,260.22,354.75Z"/><path class="cls-4" d="M180.49,141.78c7.07,1,14.07-2.73,21.51-1.93,15.06,1.63,29,6.21,40.66,16.13,4.53,3.86,4.2,4.13-.65,7.15-4.36,2.71-8.63,5.56-12.89,8.4-1.18.79-2.14,1.63-3.66.54-8.49-6.1-18.29-5.87-27.67-4.18-31.32,5.62-53.72,23.16-66.84,52.25-2.67,5.93-4.88,12.06-7.26,18.12-2.07,5.24-1.42,9.93,2.49,14.24,3.58,4,4.19,9.19,5.54,14.14,5.49,20,15.74,36.77,35.08,46,9.06,4.33,18.93,5.51,28.35-.12.94-.57,2-1.34,2.62.37.47,1.37,2.33,2.39.47,4.31-9.28,9.6-20.15,14.18-33.47,10.66-7.36-1.95-14.59-4.42-20.93-8.89a15.8,15.8,0,0,0-7.21-3.06c-17.44-1.88-27.36-12.71-33.5-28-3.72-9.26-7.59-18.53-6.24-28.92a3.38,3.38,0,0,0-1.16-3c-3.42-3.08-4.34-7.2-5.23-11.49C87.17,228.47,90,213.39,97.39,199a32.22,32.22,0,0,1,11.23-12.59c3.62-2.34,5.94-5.76,7.87-9.51,4.42-8.63,10.43-15.32,20.59-17.14,2.34-.42,4.13-2.16,6-3.65,8.4-6.8,17.48-12.21,28.35-14.09C174.33,141.52,177.22,142,180.49,141.78Z"/><path class="cls-5" d="M220.74,178a127.73,127.73,0,0,0-17.05,19.55c-4.6,6.48-8.63,13.17-9.85,21.29-.66,4.45.4,8.56,1.38,12.7a14.39,14.39,0,0,1-1.06,9.27c-8.35,20-10.29,40.14-1.48,60.5,1.12,2.6.86,3.81-1.79,5-10.53,4.68-20.35,2-28.36-4.68-11.72-9.82-20.71-21.91-23.63-37.58-1.18-6.32-3.26-12.35-7.61-17.32a4.37,4.37,0,0,1-1-4.62c6.25-17.47,13-34.76,27.68-47.16,15.11-12.79,32.08-21.32,52.67-20.07A18.6,18.6,0,0,1,220.74,178Z"/><path class="cls-2" d="M269.34,205.73a20.85,20.85,0,0,0,0,2.5c.65,5.72,1.15,6,6.92,5.16a79.29,79.29,0,0,1,22.4-.25c2.72.37,4.75,1.4,4.42,4.31s-2.71,3.58-5.34,3.21a64,64,0,0,0-26,1.54c-17.72,4.78-29.07,16.49-36.07,33-.65,1.53-.53,2.37.84,3.48,9.07,7.35,10.55,16.8,7,27.37-1.53,4.6-3.52,9-5.28,13.55-.88,2.27-2.5,3.49-4.86,2.73-2.65-.85-3.11-3-2.23-5.42,1.35-3.63,2.87-7.21,4.38-10.79s2.53-7.36,2-11.33c-.64-5.37-3.34-9.4-8.33-11.58-4.48-2-8.06.43-11.45,3a13.73,13.73,0,0,0-2.83,3c-1.58,2.19-3.54,3.51-5.94,1.71-2.61-2-1.67-4.27,0-6.51a22.69,22.69,0,0,1,15.68-9.25c2.06-.26,3.08-.86,3.9-2.85,6.44-15.63,16.91-27.56,32.6-34.47,1.95-.86,2.34-1.72,1.68-3.76-6-18.8,8.92-40.91,34.1-38.7,13.26,1.17,25.9,4.58,38.38,8.85.53.18,1,.43,1.55.6,2.57.82,3.74,2.6,2.79,5.1-.89,2.31-2.86,2.71-5.19,2-6.21-2-12.38-4.09-18.67-5.73-8.47-2.21-17.09-3.76-25.92-3A22.76,22.76,0,0,0,269.34,205.73Z"/></svg>