<svg id="레이어_1" data-name="레이어 1" xmlns="http://www.w3.org/2000/svg" xmlns:xlink="http://www.w3.org/1999/xlink" viewBox="0 0 500 500"><defs><style>.cls-1{fill:#f9e9cf;}.cls-1,.cls-2,.cls-3,.cls-4,.cls-5{stroke:#000;stroke-linecap:round;stroke-linejoin:round;}.cls-1,.cls-2,.cls-3,.cls-4{stroke-width:5px;}.cls-2{fill:url(#무제_그라디언트_5);}.cls-3{fill:#f4cd6c;}.cls-4,.cls-5{fill:none;}.cls-5{stroke-width:4px;}</style><radialGradient id="무제_그라디언트_5" cx="250.08" cy="166.67" r="167.37" gradientUnits="userSpaceOnUse"><stop offset="0.01" stop-color="#ffc674"/><stop offset="0.12" stop-color="#e9aa5a"/><stop offset="0.38" stop-color="#b26217"/><stop offset="0.46" stop-color="#9f4900"/></radialGradient></defs><path class="cls-1" d="M93.38,98.42s106.72,3.44,118.76,3.44h138c4.84,0,53-8.6,53-8.6L398,201.69l-74,15.5-68.85,5.16L133,206.86l-36.15,1.72L102,170.71Z"/><path class="cls-2" d="M133,206.86s13.77-80.9,111.88-94.67S367.2,206.86,367.2,206.86L324,217.19l-68.85,5.16Z"/><path class="cls-3" d="M96.82,208.58,133,206.86l122.2,15.49L324,217.19l43.18-10.33L398,201.69S422.13,391,420.41,396.19s-151.38,3.44-161.75,0-56.84-10.33-56.84-10.33l-44.43,13.59s-76.06,8.79-77.78,7.07S96.82,208.58,96.82,208.58Z"/><ellipse class="cls-4" cx="253.45" cy="311.85" rx="99.83" ry="48.19"/><polyline class="cls-5" points="148.46 181.04 156.89 181.04 169.11 187.92 181.16 177.6 193.21 174.16 201.82 179.32 208.47 187.92 217.31 194.81 231.5 184.48 217.48 174.16 205.26 172.43 205.26 160.38 189.98 160.38 169.41 166.66"/><polyline class="cls-5" points="157.9 201.69 180.3 192.23 200.96 199.11 208.47 187.92 228.5 206 240.01 201.69 248.29 196.96 238.82 183.62 249.15 177.6 259.48 188.78 269.81 183.62 281.85 173.29 291.59 173.29 301.6 160.38 309.61 160.38 319.72 150.92 331.64 157.8 341.66 160.38 341.66 173.95 336.93 185.34 345.54 192.23 353.28 194.81 349.67 201.69 340.66 201.69 326.61 197.39 324.88 180.18 331.64 177.6 326.14 166.66 315.62 166.66 299.07 175.01 297.35 185.34 287.02 188.78 291.59 201.69 309.39 199.11 311.12 188.78 319.72 185.34"/><polyline class="cls-5" points="281.85 214.6 293.59 206 300.6 214.6 313.12 201.69"/><polyline class="cls-5" points="189.98 142.41 211.28 137.15 228.5 139.78 245.02 150.92 250 166.66 263.55 166.66 271.56 160.38 264.64 147.48 255.59 147.41"/><polyline class="cls-5" points="284.58 160.38 293.9 154.36 299.07 145.75 309.39 140.59 318.63 140.59"/><polyline class="cls-5" points="288.74 145.75 281.85 137.15 288.74 137.15 292.18 130.26 297.49 125.88"/><polyline class="cls-5" points="255.59 120.88 263.05 125.88 276.56 125.88 281.85 137.15 265.55 135.82 253.45 125.88 237.1 131.99 227.5 129.01"/><polyline class="cls-5" points="231.5 174.45 239.51 166.66 220.99 160.38 209.47 151.91 222.49 145.75"/><polyline class="cls-5" points="250.08 212.01 271.56 212.01 266.36 199.11 279.57 201.69 279.57 188.97 284.58 178.46"/><line class="cls-5" x1="185.47" y1="286.89" x2="202.68" y2="292.06"/><polyline class="cls-5" points="197.51 297.22 185.47 297.22 185.47 309.65 197.51 304.22"/><line class="cls-5" x1="185.47" y1="319.16" x2="204.46" y2="311.85"/><line class="cls-5" x1="209.47" y1="297.22" x2="213.01" y2="326.48"/><line class="cls-5" x1="197.51" y1="323.67" x2="197.51" y2="315.51"/><polyline class="cls-5" points="217.48 303.43 227.5 297.22 224.49 311.85"/><line class="cls-5" x1="242.27" y1="288.62" x2="239.95" y2="311.85"/><polygon class="cls-5" points="231.94 317.88 231.94 326.48 238.82 328.2 244.27 319.16 231.94 317.88"/><line class="cls-5" x1="266.36" y1="295.5" x2="252.59" y2="316.16"/><line class="cls-5" x1="276.69" y1="309.27" x2="260.55" y2="304.22"/><polyline class="cls-5" points="276.69 321.98 257.04 323.04 264.74 321.98 263.05 311.85"/><polyline class="cls-5" points="285.3 293.78 281.85 314.43 296.47 316.15 296.47 295.5 295.15 306.74 284.26 304.97"/><polyline class="cls-5" points="290.27 317.88 290.27 326.48 285.3 326.48 291.96 326.48 299.07 321.32"/><polyline class="cls-5" points="307.67 292.06 319.72 290.34 318 302.38 304.92 304.54 308.49 304.54 307.17 316.15 318.06 311.85 314.56 324.76 323.69 323.04"/></svg>