<svg id="레이어_1" data-name="레이어 1" xmlns="http://www.w3.org/2000/svg" viewBox="0 0 500 500"><defs><style>.cls-1{fill:#8ee5e6;}.cls-2{fill:#f3ca50;}.cls-3{fill:#0c0405;}</style></defs><path d="M354.21,163.86a124.62,124.62,0,0,1-3.56,28.91c-3.22,12.87-.87,19.51,10,27.24,12.39,8.84,26.67,13.05,41.2,16.55a159,159,0,0,0,23.65,3.91c1.47.12,3.15-.3,3.93,1.49a3.2,3.2,0,0,1-1.87,4.32c-10.45,4.84-9.77,12.36-7.63,22.3,8.51,39.42-4.27,73-31.33,101.5-28.75,30.31-65.58,46.38-104.9,57.77-17,4.93-34.12,8.2-51.81,4.67-20.94-4.18-37.13-15.84-49.88-32.6-17.41-22.88-26.17-49.43-32.33-77-6.3-28.18-9-56.8-9.74-85.61-.1-3.74-.5-5.56-5-6.14-28.89-3.71-49.13-19.8-62.66-45-4-7.4-1.67-13.17,6.48-15.55,15.17-4.44,30.08-2.34,44.47,3.22,7.41,2.87,14.52.74,21.74.43,3.15-.14,2.72-3.53,3.33-5.6,7.42-24.78,18.74-47.49,36.61-66.37,30.3-32,67.53-42.76,110-32.47,30.83,7.47,46,31,54.78,59.5C353.08,140.51,354.12,152.15,354.21,163.86Z"/><path class="cls-1" d="M422.73,244.53c-2.57,2.26-4.47,4-6.42,5.62-3,2.54-3.64,5.56-2.56,9.33,13.61,47.38-2.32,85.84-37.68,116.93-34.92,30.7-76.93,47.41-122.67,53.1-29.37,3.65-52.34-10.33-69.55-33.77-15.94-21.72-24.27-46.7-30.11-72.6-6.26-27.74-8.88-55.94-10-84.33-.21-5.13,1.46-7.67,6.05-9.68a98.46,98.46,0,0,0,14.47-8.28,17.55,17.55,0,0,0,6.44-21.7c-4-8.94-9-17.33-16-24.21-1.83-1.77-3.26-3.23-2.35-6.05,11.58-36.11,30-67.25,64.27-86.28,25.76-14.29,53.35-16.31,81.13-8,23.06,6.89,36.56,24.65,44.93,46.36,8.89,23.09,9.88,46.84,4.18,70.83-3.47,14.57-.58,23.21,11.88,31.8,14.54,10,31.25,14.57,48.26,18.13C411.92,242.76,417,243.52,422.73,244.53Z"/><path class="cls-2" d="M95,172.05c8.25.3,16.55,1.18,24.06,4.52,9.58,4.27,19.09,2.32,28.61,1,2.2-.31,3.47-.48,4.95,1.07a71,71,0,0,1,14.92,23.32c2.61,6.64.36,8.89-6.53,8.29-19.52-1.73-36.73-10.56-54.59-17.44-4.78-1.84-9.12-4.22-14.73-1.42-3.89,1.95-15-4.64-16.75-8.89s.51-6.67,4.14-7.9A50.12,50.12,0,0,1,95,172.05Z"/><path class="cls-2" d="M165.46,214.79c-12.63,9.55-24.22,15.43-40,10.67-18.25-5.52-32.67-15.12-43.73-31.75,5.63,1.76,10.39,2.42,15.35.27,1.5-.64,4.07.86,6,1.68,12.14,5.09,24.37,9.89,36.8,14.24C147.85,212.67,156.19,213.1,165.46,214.79Z"/><path class="cls-3" d="M195.29,151.57c9.15,1,15.75,5.34,22,10.34,1.11.88,1.81,2,.93,3.31-1,1.49-2.28.71-3.31-.08-6.2-4.73-12.65-8.89-20.66-9.78-1.23-.14-2.08-1-1.77-2.19A2.17,2.17,0,0,1,195.29,151.57Z"/></svg>