<svg xmlns="http://www.w3.org/2000/svg" viewBox="0 0 62.66 61.38"><defs><style>.cls-1{fill:#f25662;}.cls-2{fill:#020303;}.cls-3{fill:#030403;}.cls-4{fill:#030504;}.cls-5{fill:#e5868d;}</style></defs><g id="레이어_2" data-name="레이어 2"><g id="레이어_1-2" data-name="레이어 1"><path d="M49.6,61.38a65.54,65.54,0,0,1-16.38-2.64,6.85,6.85,0,0,1-5-4.56c-.31-.93-.84-.33-1.18-.17a22.38,22.38,0,0,1-9.27,2.07c-2.63,0-4-1-4-3.61-.1-5,.85-9.76,4.29-13.7.18-.2.52-.37.44-.66s-.52-.27-.82-.32a11.58,11.58,0,0,1-5.38-2.14,4.35,4.35,0,0,1-1.89-4.46A30.68,30.68,0,0,1,11,28a6.24,6.24,0,0,0-1.67-6.38A7.9,7.9,0,0,0,7.4,20c-3.11-1.61-5-4.4-7-7.06-.53-.7-.55-1,.43-1.26,1.82-.44,3.44-1.46,5.32-1.78A25.46,25.46,0,0,1,19.78,11a3.86,3.86,0,0,0,2.8,0,15.68,15.68,0,0,1,4.05-1,1.45,1.45,0,0,0,1.2-.86A15.63,15.63,0,0,0,29,6.32,12.43,12.43,0,0,1,32.15.88C33.31-.24,33.69-.3,34.88.75a31.86,31.86,0,0,1,9.35,14.49,13.35,13.35,0,0,0,4.18,6.27c4.59,3.92,7.55,9,10.07,14.38a44.68,44.68,0,0,1,4.18,19.36c0,3.3-1.36,4.79-4.59,5.33-.4.07-.79.16-1.18.21A49.43,49.43,0,0,1,49.6,61.38Z"/><path class="cls-1" d="M39.34,43.5a10.3,10.3,0,0,1,4.08-5.16c.27-.17,1.09-.25.67-.83s-.79.06-1.13.28a9.79,9.79,0,0,0-3.87,4.45,2.64,2.64,0,0,1-2,1.63,12.58,12.58,0,0,0-9,8.56c-.07.24-.11.41-.38.53A25.11,25.11,0,0,1,17.2,55.38a2.35,2.35,0,0,1-2.43-1.71,7.25,7.25,0,0,1-.32-3.42c.53-4.37,1.61-8.52,4.79-11.84.61-.64,1.33-.34,2-.54.34-.1,1,.17.91-.43s-.65-.3-1-.29c-3.05.11-6-.19-8.5-2.18a3.58,3.58,0,0,1-1.52-3.54,23.84,23.84,0,0,1,.52-3.06A7,7,0,0,0,9.4,20.68a9.22,9.22,0,0,0-2-1.55C4.52,17.66,2.92,15,1,12.54a23.39,23.39,0,0,1,18.7-.8,4.49,4.49,0,0,0,3.17,0,16.25,16.25,0,0,1,3.94-1,2,2,0,0,0,1.54-1,13.81,13.81,0,0,0,1.46-3.37,12.9,12.9,0,0,1,2.73-4.85c.7-.76,1.24-.87,2.06-.1a32.84,32.84,0,0,1,9,14.12A13.83,13.83,0,0,0,48,22.16a31.32,31.32,0,0,1,7.57,9.65c2.21,4.18,4.31,8.43,5.25,13.11A46.94,46.94,0,0,1,62,55c-.05,3.11-1.15,4.3-4.19,4.89-8.35,1.6-16.45.32-24.49-1.9a6.6,6.6,0,0,1-2.67-1.52c-2.13-1.92-2.35-3.73-.82-6.15a11.94,11.94,0,0,1,7-5.59c4.57-1.23,6.33-.34,8.82,2.58.23.27.37.88.86.46s-.07-.61-.29-.87C43.5,43.69,42.15,43.44,39.34,43.5Z"/><path class="cls-2" d="M25.91,37.83h-.8c-.32,0-.76,0-.76-.36s.44-.33.75-.36A30.92,30.92,0,0,0,40,31.56a15.65,15.65,0,0,0,2.25-1.73,4.62,4.62,0,0,0,1.37-2.34c.06-.26,0-.65.41-.59s.37.48.31.79a5.36,5.36,0,0,1-2.14,3.21,37.05,37.05,0,0,1-3.11,2.19A33,33,0,0,1,25.91,37.83Z"/><path class="cls-3" d="M28.76,28.24a3,3,0,0,1-2.15-1,2.05,2.05,0,0,0-2-.76A4,4,0,0,1,22.7,26c-.22-.1-.45-.24-.34-.54s.41-.23.69-.14c2.41.74,2.42.75,4.05-1.27.31-.39.56-.27.92-.15,2.11.69,2.63.49,3.63-1.38.14-.26.24-.55.59-.4s.18.41.13.65a1.07,1.07,0,0,1-.17.44,11.34,11.34,0,0,0-1.92,4A1.59,1.59,0,0,1,28.76,28.24Z"/><path class="cls-4" d="M31.12,16.68c1,0,1.49.46,1.5,1.3a1.23,1.23,0,0,1-1.35,1.33A1.25,1.25,0,0,1,30,17.92C30,17,30.56,16.81,31.12,16.68Z"/><path class="cls-4" d="M23.2,20.45a1.3,1.3,0,0,1-1.34,1.29,1.31,1.31,0,1,1,.1-2.61C22.81,19.18,23.1,19.74,23.2,20.45Z"/><path class="cls-5" d="M28.71,27.5c-.57,0-2.23-1.1-2-1.42.32-.53.66-1.46,1.28-1.32s1.82-.24,2.08.73A1.81,1.81,0,0,1,28.71,27.5Z"/></g></g></svg>