<svg xmlns="http://www.w3.org/2000/svg" viewBox="0 0 62.67 61.38"><defs><style>.cls-1{fill:#fa7d1e;}.cls-2{fill:#020403;}.cls-3{fill:#040403;}.cls-4{fill:#040504;}.cls-5{fill:#e5868d;}</style></defs><g id="레이어_2" data-name="레이어 2"><g id="레이어_1-2" data-name="레이어 1"><path d="M49.59,61.38A65,65,0,0,1,33,58.67a6.6,6.6,0,0,1-4.71-4.39c-.3-1-.82-.46-1.24-.27a22.64,22.64,0,0,1-10,2.08,2.77,2.77,0,0,1-2.91-2,9.63,9.63,0,0,1-.22-5.19c.6-3.78,1.52-7.43,4.32-10.29.54-.55.25-.71-.33-.78a11.5,11.5,0,0,1-5.62-2.16,4.38,4.38,0,0,1-1.88-4.48c.16-1.06.32-2.13.58-3.17a6.2,6.2,0,0,0-1.6-6.29,7.94,7.94,0,0,0-1.9-1.63C4.34,18.46,2.41,15.65.35,13c-.55-.72-.49-1,.46-1.25C2.58,11.27,4.17,10.27,6,9.94A25.41,25.41,0,0,1,19.79,11a3.89,3.89,0,0,0,2.81,0,14.79,14.79,0,0,1,3.93-1,1.54,1.54,0,0,0,1.31-.89A16.64,16.64,0,0,0,29,6.31,12.43,12.43,0,0,1,32.25.78c1.06-1,1.44-1,2.54-.1a32.37,32.37,0,0,1,9.57,14.91,10.76,10.76,0,0,0,3.26,5.2c5.18,4.29,8.49,9.86,11.2,15.89a44.86,44.86,0,0,1,3.85,18.47c0,2-.5,3.82-2.43,4.86a10.27,10.27,0,0,1-3.37.77A43.26,43.26,0,0,1,49.59,61.38Z"/><path class="cls-1" d="M1,12.53a23.54,23.54,0,0,1,18.74-.79,4.41,4.41,0,0,0,3,0,16.7,16.7,0,0,1,4.07-1,1.94,1.94,0,0,0,1.52-1,12.85,12.85,0,0,0,1.43-3.27,12.65,12.65,0,0,1,2.77-4.95c.7-.76,1.23-.86,2-.09a33.07,33.07,0,0,1,9,14.2A13,13,0,0,0,48,22.13a22.19,22.19,0,0,1,4.31,4.61,50.5,50.5,0,0,1,8.5,18.12A41.64,41.64,0,0,1,62,55.06c-.06,3.06-1.15,4.25-4.11,4.83-8.39,1.62-16.53.35-24.61-1.9a6,6,0,0,1-2.38-1.27c-2.48-2.18-2.69-3.95-.86-6.7a11.91,11.91,0,0,1,9.5-5.77c2.75-.2,4.53,1.17,6.12,3.08.23.27.37.88.86.45s-.09-.61-.3-.87c-1.7-2.18-3.71-3.75-6.84-3.32a10,10,0,0,1,4.19-5.31c.25-.15,1-.21.58-.78-.27-.4-.66,0-.94.16a10,10,0,0,0-4.11,4.68,2.46,2.46,0,0,1-1.81,1.5,12.57,12.57,0,0,0-9.14,8.58.79.79,0,0,1-.49.57,24,24,0,0,1-10.15,2.38c-1.76,0-2.35-.45-2.83-2.13-.6-2.13,0-4.2.36-6.27a17,17,0,0,1,4.3-8.63c.57-.63,1.35-.31,2-.47.32-.08.86.12.83-.41s-.55-.33-.88-.31a20.39,20.39,0,0,1-4.41-.26,9.33,9.33,0,0,1-4.74-2.37,3.27,3.27,0,0,1-1-3.05,20.62,20.62,0,0,1,.48-2.95c1.14-4-.08-6.7-3.86-9.1C4.89,17.61,3,15.11,1,12.53Z"/><path class="cls-2" d="M25.57,37.83H25c-.33,0-.71,0-.7-.44s.41-.26.65-.28a31,31,0,0,0,15.09-5.59,15.13,15.13,0,0,0,2.17-1.65,4.37,4.37,0,0,0,1.43-2.56c0-.21-.06-.54.34-.45a.48.48,0,0,1,.38.54,4,4,0,0,1-.82,2.08,15.14,15.14,0,0,1-4.51,3.65,33.43,33.43,0,0,1-12.71,4.64C26.12,37.81,25.87,37.81,25.57,37.83Z"/><path class="cls-3" d="M24.75,26.53A4.61,4.61,0,0,1,22.66,26c-.28-.17-.44-.41-.31-.68s.4,0,.59,0c2.2.8,2.76.66,4.11-1.21.33-.45.58-.36,1-.22,2,.69,2.56.47,3.61-1.42.12-.21.21-.47.5-.38s.31.49.17.69a35.71,35.71,0,0,0-2.23,4.62c-.6,1.23-2.23,1.07-3.55-.18C25.78,26.51,25.78,26.51,24.75,26.53Z"/><path class="cls-4" d="M23.19,20.42a1.3,1.3,0,0,1-1.44,1.31,1.19,1.19,0,0,1-1.21-1.35A1.21,1.21,0,0,1,22,19.13C22.8,19.17,23.09,19.73,23.19,20.42Z"/><path class="cls-4" d="M31.29,16.67c.8.13,1.37.51,1.33,1.39a1.22,1.22,0,0,1-1.33,1.25,1.26,1.26,0,0,1-1.3-1.4C30,17,30.57,16.79,31.29,16.67Z"/><path class="cls-5" d="M28.72,27.51c-.58,0-2.23-1.1-2-1.42.31-.54.66-1.46,1.28-1.33s1.81-.23,2.08.73A1.85,1.85,0,0,1,28.72,27.51Z"/></g></g></svg>