<svg xmlns="http://www.w3.org/2000/svg" viewBox="0 0 62.67 61.31"><defs><style>.cls-1{fill:#000001;}.cls-2{fill:#f8ea80;}.cls-3{fill:#030305;}.cls-4{fill:#040305;}.cls-5{fill:#050507;}.cls-6{fill:#e5868d;}</style></defs><g id="레이어_2" data-name="레이어 2"><g id="레이어_1-2" data-name="레이어 1"><path class="cls-1" d="M49.58,61.31A64.53,64.53,0,0,1,33,58.59a6.57,6.57,0,0,1-4.7-4.39c-.31-1-.84-.44-1.25-.25A22.77,22.77,0,0,1,17,56a2.77,2.77,0,0,1-2.9-2,9.63,9.63,0,0,1-.22-5.19c.6-3.78,1.52-7.43,4.33-10.29.56-.57.2-.7-.35-.77a11.41,11.41,0,0,1-5.62-2.17,4.38,4.38,0,0,1-1.87-4.48c.16-1.06.32-2.13.58-3.17a6.22,6.22,0,0,0-1.6-6.29A8.35,8.35,0,0,0,7.48,20C4.33,18.38,2.41,15.57.34,12.87c-.56-.73-.45-1,.48-1.25,1.74-.41,3.29-1.4,5.08-1.72a25.33,25.33,0,0,1,13.9,1,3.86,3.86,0,0,0,2.8,0,14.47,14.47,0,0,1,3.82-1A1.68,1.68,0,0,0,27.9,9,17.33,17.33,0,0,0,29,6.23,12.7,12.7,0,0,1,32.33.62,1.53,1.53,0,0,1,34.72.53a32,32,0,0,1,9.47,14.55,13.79,13.79,0,0,0,4.23,6.38c4.6,3.92,7.55,9,10.07,14.39a45,45,0,0,1,4.18,19.24c0,1.95-.47,3.73-2.34,4.79a9.91,9.91,0,0,1-3.47.83A42.24,42.24,0,0,1,49.58,61.31Z"/><path class="cls-2" d="M39.36,43.47a10.19,10.19,0,0,1,4.29-5.27c.27-.17.79-.29.53-.74s-.65-.12-.94.06a10.17,10.17,0,0,0-4.18,4.64,2.45,2.45,0,0,1-1.86,1.6A12.06,12.06,0,0,0,28.63,51a4.86,4.86,0,0,1-3.17,2.83A23.07,23.07,0,0,1,17,55.29a2.16,2.16,0,0,1-2.13-1.42c-.81-1.79-.44-3.6-.17-5.41a17.91,17.91,0,0,1,4.52-10.08,1.19,1.19,0,0,1,.87-.45c.52,0,1-.07,1.55-.13.22,0,.54,0,.54-.35s-.28-.41-.59-.4a23,23,0,0,1-4.54-.21,9.54,9.54,0,0,1-5-2.42c-1.51-1.35-.93-3.09-.74-4.72.12-1.07.48-2.11.59-3.17.34-3.35-1.57-5.61-4.13-7.16C5,17.62,3,15.1,1.06,12.54c5.47-3,12.76-3,18.05-1a5.36,5.36,0,0,0,4.07.08,12.59,12.59,0,0,1,3.47-.85,2.39,2.39,0,0,0,1.94-1.39A20.28,20.28,0,0,0,30,5.91,12.67,12.67,0,0,1,32.51,1.5c.71-.8,1.26-.85,2.07-.1a32.55,32.55,0,0,1,9,14.29,11.8,11.8,0,0,0,3.59,5.68c4.95,4.12,8.13,9.44,10.76,15.18a44.4,44.4,0,0,1,4,18.31c0,3.17-1.08,4.36-4.14,5-8.38,1.62-16.51.31-24.58-1.92a6.37,6.37,0,0,1-2.57-1.47c-2.13-1.92-2.4-3.74-.85-6.14,2.38-3.66,5.58-5.94,10.1-6.09A6.28,6.28,0,0,1,45,46.6c.27.3.55.58.79.9s.43.44.7.26.08-.56-.11-.79C44.6,44.79,42.59,43.05,39.36,43.47Z"/><path class="cls-3" d="M25.56,37.76c-.12,0-.24,0-.36,0-.33,0-.85.16-.88-.34s.5-.35.81-.38a32,32,0,0,0,16.56-6.77,5,5,0,0,0,2-3c0-.26.1-.5.41-.45s.32.31.31.56a4.41,4.41,0,0,1-1.66,3.06,25.15,25.15,0,0,1-5.83,3.92A32,32,0,0,1,25.56,37.76Z"/><path class="cls-4" d="M28.79,28.18a3.4,3.4,0,0,1-2.35-1.13,1.72,1.72,0,0,0-1.57-.59A4,4,0,0,1,22.79,26c-.32-.13-.6-.33-.41-.71s.45-.13.71,0c2.13.76,2.62.62,4-1.25.28-.4.5-.34.88-.22,2.28.72,2.6.59,3.7-1.41.13-.22.22-.45.51-.38s.29.34.23.57-.11.7-.32.88a7.13,7.13,0,0,0-1.6,3.33A1.81,1.81,0,0,1,28.79,28.18Z"/><path class="cls-5" d="M21.89,19.05A1.22,1.22,0,0,1,23.2,20.4a1.24,1.24,0,0,1-1.39,1.29,1.24,1.24,0,0,1-1.31-1.37A1.22,1.22,0,0,1,21.89,19.05Z"/><path class="cls-3" d="M32.65,17.83c0,.9-.49,1.43-1.33,1.43A1.22,1.22,0,0,1,30,17.89a1.19,1.19,0,0,1,1.24-1.31A1.26,1.26,0,0,1,32.65,17.83Z"/><path class="cls-6" d="M30.13,25.46c-.38.91-.38,2.05-1.59,1.92a1.93,1.93,0,0,1-1.82-1.45c0-.25.52-1.47,1.4-1.21C28.77,24.91,29.76,24.53,30.13,25.46Z"/></g></g></svg>