<svg xmlns="http://www.w3.org/2000/svg" viewBox="0 0 62.68 61.3"><defs><style>.cls-1{fill:#ba88f8;}.cls-2{fill:#040203;}.cls-3{fill:#050204;}.cls-4{fill:#070305;}.cls-5{fill:#060204;}.cls-6{fill:#e5868d;}</style></defs><g id="레이어_2" data-name="레이어 2"><g id="레이어_1-2" data-name="레이어 1"><path d="M49.65,61.3a65.44,65.44,0,0,1-16.5-2.66,6.77,6.77,0,0,1-4.9-4.5c-.34-1-.9-.33-1.27-.17a22.86,22.86,0,0,1-9.88,2,2.78,2.78,0,0,1-3-2.08C13.35,52,13.7,50,14,48c.61-3.54,1.61-6.91,4.24-9.57.62-.63,0-.67-.44-.73a11.58,11.58,0,0,1-5.51-2.13A4.4,4.4,0,0,1,10.42,31c.17-1.06.32-2.13.58-3.17a6.15,6.15,0,0,0-1.58-6.19A8.54,8.54,0,0,0,7.34,19.9c-3.12-1.61-5-4.43-7-7.08-.53-.68-.42-1,.45-1.19,1.89-.46,3.58-1.51,5.55-1.82a25.28,25.28,0,0,1,13.43,1.1,4,4,0,0,0,2.92,0,14.75,14.75,0,0,1,3.94-1A1.53,1.53,0,0,0,27.88,9a16.34,16.34,0,0,0,1.18-2.87A12.73,12.73,0,0,1,32.3.65,1.57,1.57,0,0,1,34.77.56a32.06,32.06,0,0,1,9.45,14.57,13.48,13.48,0,0,0,4.17,6.28c4.59,3.91,7.55,9,10.08,14.38A45.23,45.23,0,0,1,62.68,54.9a7.09,7.09,0,0,1-.51,2.92,3.86,3.86,0,0,1-2.89,2.44A47.17,47.17,0,0,1,49.65,61.3Z"/><path class="cls-1" d="M1.06,12.43a23.35,23.35,0,0,1,18.57-.77,4.58,4.58,0,0,0,3.28,0,13.58,13.58,0,0,1,3.7-.93,2.35,2.35,0,0,0,2-1.36A20.41,20.41,0,0,0,30,5.82a12.29,12.29,0,0,1,2.68-4.48,1.07,1.07,0,0,1,1.79-.06,32.12,32.12,0,0,1,9.2,14.46,11.76,11.76,0,0,0,3.53,5.58c5.72,4.79,9.17,11.06,11.87,17.83a43,43,0,0,1,2.89,15.78c0,3.16-1.12,4.31-4.2,4.89C49.48,61.4,41.46,60.15,33.5,58a6.57,6.57,0,0,1-4.34-3.49,3.22,3.22,0,0,1,0-3.1c2.31-4.29,5.65-7,10.75-7.21,2.4-.09,4,1.18,5.43,2.78.31.33.56,1.21,1.12.73s-.26-.87-.55-1.22c-1.67-2-3.63-3.38-6.56-3a9.85,9.85,0,0,1,3.77-5c.2-.14.42-.24.62-.38s.68-.28.4-.69-.57-.1-.85,0A7.5,7.5,0,0,0,40,40.65c-.93,2.06-2.43,2.94-4.49,3.72a11.75,11.75,0,0,0-7.39,8.06.63.63,0,0,1-.46.46,24.36,24.36,0,0,1-10.52,2.4,2.25,2.25,0,0,1-2.27-1.56c-.74-1.76-.39-3.53-.12-5.3a18.07,18.07,0,0,1,4.52-10.08c.64-.69,1.41-.31,2.09-.54.32-.1.87.08.85-.41s-.53-.35-.87-.34A17.54,17.54,0,0,1,16,36.59a9.42,9.42,0,0,1-3.91-2.22,3,3,0,0,1-.94-2.72,18.32,18.32,0,0,1,.45-3.07c1.16-4,.09-6.57-3.88-9.35A22.31,22.31,0,0,1,1.06,12.43Z"/><path class="cls-2" d="M26,37.75H24.9c-.28,0-.6,0-.56-.42s.32-.29.56-.3a30.47,30.47,0,0,0,11.6-3.39A26.13,26.13,0,0,0,42,30a4.9,4.9,0,0,0,1.7-2.68c0-.27,0-.63.43-.55s.32.41.29.69a3.77,3.77,0,0,1-.75,1.85,11.34,11.34,0,0,1-3.3,2.91A33.05,33.05,0,0,1,26,37.75Z"/><path class="cls-3" d="M28.69,28.16a3.33,3.33,0,0,1-2.2-1.09,1.84,1.84,0,0,0-1.68-.62A4.2,4.2,0,0,1,22.73,26c-.26-.12-.51-.3-.35-.65s.45-.17.71-.06c1.15.5,2.49.9,3.27-.28s1.51-1.27,2.75-.89a1.92,1.92,0,0,0,2.49-1.47c.09-.28.14-.75.57-.6s.31.69.13.9c-1.1,1.29-1.46,2.92-2.13,4.41A1.44,1.44,0,0,1,28.69,28.16Z"/><path class="cls-4" d="M21.84,21.69a1.27,1.27,0,0,1-1.32-1.39A1.23,1.23,0,0,1,21.94,19a1.21,1.21,0,0,1,1.26,1.3A1.27,1.27,0,0,1,21.84,21.69Z"/><path class="cls-5" d="M32.66,17.92a1.28,1.28,0,0,1-1.37,1.32A1.21,1.21,0,0,1,30,17.85a1.17,1.17,0,0,1,1.27-1.25C32.15,16.58,32.58,17.07,32.66,17.92Z"/><path class="cls-6" d="M30.18,25.37c-.43,1-.43,2.15-1.65,2a1.9,1.9,0,0,1-1.8-1.47c0-.21.51-1.46,1.42-1.19C28.8,24.91,29.76,24.58,30.18,25.37Z"/></g></g></svg>