<svg xmlns="http://www.w3.org/2000/svg" viewBox="0 0 66.27 67.83"><defs><style>.cls-1{fill:#fa7c1e;}.cls-2{fill:#f3ca50;}.cls-3{fill:#0c0601;}</style></defs><g id="레이어_2" data-name="레이어 2"><g id="레이어_1-2" data-name="레이어 1"><path d="M52.36,18.12a23.25,23.25,0,0,1-.68,5.28c-.59,2.3-.15,3.52,1.81,4.94a20.06,20.06,0,0,0,7.35,3c1.51.36,3.06.54,4.59.79.31,0,.69-.07.81.33a.64.64,0,0,1-.41.78c-1.82.89-1.77,2.21-1.37,4,1.59,7.31-.78,13.53-5.81,18.81-5.28,5.55-12,8.5-19.24,10.6a20.18,20.18,0,0,1-9.44.91,15.06,15.06,0,0,1-9.34-6c-3.22-4.21-4.84-9.11-6-14.2a82.07,82.07,0,0,1-1.81-15.78c0-.75-.11-1.09-1-1.2-5.33-.7-9-3.7-11.53-8.35a1.77,1.77,0,0,1,1.17-2.8,12.28,12.28,0,0,1,8.09.51c1.42.55,2.75.2,4.12.17.61,0,.55-.62.66-1A30.73,30.73,0,0,1,19.47,8.62C25,1.51,32.19-1.29,41,.55c5.27,1.1,8.23,4.86,10,9.67A22.21,22.21,0,0,1,52.36,18.12Z"/><path class="cls-1" d="M65,32.88,63.71,34a1.38,1.38,0,0,0-.4,1.53c2.61,9.05-.56,16.24-7.39,22.06-6.14,5.23-13.45,8.07-21.34,9.31-5.76.9-10.26-1.56-13.64-6.16-3-4-4.5-8.69-5.58-13.51a85.68,85.68,0,0,1-1.81-15.31A1.66,1.66,0,0,1,14.67,30a16.83,16.83,0,0,0,2.67-1.52,3.25,3.25,0,0,0,1.17-4,13.93,13.93,0,0,0-3-4.46c-.34-.33-.58-.6-.42-1.12,2.15-6.7,5.58-12.47,12-16A18.78,18.78,0,0,1,42,1.56c4.25,1.28,6.73,4.56,8.27,8.56A21.6,21.6,0,0,1,51,23.18c-.63,2.67-.09,4.27,2.21,5.86a24,24,0,0,0,8.9,3.34C63,32.56,63.9,32.69,65,32.88Z"/><path class="cls-2" d="M4.63,19.53A11.85,11.85,0,0,1,9,20.36c1.76.79,3.52.43,5.27.18.42-.06.65-.08.92.2A13.19,13.19,0,0,1,17.93,25c.48,1.23.07,1.64-1.21,1.52-3.6-.32-6.77-1.94-10.07-3.21C5.77,23,5,22.58,3.94,23.09c-.72.36-2.76-.87-3.09-1.65S1,20.21,1.63,20A9.2,9.2,0,0,1,4.63,19.53Z"/><path class="cls-2" d="M2.11,23.48a3.32,3.32,0,0,0,2.77.08c.38-.18.77.15,1.13.3,2.2.92,4.42,1.79,6.67,2.59a27.41,27.41,0,0,0,4.94.95c-2.17,1.47-4,2.8-6.68,2.15A13.63,13.63,0,0,1,2.11,23.48Z"/><path class="cls-3" d="M23.14,15.76a7.62,7.62,0,0,1,4,1.93c.2.17.3.39.1.61s-.43.06-.61-.07a7.62,7.62,0,0,0-3.71-1.76c-.25,0-.48-.15-.38-.47S22.9,15.74,23.14,15.76Z"/></g></g></svg>