<svg xmlns="http://www.w3.org/2000/svg" viewBox="0 0 55.29 69.8"><defs><style>.cls-1{fill:#b8ef75;}.cls-2{fill:#040302;}.cls-3{fill:#11160b;}.cls-4{fill:#10140a;}.cls-5{fill:#070905;}.cls-6{fill:#0c0f07;}.cls-7{fill:#f2b4b3;}</style></defs><g id="레이어_2" data-name="레이어 2"><g id="레이어_1-2" data-name="레이어 1"><path d="M50.62,50.05a35.15,35.15,0,0,1-.71,10.58A9.65,9.65,0,0,1,48,64.46a2.46,2.46,0,0,0-.57,1.65,2.85,2.85,0,0,1-1.9,2.78,9,9,0,0,1-5.74.53c-.5-.11-1.16-.29-1.32-.73-.47-1.3-1.39-.9-2.29-.82a10.59,10.59,0,0,1-2,0c-1.06-.11-2.17-.67-2.43,1.14-.09.66-.94.87-1.7.75-1.65-.26-3.34-.37-5-.76-2.88-.69-5.7-.16-8.55,0a43.54,43.54,0,0,1-13.8-.76,4,4,0,0,1-.46-.13c-1-.38-2-.71-2.25-1.9a2.53,2.53,0,0,1,1.4-2.59,5.38,5.38,0,0,0,2.16-4c.4-2.24.82-4.48,1-6.74.31-3.22,1.67-6.13,2.48-9.2a4.54,4.54,0,0,0,.12-2,31.92,31.92,0,0,1-.33-9,11.14,11.14,0,0,1,3.49-6.9,3,3,0,0,0,.94-3.49c-.56-1.76,0-3.55.53-5.27a17.45,17.45,0,0,1,4.6-6.76,19.53,19.53,0,0,0,3.9-5.22C22.12,1.47,27-.65,30.8.18a6,6,0,0,1,3.65,2.13,5.2,5.2,0,0,0,4.39,1.95c3.64.18,7.27-.17,10.9-.11a15.22,15.22,0,0,1,3.56.37c2,.48,2.41,1.38,1.63,3.23a22.83,22.83,0,0,1-2.55,4.17,76.48,76.48,0,0,0-4.55,6.74A5.36,5.36,0,0,0,47.19,23a10.5,10.5,0,0,1-.26,6.9,7.31,7.31,0,0,0,1,7.06,13,13,0,0,1,2.49,8.19C50.35,46.78,50.54,48.41,50.62,50.05Z"/><path class="cls-1" d="M42.58,5c3.59,0,6.88-.46,10.16.17C54.77,5.56,55,6.1,54,8c-1.48,2.8-3.56,5.2-5.29,7.84-.57.86-1.12,1.74-1.62,2.65A5.33,5.33,0,0,0,46.47,23c.21.59.17,1.27.35,1.87.49,1.54-.15,2.5-1.45,3.24a8.74,8.74,0,0,1-4.28,1.35c-.32,0-.75,0-.74.4s.48.31.77.31A8.65,8.65,0,0,0,45.34,29c.34-.18.61-.52,1.17-.53a15.66,15.66,0,0,0-.73,3.93,8.19,8.19,0,0,0,1.45,4.84,13.29,13.29,0,0,1,2.48,8.31c-.06,3.35.41,6.69.2,10-.2,3.14-.58,6.21-2.72,8.74a2.86,2.86,0,0,0-.46,1.83,2,2,0,0,1-1.24,1.89,7.67,7.67,0,0,1-5.58.59,1.8,1.8,0,0,1-1.19-2.61A2.66,2.66,0,0,0,39,64.79c-.2-3.23-.36-6.45-.6-9.67-.13-1.74-.58-2.11-2.28-1.95-1.23.12-2.45.36-3.66.6a1.84,1.84,0,0,0-1.5,1.91c-.18,2.75-.32,5.5-.24,8.26a6,6,0,0,0,.53,2.43,2.24,2.24,0,0,1-.11,2.29c-.47.73-1.24.35-1.88.27-2-.27-4.1-.63-6.15-.89a1,1,0,0,1-1-1.16,38.86,38.86,0,0,0-.4-6.81A14.13,14.13,0,0,0,17.85,53c-.25-.26-.59-.78-1-.45s.13.69.39.94a13.91,13.91,0,0,1,4,10.07c0,.8,0,1.6,0,2.4,0,1.73,0,1.81-1.66,2a50.1,50.1,0,0,1-16-.21A6.5,6.5,0,0,1,1.43,67a1.14,1.14,0,0,1-.33-1.9,1.55,1.55,0,0,1,.31-.36C4.19,63,4.31,60,4.78,57.24c.43-2.51.58-5.08,1.23-7.55.56-2.11,1.44-4.13,2-6.27a3.49,3.49,0,0,0,0-1.51,28.59,28.59,0,0,1-.27-9.76,10.5,10.5,0,0,1,3-5.62,3.49,3.49,0,0,0,.52-.49C11.9,25,12.62,24.26,14,25a.51.51,0,0,0,.71-.26c.1-.31-.17-.37-.41-.44-1.8-.52-2.47-1.54-2.37-3.56a13.55,13.55,0,0,1,3.94-8.64c.92-1,1.89-1.95,2.82-2.94A10.8,10.8,0,0,0,20.73,6c1.57-3.78,6.93-6.2,10.6-4.87A5.6,5.6,0,0,1,34.06,3a4.9,4.9,0,0,0,4.17,2A7.76,7.76,0,0,1,43.91,7c.16.16.38.38.61.17s.14-.52-.09-.71C43.92,6,43.38,5.63,42.58,5Z"/><path class="cls-1" d="M38.17,63c0,1.1.26,2.19-.33,3.28-.27.47-.49.75-1,.81a13,13,0,0,1-2.86,0c-1.75-.19-2.25-.55-2.43-2.27a57,57,0,0,1,.17-9.33,1.14,1.14,0,0,1,1-1.07c1.17-.21,2.36-.38,3.54-.58,1-.18,1.38.31,1.44,1.23C37.82,57.73,38,60.36,38.17,63Z"/><path class="cls-2" d="M36,21.86a14.1,14.1,0,0,1-3.88-.55,3.25,3.25,0,0,1-1.53-.89,1.63,1.63,0,0,1-.31-1.78c.28-.6.87-.53,1.36-.46,2.84.44,5.7.44,8.55.65.67,0,1.44.08,1.57,1s-.55,1.37-1.28,1.62A12.56,12.56,0,0,1,36,21.86Z"/><path class="cls-3" d="M34.75,30.8a6.2,6.2,0,0,1-2.43-.45c-.24-.11-.55-.26-.36-.62s.38-.21.62-.11a5.55,5.55,0,0,0,3.6.18c.29-.06.58-.13.69.21s-.24.48-.48.53C35.77,30.67,35.14,30.74,34.75,30.8Z"/><path class="cls-4" d="M31.31,14.75c-.42-.16-1.11.38-1.26-.44s.2-1.22,1.14-.89a1.87,1.87,0,0,1,.32.15c.44.22,1.28.18,1.21.72S31.81,14.62,31.31,14.75Z"/><path class="cls-5" d="M43.52,14.44c.25.6.1.93-.54.72s-1.9.16-1.86-.68c0-.65,1.34-.53,2.08-.74C43.53,13.64,43.56,13.72,43.52,14.44Z"/><path class="cls-6" d="M37,16.76c-.35-.1-.92.17-.94-.42,0-.43.45-.34.74-.33s.81-.09.88.38S37.24,16.72,37,16.76Z"/><path class="cls-7" d="M36.47,21.17A23.29,23.29,0,0,1,33,20.8a3.86,3.86,0,0,1-1.63-.68c-.32-.26-.59-.61-.41-1s.57-.23.85-.18a72.85,72.85,0,0,0,8.08.61c.38,0,1-.13,1.1.44s-.57.7-1,.84A13.33,13.33,0,0,1,36.47,21.17Z"/></g></g></svg>