<svg xmlns="http://www.w3.org/2000/svg" viewBox="0 0 70.57 40.75"><defs><style>.cls-1{fill:#8ee5e6;}.cls-2{fill:#f0e3a0;}.cls-3{fill:#8de4e5;}.cls-4{fill:#080705;}.cls-5{fill:#0e0e0a;}.cls-6{fill:#0c0b08;}</style></defs><g id="레이어_2" data-name="레이어 2"><g id="레이어_1-2" data-name="레이어 1"><path d="M70.55,11.5c0,4.48-2.23,8.14-4.55,11.72-2.4,3.73-4.12,7.66-4.26,12.16-.07,2.32-.84,3.26-3.11,3.68a26.59,26.59,0,0,1-5.35.52A1.51,1.51,0,0,1,51.57,38a3.67,3.67,0,0,0-3-3.13c-.73-.11-.68.54-.68,1a7.87,7.87,0,0,1-.1,2.37,2.28,2.28,0,0,1-2.27,1.88c-1.63.09-3.25.36-4.87.58-2.24.31-3.09-.22-3.61-2.42a10.57,10.57,0,0,0-1.28-3.2c-.69-1.09-3-1.66-3.84-.76A12.29,12.29,0,0,0,30.28,37c-.22.41-.35.89-.56,1.31a2.07,2.07,0,0,1-2.11,1.28c-1.19-.07-2.39-.1-3.58-.19a1.49,1.49,0,0,1-1.56-1.22,6.35,6.35,0,0,0-1-1.91c-.65-1.11-1.21-1.25-2.38-.63A3.46,3.46,0,0,0,17.74,37a3,3,0,0,1-3.48,1.44c-1-.23-2-.32-3.06-.51a3.23,3.23,0,0,1-2.77-2.33,5.64,5.64,0,0,0-.63-1.28,1.11,1.11,0,0,0-1.32-.57,8.23,8.23,0,0,1-6.23-1.9c-.56-.43-.07-.7.29-.84a13.22,13.22,0,0,0,3.58-2.56,1.23,1.23,0,0,0,.48-1c.08-6.52,3.29-11.5,8.5-14.85,5.63-3.62,11.44-7.12,18-8.92.15,0,.3-.1.46-.13C36.74,2.63,41.75,1,47,.62A4.13,4.13,0,0,1,49.11.8a.9.9,0,0,0,.7,0c3.6-1.28,7.31-.75,11-.69a16.07,16.07,0,0,1,4.71.77,5,5,0,0,1,3.14,2.73A16.11,16.11,0,0,1,70.55,11.5Z"/><path class="cls-1" d="M68.37,5.06A10.09,10.09,0,0,0,56,4.7,22.06,22.06,0,0,0,50,10.92c-1.66,2.48-3.25,5-4.9,7.52a21.17,21.17,0,0,1-6,6.09c-.28.19-.58.56-.95.33s-.24-.66-.22-1c0-.79.18-1.58.29-2.37,0-.32.19-.73-.24-.79s-.42.4-.49.7a6.45,6.45,0,0,0-.23,3.07c.3,1.06-.24,1.47-1,1.89a27.22,27.22,0,0,1-7.81,2.89c-1.05.23-2.09.5-3.14.74-.63.14-1-.06-1-.78.12-1.82-.5-3.67.31-5.45.11-.22.13-.52-.13-.62s-.47.17-.58.43a7.36,7.36,0,0,0-.4,3.54c.19,3,.21,3.09-2.74,3.39-2.33.24-4.7.15-7,.21a1,1,0,0,1-1-.8,5.33,5.33,0,0,1-.07-2.83c.06-.27.23-.72-.26-.77S12,26.71,12,27a4.91,4.91,0,0,0,0,2.84c.27.67,0,1-.66,1-1.31.06-2.62.14-3.93.07-1.07-.06-2.13-1.66-2-3.16.17-3.2.65-6.33,2.62-9a26.73,26.73,0,0,1,5.17-5.45,3.06,3.06,0,0,1,1.46-.76,3,3,0,0,1-.8,2,10.18,10.18,0,0,0-1.94,4.83c0,.35-.19.81.31.87s.35-.44.38-.72c.2-1.67,1.12-3,1.77-4.52,1.64-3.8,5-5.43,8.34-7.13a63.16,63.16,0,0,1,9-3.58c.48-.16,1.14-.47,1.41,0s-.37.8-.71,1.11a32.63,32.63,0,0,0-6.7,8.53,10.83,10.83,0,0,0-1.38,4c0,.28-.2.73.23.81s.43-.42.47-.74A16,16,0,0,1,28,11.44c1.27-1.9,3-3.41,4.37-5.22,2.09-2.86,5-3.41,8.15-3.88a67.24,67.24,0,0,1,7.21-1c.34,0,.83-.17,1,.24s-.35.58-.63.75C45,4.18,42.61,6.85,40.28,9.53a16.51,16.51,0,0,0-2.78,5.26c-.1.27-.32.66.16.79s.42-.24.52-.51C40.08,9.74,44,6.09,48.46,3c.66-.46,1-1.18,1.77-1.55C51.83.68,53.52.9,55.17.81a32.67,32.67,0,0,1,9.51.64A4.65,4.65,0,0,1,68.37,5.06Z"/><path class="cls-1" d="M68,17.29a14.21,14.21,0,0,1-2.31,5.07c-.51.75-1.15,1.42-1.63,2.19A3.82,3.82,0,0,1,62,26.3a15.36,15.36,0,0,0-2.47,1.43c-.24.14-.41.3-.28.57s.46.19.69.05c.72-.43,1.43-.88,2.15-1.3.2-.11.51-.23.66-.15.32.16.12.5.06.75a8.3,8.3,0,0,1-.41,1.25A15.61,15.61,0,0,0,61,35.51c0,1.73-.57,2.41-2.22,2.77a24.61,24.61,0,0,1-5.34.58c-.58,0-1.1-.12-1.11-.8,0-1.88-1.2-2.84-2.74-3.56-.42-.19-1.26-.24-1-.89s.48-1.74,1.5-1.8c2-.12,3.65-1.09,5.46-1.66.32-.1.82-.23.56-.71s-.55-.05-.84,0a27.93,27.93,0,0,1-5.59,1.66c-1.23.13-1.53,1.49-1.91,2.52a11.17,11.17,0,0,0-.57,3.82c0,1.38-.59,1.76-1.94,1.89-1.63.15-3.24.4-4.86.61s-2.18-.14-2.57-1.74A16.47,16.47,0,0,0,36.62,35a2.84,2.84,0,0,0-3.27-1.77c-2.63.39-5.3.09-7.94.55-2,.34-3.9.79-5.9,1a3.43,3.43,0,0,0-2.4,1.83,2.26,2.26,0,0,1-2.64,1.12c-1.05-.22-2.13-.33-3.18-.54a2.56,2.56,0,0,1-2.16-1.83,4.36,4.36,0,0,0-1.11-2c-.48-.47-.27-1-.14-1.44s.65-.31,1-.34c5-.38,10.06.08,15.07-.75A38.08,38.08,0,0,0,34.55,28c4.84-2.32,9.07-5.44,11.82-10.21.53-.91.92-1,1.38,0,.88,1.78,2.62,2.25,4.29,2.77a19.92,19.92,0,0,0,9.82.44A10.49,10.49,0,0,0,67,18.27Z"/><path class="cls-2" d="M58.29,20.64a21.33,21.33,0,0,1-7.57-1.3c-1.58-.54-2.18-1.9-3.11-3-.17-.21,0-.36.06-.53,2.33-3.62,4.49-7.37,8-10a10.73,10.73,0,0,1,8-2.23A8.3,8.3,0,0,1,69.15,7a3.16,3.16,0,0,1,.38,1.12,16.5,16.5,0,0,1,.23,4.65,4.57,4.57,0,0,1-1,2.72C65.81,18.79,62.4,21.08,58.29,20.64Z"/><path class="cls-1" d="M25.89,38.8c-.72-.21-1.79.3-2.33-.31a14.26,14.26,0,0,1-1.6-2.9c-.21-.41.06-.48.36-.54a62.28,62.28,0,0,1,7.57-1c.33,0,.8-.13,1,.26s-.17.68-.38,1a6.53,6.53,0,0,0-1.06,2,2,2,0,0,1-2.6,1.62C26.54,38.81,26.26,38.83,25.89,38.8Z"/><path class="cls-3" d="M4.71,28.87A4,4,0,0,0,6.35,31.3c.41.25.9.45.69,1.08a1.08,1.08,0,0,1-1.25.71A7.35,7.35,0,0,1,1.3,31.53,24.48,24.48,0,0,0,4.71,28.87Z"/><path class="cls-4" d="M61.66,15.72A12.29,12.29,0,0,1,55.88,14c-.28-.17-.66-.34-.47-.71s.55-.09.82.06a12,12,0,0,0,4.84,1.6,6.92,6.92,0,0,0,5.31-1.69c.28-.24.58-.95,1-.4s-.3.72-.59,1A7.33,7.33,0,0,1,61.66,15.72Z"/><path class="cls-5" d="M65.44,11c-.67-.2-1.9.12-2-.53s1.15-.62,1.8-.89c.31-.13.82-.5,1,0s0,.79,0,1.22S65.78,11,65.44,11Z"/><path class="cls-6" d="M57.19,11.16c-.34,0-.86.09-.78-.14.16-.49-.09-.92,0-1.32s.57-.16.84,0c.71.34,2.07.13,2,1C59.21,11.35,57.84,10.87,57.19,11.16Z"/></g></g></svg>