<?xml version="1.0" encoding="UTF-8"?><svg id="a" xmlns="http://www.w3.org/2000/svg" viewBox="0 0 500 500"><defs><style>.b{fill:#030101;}.c{fill:#e8888f;}.d{fill:#0f0506;}.e{fill:#f3f3f3;}.f{fill:#110607;}</style></defs><path d="M145.32,179.37c28.38-30.65,69.85-35.24,102.38-11.09,6.11-16.18,19.68-24.02,34.2-30.86,56.06-26.4,114.94-35.45,176.36-28.48,8.81,1,17.4,3.4,24.99,8.34,10.05,6.53,11.29,13.51,3.5,22.65-11.6,13.6-26.04,24.03-40.07,34.85-26.58,20.5-54.32,39.52-79.41,61.92-19.88,17.75-20.92,21.56-11.38,46.61,6.1,16.01,13.24,31.65,18.88,47.82,7.12,20.38,.87,34.28-19.05,43.1-24.48,10.84-50.63,10.91-76.73,10.43-3.46-.06-6.56-2.11-9.46-4.16-4.67-3.31-9.14-7.15-11.63-12.13-9.21-18.41-25.45-22.39-43.79-22.08-13.93,.23-27.94-.56-41.68,2.85-12.1,3-21.37,9.6-27.73,20.38-3.68,6.24-7.26,12.57-12.28,17.89-6.16,6.53-12.36,7.63-20.26,3.38-7.39-3.98-12.11-10.51-15.89-17.73-11.88-22.69-15.17-47.34-16.1-72.45-.61-16.42,.82-32.73,3.96-48.89,1.44-7.43-.72-10.11-8.64-10.69-13.75-1.01-27.18-3.2-39.57-9.69-5.74-3.01-10.99-6.66-15.58-11.3-16.68-16.88-16.22-40.41,1.57-56.13,17.79-15.72,39.37-20.05,62.28-18.99,11.53,.54,22.9,2.59,33.7,7.16,14.21,6.01,21.28,12.79,27.44,27.29Z"/><path class="e" d="M485.32,125.99c-14.56,1.25-27.39,2.75-40.27,3.3-7.13,.31-12.7,2.71-18.1,7.18-9.73,8.05-20.03,15.4-29.85,23.35-3.56,2.88-7.09,4.19-11.69,4.09-12.1-.27-24.26,.63-36.29-.31-10.49-.82-18.63,2.25-25.93,9.47-4.19,4.14-9.12,7.52-13.72,11.23-1.6,1.29-2.83,2.89-1.11,4.69,1.41,1.48,2.97,.25,4.24-.74,2.33-1.82,4.95-3.41,6.85-5.62,10.78-12.56,24.57-16.32,40.38-13.94,23.59,3.54,43.89-2.58,60.09-20.38,18-19.77,42.45-13.75,66.1-17.57-2.84,7.07-7.29,11.12-11.7,15.06-19.07,17.05-39.93,31.83-60.28,47.25-19.7,14.93-39.58,29.61-57.42,46.9-10.68,10.34-13.91,21.24-8.92,35.53,6.03,17.26,13.77,33.79,20.37,50.8,8.66,22.29,7.53,36.9-23.98,47.13-20.15,6.54-41.25,6.79-62.26,6.7-4.03-.02-7.19-1.95-10.13-4.38-4.79-3.97-9.46-8.26-12.39-13.69-7.13-13.2-18.43-18.86-32.83-19.77-18-1.13-35.98-1.81-53.8,1.81-14.49,2.94-25.53,10.7-32.83,23.76-2.74,4.91-5.86,9.67-9.32,14.11-6.23,7.99-12.07,8.49-19.82,1.8-7.32-6.32-11.63-14.69-14.88-23.62-12.68-34.8-13.29-70.44-7.14-106.51,2.03-11.86-1.32-16.52-13.19-17.47-14.59-1.16-28.78-3.7-41.46-11.58-9.14-5.68-16.46-12.95-19.86-23.5-1.34-4.15-1.04-7.48,4.22-8.27,.26-.04,.55-.08,.77-.22,17.93-10.96,33.3-5.63,47.31,7.56,5.37,5.05,10.82,5.52,17.38,2.3,5.52-2.7,11.55-4.33,17.26-6.67,1.74-.71,4.96-.95,3.96-3.94-.99-2.99-3.49-1.46-5.45-.75-6.04,2.22-12.23,4.14-18.07,6.81-4.53,2.08-7.92,1.41-11.79-1.49-6.66-4.98-13.84-9.28-20.55-14.2-3.42-2.5-6.46-2.9-10.43-1.37-6.75,2.61-13.71,4.66-20.6,6.89-3.77,1.22-5.08-.06-3.78-3.88,2.88-8.47,8.44-14.9,15.53-20.08,24.51-17.91,69.55-19.08,95-2.45,4.3,2.81,8.23,6.1,11.09,10.44,4.71,7.15,7.05,14.37,1.27,22.28-1.3,1.78-4.5,4.91-.84,6.73,3.39,1.68,4.1-2.53,5.16-4.69,9.1-18.64,22.62-32.25,43.59-36.07,23.12-4.22,45.08-2.13,62.8,15.87,.75,.77,1.49,1.7,2.43,2.1,3.44,1.47,6.39,8.33,9.39,4.93,3.45-3.91-3.43-5.94-5.95-8.36-2.8-2.68-1.64-4.67-.44-7.02,4.14-8.09,10.01-14.49,18-19.04,35.13-20.05,73.31-30.18,113.16-34.72,27.06-3.08,54.14-4.37,81,1.71,6.96,1.58,13.78,3.83,19.71,10.52Z"/><path class="b" d="M201.95,275.01c-11.61-.74-21.84-5.3-29.96-13.62-5.81-5.96-11.71-10.65-20.49-10.28-1.91,.08-4.43-.38-4.29-2.63,.19-3,3.03-2.48,5.07-2.18,9.34,1.38,18.67,2.23,28.03,.19,1.83-.4,3.68-.77,5.46-1.34,12.22-3.91,12.18-3.86,24.91,1.86,11.09,4.99,22.21,5.7,33.33-.13,1.89-.99,4.43-3.8,6.13-.47,1.55,3.05-2.02,4.27-3.89,4.81-7.56,2.19-12.61,7.59-18.03,12.74-7.26,6.88-16,10.65-26.28,11.04Z"/><path class="f" d="M222.17,214.82c4.78,2.76,10.17,4.85,13.58,9.32,1.67,2.2-1.25,3.56-2.92,2.67-4.43-2.34-8.8-4.97-12.69-8.11-2.24-1.81-.1-3.05,2.03-3.88Z"/><path class="d" d="M180.18,216.64c.12,1.78-.75,2.8-2.01,3.3-4.56,1.81-8.43,5.62-13.79,5.03-.98-.11-1.8-1.58-.9-2.48,3.62-3.61,8.46-5.15,13.01-7.1,1.52-.65,3.13-.63,3.69,1.25Z"/><path class="c" d="M228.07,256.2c-15.37,19.46-41.6,17.82-56.63-3.4,8.28-1.11,16.63-1.68,23.75-6.49,1.98-1.34,3.5-.38,5.07,.69,8.32,5.66,17.66,8.37,27.81,9.2Z"/></svg>