<?xml version="1.0" encoding="UTF-8"?><svg id="a" xmlns="http://www.w3.org/2000/svg" viewBox="0 0 500 500"><defs><style>.b{fill:#040504;}.c{fill:#e5868d;}.d{fill:#020403;}.e{fill:#040403;}.f{fill:#f3f3f3;}</style></defs><path d="M366.11,445.06c-36.03-.4-71.27-6.41-105.73-16.69-14.3-4.27-25.2-13.26-29.89-28.05-2.01-6.32-5.39-2.66-7.97-1.47-19.97,9.18-40.92,13.44-62.86,13.14-10.66-.14-15.66-3.67-19.44-13.71-4.32-11.47-2.66-23.09-.74-34.64,3.88-23.31,9.92-45.74,27.26-63.28,3.77-3.82,.83-4.43-2.41-4.85-12.78-1.67-24.54-5.6-35.14-13.42-10.12-7.46-14.27-16.84-12.38-29.03,1.05-6.77,2.02-13.59,3.68-20.22,3.84-15.31,.92-28.62-10.31-40.03-3.77-3.83-7.41-7.96-12.12-10.38-20.06-10.31-32.27-28.28-45.36-45.46-3.01-3.95-3.61-6.35,2.42-7.72,11.14-2.51,20.98-8.93,32.33-11.03,30.35-5.61,60.15-4.71,89.28,6.49,5.83,2.24,11.79,2.35,17.85,.11,7.85-2.9,15.89-5.41,24.29-6.07,4.66-.36,7.33-2.67,9.36-6.59,2.94-5.65,5.35-11.48,7.22-17.57,3.55-11.52,8.65-22.29,16.77-31.33,9.79-10.92,12.89-11.17,23.49-1.29,26.59,24.78,45.24,54.78,56.25,89.28,5.21,16.32,13.99,29.55,26.94,40.6,29.28,24.98,48.03,57.39,64.05,91.73,18.26,39.14,26.75,80.35,26.52,123.38-.11,20.62-8.69,30.17-28.77,33.62-2.75,.47-5.49,1.1-8.26,1.45-8.58,1.07-17.15,2.35-25.77,2.96-6.83,.48-13.73,.1-20.59,.1Z"/><path class="f" d="M56.67,134.42c39-18.23,78.13-19.81,118.03-5.41,6.81,2.46,13.71,2.73,20.82,.28,8.39-2.9,16.94-5.43,25.87-6.27,4.39-.41,7.12-2.88,9.59-6.55,6.66-9.88,8.6-21.61,13.36-32.21,3.68-8.21,8.82-15.27,15.08-21.66,3.33-3.4,6.07-3.42,9.64-.15,18.61,17.1,34.06,36.61,45.53,59.17,6.08,11.95,11.08,24.35,15.16,37.14,4.73,14.82,13.37,26.81,25.8,36.46,10.85,8.43,19.98,18.85,28.01,29.96,25.33,35.02,44.18,73.27,54.01,115.46,5.08,21.79,8.05,44.03,7.38,66.56-.29,10.01-3.02,18.84-11.86,24.84-4.2,2.85-9.12,3.04-13.79,3.98-53.58,10.74-105.73,2.47-157.41-11.94-5.44-1.52-10.36-4.15-14.58-7.7-15.84-13.33-17.44-25.36-6.1-42.63,14.46-22.01,33.88-35.34,60.99-37.23,17.51-1.22,28.78,7.67,38.88,19.85,1.35,1.63,2.32,4.96,4.93,2.99,3.26-2.46-.22-4.16-1.65-6.02-10.77-13.94-23.68-23.67-43.33-21.08,5.45-14.88,14.08-25.91,26.8-33.85,1.54-.96,5.53-1.38,3.76-4.47-1.94-3.4-4.57-.35-6.44,.76-11.65,6.97-20.34,16.76-25.75,29.16-2.45,5.61-5.92,8.43-11.99,10.13-28.82,8.04-48.69,26-58.02,54.83-.5,1.54-.84,2.55-2.52,3.29-21.33,9.38-43.27,15.75-66.91,15.38-8.16-.13-12.73-3.67-15.4-10.95-2.16-5.88-2.81-11.91-2.26-18.02,2.68-29.61,10.01-57.44,31.17-79.88,3.3-3.5,7.7-1.54,11.44-2.75,2.32-.75,6.71,1.44,6.46-2.81-.21-3.55-4.2-1.84-6.41-1.73-9.19,.46-18.26-.24-27.33-1.73-11.7-1.91-21.46-7.49-30.13-15.23-5.87-5.23-7.17-12.11-6.21-19.52,.81-6.3,1.32-12.74,3.06-18.8,7.37-25.64-1.2-43.23-25.41-58.37-17.95-11.22-29.5-27.27-42.27-43.3Z"/><path class="d" d="M214.32,295.55c-2.69,0-4.48,.13-6.24-.04-1.69-.16-2.85-1.23-2.64-3.02,.21-1.77,1.86-1.36,3-1.43,33.29-2.13,63.26-14.07,91.28-31.37,7.47-4.61,14.97-9.42,21.03-16.03,3.85-4.2,6.87-8.77,7.89-14.5,.24-1.37-1.02-4.19,2.32-3.34,2.15,.54,2.48,2.35,2.11,4.27-1.69,8.85-6.39,15.89-13.46,21.25-6.22,4.71-12.57,9.29-19.12,13.51-25.23,16.25-53.04,25.63-82.51,30.44-1.5,.24-3.04,.21-3.65,.25Z"/><path class="e" d="M233.58,234.49c-5.01-.09-10.04-1.82-12.89-5.31-4.08-5-8.49-5.97-14.39-5.8-3.85,.11-7.99-.79-11.5-3.18-1.72-1.18-2.75-2.67-1.88-4.4,1.09-2.16,2.55-.14,3.77,.3,13.88,5.05,17.76,4.06,26.11-7.73,2.05-2.89,3.68-2.33,6.32-1.43,12.94,4.4,16.3,3.03,23.02-9.02,.77-1.39,1.36-3.03,3.18-2.46,2.39,.76,1.98,3.13,1.09,4.43-6.24,9.12-10.05,19.32-14.06,29.49-1.32,3.36-4.92,5-8.78,5.12Z"/><path class="b" d="M189.88,176.39c5.5,.24,8.21,3.54,8.16,8.78-.05,5.19-3.77,7.73-8.42,7.9-5.04,.19-8.18-3.09-8.27-8.02-.11-5.24,2.78-8.48,8.53-8.66Z"/><path class="b" d="M249.45,160.73c5.48,.95,9.1,3.38,8.8,8.97-.27,5.09-3.65,8.03-8.52,7.9-5.3-.14-8.14-3.43-8.2-8.97-.06-5.76,3.83-7.01,7.93-7.9Z"/><path class="c" d="M242,215.32c-.07,7.9-4.56,14.46-8.78,14.55-3.77,.08-14.19-7.33-12.89-9.2,2.27-3.26,3.97-9.06,8.38-8.38,4.4,.67,10.03,.08,13.29,3.03Z"/></svg>