<?xml version="1.0" encoding="UTF-8"?><svg id="a" xmlns="http://www.w3.org/2000/svg" viewBox="0 0 500 500"><defs><style>.b{fill:#0d0505;}.c{fill:#0f0506;}.d{fill:#090303;}.e{fill:#f3f3f3;}.f{fill:#100606;}</style></defs><path d="M279.99,406.13c-12.01,.04-23.58-2.31-34.7-6.79-5.19-2.09-8.14-.96-9.86,4.73-3.82,12.67-3.98,12.55,7.92,18.99,9.21,4.98,18.42,10.01,26.45,16.84,3.06,2.6,6.21,5.65,4.72,10.08-1.4,4.19-5.74,4.51-9.38,4.77-16.69,1.2-32.95-2.23-49.12-5.53-20.05-4.09-39.78-9.54-59-16.68-15.84-5.89-29.48-14.88-39.45-28.77-16.13-22.47-13.79-45.1,6.72-63.53,2.75-2.47,3.23-3.72,1.15-7.08-17.27-27.78-8.14-60.77,20.98-75.88,4.21-2.19,6.79-4.48,7.73-9.42,1.52-8.05,6.19-14.99,9.33-22.48,1.35-3.2,2.57-6.46,3.97-9.64,1.78-4.02,.66-8.33,1.38-12.4,1.11-6.29-4.98-4.89-7.35-7.4-2.59-2.74-5.08-5.52-6.64-8.9-11.67-25.28-7.23-72.16,22.76-92.88,12.27-8.48,25.74-12.82,40.87-9.97,6.46,1.22,11.81,4.05,15.24,9.97,.79,1.37,.57,4.07,3.45,3.45,2.72-.59,4.37-2.02,5.07-4.95,1.01-4.28,2.22-8.56,3.87-12.63,9.59-23.61,26.95-35.69,52.42-35.01,32.87,.88,58.61,15.04,75.11,44.03,5.4,9.5,6.9,20.02,5.17,31.07-2.27,14.46-1.74,29.61-7.78,43.11-4.17,9.33-5.07,17.54-1.43,27.07,3.06,8.01,2.31,16.43-1.09,24.55-2.06,4.92-3.5,10.1-4.12,15.45-.56,4.82,1.05,6.84,5.78,4.21,4.26-2.37,8.39-4.97,12.58-7.47,2.52-1.5,4.97-4.31,8.13-1.97,2.77,2.05,2.18,5.33,1.85,8.38-1.19,11.19-4.87,21.74-8.17,32.38-1.86,5.98-3.57,12.06-6.04,17.79-6.98,16.24-7.97,33.75-11.52,50.73-8.91,42.54-44.9,71.77-86.99,71.77Z"/><path class="e" d="M388.31,229.53c.67,7.55-1.74,13.95-3.42,20.4-1.7,6.52-3.73,12.97-6.03,19.31-7.55,20.8-12.11,42.2-16.25,63.97-7.98,42-43.7,69.53-85.51,68.66-10.56-.22-20.69-2.8-30.57-6.55-8.2-3.11-12.5-.8-15.19,7.74q-4.33,13.76-18.37,10.06c-11.7-3.11-23.31-6.55-33.98-12.44-6.51-3.59-13.33-7.01-15.44-15.15-.33-1.26-1.12-2.17-2.47-1.78-1.76,.51-1.6,1.97-1.31,3.42,1.18,5.94,5.2,9.82,9.87,13.01,10.11,6.89,21.41,11.3,33.14,14.38,19.36,5.08,38.87,9.64,55.26,22.08,3.52,2.67,7.07,5.31,10.4,8.19,3.2,2.77,2.23,4.61-1.67,5.4-8.88,1.8-17.71,.27-26.41-1.02-27.91-4.15-55.22-10.83-81.7-20.7-13.76-5.13-25.73-12.75-35.26-24.2-24.11-28.93-9.03-59.32,20.06-69.51,2.37-.83,7.65,.05,6.36-3.99-1.15-3.59-5.24-.23-7.96,.16-3.59,.51-7.2,5.03-10.1,3.07-4.1-2.78-6.94-7.94-7.79-12.89-4.32-25.13-2.19-45.86,20.26-57.72,1.85-.98,3.59-2.22,5.52-2.98,4.78-1.9,7.5-4.48,8.3-10.35,1.13-8.28,5.68-15.73,9.64-23.08,4.74-8.78,5.29-18.16,5.77-27.7,.15-2.96-1.2-4.04-3.99-4.51-4.44-.75-7.34-3.74-9.51-7.54-13.68-24.01-8.81-80,31.96-95.95,8.36-3.27,16.98-4.91,25.97-2.87,3.93,.89,7.55,2.33,10.28,5.48,3.04,3.51,4.36,6.69-1.42,8.81-1.08,.39-2.07,1.08-3,1.77-.9,.66-2.1,1.38-1.47,2.78,.74,1.64,2.15,1.55,3.52,.89,1.26-.6,2.46-1.32,3.67-2.02,7.34-4.22,15.07-7.22,23.6-8.01,1.92-.18,5.03,.24,4.82-2.63-.24-3.3-3.37-1.8-5.04-1.46-6.96,1.42-6.51-1.67-4.86-6.72,9.7-29.66,32.97-43.38,63.58-37.12,22.55,4.61,41.37,15.31,54.63,34.54,7.25,10.51,10.33,22.03,8.4,35.04-2.72,18.36-2.98,37.23-12.7,53.94-1.11,1.91-.42,4.12,.38,6.1,5.58,13.78,6.3,27.47-.29,41.21-1.08,2.24-1.93,5.09-1.56,7.45,1.3,8.37-4.41,11.7-10.17,14.8-14.22,7.65-29.81,10.23-45.66,11.72-1.88,.18-5-.86-4.78,2.3,.21,3,3.32,1.99,5.16,1.81,19.82-1.9,39.38-4.73,55.61-17.85,.71-.57,1.6-1.46,2.32-1.39,9.3,.95,15.55-5.29,22.69-9.44,.56-.33,1.26-.42,2.73-.89Z"/><path class="d" d="M263.31,259.3c-10.07-.35-21.38-2.72-32.4-6.54-1.67-.58-4.21-.88-3.48-3.39,.76-2.6,3.03-1.33,4.65-.78,13.07,4.41,26.41,7.09,40.29,6.48,1.6-.07,3.6-.29,3.73,1.98,.14,2.41-1.99,2.16-3.52,2.23-2.55,.11-5.1,.03-9.27,.03Z"/><path class="f" d="M284.44,152.48c5.79,1.5,11.58,3.01,17.37,4.49,1.49,.38,2.64,1.11,2.37,2.78-.31,1.91-1.95,1.79-3.25,1.48-6.03-1.46-12.05-2.99-18.04-4.63-1.28-.35-2.74-1.18-2.03-2.95,.66-1.64,2.16-1.38,3.57-1.17Z"/><path class="b" d="M239.82,163.05c-4.49,4.37-10.6,6.73-15.94,10.21-1.25,.81-2.66,2.37-4.34,.98-1.32-1.09-1.17-2.63,.25-3.49,5.56-3.37,11.16-6.67,16.83-9.82,1.34-.74,2.74-.27,3.19,2.12Z"/><path class="c" d="M265.01,180.74c-2.5-.59-6.3-.33-5.83-3.58,.6-4.07,4.79-4.57,8.31-4.66,2.46-.07,6.08-.04,5.68,3.36-.51,4.39-5.12,3.8-8.16,4.89Z"/></svg>