<?xml version="1.0" encoding="UTF-8"?><svg id="a" xmlns="http://www.w3.org/2000/svg" viewBox="0 0 500 500"><defs><style>.b{fill:#f3ca50;}.c{fill:#0c0405;}.d{fill:#f3f3f3;}</style></defs><path d="M354.21,163.86c-.12,9.76-1.17,19.42-3.55,28.91-3.23,12.87-.87,19.51,9.97,27.24,12.39,8.84,26.67,13.05,41.2,16.55,7.78,1.87,15.66,3.23,23.65,3.91,1.47,.12,3.15-.3,3.93,1.5,.89,2.05-.36,3.62-1.87,4.31-10.45,4.84-9.77,12.36-7.63,22.3,8.51,39.42-4.28,72.96-31.34,101.5-28.75,30.32-65.57,46.39-104.89,57.78-17,4.92-34.13,8.2-51.81,4.67-20.94-4.18-37.13-15.84-49.88-32.6-17.41-22.88-26.17-49.44-32.33-77.03-6.29-28.18-8.95-56.8-9.73-85.61-.1-3.74-.5-5.56-5.06-6.15-28.89-3.71-49.12-19.8-62.65-45.03-3.97-7.4-1.67-13.18,6.47-15.56,15.17-4.43,30.08-2.33,44.47,3.23,7.41,2.86,14.52,.74,21.74,.43,3.14-.14,2.72-3.53,3.33-5.6,7.41-24.78,18.73-47.49,36.61-66.37,30.3-32.01,67.53-42.76,110.03-32.47,30.83,7.47,46.03,30.96,54.78,59.5,3.44,11.23,4.48,22.88,4.57,34.59Z"/><path class="d" d="M422.73,244.53c-2.58,2.26-4.47,3.97-6.42,5.62-2.99,2.54-3.64,5.56-2.56,9.32,13.61,47.39-2.32,85.84-37.68,116.93-34.92,30.71-76.93,47.41-122.67,53.1-29.37,3.65-52.34-10.32-69.55-33.77-15.94-21.71-24.27-46.7-30.11-72.6-6.26-27.74-8.88-55.94-10.02-84.33-.21-5.13,1.46-7.67,6.05-9.68,5.07-2.21,9.83-5.23,14.47-8.28,7.12-4.68,9.9-13.9,6.44-21.7-3.97-8.94-8.95-17.32-16.04-24.21-1.83-1.78-3.25-3.23-2.35-6.06,11.58-36.11,29.98-67.25,64.27-86.28,25.75-14.29,53.35-16.3,81.13-8,23.06,6.89,36.56,24.65,44.92,46.36,8.89,23.08,9.88,46.83,4.18,70.83-3.46,14.57-.57,23.2,11.89,31.8,14.54,10.03,31.25,14.57,48.26,18.13,4.98,1.04,10.03,1.79,15.79,2.81Z"/><path class="b" d="M94.98,172.05c8.25,.31,16.55,1.18,24.06,4.53,9.58,4.27,19.09,2.31,28.61,.97,2.2-.31,3.47-.49,4.96,1.06,6.51,6.8,11.5,14.64,14.92,23.32,2.61,6.64,.36,8.9-6.53,8.29-19.52-1.72-36.74-10.56-54.59-17.44-4.78-1.84-9.13-4.22-14.74-1.41-3.89,1.95-14.94-4.65-16.75-8.89-1.83-4.32,.51-6.67,4.13-7.91,5.13-1.75,10.48-2.48,15.92-2.52Z"/><path class="b" d="M165.46,214.79c-12.63,9.54-24.22,15.43-39.97,10.66-18.24-5.52-32.67-15.12-43.72-31.75,5.63,1.77,10.39,2.43,15.35,.28,1.49-.65,4.07,.86,6.03,1.68,12.14,5.08,24.37,9.88,36.8,14.24,7.92,2.77,16.26,3.2,25.52,4.89Z"/><path class="c" d="M195.29,151.57c9.14,1.02,15.75,5.34,22.02,10.34,1.11,.88,1.81,2.01,.92,3.31-1.01,1.49-2.28,.7-3.31-.08-6.19-4.73-12.65-8.89-20.66-9.78-1.23-.14-2.08-1-1.77-2.19,.5-1.96,2.16-1.69,2.79-1.6Z"/></svg>