<?xml version="1.0" encoding="UTF-8"?><svg id="a" xmlns="http://www.w3.org/2000/svg" viewBox="0 0 500 500"><defs><style>.b{fill:#f0e3a0;}.c{fill:#080705;}.d{fill:#0c0b08;}.e{fill:#f3f3f3;}.f{fill:#0e0e0a;}</style></defs><path d="M473.34,193.42c-.05,28.59-14.08,51.98-28.88,74.89-15.23,23.55-26.08,48.43-26.93,76.92-.43,14.35-5.19,20.34-19.05,23-11.41,2.18-22.94,3.74-34.63,3.43-6.61-.17-10.17-3.03-10.69-10-.7-9.3-9.84-18.62-19.12-19.72-4.54-.54-4.24,3.61-4.16,6.17,.16,5.05,.73,10.02-.7,15.02-2.11,7.39-6.3,11.33-14.5,11.73-9.81,.48-19.57,2.05-29.32,3.46-16.05,2.31-20.88-.74-24.63-16.65-1.46-6.22-3.78-12.02-6.93-17.51-4.59-8.01-17.43-11.89-24.56-6.17-4.39,3.53-8.02,9.44-9.46,14.94-4.74,18.14-16.59,21.57-32.85,18.09-3.17-.68-6.56-.22-9.81-.59-4.1-.47-7.06-2.54-8.06-6.82-1.11-4.77-3.84-8.74-6.31-12.84-4.01-6.68-7.5-7.71-14.55-4.2-4.45,2.21-7.57,5.81-10.29,9.82-4.56,6.76-10.65,9.63-18.88,8.04-7.44-1.43-15.01-2.15-22.43-3.66-7.9-1.6-13.87-5.8-16.42-13.98-.82-2.62-2.07-5.15-3.45-7.53-2.2-3.79-4.29-5.38-10-4.62-14.29,1.9-27.32-3.43-38.64-12.23-3.49-2.71-.2-4.39,2.06-5.31,8.87-3.62,15.57-10.15,22.65-16.23,2.09-1.79,2.84-3.62,2.88-6.45,.62-41.24,20.93-72.7,53.97-93.91,35.68-22.91,72.47-44.94,114.13-56.39,.97-.27,1.92-.69,2.91-.84,32.47-5.04,63.84-15.93,96.86-18.01,4.79-.3,9.59-1.05,14.17,1.07,1.47,.68,2.88,.7,4.4,.28,31.1-8.5,62.35-6.17,93.58-.97,13.18,2.19,22.18,9.72,27.4,22.28,6.07,14.59,11.08,29.27,10.24,45.48Z"/><path class="e" d="M459.42,153.27c-22.53-18.47-52.48-19.17-78.17-2.12-15.59,10.34-28.02,23.96-38.39,39.41-10.42,15.53-20.4,31.34-30.67,46.97-9.97,15.17-22.27,28.12-37.35,38.3-2.01,1.36-4.17,3.99-6.64,2.79-2.96-1.44-1.85-4.96-1.68-7.54,.32-4.77,1.13-9.51,1.87-14.24,.29-1.82,.81-3.91-1.38-4.47-2.39-.61-2.72,1.82-3.1,3.4-1.65,6.91-3.34,14.08-1.66,20.99,1.4,5.81-1.11,8.37-5.28,10.85-15.6,9.25-32.58,14.77-50.16,18.72-6.65,1.5-13.25,3.2-19.9,4.68-4,.89-6.35-.42-6.07-4.98,.72-11.48-3.19-23.22,1.93-34.47,.63-1.38,.78-3.2-1.03-3.87-1.82-.67-2.69,.87-3.3,2.29-2.24,5.19-3.12,10.65-2.98,16.27,.18,7.07,.16,14.17,.76,21.21,.29,3.42-.98,4.27-3.93,4.9-19.49,4.18-39.27,2.61-58.94,3.19-3.22,.09-4.98-1.58-5.98-4.67-1.92-5.96-2.03-11.85-.58-17.92,.41-1.7,1.47-4.48-1.39-5.1-3.02-.65-2.69,2.19-3.07,4.05-1.24,5.99-2.11,11.99,.09,17.95,1.51,4.08,.08,6.52-4.15,6.7-8.29,.36-16.62,.87-24.88,.4-6.84-.39-13.41-10.39-12.99-19.98,.93-21.42,4.71-42.16,18.39-59.66,11.21-14.35,23.17-27.99,39.86-37.65,.97,5.91-2.05,9.42-4.53,13.03-6.38,9.28-11.3,19.13-12.46,30.52-.22,2.17-1.45,5.2,1.6,5.76,3.74,.68,2.58-3.07,2.8-4.87,1.24-10.05,6.71-18.3,10.6-27.3,10.45-24.16,31.66-35.06,53.2-45.9,17.86-8.99,36.63-15.73,55.47-22.29,1.43-.5,2.86-1.15,4.34-1.31,2.13-.23,5.03-1.48,6.19,.75,1.2,2.3-1.3,4.14-2.94,5.6-11.58,10.28-21.99,21.64-30.81,34.35-9.08,13.08-18.1,26.27-21.26,42.35-.44,2.22-.64,4.49-.83,6.74-.11,1.32,.2,2.68,1.77,2.85,1.88,.2,2.43-1.05,2.73-2.76,5.57-31.92,27.7-53.25,47.18-76.89,14.05-17.04,31.6-21.15,51.08-24.11,15.47-2.35,30.74-6.03,46.47-6.5,1.93-.06,4.75-.8,5.53,1.2,1.03,2.63-1.9,3.81-3.69,4.89-19.37,11.69-34.18,28.32-48.83,45.08-8.61,9.85-13.71,21.72-18.14,33.87-.64,1.76-1.97,4.14,.92,5.04,2.3,.72,2.72-1.45,3.33-3.15,12.08-33.7,36.67-56.85,65.16-76.53,4.16-2.87,6.34-7.43,11.25-9.75,10.17-4.81,20.87-3.27,31.29-3.87,20.2-1.17,40.46-.94,60.26,4.12,13.41,3.42,18.68,8.68,23.11,22.73Z"/><path class="e" d="M458.2,230c-4.28,14.53-12.23,26.59-19.57,39.11-7.85,13.4-20.95,18.63-32.72,26.25-1.89,1.22-5.95,1.87-3.93,5.1,1.97,3.16,4.41-.2,6.37-1.27,3.98-2.18,7.74-4.77,11.69-7.01,3.42-1.94,5.41-1.34,4.42,3.1-.49,2.21-.95,4.49-1.86,6.55-6.36,14.5-10.33,29.37-9.99,45.46,.21,9.76-3.48,13.54-13.05,15.82-11.33,2.69-22.86,4.02-34.53,4.01-4.04,0-7.11-1.07-7.22-5.74-.28-11.62-7.8-17.34-17.2-21.8-2.66-1.26-8-1.59-6.55-5.68,1.69-4.76,3.01-11.07,10.28-11.51,12.37-.76,23.1-6.93,34.55-10.71,1.62-.53,3.77-1.28,2.91-3.6-1.14-3.07-3.26-1.09-5-.53-11.94,3.88-23.21,9.49-36.13,10.77-7.22,.71-9.66,8.71-11.41,14.77-2.17,7.51-4.71,14.92-3.97,23.38,.88,10-3.48,13.03-13.46,13.93-9.8,.88-19.54,2.42-29.29,3.72-10.61,1.42-14.24-.87-16.78-11.32-1.8-7.4-4.44-14.35-7.92-21.17-4.3-8.42-10.6-11.71-19.68-10.3-16.65,2.58-33.57,.41-50.29,3.43-12.38,2.24-24.71,5.05-37.34,6.18-7.13,.64-12.1,6.15-15.85,11.99-3.95,6.16-9.12,8.23-16.14,6.76-3.95-.83-7.96-1.45-11.97-1.83-11.64-1.09-21.01-4.85-24.12-17.77-.72-2.98-3.19-5.75-5.39-8.12-2.67-2.88-1.25-5.88-.57-8.55,.79-3.08,3.99-2.16,6.43-2.32,26.55-1.84,53.25,.28,79.74-2.68,28.36-3.17,56.72-7.32,82.69-19.87,30.58-14.79,57.41-34.5,74.86-64.66,3.42-5.91,5.91-5.97,8.85-.06,5.73,11.54,17.14,14.33,27.91,17.67,19.94,6.18,40.3,6.42,60.72,2.67,12.79-2.35,23.53-8.77,33.04-17.43,2.48-2.26,4.99-4.5,7.48-6.76Z"/><path class="b" d="M395.3,251.74c-19.43,.57-34.94-3.37-50.16-9.25-8.9-3.44-11.78-12.08-17.37-18.38-1.12-1.27,.35-2.37,.96-3.3,13.2-20.27,25.32-41.36,44.04-57.43,16.19-13.9,34.42-21.95,56.11-19.49,14.97,1.7,26.37,9.99,35.47,21.58,2.22,2.83,2.28,6.57,2.95,10.04,1.76,9.02,1.79,18.15,.92,27.17-.69,7.19-3.34,13.81-8.64,19.38-18.36,19.3-39.39,32.22-64.28,29.69Z"/><path class="e" d="M197.01,367.11c-1.51-.08-3.02-.14-4.53-.25-18.49-1.36-19.79-2.44-26.54-19.85-1.12-2.87-.24-3.53,2.18-4.03,16.05-3.3,32.28-5.24,48.6-6.43,5.65-.41,6.92,2.13,3.54,6.58-3.38,4.47-5.77,9.41-7.97,14.51-4.18,9.7-4.79,10.04-15.29,9.47Z"/><path class="e" d="M56.63,303.86c2.04,7.93,5.93,13.55,12.61,16.97,2.46,1.26,2.73,3.54,1.68,5.84-1.43,3.16-4.33,4.24-7.48,3.92-10.02-1.02-20.01-2.28-28.57-9.74,7.54-5.09,14.51-10.48,21.76-16.99Z"/><path class="c" d="M417.16,220.67c-12.65-.29-24.32-4.04-35.29-10.13-2.02-1.12-5.88-2.02-4.35-5.06,1.74-3.44,4.34-.15,6.28,.85,8.33,4.33,16.94,7.74,26.31,9.06,14.34,2.01,27.02-1.32,37.78-11.29,1.51-1.4,3.18-4.44,5.45-1.77,2.08,2.45-.95,3.93-2.46,5.36-9.44,8.96-20.8,13.02-33.73,12.97Z"/><path class="f" d="M441.63,191.08c-4.42-1.05-12.71,.53-13.01-3.31-.4-5.04,7.74-3.96,12.01-5.91,1.83-.83,5.24-2.72,5.87-.08,.58,2.42,.01,5.52,.04,8.33,.02,1.71-2.98,.7-4.91,.97Z"/><path class="d" d="M389.15,191.7c-3.34,.54-6.06-.01-5.53-.83,2.03-3.09-.6-5.78,.04-8.4,.34-1.38,2.68-.86,4.11-.45,4.11,1.17,8.2,2.4,12.26,3.71,1.18,.38,2.48,1.07,2.43,2.54-.07,1.84-1.52,2.38-3.11,2.52-4.01,.37-8.02,.71-10.21,.91Z"/></svg>