<?xml version="1.0" encoding="UTF-8"?><svg id="a" xmlns="http://www.w3.org/2000/svg" viewBox="0 0 500 500"><defs><style>.b{fill:#120607;}.c{fill:#150809;}.d{fill:#0a0304;}.e{fill:#0f0506;}.f{fill:#040202;}.g{fill:#f2b4b3;}.h{fill:#f3f3f3;}</style></defs><path d="M253.99,66c14.79-.11,25.02,3.57,32.01,12.3,6.15,7.68,13.8,9.76,22.59,10.22,19.37,1,38.72-.89,58.09-.61,6.53,.1,13.05,.44,19.39,2.12,9.53,2.51,11.87,7.22,8.18,16.36-3.26,8.06-8.43,15-13.37,22.06-8.19,11.72-17.03,22.97-24.03,35.51-4.13,7.4-6.21,14.7-3.66,23.41,3.54,12.11,3.29,24.13-1.4,36.42-4.9,12.86-2.8,25.78,5.26,37.22,9.14,12.99,13.45,27.13,13.17,43.16-.31,18.27,2.31,36.52,1.13,54.85-1.12,17.36-3.01,34.39-14.87,48.46-1.65,1.95-1.87,4.67-1.85,7.23,.05,7.23-3.76,11.95-10.05,14.63-9.73,4.15-19.89,5.24-30.26,2.78-2.66-.63-6.11-1.55-6.96-3.91-2.47-6.88-7.35-4.71-12.09-4.24-6.1,.6-12.24,.36-18.2-1.05-2.58-.61-2.98-.06-3.55,2.37-1.86,7.87-4.36,9.48-12.61,8.39-8.34-1.1-16.79-1.85-24.94-3.82-14.93-3.62-29.6-.71-44.41,.32-24.4,1.7-48.79,1.99-72.78-4.04-1.01-.25-2.02-.56-3-.91-13.65-4.88-15.75-14.19-4.25-23.01,7.44-5.71,10.31-12.98,11.78-21.35,2.07-11.8,4.3-23.62,5.48-35.53,1.71-17.18,8.97-32.73,13.25-49.14,.78-3,1.16-5.85,.58-9.18-2.92-16.86-4.11-33.9-1.52-50.89,2.03-13.27,8.24-24.75,18.1-33.84,5.81-5.36,7.64-10.62,4.89-18.41-2.72-7.73-.53-15.84,1.51-23.59,4.16-15.79,13.97-28.09,25.13-39.42,8.27-8.4,15.55-17.13,21.11-27.91,9.22-17.88,25.91-25.48,42.12-26.96Z"/><path class="h" d="M328.95,92.55c17.82-.35,34.16-1.89,50.44,.11,13.83,1.7,15.51,5.41,8.62,17.61-7.78,13.78-18.02,25.91-26.69,39.1-3,4.57-5.91,9.21-8.58,13.98-4.25,7.58-6.39,15.46-3.36,24.18,1.09,3.14,.86,6.72,1.87,9.89,2.59,8.17-.97,13.14-7.75,17.05-6.67,3.84-13.57,6.65-21.35,7.04-1.9,.09-5.16-.75-4.86,2.24,.27,2.71,3.48,1.5,5.35,1.46,7.52-.16,14.42-2.62,20.94-6.26,1.75-.98,3.54-1.9,6.33-3.39-2.14,7.68-4.2,14.18-4.18,21.16,.03,9.59,2.31,18.4,7.85,26.14,9.15,12.8,13.08,26.79,12.88,42.62-.23,18.28,2.22,36.56,1.02,54.89-1.05,16.1-3.13,31.89-14.16,44.89-2.3,2.71-2.48,6.23-2.52,9.6-.07,5.02-2.58,8.31-6.92,10.38-9.26,4.42-18.93,5.65-28.86,2.98-6.74-1.81-9.17-7.6-6.31-14.2,.95-2.18,1.36-4.38,1.21-6.75-1.04-16.59-1.88-33.19-3.14-49.76-.78-10.26-3.02-12.05-13.19-11.02-6.05,.61-12.04,1.87-18.02,3.04-5.36,1.05-7.69,4.88-8.05,9.96-1.05,14.71-1.71,29.43-1.26,44.18,.13,4.2,.76,8.29,2.72,12.2,1.98,3.94,1.89,8.34-.43,12.1-2.43,3.94-6.53,2.04-9.87,1.6-10.64-1.4-21.2-3.36-31.85-4.63-4.47-.54-6.18-2.27-6.25-6.75-.2-12.19,.37-24.42-2.3-36.49-3.14-14.2-10.14-26.19-20.2-36.5-1.21-1.24-2.83-3.57-4.63-2.01-2.06,1.78,.29,3.36,1.56,4.58,15.84,15.36,21.65,34.59,21.68,56.06,0,3.58-.62,7.3,.13,10.72,1.61,7.39-1.92,9.38-8.41,10.17-28.37,3.45-56.66,4.12-84.87-1.24-4.14-.79-8.14-2.16-11.73-4.47-3.87-2.49-4.83-5.65-1.93-9.54,.5-.68,.9-1.54,1.57-1.97,14.99-9.45,15.79-25.3,18.24-40.38,2.13-13.07,3.52-26.31,6.49-39.19,2.59-11.2,7.5-21.82,10.2-33.07,.55-2.27,.96-4.34,.49-6.77-3.14-15.99-4.09-32.09-2.32-48.34,1.48-13.57,7.66-24.74,16.99-34.39,.88-.91,1.9-1.67,2.8-2.56,5.25-5.22,5.24-5.2,13.23-4.92,1.59,.06,3.61,.52,4.13-1.77,.29-1.29-.89-1.62-1.93-1.98-10.02-3.51-13.23-8.46-12.67-19.25,.93-17.97,9.2-32.54,21.06-45.42,4.42-4.8,9.04-9.42,13.55-14.14,5.12-5.36,9.2-11.29,12.17-18.22,8.49-19.77,36.32-32.23,55.55-25.32,5.67,2.04,10.92,4.99,14.44,9.81,5.71,7.81,13.71,10.38,22.56,10.51,11.21,.16,21.17,2.89,29.38,10.85,1,.97,2.32,2.41,3.64,.61,1.09-1.49,0-2.82-1.2-3.78-2.61-2.11-5.28-4.14-9.27-7.26Z"/><path class="h" d="M305.05,389.17c-1.05,7.27,3.06,16.65-1.1,25.98-1.45,3.25-3.21,4.43-6.44,4.73-4.63,.44-9.23,.57-13.85,.12-9.47-.91-12.48-3.39-13.28-12.93-1.35-15.97,.05-31.95,1.03-47.9,.19-3.18,2.23-5.47,5.55-6.05,6-1.05,12.04-1.9,18.03-2.98,5.55-1,7.69,1.62,7.98,6.81,.57,10.07,1.29,20.14,2.09,32.22Z"/><path class="f" d="M298.41,181.68c-7.96-.91-16.25-.35-24.18-2.99-3.23-1.07-6.44-2.18-8.71-4.84-2.32-2.72-3.31-5.91-1.8-9.37,1.41-3.24,4.52-2.95,7.12-2.56,15.02,2.29,30.19,2.3,45.28,3.42,3.56,.26,7.58,.5,8.14,5.25,.58,5-3.11,7.07-6.97,8.49-6.01,2.21-12.42,1.98-18.88,2.59Z"/><path class="b" d="M287.42,228.51c-5.12-.23-9.06-.79-12.73-2.49-1.08-.5-2.47-1.13-1.96-2.75,.48-1.53,1.71-1.68,3.02-1.1,6.45,2.86,13.06,2.5,19.72,.95,1.34-.31,2.66-.34,3.18,1.08,.75,2.07-1.12,2.58-2.41,2.86-3.27,.7-6.6,1.09-8.83,1.44Z"/><path class="c" d="M269.08,143.88c-1.97-.97-6.04,2.32-5.97-3.24,.06-4.27,1.22-6.24,5.62-3.83,.55,.3,1.17,.47,1.73,.77,2.28,1.22,6.82,.93,6.35,3.89-.54,3.43-4.87,1.77-7.73,2.42Z"/><path class="d" d="M333.83,142.25c1.15,2.7,.91,4.93-2.68,3.77-3.51-1.13-10.23,.89-9.94-3.41,.28-4.04,7.27-3.28,11.32-4.11,3.02-.62,2.28,1.93,1.3,3.75Z"/><path class="e" d="M298.13,150.37c2.04,.39,4.63-.27,4.64,2.35,.01,2.44-2.35,1.69-3.84,1.61-1.72-.1-4.37,.71-4.61-1.78-.29-3.01,2.66-1.52,3.81-2.18Z"/><path class="g" d="M296.64,177.68c-6.38-.64-12.5-.41-18.45-1.9-2.86-.72-5.7-1.46-8.13-3.18-1.96-1.39-3.73-3.28-2.73-5.77,.89-2.22,3.37-1.27,5.02-.98,13.9,2.46,27.98,2.21,41.98,3.14,2.05,.14,5.46-.61,5.86,2.27,.43,3.09-2.93,3.71-5.21,4.44-6.07,1.92-12.41,1.75-18.34,1.98Z"/></svg>