<svg id="레이어_1" data-name="레이어 1" xmlns="http://www.w3.org/2000/svg" viewBox="0 0 500 500"><defs><style>.cls-1{fill:#404040;}.cls-2{fill:#7c7c7c;}.cls-3{fill:#5e5e5e;}.cls-4{fill:#686868;}.cls-5{fill:#f7bd3e;}.cls-6{fill:#f9f5eb;}.cls-7{fill:#f7bd3f;}.cls-8{fill:#594933;}.cls-9{fill:#594932;}.cls-10{fill:#f6bd3e;}.cls-11{fill:#584932;}.cls-12{fill:#584831;}.cls-13{fill:#574731;}.cls-14{fill:#695227;}.cls-15{fill:#6f582d;}.cls-16{fill:#644e20;}.cls-17{fill:#745921;}.cls-18{fill:#010000;}.cls-19{fill:#080602;}.cls-20{fill:#020201;}.cls-21{fill:#cc9d33;}.cls-22{fill:#f9f4eb;}.cls-23{fill:#dc916c;}.cls-24{fill:#31302f;}.cls-25{fill:#323130;}.cls-26{fill:#313130;}</style></defs><path d="M373.5,353.56v8.95c-.72,1.13-.19,2.38-.35,3.57.22,4.64-1.76,8.53-4.55,11.94a14.51,14.51,0,0,0-3.45,11c.41,6.53-2.11,12.59-6.22,17.81a38.32,38.32,0,0,0-4.27,5.82c-3.46,6.67-9.55,8.8-16.39,9.78-2.7.38-5.45,0-8.12.69h-3.44a3.73,3.73,0,0,0-3.44,0H312.94c-1.77-.75-3.63-.17-5.44-.36-1.62.18-3.3-.4-4.88.36h-1.38c-3.88-.79-7.86-.87-11.69-2.26-6.28-2.28-10.71-6.11-12.25-12.77-.51-2.21-1.49-3.07-3.85-2.51-13.18,3.09-26.41,1.87-39.63.26-2.5-.3-5-.26-7.52-.74a2.92,2.92,0,0,0-3.72,2.2c-3.36,11.4-12.8,14.13-22.75,14.94a207.21,207.21,0,0,1-36.35-.21,36.84,36.84,0,0,1-9-2c-2-.71-4-1.51-5.29-3.11-4.81-6.09-10-11.94-13-19.25a26.66,26.66,0,0,1-1.69-11.83,10.29,10.29,0,0,0-3.07-8.43c-3.43-3.31-4.28-7.67-4.93-12.11V348.74a63.31,63.31,0,0,1,5.24-19.41,3.64,3.64,0,0,0,.14-3.33c-3.81-6.87-1.49-13.63.4-20.35a121.45,121.45,0,0,1,7.26-18.56c5.88-12.56,11.83-25.09,19.68-36.6,3.18-4.67,3.26-5-.92-8.63-8.32-7.31-13.43-16.42-14.47-27.3a88.74,88.74,0,0,1,2.46-32c3.51-12.9,9.81-24.4,16-36,1.78-3.36,1.69-3.29-1.66-4.68-9-3.73-14.05-10.66-14.92-20.19-1.7-18.66,10-36.68,27.52-43.36,2.29-.87,4.7-.7,7-1.38h5.51c1.14.72,2.41.19,3.61.35,8.81.79,13.8,6.51,17.41,13.78,2,4,1.78,4.06,5.94,2.46,20.38-7.84,41-7.49,61.81-1.85,4,1.08,7.85,2.52,11.72,4,4.33,1.62,4.39,1.65,5.9-2.58,2.46-6.87,6.8-12.07,13.76-14.44a28,28,0,0,1,20.51.71c17.16,7.52,26.42,21.06,27.24,39.63a24.08,24.08,0,0,1-16.34,24.29c-3.88,1.37-3.75,1.42-2.54,5.33,1.91,6.14,4.55,12,6.51,18.12a110.37,110.37,0,0,1,5.69,35.85c-.19,10.34-1.11,20.57-5.6,30.17a43.77,43.77,0,0,1-6.7,10.75c-3.92,4.4-4.54,6-1.53,10.93,4.61,7.49,7,15.94,10.85,23.73a173.86,173.86,0,0,1,11.92,31.85c1.63,6,3.87,10.45,8.5,14.86,5.87,5.6,7.68,13.89,8.5,22A46.25,46.25,0,0,0,373.5,353.56Z"/><path class="cls-1" d="M307.36,422.51c1.87.12,3.84-.81,5.58.57h-5.5c-.2-.1-.27-.22-.23-.36S307.3,422.51,307.36,422.51Z"/><path class="cls-2" d="M307.36,422.51c0,.19.05.38.08.57h-4.82C304.05,421.68,305.77,422.62,307.36,422.51Z"/><path class="cls-3" d="M373.5,366l-.28.12h-.31a4.11,4.11,0,0,1,.59-3.55Z"/><path class="cls-4" d="M189.08,76.88l0,.64a4.3,4.3,0,0,1-3.48-.64Z"/><path class="cls-1" d="M323.27,423.08a2.31,2.31,0,0,1,3.44,0Z"/><path class="cls-5" d="M330.17,195.46c-2.46,4-5.54,6.23-8.63,8.43a150.59,150.59,0,0,0-15.9,12.38,24.78,24.78,0,0,0-5.78,8.17c-2.16,4.87.1,9.18,5.36,10.16,3.83.71,7.27-.6,10.72-2.12,8.25-3.63,16.68-6.92,23.19-13.81a46.06,46.06,0,0,1-5.37,15.52c-3.6,6.18-8.16,11.55-15.22,14.16a18.66,18.66,0,0,0-4.55,2.49c-15.38,11.39-33,16.06-51.75,17-31.89,1.52-61.5-6.34-89-22.5-8.43-5-15.89-10.83-20.21-19.88a34.72,34.72,0,0,1-3.58-15.23c1.94,1.8,3.49,3.29,5.1,4.72a80.3,80.3,0,0,0,25.53,15.22,13.53,13.53,0,0,0,10.82-.17c3.09-1.43,4.19-3.79,3.35-7.1a19.71,19.71,0,0,0-7.1-10.88c-5.92-4.64-11.32-10-18-13.65-2.37-1.31-3.69-3.64-5.41-6.2,2.46.47,3.94,1.76,5.52,2.8,4.16,2.74,8.31,5.5,13.16,6.93,5.82,1.71,9.44-1.58,8.29-7.47a12.78,12.78,0,0,0-4.83-7.79c-9-7.17-15.17-16.31-19.52-27-1.42-3.46-.89-5.84.59-8.88,6.63-13.66,17-24.53,26.62-35.95a72.46,72.46,0,0,1,9.94-10.18c3.44-2.75,4.19-2.59,6.37,1.19a15.78,15.78,0,0,0,3.45,4.34c4.54,3.84,10.24,3,13.5-1.94a19.81,19.81,0,0,0,3.22-11.56c-.06-2.61,1.61-2.22,3.15-2.49,2.15-.38,1.85,1.08,1.93,2.33.34,5.71,1.16,11.34,3.64,16.55,2.22,4.65,5.18,8.85,10.9,9.06s8.92-3.81,11.37-8.38a36.82,36.82,0,0,0,4.05-15c.11-1.58-.22-3.54,2.5-2.88,2,.5,4.59.27,3.55,3.85a25.62,25.62,0,0,0-.6,10.71c1.09,7.77,7.29,10.48,13.65,6a22.45,22.45,0,0,0,7.25-8.34c1.41-2.85,2.66-2.24,4.65-.81,5.61,4,10,9.35,14.46,14.48,7.79,9,14.66,18.81,18.77,30.23.58,1.62.94,2.95-.5,4.37a5.36,5.36,0,0,0-1.24,2.8c-2.15,12.45-9.36,21.72-18.55,29.75-2.84,2.48-5.44,5.05-6.22,9-1.18,5.85,2.55,9.31,8.28,7.59,4.49-1.35,8.42-3.81,12.32-6.35C325.34,197.84,327.07,196.26,330.17,195.46Z"/><path class="cls-6" d="M250.57,390.78c-10,.43-19-2.82-27.91-6.8-1.17-.52-1.15-1.31-1.31-2.2a21.11,21.11,0,0,1,1.25-11.11c2-5.64,4.14-11.28,4.7-17.35,1.18-12.8-3.3-23.42-12.64-31.95-5.4-4.92-11.88-5.11-18.63-3-1,.31-2.27,2-3.37.24a4.61,4.61,0,0,1-.77-4.53c5.7-15.94,17.64-25.35,33.1-29.9,21.1-6.21,41.18-3.61,58.6,11,6.49,5.42,11.68,12,14.3,20.27.29.9,1.58,2.56-1,2.75-14.4,1.07-19.63,11.48-23.1,23.27-2.89,9.85-.77,19.4,3,28.67.75,1.86,1.59,3.68,2.36,5.52,2.27,5.43,1.48,7.58-3.88,10.12C267.46,389.4,259.11,390.67,250.57,390.78Z"/><path class="cls-5" d="M171.68,309.72c1.68-5.13,3.28-10.09,4.93-15,.77-2.31.56-4.34-2.07-5-2.46-.63-3.33,1.06-4,3.24-1.71,5.65-4.13,11.09-5.22,16.92-.23,1.24-1.1,1.35-1.93,1.67a28.58,28.58,0,0,0-10.91,7.31c-.91,1-1.73,1.61-3.29,1.23a15.09,15.09,0,0,0-11.13,1.63c-2,1.09-2.48.24-2.56-1.49a29.42,29.42,0,0,1,1.17-9.66c2.91-10,7.22-19.34,12.06-28.77A34.74,34.74,0,0,0,162.68,288c4.08.91,6.72-1.27,9.07-3.84,1.53-1.68.31-3.41-.86-5-1.51-2.06-4-3.67-3.46-7.14,7.11,4.36,14.69,7.27,21.92,10.92,7,3.54,13.26.13,14.2-7.62.26-2.14-1.24-3.08-2.75-4-7.46-4.74-15.28-8.85-23-13.12q-5-2.77-10-5.61c-1.05-.6-2.39-.91-1.27-2.79s2-1.22,3.32-.45a163.8,163.8,0,0,0,56.14,21c25.41,4.48,50.46,4.06,74.74-5.88a74.16,74.16,0,0,0,15.49-8.64,31,31,0,0,1,7-3.86c.82-.32,1.88-1.68,2.69-.24.66,1.15,1.11,2.46-.25,3.78-6.77,6.49-14,12.31-23.14,15.07-2.84.85-5.68,1.16-5.3,5.39s2.24,7.24,6.07,8.38c2.75.81,5.27.06,7.78-1s5.18-2,8.08-1.69c2.46.28,3.89,1,4.17,4,.53,5.47,4.14,7.92,9.57,6.79a30.66,30.66,0,0,0,7.2-2.53c2.06-1,2.75-.33,3.4,1.55,2.49,7.25,5.09,14.46,7.65,21.68a4.44,4.44,0,0,1,.36,1.35c0,2.12,1.21,4.79-1,6.12-2,1.22-3.14-1.42-4.46-2.48-5-4-10.47-6.54-16.81-6.91-2.72-.16-3.7-1.21-4.14-3.88a49.31,49.31,0,0,0-4-12.58c-1-2.19-2-4.73-5-3.46s-1.91,3.68-.88,5.91a60.8,60.8,0,0,1,3.85,11.9c.4,1.7-.09,2.24-1.54,2.71a19.35,19.35,0,0,0-10.62,8.06c-.35.55-.64,1.34-1.57,1-.71-.27-.93-.84-1.14-1.58-7.37-24.85-26.71-40.22-52.76-42.44-18.17-1.54-34.6,2.44-49,13.93a44.73,44.73,0,0,0-13.88,18.07c-1.08,2.64-2,3.76-5.08,2.49C179.82,309.9,175.77,310,171.68,309.72Z"/><path class="cls-7" d="M172.93,417.68a51.84,51.84,0,0,1-11.61-.95c-5.32-.87-9.68-3.16-12.3-8.39-1.51-3-4.1-5.47-5.94-8.35-1.18-1.85-2.4-3.82-2.33-6.19-.78-3.77.24-7.61-.55-11.37a23.72,23.72,0,0,0-5.68-10.23,11.38,11.38,0,0,1-3.12-8.33c-.57-1.16.11-2.49-.5-3.65v-6.46c.58-1.19-.06-2.53.49-3.73.22-7.8,3.06-14.85,6.31-21.76,1.68-3.55,5.89-5.32,12.25-3.6,2.77.75,4.48.36,6.27-2.15,4.59-6.43,11.19-9.06,19-8.78,1.33.64,2.84-.14,4.18.51,5.8.77,9.48,3.81,11,9.63.62,2.4,2.55,3,4.84,1.68,4.14-2.33,8.31-4.19,13.33-2.83,4.46,1.2,6.91,4.65,9.37,7.93a26.11,26.11,0,0,1,5.43,14.39,21.19,21.19,0,0,1,0,6.79A60.13,60.13,0,0,1,219.24,367a39.31,39.31,0,0,0-1.81,6.72,22.13,22.13,0,0,0-.15,6.55c-.07,3,1.47,5.59,1.79,8.48a61.94,61.94,0,0,1,0,11.87,23.53,23.53,0,0,1-4.26,11c-2.39,3.25-7.08,4.13-11.11,5.22a37.15,37.15,0,0,1-11.28.92A158.43,158.43,0,0,1,172.93,417.68Z"/><path class="cls-7" d="M281.54,394.67A36.87,36.87,0,0,1,283,384.22c1.33-4.42.64-8.52-1.19-12.71-2.39-5.48-5.17-10.89-5.33-17.09a37.43,37.43,0,0,1,0-9.4c.49-7.6,4.23-13.66,9.31-19,1.74-1.82,4.27-2.36,6.78-2.58a10.57,10.57,0,0,1,5,0c2.05.93,4.28,1.13,6.22,2.76,2.23,1.87,4.8.77,5.53-2,1.45-5.48,5.28-8.08,10.41-9.34a18.26,18.26,0,0,1,6.51,0,25.51,25.51,0,0,1,17.28,8.46c1.48,1.6,2.91,2.87,5.51,2.05,6.35-2,10.58,0,13.88,5.87,3,5.37,4.2,11.26,4.94,17.19.63,5,1.71,10,.91,15.26-.68,4.5-2.13,8.46-5.15,11.6-3.8,3.94-4.7,8.32-4.14,13.57.67,6.3-2,11.73-5.89,16.48a32.74,32.74,0,0,0-4.39,6.19c-2.09,4.2-6.25,5.1-10.26,6a33.62,33.62,0,0,1-9.22,1c-2.35.71-4.81-.21-7.16.52h-9.52c-3.52-.75-7.13.19-10.65-.53-5,.41-9.54-1.25-14-3.15a9.33,9.33,0,0,1-6.11-8c-.29-3-1.81-5.9-1.3-9.05C281.66,397.12,280.93,395.8,281.54,394.67Z"/><path class="cls-8" d="M346.72,119.44a17.52,17.52,0,0,1-5.93,14.47c-1.77,1.63-2.46,1.42-3.35-.79a82.69,82.69,0,0,0-29.31-37.18,30.39,30.39,0,0,0-5.88-3.19c-2.44-1-2.33-2.16-.76-3.87,5.46-5.91,12.26-6.63,19.42-4.52C336.09,88.85,346.64,103.23,346.72,119.44Z"/><path class="cls-8" d="M151.91,118.8c.07-17.17,11.69-32.19,28-36.09a17.78,17.78,0,0,1,17.51,5.07c1.22,1.22,1.38,1.72-.49,2.62-8.67,4.19-15.22,11-21.51,18s-12.22,14.67-16.3,23.4c-.89,1.9-1.7,1-2.55.08A17.05,17.05,0,0,1,151.91,118.8Z"/><path class="cls-9" d="M161.27,161.69c5.65,13.45,14.42,23.7,24.57,33-4.4,0-7.34-2.59-10.56-4.47-2.58-1.51-4.86-3.55-7.71-4.6-2.42-.89-4.92-2.38-7.29.2s-3.17,6.64-1.37,9.62a25.81,25.81,0,0,0,9.13,9.47c6.8,3.9,12.46,9.33,18.29,14.49,1.59,1.42,3.67,3.76,2.59,5.46-1.34,2.09-4.2.66-6.23-.15-11.07-4.4-20.32-11.28-29.06-19.43-5.5-5.12-3.55-10.09-2.57-15.18a103.34,103.34,0,0,1,8.49-25.52C159.94,163.78,160.47,163,161.27,161.69Z"/><path class="cls-8" d="M307.39,199.58c.66-3.63,3.13-5.24,5.16-7,9-7.71,15.78-16.95,19.49-28.29.11-.33.29-.64.54-1.18a5.86,5.86,0,0,1,2.43,3.43c3.82,12.42,6.09,25.07,5.75,38.11-.05,1.92-.52,3.83-.63,5.75a2.6,2.6,0,0,1-2.19,2.51c-3.47,1-6.07,3.41-8.65,5.8a23.54,23.54,0,0,1-9.24,5.58c-4.53,1.35-8.34,4.42-13,5.36-1.09.22-2.17.73-3-.4s.18-1.89.64-2.62c3.09-4.91,7.56-8.42,12.12-11.84,5.41-4.05,11.33-7.44,15.88-12.59,1.93-2.17,3.33-4.46,3-7.49-.5-4.78-4.39-7.26-8.81-5.77-3.87,1.31-6.89,4-10.27,6.08A52.09,52.09,0,0,1,307.39,199.58Z"/><path class="cls-10" d="M164.09,135.31c.32-.77.58-1.56,1-2.28A102.35,102.35,0,0,1,196.12,97.4a9.74,9.74,0,0,1,2.46-1.32c.88-.31,2-1.42,2.74,0,.68,1.21,1.18,2.57-.28,3.77-8.59,7-15.1,15.92-22.21,24.27-3.26,3.82-6.37,7.79-9.29,11.88-1.35,1.9-2.67.57-4,.54A1.27,1.27,0,0,1,164.09,135.31Z"/><path class="cls-11" d="M340.3,283.58c.25,1.23-.72,1.39-1.34,1.69-1.29.61-2.64,1.1-4,1.63-4.65,1.85-4.87,1.67-6-3.3-1.32-6-7.57-8.25-13.57-8a25.28,25.28,0,0,0-9.73,2.58c-1.23.59-2.61,1.33-4.11.78-.6-.22-1.26-.47-1.27-1.28s.64-.66,1.11-.79c10.19-2.82,18.48-8.75,25.87-16,2-2,2.76-1.84,3.81.88,2.61,6.79,5.57,13.45,8.39,20.15C339.79,282.51,340.08,283.1,340.3,283.58Z"/><path class="cls-8" d="M259.15,98.85c-.6,4.85-1.6,9.56-4.24,13.81-.86,1.36-1.62,2.71-3.1,3.48a5,5,0,0,1-3.66,0c-4.82-3.38-5.41-8.77-6.61-13.87.62-2.48-.35-5.07.54-7.53,3-1.17,6,.12,8.95,0a5.74,5.74,0,0,0,4.08.06l3.48.61C259.32,96.5,258.56,97.78,259.15,98.85Z"/><path class="cls-11" d="M164.93,282.72a22.58,22.58,0,0,1-12.19-4.82,2.46,2.46,0,0,1-.81-3.53c2.83-5.83,6.35-11.25,9.61-16.83.84-1.44,1.55-1,2.67-.4,10.3,5.77,20.63,11.47,30.95,17.21.76.42,1.47.93,2.2,1.4.93.6,1.48,1.33.83,2.47s-1.58.89-2.55.42c-7.47-3.67-15-7.15-22.4-11-4.92-2.6-7.17-3-9.8-.63-2.48,2.26-3.2,7.45-1.39,11.15A50.24,50.24,0,0,0,164.93,282.72Z"/><path class="cls-10" d="M278.33,390c.49,2.54-.44,5-.49,7.46,0,2.33-1.75,2.22-2.91,2.6a59.57,59.57,0,0,1-24.65,2.6c-8.5-.83-17-1.93-25.47-2.93-.88-.11-2.18.2-2-1.64.2-2.76-.9-5.58.24-8.25.09-.19,1.13.08,1.65.35,17.79,9.28,35.54,8.39,53.28-.22C278,389.93,278.16,390,278.33,390Z"/><path class="cls-10" d="M330.74,138.92c-1.66.34-2.09-.92-2.68-2-6.17-11.14-14.7-20.41-23.47-29.48-2.14-2.21-4.27-4.55-7-5.88-2.51-1.21-1.43-2.88-.91-4.21.88-2.21,2.34-.42,3.26.08,10.12,5.49,18,13.29,24.4,22.88a101.58,101.58,0,0,1,8.52,15.28C334,138.11,333.29,139,330.74,138.92Z"/><path class="cls-12" d="M278.35,99.46c3,.63,5.28,2.57,7.92,3.86.76.37.48,1.2.11,1.8-1.72,2.83-3.58,5.57-6.36,7.47-1.35.91-2.75,1.29-3.52-.84-1.38-3.84-.58-7.63.36-11.38C277.12,99.37,277.32,99.42,278.35,99.46Z"/><path class="cls-13" d="M224.16,99.36c-.12,4.22-2.41,8-4.71,7.83-1.85-.12-5.46-4.53-5.35-6.53.06-1,6.62-3.77,8.73-3.71S223.94,98.52,224.16,99.36Z"/><path class="cls-7" d="M173.1,415.61h18.72A66,66,0,0,1,173.1,415.61Z"/><path class="cls-7" d="M141.68,381.77c1.26,3.58.36,7.27.53,10.91C140.75,389.1,142.13,385.39,141.68,381.77Z"/><path class="cls-7" d="M217.4,399.18v-11.4C217.94,391.58,218.53,395.38,217.4,399.18Z"/><path class="cls-7" d="M303.25,416.28c3.4.22,6.86-.81,10.21.51C310,416.9,306.62,417.08,303.25,416.28Z"/><path class="cls-7" d="M278.44,345.93v9A14.67,14.67,0,0,1,278.44,345.93Z"/><path class="cls-14" d="M242.08,94.74c-.32,2.5.62,5.09-.54,7.53C241.56,99.75,240.59,97.16,242.08,94.74Z"/><path class="cls-7" d="M322.57,416.78c2.21-1.21,4.58-.3,6.86-.5C327.19,417.12,324.88,416.87,322.57,416.78Z"/><path class="cls-7" d="M326.11,317l-6.24,0A7.26,7.26,0,0,1,326.11,317Z"/><path class="cls-7" d="M215.68,379.64a8.62,8.62,0,0,1,.14-6.28C215.78,375.45,215.73,377.55,215.68,379.64Z"/><path class="cls-7" d="M221.53,352.4v-6.52A8.8,8.8,0,0,1,221.53,352.4Z"/><path class="cls-7" d="M298.64,325.24l-4.79,0A4.89,4.89,0,0,1,298.64,325.24Z"/><path class="cls-7" d="M179.33,316.32c-1.34-.16-2.79.61-4-.5A6.11,6.11,0,0,1,179.33,316.32Z"/><path class="cls-15" d="M255.11,94.84a3.17,3.17,0,0,1-4.08-.06Z"/><path class="cls-7" d="M283.26,393.5c-.11,1.15.58,2.42-.5,3.43A4.87,4.87,0,0,1,283.26,393.5Z"/><path class="cls-16" d="M248.15,116.14h3.66A2.56,2.56,0,0,1,248.15,116.14Z"/><path class="cls-7" d="M133.23,350.67c-.09,1.2.59,2.5-.47,3.57A5.09,5.09,0,0,1,133.23,350.67Z"/><path class="cls-17" d="M259.15,98.85c-1-1-.42-2.26-.56-3.4C259.82,96.41,259.11,97.69,259.15,98.85Z"/><path class="cls-7" d="M132.76,360.44c1.05,1.05.41,2.33.47,3.51A4.82,4.82,0,0,1,132.76,360.44Z"/><path d="M289,207.57c-.08,10.5-7.84,19.13-19.19,21.08-3.86.67-6.28,1.95-8.52,5.41-6.22,9.57-20.11,10.39-28.13.85-4.37-5.19-9.19-7.76-15.15-10-11-4.23-16-14.54-12.87-24.53,2.54-8.07,11.57-14,21.65-14a9.58,9.58,0,0,0,5.33-1.65c8.09-4.91,16.77-4.62,25.56-2.26a4.2,4.2,0,0,1,2.54,1.65c1.73,3.51,5,3.18,8.05,3.77,6.62,1.27,12.91,3.29,17.24,9A15.91,15.91,0,0,1,289,207.57Z"/><path class="cls-18" d="M279.22,159.47a6.36,6.36,0,0,1,2.89,4.45c.94,5.11,1.57,10.24-.77,15.11a7,7,0,0,1-8.32,3.88c-2.86-.78-3.91-3.23-4.33-6-.71-4.71-.73-9.35,1.3-13.79a5.86,5.86,0,0,1,3.76-3.63C275.56,158,277.4,159.31,279.22,159.47Z"/><path class="cls-18" d="M210.19,170.39a28.66,28.66,0,0,1,.75-7.14c.55-2.11,1.29-4.09,3.65-4.46,2.64-.42,5.29-.25,7.3,1.93,3.22,3.48,3.93,14.56,1.44,18.65-1.63,2.69-3.81,3.32-6.68,2.76-3.68-.71-5.31-3.33-6.05-6.62A34.78,34.78,0,0,1,210.19,170.39Z"/><path class="cls-19" d="M219.38,157.4c-4.5-.77-9-1.5-13.49-2.33-1.87-.34-3.28-1.4-3-3.49.3-2.27,2-2.94,4-2.61,4.5.73,9,1.46,13.49,2.3,1.9.35,3.17,1.6,2.77,3.63A3,3,0,0,1,219.38,157.4Z"/><path class="cls-20" d="M269.6,158.07c-2.29-3.31-1.59-5.23,2.29-5.95s7.65-1.2,11.47-1.81c2-.31,3.74-.24,4.14,2.25s-1,3.48-3.26,3.81c-1.92.27-3.8.71-5.7,1.08C275.61,158.44,272.66,159,269.6,158.07Z"/><path class="cls-21" d="M269.6,158.07c3,.63,5.93-.83,8.94-.62-3,1.78,1.18,1.1.68,2l-5.47.05C272.72,158,270.58,159.69,269.6,158.07Z"/><path d="M162.93,348.85c-3.21-.47-4.94-2.7-4.53-5.55.95-6.64.81-13.68,5.84-19.19,1.2-1.31,2.36-2.88,4-2.1,2.91,1.42,6,1.15,8.93,1.67,4.33.75,5.94,4.69,7.71,8.05a58.62,58.62,0,0,1,3.72,9.39c1.2,3.68-2.52,7.72-6.52,7.06-1.64-.27-3.31-.21-4.95-.89-3.38-1.41-6.52-.4-9.39,1.64A12.75,12.75,0,0,1,162.93,348.85Z"/><path d="M142.1,368.77c-5-2-6-7-6.34-11.12a41.06,41.06,0,0,1,5.92-25.53c.58-.94,1.2-2,2.53-2.08a6.32,6.32,0,0,1,3.58,0c4.05,2.82,4.42,7.66,6.28,11.66,1.69,3.65,3.9,7.35.16,11.29-.73.78-.34,2.64-.43,4-.4,5.43-4.11,8.62-7.9,11.76A6.09,6.09,0,0,1,142.1,368.77Z"/><path d="M216,357.7c-.39,3.49-.82,6.82-5.3,7.62-2.22.4-3.52-.23-4.36-2.2-2.08-4.93-4.7-9.36-9.3-12.53-2.47-1.7-3-4.6-2.62-7.68.51-4-.43-8.29,2.84-11.62,2.87-2.92,6-3.46,9.6-1.5,6.84,3.77,9.06,10.13,9.6,17.37.17,2.16,0,4.34.05,6.51C215.85,355,216.62,356.41,216,357.7Z"/><path d="M214,392.8a45.63,45.63,0,0,0-6.3-12.5c-1.65-2.5-3.7-4.87-3.54-8.17-.12-2.29.68-4.65-.48-6.86h0c-.79-5.92-9.37-13-17-14.52-7.86-1.58-15.4.09-23,1.59a5.85,5.85,0,0,0-5,5.24c-.41,3.79-2.3,6.94-4.77,9.8-4,4.6-6.8,9.79-7.55,15.94a10.1,10.1,0,0,0,0,4.67c.1.9.13,1.82.32,2.71,2.11,10,8.26,18.58,19.08,20.1,1.4.56,2.94-.14,4.33.51,2.72,0,5.41-.39,8.18-.23,6.91.4,14,1.25,20.67-1.17s14-4.11,15.14-13A9.11,9.11,0,0,0,214,392.8Z"/><path d="M162.93,348.85l4.77.08A4.93,4.93,0,0,1,162.93,348.85Z"/><path d="M146.32,383.32l0,4.67A4.32,4.32,0,0,1,146.32,383.32Z"/><path d="M165.69,410.8a10,10,0,0,1,4.33.51C168.6,411,167,411.94,165.69,410.8Z"/><path d="M216,357.7a6.81,6.81,0,0,1,.51-4C216.35,355,217.15,356.48,216,357.7Z"/><path class="cls-7" d="M214,396.89l0-4.09A3.69,3.69,0,0,1,214,396.89Z"/><path d="M147.79,330.07l-3.58,0A3.13,3.13,0,0,1,147.79,330.07Z"/><path d="M142.1,368.77h3.8A3,3,0,0,1,142.1,368.77Z"/><path d="M286.69,394.85c.18-5.33,2.83-9.93,4.66-14.72,1.4-3.66,3.06-7.27,3.75-11.1a20.43,20.43,0,0,1,9.46-14,28,28,0,0,1,14.89-4.2c2.86,0,5.73.06,8.59.09,1.34.62,2.82-.09,4.17.47,6.46,1,8.85,3.25,9.43,9.58.26,2.77,1.93,4.54,3.46,6.48,3.91,4.93,7,10.18,8.07,16.57,2,12.16-7.53,28.09-22.38,28.08-3.88,0-7.77-.51-11.65.08a63.4,63.4,0,0,1-11.69,0A35.37,35.37,0,0,1,292,407.14c-3.28-2.12-4.32-5.41-5.28-8.82A5.64,5.64,0,0,1,286.69,394.85Z"/><path d="M364,358.38a27,27,0,0,1-3.21,8.47c-2.4,3.74-6.12,4.15-9.5,1.26a14.61,14.61,0,0,1-5.37-10.54c-.62-1.06.11-2.33-.54-3.38-2.44-2.9-2.71-5.83-.84-9.29,2-3.67,2.65-8,4.91-11.56s6.49-3.54,8.79,0c3,4.52,3.85,9.75,4.94,14.9.28,1.33.55,2.65.82,4A18.38,18.38,0,0,1,364,358.38Z"/><path d="M324.67,348l-6.23.89a8.43,8.43,0,0,1-4.29,0c-3-1.37-3.73-4.11-3.06-6.8a37.24,37.24,0,0,1,6.75-14.54,9.1,9.1,0,0,1,3.46-2.57c3.21-1.36,6.87-.5,10.19-2,1.14-.51,2.85.89,4,2.17,3.07,3.47,4.22,7.71,5.11,12.08.59,1.35-.14,2.86.51,4.21-.21,6.18-2.07,8.34-6.87,8.66-2.11.14-3.13-1.41-4.69-2.09A9.6,9.6,0,0,0,324.67,348Z"/><path d="M283.41,357.34c-.06-1.48-.11-3-.17-4.46a16.52,16.52,0,0,1,0-6c-.06-6.19,2.85-11.21,7.25-15,4.89-4.22,10.81-3,13.37,2.61a19.84,19.84,0,0,1,.9,3.28c.62,1.28-.16,2.74.51,4,0,1.6,0,3.2-.07,4.8a4.53,4.53,0,0,1-2.12,4.07c-4.63,2.64-7,7.07-9.37,11.47-1,1.88-1.4,4.39-4.63,4.13-3.42-.26-4.57-2.35-5.16-5.21C283.42,359.84,284,358.51,283.41,357.34Z"/><path d="M307.45,412.19l11.69,0A24.71,24.71,0,0,1,307.45,412.19Z"/><path class="cls-7" d="M283.26,346.85l0,6A6.83,6.83,0,0,1,283.26,346.85Z"/><path d="M364,358.38v-6.19A7.51,7.51,0,0,1,364,358.38Z"/><path class="cls-7" d="M324.67,348a4.41,4.41,0,0,1,4.85,0Z"/><path d="M332.21,351.38a7.1,7.1,0,0,1-4.17-.47C329.43,351,330.93,350.27,332.21,351.38Z"/><path d="M341.08,341.38a7.2,7.2,0,0,1-.51-4.22C341.73,338.45,341,340,341.08,341.38Z"/><path d="M305.29,341.75a6.86,6.86,0,0,1-.51-4C305.92,338.94,305.12,340.41,305.29,341.75Z"/><path d="M314.15,348.82l4.29,0A3.83,3.83,0,0,1,314.15,348.82Z"/><path class="cls-7" d="M286.69,394.85l0,3.47A2.6,2.6,0,0,1,286.69,394.85Z"/><path d="M345.36,354.19c1,1,.59,2.22.53,3.38C344.85,356.58,345.37,355.34,345.36,354.19Z"/><path d="M283.41,357.34a5.44,5.44,0,0,1,.53,3.67C282.83,359.92,283.54,358.57,283.41,357.34Z"/><path class="cls-22" d="M265.85,223.56c-7.23.12-11.81-4.27-16-9.36-.83-1-.42-2.35-.63-3.53a3.28,3.28,0,0,0-3.24-2.9c-1.73-.11-3.6.84-3.48,2.48.33,4.3-2.38,6.25-5.33,8.25a16.17,16.17,0,0,1-11.34,3,21.27,21.27,0,0,1-13.14-6.42,12.69,12.69,0,0,1,3.57-20.51,36.18,36.18,0,0,1,5.11-1.85c3.23-1,5.45-.61,8.05,2.44,9.06,10.62,22.7,13.4,32.73.36a5,5,0,0,1,5.68-2c3.3.8,6.64,1.46,9.64,3.12,7.93,4.38,9.35,14.18,3,20.62A22,22,0,0,1,265.85,223.56Z"/><path class="cls-23" d="M247.71,236.11c-5.56-.25-10-3-13.43-7.5-1-1.36-1.06-2.34.77-3a30.12,30.12,0,0,0,9.26-5.63c1.07-.93,1.84-1.22,3,0a32.4,32.4,0,0,0,10,7.46c1.51.67,1.5,1.56.7,2.87C255.64,234,252.23,235.82,247.71,236.11Z"/><path class="cls-24" d="M248.3,186.45a55,55,0,0,1,6.92.05c3.83.49,4.76,3.19,2.57,6.34-7.08,10.17-18.36,6.08-24.26-.58-2.39-2.69.4-3.54,2-4.31C239.6,186.08,244,186.21,248.3,186.45Z"/><path class="cls-25" d="M185.43,406.49c-6.51,0-13,.23-19.51-.06-7.86-.34-15-9.13-15.66-18.21-.5-7.14,2.65-12.73,6.88-17.89,2.88-3.51,5.43-7.06,5.9-11.73a2,2,0,0,1,1.45-2c8.56-2.06,17.2-4.23,25.74-.2,5.24,2.47,9.07,5.9,8.73,12.76a20.54,20.54,0,0,0,4.29,13.17A52.42,52.42,0,0,1,209,391.9c2.39,5.32,1.26,8.68-3.82,11.34A30,30,0,0,1,185.43,406.49Z"/><path class="cls-25" d="M183.47,343.05c-4.74-1.3-9.05-2.14-13.57-1.6-2.35.27-4.41,3.66-6.4,1.64-.95-1,.62-4.25.72-6.5a12.28,12.28,0,0,1,2.3-7.18,5.47,5.47,0,0,1,1-1.26c.64-.46,10.17,1.69,10.7,2.32A28.63,28.63,0,0,1,183.47,343.05Z"/><path class="cls-24" d="M145.29,335.2c2.87,4.16,3.8,7.82,5.16,11.28a2.4,2.4,0,0,1-.22,2c-2,2.81-1.9,6-2.13,9.21-.19,2.7-1.31,6.1-3.9,6.32-2.85.24-2.63-3.34-2.89-5.56C140.41,350.65,142.72,343.45,145.29,335.2Z"/><path class="cls-26" d="M210.37,357.61a29.9,29.9,0,0,0-7.5-10.36c-3.14-2.83-4.24-10.08-1.91-13.37.92-1.3,2-1.12,3.23-.38a11.1,11.1,0,0,1,4.84,5A27.74,27.74,0,0,1,210.37,357.61Z"/><path class="cls-25" d="M319.42,406.91c-7,0-14.05.63-20.86-2.1-5.91-2.38-8.06-6.33-6.06-12.42,2.81-8.59,6.43-16.87,9.07-25.57,2.21-7.3,9.36-10.08,16.79-10.81,4.89-.48,9.76.28,14.63.73,1.91.17,3.28,1.37,3.2,3.24-.23,5.22,3,8.66,6,12.19,6.83,8.11,8.13,17,3.27,25.78a16.49,16.49,0,0,1-14.89,8.95C326.83,407,323.12,406.91,319.42,406.91Z"/><path class="cls-26" d="M354.32,336.09c2.88,7.92,4.9,16.08,4,24.71-.16,1.59-.69,3.94-2.38,4.16-1.92.24-3.37-1.84-3.67-3.56C350.81,352.89,346.76,344.15,354.32,336.09Z"/><path class="cls-25" d="M318.66,344.06c-2.67.23-3.44-.58-2.45-2.72,1.2-2.61,2.15-5.34,3.53-7.84,1.6-2.91,3.34-5.87,7.66-4.15,1.88.75,3.92-2.38,5.86-.09,2.34,2.77,2.9,6.17,3.11,9.65.31,5.51.26,5.62-5.07,4-3.67-1.13-7.09.21-10.61.61A10.21,10.21,0,0,0,318.66,344.06Z"/><path class="cls-26" d="M288.55,358c-.27-7.12-1.78-14.34,3-20.58a7.51,7.51,0,0,1,1.69-2c1.57-.93,2.86-3.23,4.94-2.21,1.72.84,1.51,3,1.63,4.8.1,1.46.59,2.89.71,4.36s.48,3.35-1.21,4.44C294.86,349.64,291.89,353.85,288.55,358Z"/></svg>