<svg id="레이어_1" data-name="레이어 1" xmlns="http://www.w3.org/2000/svg" viewBox="0 0 500 500"><defs><style>.cls-1{fill:#dd1431;}.cls-2{fill:#edcf8c;}.cls-3{fill:#e7e3de;}.cls-4{fill:#217f69;}.cls-5{fill:#fdfdfd;}</style></defs><path d="M200.16,147.74l-59.24,23.08c-19.38,7.54-38.78,15-58.1,22.7-2.86,1.14-4.14.84-5.38-2.09q-13.05-31.06-26.43-62c-1.5-3.44-1.07-4.68,2.73-5.24q59-8.66,117.85-17.51c16.28-2.45,32.51-5.21,49-6.25a3.54,3.54,0,0,0,3.62-2.68,3.86,3.86,0,0,0,.2-.41c2-10.22,8.24-13.28,18.35-12.11,8.51,1,17.22.28,25.84.15,2.58,0,4.46.39,4.89,3.27,1.37,9.17,7,11.93,15.9,13.14,35.15,4.78,70.18,10.52,105.25,15.89,17.31,2.66,34.62,5.38,51.95,7.86,3.08.44,3.95,1.15,2.68,4.21-8.54,20.59-17.05,41.2-25.37,61.89-1.36,3.38-3,2.7-5.53,1.75q-55.62-21-111.3-41.83c-5.22-2-5.22-2-5.22,3.56v33.13c0,1.79,0,3.37,1.45,4.94,25.45,27.49,41.4,60.25,52.45,95.61a411.17,411.17,0,0,1,17.81,101.4c.25,4.69-1.17,6.47-5.42,7.94-28.78,9.92-58.41,15-88.74,16.36-50.37,2.24-99.75-4-148.33-17.24-2.5-.67-4.27-1.25-4.16-4.58,1.68-52.68,11.69-103.33,36.45-150.4,9.46-18,20.7-34.75,35.14-49.2a4.62,4.62,0,0,0,1.73-3.47C200.14,175.89,200.16,162.14,200.16,147.74Z"/><path class="cls-1" d="M258.89,411.56a482.82,482.82,0,0,1-122.75-16c-5.17-1.36-6.21-3.25-6-8.43,1.25-30.08,5.5-59.65,13.91-88.57,9.75-33.54,24.3-64.7,46.4-92,2.93-3.62,6.3-6.89,9.35-10.42,1.61-1.89,3.14-2.08,5.5-1.21a81.82,81.82,0,0,0,13,3.7c3.33.63,4.33,1.69,3.64,5.21-2.45,12.55-4.53,25.17-6.81,37.76-.88,4.91-.83,5,3.85,4.22,8.1-1.4,8.1-1.4,8.33,7a3.85,3.85,0,0,0,0,.9c.49,1.81-.92,4.52,1.15,5.37,2.53,1.05,5.26-.47,7.81-1.25,1.48-.45.92-2,1-3.18,1-16.08,2-32.16,2.73-48.25.16-3.41,1.07-4.34,4.43-4.16a136.63,136.63,0,0,0,52.91-7.18c3-1,4.07.64,5.56,2.28,17.66,19.56,30.62,42,40.48,66.3,16.4,40.44,24.6,82.63,27,126.08.19,3.52-1.15,4.56-4.05,5.57-28.81,10.07-58.54,15-89,16.17C271.24,411.77,265.06,411.56,258.89,411.56Z"/><path class="cls-2" d="M204.12,126c-.21,2.86-.4,5.73-.64,8.58-.56,6.48-3.29,10.47-10,13-36.65,13.84-73.09,28.25-109.55,42.59-2.85,1.13-3.73.4-4.81-2.18q-12-28.53-24.35-56.92c-1.47-3.37-.92-4,2.72-4.56q70.12-10.27,140.2-21c2.69-.41,3.48.35,4,2.57A98.58,98.58,0,0,1,204.12,126Z"/><path class="cls-2" d="M303.28,106.75l27.05,4.09c35.23,5.31,70.44,10.69,105.68,15.89,10.79,1.6,10.8,1.37,6.6,11.59-6.75,16.44-13.54,32.87-20.17,49.37-1.07,2.67-1.9,3.71-5.05,2.51q-56.2-21.34-112.53-42.33a6.77,6.77,0,0,1-4.68-4.83c-3.42-11.1-4.53-22.17-.32-33.31C301,106.79,301,106.81,303.28,106.75Z"/><path class="cls-2" d="M258.45,138.75c3.29-6.39,6.28-12.21,9.27-18,2.68-5.21,5.4-10.4,8-15.65.92-1.87,1.88-2.58,4.19-2.06,5.28,1.18,10.65,2,16,2.79,1.82.28,2,.72,1.43,2.55-4.43,13.09-5.58,26.12,1.08,38.95a7.87,7.87,0,0,1,.47,3.52c0,12.36,0,24.71.05,37.06,0,2.17-.26,3.51-2.78,4.25-17.23,5-34.81,6.72-52.68,6.12-2.14-.07-2.84-.73-2.7-3,.86-13.51,1.67-27,2.28-40.55.13-2.83,1.4-3.1,3.66-3.07,6.48.1,13-.12,19.44.1,2.87.1,3.9-1.07,4.54-3.64,2.32-9.36,2.39-9.35-7.47-9.38Z"/><path class="cls-2" d="M203.06,167.86c0-3.46,0-6.92,0-10.39a57.37,57.37,0,0,1,2.13-17.25c3.15-10.6,1.94-21.47-.67-32.08-.65-2.67-.16-3.54,2.44-3.59a17.14,17.14,0,0,0,4.93-.43c9.33-3.06,14.06,1.23,17.56,9.56,3,7.14,7.3,13.78,11.3,20.47,2,3.27,2.28,5.63-1.43,7.73-6.22,3.52-8.7,9-9.59,16.09-1.44,11.62-4,23.08-5.93,34.65-.43,2.6-1.26,3.37-3.78,2.71-5.51-1.45-12.55-1.17-16-5-3.08-3.33-.66-10.06-.89-15.28C203,172.68,203.06,170.27,203.06,167.86Z"/><path class="cls-3" d="M250.9,127.86c-6-13.1-11.6-25.24-17.16-37.38-.57-1.24-.83-2.32,1.22-2.31,11.14,0,22.27,0,34,0Z"/><path class="cls-4" d="M219.92,242.79c-3.4.31-1.91-1.89-1.73-2.95,2.09-12.49,4.28-25,6.49-37.43,2.84-16,5.78-32,8.51-48.1.46-2.71,1-3.66,4.14-3.31,3.54.41,2.81,2.36,2.5,4.36q-6.06,38.89-12.18,77.77c-.14.89-.27,1.79-.39,2.68C226.46,241.68,225.45,242.61,219.92,242.79Z"/><path class="cls-5" d="M230.58,90.2c6.37,14,12.46,27.2,18.39,40.5.71,1.58,1.84,4.05-.71,5-2,.76-3.73,0-5-2.42-4.89-9.33-9.92-18.59-15.34-27.61-2-3.28-2.15-5.9-.31-9.05C228.67,94.83,229.39,92.82,230.58,90.2Z"/><path class="cls-5" d="M270.8,91.1c5,6.5,3.35,12.29-.34,18.48-4.46,7.47-8.18,15.4-12.07,23.2-1.13,2.29-2.61,4-5.08,2.91s-1.24-3.53-.54-5.09C258.66,117.45,264.71,104.38,270.8,91.1Z"/><path class="cls-4" d="M237.28,203.12c-.88,16.74-1.82,33.47-2.6,50.21-.11,2.38-1.6,2.73-3.2,2.82-2.34.13-1.34-1.91-1.48-3-1.95-14.5,2.14-28.47,4-42.63.68-5.24,1.68-10.43,2.53-15.65C238.92,197.42,237.41,200.34,237.28,203.12Z"/><path class="cls-4" d="M249.6,149.27c-1.58-1.65-5.66,2.2-5.65-2.4,0-8.06.53-8.32,7.23-8.32,5.29,0,5,0,5.34,6.66C256.82,151.6,252.11,148,249.6,149.27Z"/><path class="cls-4" d="M263.86,149c-2.73.34-4.62.25-4.6-3.48,0-3.44,1.12-4.9,4.35-4,1.8.49,5.19-2.08,5.22,1.69C268.85,145.86,268.93,150.13,263.86,149Z"/><path class="cls-4" d="M237.28,203.12c-.7-2.7.77-5.61-.79-8.24.35-1.85-.36-4,1.64-5.37a1.33,1.33,0,0,1,.1,1.76C237.94,195.22,238.38,199.23,237.28,203.12Z"/><path class="cls-4" d="M236.69,148.24a7.9,7.9,0,0,1,3.63-3.38C242.24,149.07,239.86,148.87,236.69,148.24Z"/><path class="cls-4" d="M238.23,191.27l-.1-1.76c-1.53-2.3-.62-4.46.91-7.85C239,185.71,239.26,188.51,238.23,191.27Z"/></svg>