<svg id="레이어_1" data-name="레이어 1" xmlns="http://www.w3.org/2000/svg" viewBox="0 0 500 500"><defs><style>.cls-1{fill:#7f7f7f;}.cls-2{fill:#bebebe;}.cls-3{fill:#c4c4c4;}.cls-4{fill:#d12e00;}.cls-5{fill:#3575fe;}.cls-6{fill:#2c62d6;}</style></defs><path d="M397.9,259.69A147.73,147.73,0,1,1,240.61,102.41c1.1-.42,2.24-.13,3.36-.22,4.71-.19,9.44.4,14.14-.32h.62c4,.62,8,.28,12,.81a144.45,144.45,0,0,1,71.4,30.24c26.68,21,44.12,48.16,52.56,81.05a96.89,96.89,0,0,1,3.42,25.52,1.84,1.84,0,0,0,.32,1.47v1.24c-.72,4.7-.12,9.43-.32,14.13C398,257.45,398.33,258.6,397.9,259.69Z"/><path class="cls-1" d="M258.11,101.87c-1.71,1.38-3.68.48-5.52.57-3,.16-5.92,0-8.88-.06-.16-.13-.21-.25-.14-.35s.13-.16.19-.16Z"/><path class="cls-1" d="M397.92,256.6q-.06-6.44-.1-12.87c0-.58-.18-1.26.62-1.53v14.35C398.29,256.8,398.11,256.83,397.92,256.6Z"/><path class="cls-2" d="M243.76,101.87c0,.17,0,.34,0,.51l-3.1,0a1.64,1.64,0,0,0,0-.54Z"/><path class="cls-3" d="M397.92,256.6a3.05,3.05,0,0,0,.52-.05v3.12l-.54,0Z"/><path class="cls-4" d="M384.93,206.73c-1.58-1.92-3-3.79-4.56-5.53-20.64-23.07-46.43-31.72-76.19-24.06-30.22,7.77-48.51,28.3-55.24,58.83-1.27,5.78-1.23,11.74-1.44,17.66-1.11,31.18-25.67,59.26-56.44,64.64-39.26,6.86-75-18.1-81.78-57.45-2.25-13-.7-26.11,1.9-39a139.16,139.16,0,0,1,39.76-73.34c21.93-21.49,48.14-35,78.64-39.11,49.63-6.7,91.76,8.64,126.08,45a134,134,0,0,1,29,48.61C385,204.05,385.93,205.16,384.93,206.73Z"/><path class="cls-5" d="M116.48,293.37c11.09,15,25.51,25,43.67,29.59,43.17,10.83,87-19.14,92.48-63.22.92-7.32.47-14.71,1.67-22,5.08-30.94,32.94-55.61,64.2-57.42a70,70,0,0,1,72.76,56c2.4,12.11,1.62,24.27-.54,36.25-8.21,45.65-32.59,80.11-73.26,102.38-68,37.25-155.15,11-191.83-57.42a119.09,119.09,0,0,1-9.79-22.81C115.62,294.06,115.29,293.35,116.48,293.37Z"/><path class="cls-6" d="M116.48,293.37l-.64,1.34c-.52-.77-1.34-1.75-.68-2.48C115.6,291.74,116.27,292.66,116.48,293.37Z"/></svg>