<svg id="레이어_1" data-name="레이어 1" xmlns="http://www.w3.org/2000/svg" xmlns:xlink="http://www.w3.org/1999/xlink" viewBox="0 0 800 800"><defs><style>.cls-1{fill:none;stroke:#fff;stroke-linecap:round;stroke-linejoin:round;stroke-width:3px;}.cls-2{fill:#fff;}</style></defs><image width="2400" height="2000" transform="scale(0.33 0.4)" xlink:href="../../../Documents/%EC%B9%B4%EC%B9%B4%EC%98%A4%ED%86%A1%20%EB%B0%9B%EC%9D%80%20%ED%8C%8C%EC%9D%BC/grad/KakaoTalk_20220401_145217074_04.png"/><path class="cls-1" d="M138.37,241.66c.74,1.56-4.67,22.3-18.64,25.21,2.53-1.19,18.77,6.63,18.64,25.2-.86,1.18,3.13-21.57,18.63-25.2C156.5,267.5,137.5,260.5,138.37,241.66Z"/><line class="cls-1" x1="539.5" y1="126.5" x2="539.5" y2="170"/><line class="cls-1" x1="524.5" y1="147.5" x2="555" y2="147.5"/><circle class="cls-1" cx="218.17" cy="645" r="21"/><circle class="cls-1" cx="701.17" cy="92" r="14"/><circle class="cls-1" cx="713.17" cy="83" r="17"/><line class="cls-1" x1="589.24" y1="643.54" x2="589.24" y2="687.04"/><line class="cls-1" x1="574.24" y1="664.54" x2="604.74" y2="664.54"/><line class="cls-1" x1="580.5" y1="652.5" x2="600.5" y2="678.5"/><line class="cls-1" x1="580.5" y1="678.5" x2="598.11" y2="652.5"/><path class="cls-1" d="M597.28,274.38c.44,1.17-4.72,15.79-15,17,1.89-.7,13.13,5.92,11.9,19.3-.69.8,3.57-15.36,15-17C608.78,294.11,595.51,287.91,597.28,274.38Z"/><line class="cls-1" x1="105.78" y1="462.17" x2="111.04" y2="493.81"/><line class="cls-1" x1="97.41" y1="479.26" x2="119.6" y2="475.57"/><line class="cls-1" x1="262.29" y1="64.91" x2="262.29" y2="108.41"/><line class="cls-1" x1="239.67" y1="85.91" x2="285.67" y2="85.91"/><line class="cls-1" x1="249.11" y1="73.87" x2="279.27" y2="99.87"/><line class="cls-1" x1="249.11" y1="99.87" x2="275.66" y2="73.87"/><ellipse class="cls-1" cx="400.12" cy="479.01" rx="17.77" ry="27.91" transform="translate(-116.16 128.3) rotate(-15.94)"/><line class="cls-1" x1="696.08" y1="422.97" x2="689.84" y2="460.54"/><line class="cls-1" x1="681.63" y1="439.21" x2="704.89" y2="443.07"/><rect class="cls-1" x="322.61" y="251.73" width="22.81" height="22.81" rx="5.94" transform="translate(25.25 -29.22) rotate(5.21)"/><rect class="cls-2" x="336.91" y="263.45" width="18.63" height="18.63" rx="5.94" transform="translate(-32.78 47.77) rotate(-7.54)"/></svg>