<svg id="레이어_1" data-name="레이어 1" xmlns="http://www.w3.org/2000/svg" xmlns:xlink="http://www.w3.org/1999/xlink" viewBox="0 0 800 800"><defs><style>.cls-1{fill:none;stroke:#fff;stroke-linecap:round;stroke-linejoin:round;stroke-width:3px;}.cls-2{fill:#fff;}</style></defs><image width="2400" height="2040" transform="scale(0.33 0.39)" xlink:href="../../../Documents/%EC%B9%B4%EC%B9%B4%EC%98%A4%ED%86%A1%20%EB%B0%9B%EC%9D%80%20%ED%8C%8C%EC%9D%BC/grad/KakaoTalk_20220401_145217074_08.png"/><path class="cls-1" d="M138.7,242.16c.75,1.56-4.67,22.3-18.64,25.21,2.53-1.19,18.77,6.63,18.64,25.2-.86,1.18,3.13-21.57,18.63-25.2C156.83,268,137.83,261,138.7,242.16Z"/><line class="cls-1" x1="539.83" y1="127" x2="539.83" y2="170.5"/><line class="cls-1" x1="524.83" y1="148" x2="555.33" y2="148"/><circle class="cls-1" cx="218.5" cy="645.5" r="21"/><circle class="cls-1" cx="701.5" cy="92.5" r="14"/><circle class="cls-1" cx="713.5" cy="83.5" r="17"/><line class="cls-1" x1="589.57" y1="644.04" x2="589.57" y2="687.54"/><line class="cls-1" x1="574.57" y1="665.04" x2="605.07" y2="665.04"/><line class="cls-1" x1="580.83" y1="653" x2="600.83" y2="679"/><line class="cls-1" x1="580.83" y1="679" x2="598.44" y2="653"/><path class="cls-1" d="M597.61,274.88c.44,1.17-4.72,15.79-15,17,1.9-.7,13.13,5.92,11.9,19.3-.69.8,3.57-15.36,15-17C609.11,294.61,595.84,288.41,597.61,274.88Z"/><line class="cls-1" x1="106.12" y1="462.67" x2="111.38" y2="494.31"/><line class="cls-1" x1="97.74" y1="479.76" x2="119.93" y2="476.07"/><line class="cls-1" x1="262.62" y1="65.41" x2="262.62" y2="108.91"/><line class="cls-1" x1="240" y1="86.41" x2="286" y2="86.41"/><line class="cls-1" x1="249.44" y1="74.37" x2="279.6" y2="100.37"/><line class="cls-1" x1="249.44" y1="100.37" x2="276" y2="74.37"/><ellipse class="cls-1" cx="400.45" cy="479.51" rx="17.77" ry="27.91" transform="translate(-116.29 128.41) rotate(-15.94)"/><line class="cls-1" x1="696.42" y1="423.47" x2="690.18" y2="461.04"/><line class="cls-1" x1="681.96" y1="439.71" x2="705.23" y2="443.57"/><rect class="cls-1" x="322.94" y="252.23" width="22.81" height="22.81" rx="5.94" transform="translate(25.3 -29.25) rotate(5.21)"/><rect class="cls-2" x="337.24" y="263.95" width="18.63" height="18.63" rx="5.94" transform="translate(-32.85 47.81) rotate(-7.54)"/></svg>