<svg id="레이어_1" data-name="레이어 1" xmlns="http://www.w3.org/2000/svg" viewBox="0 0 500 500"><defs><style>.cls-1{fill:#d83242;}.cls-1,.cls-2,.cls-3,.cls-4{stroke:#000;stroke-linecap:round;stroke-linejoin:round;stroke-width:4px;}.cls-2{fill:#38591b;}.cls-3{fill:none;}.cls-4{fill:#e5a21a;}</style></defs><path class="cls-1" d="M189,231.11a38,38,0,0,1-7.88-22.54c0-13.2-5.86-41.06,26.4-48.39,0,0,14.66-8.8,35.19-4.4s17.59,68.92,17.59,68.92S239,210,214.42,233.45h0s-11.58-7.65-15.86-2.34h0s-7.59-2.38-9.6,0h0"/><path class="cls-1" d="M132.7,173.38s15.29-48.07,48-34.3c0,0,10.15-33.27,57.33,15.91,0,0-24.66-3.61-30.52,5.19,0,0-26.33,6.63-26.36,27.51C181.12,187.69,153.22,170.45,132.7,173.38Z"/><path class="cls-1" d="M245.91,154.55s45.14-16.36,48.08,10c0,0,27.86-7.33,16.13,44,0,0-11.16-37.73-50.31-9.33C259.81,199.24,260.87,170.91,245.91,154.55Z"/><path class="cls-1" d="M250,290.68s10.26,17.6,45.45-16.13S313,231.11,313,231.11s17.64-15.21-2.88-22.54c0,0-9.7-37.73-50.31-9.33,0,0,1.92,19.59.45,25.46-1.46,4.4,8.08,12,8.08,12s11,14.37,8.05,23.17S250,290.68,250,290.68"/><path class="cls-1" d="M187.64,267.44s-46.15,15.91-74-13.42-22-44-7.33-58.65c0,0,4.4-17.59,26.4-22s48.42,14.31,48.42,14.31-2.16,22.16,1.1,29.58S189,231.11,189,231.11s-9.81,5.34-14,22.93A45.21,45.21,0,0,1,187.64,267.44Z"/><path class="cls-1" d="M214.42,233.45s35.6-30.83,50.25,0c14.65,11.78,11.72,22,11.72,26.44s-33.72,42.52-44,41.05-35,5.53-40.24-27.29"/><path class="cls-1" d="M260.41,295.26s-4.82,42.69-39.87,38.12c-17.46,5.69-65.85,13-71.72-11.91s43.29-46.71,43.64-46.08.34,27.1,33.34,25.6c2.2-.05,8.07,5.82,24.2-10.31C250,290.68,254.69,296.91,260.41,295.26Z"/><path class="cls-1" d="M104.36,243.21s-38.55,20.34-12.44,64c5.58,31.9,38.33,52.25,69.61,28.14,0,0-29.86-17.86,1.45-42.24,0,0,14.47-12.44,29.48-17.68,0,0,.28-1.87-4.82-7.95C187.64,267.44,134.68,289.59,104.36,243.21Z"/><path class="cls-1" d="M113.78,340.45s1.31,25.54,27.71,27.48c0,0,54.26,16.59,82.11-20.06,0,0-13.32-4.3-14-11.68,0,0-32.44,7.1-48.08-.88C161.53,335.31,138.85,355,113.78,340.45Z"/><path class="cls-1" d="M320.05,219.75s33.36,12.54,12.45,52c0,0,21.6,21.86-31.18,27.73,0,0,11.73-26.39-5.87-24.93,0,0,35.09-32.62,17.55-43.44,0,0,3.79-2.55,7.05-8.88"/><path class="cls-2" d="M260.41,346.69s83.43,45.16,156.74-19.35c0,0-16.23-62.68-77.76-84.13a44.56,44.56,0,0,1-6.89,28.54s24.54,17.46-31.18,27.73C301.32,299.48,282.55,349.92,260.41,346.69Z"/><path class="cls-1" d="M203.08,364.67s7.06,8.82,17.46,7,12.17-2.6,29.46-4.74c.88.79,31.35-9.46,26.39-26.4,0,0-45.45,16.13-52.79,7.34C223.6,347.87,211.87,362.41,203.08,364.67Z"/><path class="cls-3" d="M417.15,326.1s-46.92-20.76-115.83-25.16"/><path class="cls-4" d="M203.08,229.83s14.39.33,17.46,12.26,10.12,15.45,0,21.76-4.27,13.45-17.46,7.68-6.13,10.94-17.73-7.68-13.9-.15-4.68-21.12S189.88,233.5,203.08,229.83Z"/><path class="cls-1" d="M295.45,274.55s17.6-2.93,5.87,24.93S277.51,345.39,266,345.9s-35,12.23-42.35,2c0,0-10.38-2.83-14-11.68a83.36,83.36,0,0,0,10.93-2.81s32.68,6.05,39.87-38.12C260.41,295.26,279.32,293.61,295.45,274.55Z"/></svg>