<svg id="레이어_1" data-name="레이어 1" xmlns="http://www.w3.org/2000/svg" viewBox="0 0 500 500"><defs><style>.cls-1{fill:#3b65cc;}.cls-1,.cls-2,.cls-3{stroke:#000;stroke-linecap:round;stroke-linejoin:round;stroke-width:4.5px;}.cls-2{fill:#fff;}.cls-3{fill:none;}</style></defs><path class="cls-1" d="M129.09,350.29S-7.17,152.49,228,102L214.8,62.39s28.57-8.79,65.93,41.76c0,0,164.83,19.77,118.68,195.59,0,0,39.55,61.54-33,30.77C331.28,310.73,327,271.37,327,271.37s-19.85,58.62-6.67,67.41c0,0-28.59-10.47-50.57-39-22.3-29-114.28-59.34-125.27,39.56,0,0,46.15-21.58,100,36.46,0,0-32.83,23.28-81.8,0,0,0-9.41,53.65-49,62.44C113.7,438.2,87.33,398.64,129.09,350.29Z"/><path class="cls-2" d="M358.56,325.37s-16.29,55.69-38.27,13.93c0,0-13-8.39,6.69-67.93C327,271.37,339.68,313.65,358.56,325.37Z"/><path class="cls-2" d="M147.11,323.78s-25-86,80.26-87.89A49,49,0,0,1,260.79,248c21.88,19.41,34.41,53.57,57.85,53.74,0,0-4.39,24.07-2.38,34.35,0,0-8.54,5.95-58.88-48.64a7.7,7.7,0,0,0-1.25-1.1C248.42,280.85,178.65,234.44,147.11,323.78Z"/><circle cx="326.88" cy="247" r="10.99"/><path class="cls-3" d="M188.43,167.88S126.89,183.26,126.89,225c0,0,22,35.16,105.49-22"/></svg>