<svg id="레이어_1" data-name="레이어 1" xmlns="http://www.w3.org/2000/svg" viewBox="0 0 500 500"><defs><style>.cls-1{fill:#afaeaa;}.cls-1,.cls-2,.cls-3,.cls-4,.cls-5,.cls-6{stroke:#000;stroke-linecap:round;stroke-linejoin:round;}.cls-1,.cls-2,.cls-4{stroke-width:4px;}.cls-2{fill:#77777c;}.cls-3,.cls-4{fill:none;}.cls-3,.cls-5,.cls-6{stroke-width:3px;}.cls-5{fill:#212138;}.cls-6{fill:#99917e;}</style></defs><path class="cls-1" d="M197.05,96.3v86.6h-9.79v14.83h7.65s-48.82,150.08-47.18,227.34c0,0,105.21,11.5,220.27,1.64,0,0,1.65-93.7-46-223.56h4.93l-1.65-14.79-8.21-4.93-1.65-77.26,14.8-1.65V79.86L282.53,51.92,177.32,70V81.51h4.93V93l14.8-3.29Z"/><polygon class="cls-2" points="106.64 425.07 106.64 441.13 326.91 448.08 326.91 429.86 106.64 425.07"/><path class="cls-2" d="M393.36,425.07v14.15s-45.08,8.86-66.45,8.86V429.86S380.92,428.35,393.36,425.07Z"/><path class="cls-3" d="M150,398.1s141.9,4.18,216.92,3.25"/><line class="cls-3" x1="152.74" y1="372.61" x2="364.38" y2="375.23"/><path class="cls-3" d="M156.79,347.17s134.33-6.72,204,2.71"/><path class="cls-3" d="M162.07,320.39S296.41,314,356,323.5"/><path class="cls-3" d="M170.75,293.56s127.52-6.83,179.65,4"/><path class="cls-3" d="M174.17,269.64S281,259.1,344.21,273"/><path class="cls-3" d="M183.91,240.89s72.35-7.53,152.06,3.67"/><path class="cls-3" d="M188.83,217.37s44.85-20,139.13,2.64"/><path class="cls-3" d="M194.91,197.73s59.67-20.88,127.07,5.42"/><path class="cls-3" d="M197.05,182.9s42.74-15.91,120,.53"/><path class="cls-3" d="M197.05,153.25s65.75-20.45,120,2.39"/><path class="cls-3" d="M197.05,123.13s63.18-27.43,118.71,0"/><path class="cls-3" d="M197.05,94S262.8,70,315.4,106.17"/><polyline class="cls-4" points="197.05 89.73 284.17 76.58 330.2 104.52"/><line class="cls-4" x1="282.53" y1="51.92" x2="284.17" y2="76.58"/><line class="cls-3" x1="224.17" y1="85.62" x2="224.17" y2="115.21"/><line class="cls-3" x1="281.7" y1="90.55" x2="281.7" y2="110.28"/><line class="cls-3" x1="206.09" y1="120.14" x2="206.09" y2="149.73"/><line class="cls-3" x1="224.17" y1="148.08" x2="224.17" y2="176.03"/><line class="cls-3" x1="281.7" y1="146.44" x2="281.7" y2="177.67"/><line class="cls-3" x1="255.4" y1="176.03" x2="255.4" y2="189.18"/><line class="cls-3" x1="303.07" y1="180.96" x2="303.07" y2="195.75"/><line class="cls-3" x1="224.17" y1="194.11" x2="224.17" y2="210.55"/><line class="cls-3" x1="284.99" y1="194.11" x2="284.99" y2="212.19"/><line class="cls-3" x1="252.11" y1="210.55" x2="252.11" y2="238.49"/><line class="cls-3" x1="311.29" y1="217.12" x2="311.29" y2="241.78"/><line class="cls-3" x1="281.7" y1="241.78" x2="281.7" y2="266.44"/><line class="cls-3" x1="311.29" y1="269.73" x2="311.29" y2="291.1"/><line class="cls-3" x1="224.17" y1="238.49" x2="224.17" y2="266.44"/><line class="cls-3" x1="252.11" y1="266.44" x2="252.11" y2="291.1"/><line class="cls-3" x1="192.94" y1="268.08" x2="192.94" y2="292.74"/><line class="cls-3" x1="224.17" y1="292.74" x2="224.17" y2="317.4"/><line class="cls-3" x1="284.99" y1="292.74" x2="284.99" y2="317.4"/><line class="cls-3" x1="252.11" y1="319.04" x2="252.11" y2="343.7"/><line class="cls-3" x1="311.29" y1="320.68" x2="311.29" y2="345.34"/><line class="cls-3" x1="335.95" y1="297.67" x2="335.95" y2="320.68"/><line class="cls-3" x1="192.94" y1="320.68" x2="192.94" y2="345.34"/><line class="cls-3" x1="176.5" y1="294.38" x2="176.5" y2="319.04"/><line class="cls-3" x1="224.17" y1="345.34" x2="224.17" y2="373.29"/><line class="cls-3" x1="284.99" y1="345.34" x2="284.99" y2="373.29"/><line class="cls-3" x1="335.95" y1="348.63" x2="335.95" y2="374.93"/><line class="cls-3" x1="176.5" y1="346.99" x2="176.5" y2="373.29"/><line class="cls-3" x1="192.94" y1="374.93" x2="192.94" y2="397.94"/><line class="cls-3" x1="252.11" y1="374.93" x2="252.11" y2="397.94"/><line class="cls-3" x1="311.29" y1="374.93" x2="311.29" y2="401.23"/><line class="cls-3" x1="335.95" y1="401.23" x2="335.95" y2="429.18"/><line class="cls-3" x1="284.99" y1="401.23" x2="284.99" y2="429.18"/><line class="cls-3" x1="224.17" y1="401.23" x2="224.17" y2="427.53"/><line class="cls-3" x1="174.85" y1="399.59" x2="174.85" y2="425.89"/><rect class="cls-5" x="201.98" y="227.81" width="45.06" height="45.23"/><rect class="cls-6" x="224.17" y="292.74" width="60.82" height="24.66"/><polygon class="cls-6" points="224.17 373.29 176.5 373.29 176.5 346.99 224.17 345.34 224.17 373.29"/><path class="cls-6" d="M255.4,111v33.81s31.23.35,47.67,5.91V117.82S286.63,110.12,255.4,111Z"/></svg>