<svg id="레이어_1" data-name="레이어 1" xmlns="http://www.w3.org/2000/svg" viewBox="0 0 500 500"><defs><style>.cls-1,.cls-5{fill:none;}.cls-1,.cls-2,.cls-3,.cls-4{stroke:#000;stroke-width:3px;}.cls-1,.cls-2,.cls-3,.cls-4,.cls-5{stroke-linecap:round;stroke-linejoin:round;}.cls-2{fill:#d8121c;}.cls-3{fill:#eab783;}.cls-4{fill:#e5a65c;}.cls-5{stroke:#f49c4d;stroke-width:2px;opacity:0.54;}</style></defs><polyline class="cls-1" points="267.67 208.6 291.32 208.6 314.98 208.6"/><polyline class="cls-1" points="267.67 218.07 290.73 218.6 314.98 218.07"/><polyline class="cls-1" points="262.94 338.71 290.73 337.65 319.71 338.71 319.71 348.17 291.32 348.17 262.94 348.17"/><polyline class="cls-2" points="213.45 62.14 220.36 17 225.71 68.22"/><polygon class="cls-3" points="191.97 69.04 191.97 95.43 265.3 78.5 265.3 47.95 191.97 69.04"/><path class="cls-3" d="M173.05,483h81.61s20.1-312.24,10.64-404.5L192,95.43S184.87,454.61,173.05,483Z"/><polygon class="cls-4" points="265.3 78.5 316.16 89.15 316.16 63.77 265.3 47.95 265.3 78.5"/><path class="cls-4" d="M327,483H254.66s20.1-338.26,10.64-404.5l50.86,10.65S310.4,180.22,327,483Z"/><line class="cls-1" x1="212.08" y1="79.69" x2="242.83" y2="72.59"/><line class="cls-1" x1="291.32" y1="57.21" x2="290.8" y2="483"/><line class="cls-5" x1="196.96" y1="115.23" x2="261.14" y2="102.19"/><line class="cls-5" x1="198.04" y1="131.4" x2="262.23" y2="118.36"/><line class="cls-5" x1="196.96" y1="147.49" x2="261.14" y2="134.45"/><line class="cls-5" x1="195.87" y1="163.59" x2="260.06" y2="150.54"/><line class="cls-5" x1="195.09" y1="178.32" x2="259.81" y2="168.22"/><line class="cls-5" x1="195.93" y1="194.37" x2="260.65" y2="184.27"/><line class="cls-5" x1="194.65" y1="209.35" x2="259.74" y2="202.09"/><line class="cls-5" x1="189.42" y1="368.34" x2="254.87" y2="365.64"/><line class="cls-5" x1="189.23" y1="384.26" x2="254.68" y2="381.57"/><line class="cls-5" x1="189.04" y1="400.19" x2="253.47" y2="397.84"/><line class="cls-5" x1="186.86" y1="418.69" x2="252.32" y2="416.39"/><line class="cls-5" x1="184.49" y1="434.82" x2="249.95" y2="432.52"/><line class="cls-5" x1="182.44" y1="451.05" x2="248.81" y2="448.72"/><line class="cls-5" x1="195.58" y1="225.21" x2="260.68" y2="217.95"/><line class="cls-5" x1="194.14" y1="241.27" x2="259.24" y2="234.01"/><line class="cls-5" x1="195.07" y1="257.34" x2="260.16" y2="250.08"/><line class="cls-5" x1="193.63" y1="273.4" x2="258.72" y2="266.14"/><line class="cls-5" x1="192.46" y1="289.83" x2="257.6" y2="282.97"/><line class="cls-5" x1="193.28" y1="305.88" x2="258.42" y2="299.02"/><line class="cls-5" x1="191.75" y1="321.71" x2="256.89" y2="314.85"/><line class="cls-5" x1="192.58" y1="337.77" x2="257.72" y2="330.91"/><line class="cls-5" x1="190.93" y1="352.49" x2="256.3" y2="348.31"/><line class="cls-5" x1="181.9" y1="467.89" x2="248.83" y2="465.54"/></svg>