<svg id="레이어_1" data-name="레이어 1" xmlns="http://www.w3.org/2000/svg" viewBox="0 0 500 500"><defs><style>.cls-1{fill:#0b0b49;}.cls-1,.cls-2,.cls-3,.cls-4,.cls-5,.cls-6,.cls-7,.cls-8{stroke:#000;stroke-linecap:round;stroke-linejoin:round;}.cls-1,.cls-2,.cls-3,.cls-4{stroke-width:3px;}.cls-2{fill:#6d2e0f;}.cls-3,.cls-5{fill:#e0deca;}.cls-4{fill:#6b6b6b;}.cls-5,.cls-6,.cls-7,.cls-8{stroke-width:2px;}.cls-6{fill:#156b53;}.cls-7{fill:#fff;}.cls-8{fill:#26269b;}</style></defs><path class="cls-1" d="M68.21,149.89,149.76,153l16.81-13.69H332.93L346.73,153l83.3-3.15s-3.51,35.12-42.15,54.44H116S68.21,185,68.21,149.89Z"/><path class="cls-1" d="M36.6,239.46s35.13,3.51,65-10.54c0,0,193.58,8.79,301.41,0,0,0,21.92,11.32,64,10.93,0,0-3.59,20.69-68.58,29.47H102.18S70,271.08,36.6,239.46Z"/><rect class="cls-2" x="113.88" y="204.33" width="273.99" height="26.35"/><rect class="cls-2" x="101.59" y="264.05" width="295.07" height="79.04"/><rect class="cls-3" x="229.8" y="181.5" width="38.64" height="21.08"/><rect class="cls-4" x="19.04" y="343.09" width="461.93" height="8.78"/><rect class="cls-4" x="10.25" y="351.87" width="479.49" height="10.54"/><rect class="cls-3" x="221.02" y="275.91" width="56.2" height="66.74"/><line class="cls-3" x1="221.02" y1="284.54" x2="277.22" y2="284.54"/><line class="cls-3" x1="221.02" y1="330.15" x2="277.22" y2="330.15"/><line class="cls-3" x1="239.37" y1="275.91" x2="239.37" y2="342.65"/><line class="cls-3" x1="258.14" y1="275.91" x2="258.14" y2="342.65"/><rect class="cls-3" x="286.01" y="275.91" width="47.42" height="66.74"/><line class="cls-3" x1="286.4" y1="284.54" x2="332.55" y2="284.54"/><line class="cls-3" x1="286.4" y1="330.15" x2="332.55" y2="330.15"/><line class="cls-3" x1="301.19" y1="275.91" x2="301.19" y2="341.57"/><line class="cls-3" x1="318.05" y1="275.91" x2="318.05" y2="342.65"/><rect class="cls-3" x="341.35" y="275.91" width="47.42" height="66.74"/><line class="cls-3" x1="341.75" y1="284.54" x2="387.89" y2="284.54"/><line class="cls-3" x1="341.75" y1="330.15" x2="387.89" y2="330.15"/><line class="cls-3" x1="356.53" y1="275.91" x2="356.53" y2="341.57"/><line class="cls-3" x1="373.39" y1="275.91" x2="373.39" y2="342.65"/><rect class="cls-3" x="165.61" y="275.91" width="47.42" height="66.74"/><line class="cls-3" x1="166.01" y1="284.54" x2="212.16" y2="284.54"/><line class="cls-3" x1="166.01" y1="330.15" x2="212.16" y2="330.15"/><line class="cls-3" x1="180.8" y1="275.91" x2="180.8" y2="341.57"/><line class="cls-3" x1="197.66" y1="275.91" x2="197.66" y2="342.65"/><rect class="cls-3" x="109.41" y="275.91" width="47.42" height="66.74"/><line class="cls-3" x1="109.81" y1="284.54" x2="155.95" y2="284.54"/><line class="cls-3" x1="109.81" y1="330.15" x2="155.95" y2="330.15"/><line class="cls-3" x1="124.59" y1="275.91" x2="124.59" y2="341.57"/><line class="cls-3" x1="141.46" y1="275.91" x2="141.46" y2="342.65"/><rect class="cls-5" x="235.07" y="211.36" width="31.61" height="19.32"/><rect class="cls-5" x="273.13" y="211.36" width="31.61" height="19.32"/><rect class="cls-5" x="311.18" y="211.36" width="31.61" height="19.32"/><rect class="cls-5" x="349.24" y="211.36" width="31.61" height="19.32"/><rect class="cls-5" x="197.02" y="211.36" width="31.61" height="19.32"/><rect class="cls-5" x="158.96" y="211.36" width="31.61" height="19.32"/><rect class="cls-5" x="120.91" y="211.36" width="31.61" height="19.32"/><rect class="cls-6" x="114.76" y="199.94" width="273.99" height="7.03"/><rect class="cls-6" x="102.46" y="263.17" width="295.07" height="7.03"/><path class="cls-7" d="M73.48,148.13l79,7,14-12.3s81.67,2.64,164.06,0L348,155.16,429.5,149l-4.21-6.15L350.94,149l-17.51-11.42s-85.19.88-170.64,0L149,149.89l-72-7Z"/><path class="cls-7" d="M37.48,242.1s43.91,1.75,61.47-8.79H403.06s25.29,10.76,61.7,8.9v-4.34s-28.58,2.47-60.2-9.82h-305s-18.17,11.27-62.08,10Z"/><circle class="cls-8" cx="75.24" cy="156.91" r="6.15"/><circle class="cls-8" cx="254.39" cy="176.23" r="6.15"/><circle class="cls-8" cx="240.34" cy="176.23" r="6.15"/><circle class="cls-8" cx="268.44" cy="176.23" r="6.15"/><circle class="cls-8" cx="282.49" cy="176.23" r="6.15"/><circle class="cls-8" cx="296.54" cy="176.23" r="6.15"/><circle class="cls-8" cx="310.6" cy="176.23" r="6.15"/><circle class="cls-8" cx="324.65" cy="176.23" r="6.15"/><circle class="cls-8" cx="338.7" cy="174.48" r="6.15"/><circle class="cls-8" cx="352.75" cy="172.72" r="6.15"/><circle class="cls-8" cx="366.8" cy="170.96" r="6.15"/><circle class="cls-8" cx="380.85" cy="167.45" r="6.15"/><circle class="cls-8" cx="394.9" cy="163.94" r="6.15"/><circle class="cls-8" cx="407.2" cy="160.42" r="6.15"/><circle class="cls-8" cx="419.49" cy="156.91" r="6.15"/><circle class="cls-8" cx="213.99" cy="176.23" r="6.15"/><circle class="cls-8" cx="199.94" cy="176.23" r="6.15"/><circle class="cls-8" cx="185.89" cy="176.23" r="6.15"/><circle class="cls-8" cx="171.84" cy="176.23" r="6.15"/><circle class="cls-8" cx="157.79" cy="174.48" r="6.15"/><circle class="cls-8" cx="143.74" cy="172.72" r="6.15"/><circle class="cls-8" cx="129.69" cy="170.96" r="6.15"/><circle class="cls-8" cx="115.64" cy="167.45" r="6.15"/><circle class="cls-8" cx="101.59" cy="163.94" r="6.15"/><circle class="cls-8" cx="89.29" cy="160.42" r="6.15"/><circle class="cls-8" cx="227.23" cy="176.38" r="6.15"/><circle class="cls-8" cx="271.22" cy="249.82" r="6.15"/><circle class="cls-8" cx="257.17" cy="249.82" r="6.15"/><circle class="cls-8" cx="285.27" cy="249.82" r="6.15"/><circle class="cls-8" cx="299.32" cy="249.82" r="6.15"/><circle class="cls-8" cx="313.37" cy="249.82" r="6.15"/><circle class="cls-8" cx="327.42" cy="249.82" r="6.15"/><circle class="cls-8" cx="230.82" cy="249.82" r="6.15"/><circle class="cls-8" cx="216.77" cy="249.82" r="6.15"/><circle class="cls-8" cx="202.72" cy="249.82" r="6.15"/><circle class="cls-8" cx="188.67" cy="249.82" r="6.15"/><circle class="cls-8" cx="244.06" cy="249.96" r="6.15"/><circle class="cls-8" cx="422.75" cy="250.3" r="6.15"/><circle class="cls-8" cx="408.7" cy="250.3" r="6.15"/><circle class="cls-8" cx="436.8" cy="250.3" r="6.15"/><circle class="cls-8" cx="450.85" cy="248.54" r="6.15"/><circle class="cls-8" cx="382.35" cy="250.3" r="6.15"/><circle class="cls-8" cx="368.3" cy="250.3" r="6.15"/><circle class="cls-8" cx="354.25" cy="250.3" r="6.15"/><circle class="cls-8" cx="340.2" cy="250.3" r="6.15"/><circle class="cls-8" cx="395.59" cy="250.44" r="6.15"/><circle class="cls-8" cx="117.17" cy="249.83" r="6.15"/><circle class="cls-8" cx="103.12" cy="249.83" r="6.15"/><circle class="cls-8" cx="131.22" cy="249.83" r="6.15"/><circle class="cls-8" cx="145.27" cy="249.83" r="6.15"/><circle class="cls-8" cx="159.32" cy="249.83" r="6.15"/><circle class="cls-8" cx="173.37" cy="249.83" r="6.15"/><circle class="cls-8" cx="76.77" cy="249.83" r="6.15"/><circle class="cls-8" cx="62.72" cy="248.08" r="6.15"/><circle class="cls-8" cx="90.01" cy="249.98" r="6.15"/></svg>