<svg id="레이어_1" data-name="레이어 1" xmlns="http://www.w3.org/2000/svg" viewBox="0 0 500 500"><defs><style>.cls-1{fill:#404040;}.cls-2{fill:#7f7f7f;}.cls-3{fill:#7a7a7a;}.cls-4{fill:#bebebe;}.cls-5{fill:#797979;}.cls-6{fill:#828282;}.cls-7{fill:#d9cfd1;}.cls-8{fill:#e2d4b1;}.cls-9{fill:#d0bfc2;}.cls-10{fill:#c4a08e;}.cls-11{fill:#c7c7c7;}.cls-12{fill:#c9a996;}.cls-13{fill:#cbac98;}.cls-14{fill:#f8f6f1;}.cls-15{fill:#e9d8d5;}.cls-16{fill:#7a543e;}.cls-17{fill:#f4f6ed;}.cls-18{fill:#96a35b;}.cls-19{fill:#f8de5d;}</style></defs><path class="cls-1" d="M241.34,373l11.2.05c.14.16.1.29-.07.39H241.39c-.15-.09-.21-.18-.17-.28S241.3,373,241.34,373Z"/><path class="cls-2" d="M248.72,373a2.12,2.12,0,0,1,.05.44h-3.52c-.16-.09-.21-.18-.17-.28s.08-.15.13-.15Z"/><path class="cls-3" d="M245.06,373.44a1.59,1.59,0,0,0,.08-.39l3.48,0c.14.11.18.21.13.3s-.11.13-.16.13Z"/><path class="cls-4" d="M248.16,373a3.11,3.11,0,0,1,0,.43h-2.52a2,2,0,0,0,0-.42Z"/><path class="cls-4" d="M245.65,373.44a1.56,1.56,0,0,1,0-.43h2.51a3,3,0,0,0,0,.42Z"/><path d="M234.22,397.27c-32.74-1.87-63.27-10.84-90.92-28.69C117.74,352.09,98.39,330.36,88,301.32c-4.57-12.78-6.07-25.92-6.06-39.48A191.57,191.57,0,0,1,92.43,199c9-26.15,25.35-46.74,47.93-62.53,22.4-15.67,47.39-25,74-30.23a208,208,0,0,1,60.85-2.52c31.71,3.14,61.28,12.42,87.39,31.22,21.64,15.6,35.94,36.44,43.43,62,3.69,12.58,7.68,25.1,9.71,38.12.68,4.3,1.38,8.6,1.77,12.94,0,.45-.22,1.05.5,1.23v1c-.53,1.09-.14,2.24-.26,3.36v8.88c.12,1.12-.27,2.28.26,3.37v1c-.63,3.95-.57,8-1.32,11.92-4.27,22.5-14.43,42.05-29.37,59.25a160.66,160.66,0,0,1-46.42,36.88A199.63,199.63,0,0,1,272,396.73a110.87,110.87,0,0,1-14.81.7H236.88A9.49,9.49,0,0,1,234.22,397.27Z"/><path class="cls-1" d="M417.61,262.81c0-3.23,0-6.46.05-9.69.16-.13.29-.11.39.08v9.56C417.93,263,417.78,263,417.61,262.81Z"/><path class="cls-5" d="M418.05,253.2a.78.78,0,0,0-.39-.08c0-1-.59-2.08.39-3Z"/><path class="cls-6" d="M417.61,262.81l.44-.05v3C417,264.92,417.74,263.81,417.61,262.81Z"/><path class="cls-7" d="M90.22,226.85c.41,2.43.7,4.75,1.22,7a126.55,126.55,0,0,0,8.19,23.87c10,22.25,27,37.48,47.61,49,8.78,4.92,17.67,10,27.35,13.07C200.09,328,226.21,332,253,330.63a216,216,0,0,0,54.52-9.73,151.69,151.69,0,0,0,28.57-12.15c8.78-4.92,17.64-9.6,25.58-15.83,18-14.09,31.91-31.11,39.75-52.89,2.5-6.94,2.91-14.23,5-21.19.18-.63.09-1.35.78-1.89,3,13,6.08,25.87,6.19,39.23.22,25-7.36,47.61-21.82,67.93-18.08,25.4-42.36,42.75-71,54.5a193.47,193.47,0,0,1-78,14.43c-37.87-.72-72.9-10.79-103.88-33.12-23.6-17-40.59-39-48.7-67.27a98.66,98.66,0,0,1-3.48-30.31c.34-11.39.52-22.79,2.66-34A1.46,1.46,0,0,1,90.22,226.85Z"/><path class="cls-8" d="M144.14,280.94a3.34,3.34,0,0,0-.13,2.88,63.88,63.88,0,0,0,9,19c.43.6.8,1.23,1.21,1.87-.29.14-.47.29-.55.25a109.32,109.32,0,0,1-46-41.17c-2.3-3.69-4.56-7.68-3.9-12.45,2.57-18.65,8.73-35.84,20.25-51,13.16-17.31,30-30,49.19-39.83,19.33-9.94,39.93-15.71,61.39-18.75A187,187,0,0,1,308,145.44c20.22,5.19,39.09,13.55,55.25,27.14,14.48,12.19,25.55,26.75,30.43,45.39,1.25,4.76,1.95,9.66,3.54,14.36.77,2.27.29,4.62-.5,6.9-4.67,13.54-12.38,25.2-22,35.65A137.39,137.39,0,0,1,352,294.31a5.46,5.46,0,0,1-1.85.85c3.39-5.84,5.25-12.25,7.43-18.53,1.08-3.12,2.37-6.26,1.47-9.7-1-2.13,0-4.25,0-6.38,2-4.58.42-9.12-.35-13.6a66.7,66.7,0,0,0-8.93-23.11,36.14,36.14,0,0,0-6.87-8.3,4.64,4.64,0,0,1-1.4-5.42,62.14,62.14,0,0,1,2.8-7.28c1.54-3.27,1.38-6.22-1-9.13-3.34-4.09-6.32-8.47-9.45-12.73-3-4-6.66-5.77-11.58-4.07a3.67,3.67,0,0,1-3.51-.85c-3.13-2.26-6.38-4.34-9.5-6.62a6,6,0,0,0-3.62-1.61,16.43,16.43,0,0,1-7.69-2.06,29,29,0,0,0-6.69-2.19c-2.14-.44-4.32-.84-6.23.8a1.85,1.85,0,0,1-2.13.05c-4.37-1.9-9-2.37-13.68-2.91a118.55,118.55,0,0,1-17-3.27,32.64,32.64,0,0,0-9.39-1.57,8.9,8.9,0,0,1-3.41-.79c-2.85-1.1-5.8-.82-8.71-.52-1.87.19-2.81,1.64-3.33,3.37a21.08,21.08,0,0,0-.46,7.25,6.19,6.19,0,0,1-3.19,6.08,21.39,21.39,0,0,0-3.76,2.94c-1.16,1.13-2.37,1.33-3.41-.1-2.37-3.22-5.48-4.21-9.32-3.32a6.55,6.55,0,0,1-3-.4c-3.29-.73-6.54-.75-9.49,1.12-6.84,4.36-13,9.4-17.56,16.3a33.88,33.88,0,0,0-5,12c-.43,2.15-1.46,2.92-3.58,2.92-4.58,0-7.71,2.3-9.73,6.36a179.87,179.87,0,0,0-7.58,16.45,8.35,8.35,0,0,1-2.44,3.45,17.17,17.17,0,0,0-4.31,5.83A55.84,55.84,0,0,0,139.24,258c-.05,1.93,0,3.86,0,5.79a12.13,12.13,0,0,0,2.69,8.43c.83,2,1.44,4.06,2.19,6.09A2.92,2.92,0,0,1,144.14,280.94Z"/><path class="cls-9" d="M399.8,224a83.44,83.44,0,0,0-11-29.2c-10.53-16.92-24.92-29.72-42.34-39.17A167.12,167.12,0,0,0,283,136.32c-37-3.75-72.37,1.84-106.1,17.24-22.58,10.32-42.22,24.63-57.18,44.82a106.74,106.74,0,0,0-19.33,45.34c-.14.8-.3,1.6-.56,3a87.83,87.83,0,0,1-3.5-11.91c-1-4.76-1.57-9.59-2.65-14.32-1.43-6.23.5-11.92,2.36-17.66,8.8-27.11,25.56-48.13,49.05-64,22.52-15.21,47.48-24.25,74.12-28.75a203.92,203.92,0,0,1,97.12,6.7c20.58,6.56,39.47,16.47,55.21,31.49a108.41,108.41,0,0,1,31.28,54.3c1.35,5.66,0,10.76-1,16.07-.32,1.81-.88,3.57-1.32,5.36A.45.45,0,0,1,399.8,224Z"/><path class="cls-10" d="M359.63,260.23c.35,2.28-.51,4.45-.59,6.7-2.41-1.94-3.2-1.86-3.87,1.14a141.82,141.82,0,0,1-4.65,14.75c-2.22,6.46-5.17,12.61-10.35,17.2a60,60,0,0,1-14.38,9c-1.19.55-2.39,1.07-4.26,1.91,3-3.54,5.58-6.51,8.12-9.5A128.2,128.2,0,0,0,338.09,290c.9-1.34,1.24-2.72-.32-3.69s-2.63-.14-3.53,1.24a142,142,0,0,1-20,24.07,22.52,22.52,0,0,1-10.07,5.7,254.2,254.2,0,0,1-34.47,7.28,200.31,200.31,0,0,1-39.09,1.36c-10.36-.67-20.61-2.12-30.84-3.76-2.76-.44-5.39-1.64-8.1-2.43a2,2,0,0,1-1.22-.79c-2.58-4.15-6.57-6.85-10.17-10-6-5.23-11.62-10.86-15.41-18-.7-1.33-1.68-2.2-3.21-1.44s-1.59,2.13-.82,3.59c4.07,7.69,10.1,13.7,16.53,19.37,1.67,1.48,3.4,2.88,5.53,4.67-8.11-1.11-14.58-4.74-21.1-8.22a2.21,2.21,0,0,1-.86-1.19c-1.23-3.61-3.5-6.62-5.56-9.76a60.4,60.4,0,0,1-6.9-15.48c-.86-2.77-2.13-3.16-4.32-1.56-.5-3-2.24-5.58-2.56-8.61,1.81-1.57,2.06-3.47,1.31-5.68a17.23,17.23,0,0,1-.45-6c.14-8.13,1.5-16,5.11-23.38,2.4-4.91,3.92-5.27,6.83-.76,6.13,9.46,13.22,18.17,20.22,27a9.17,9.17,0,0,0,7,3.72A50.61,50.61,0,0,1,199.28,272c3.56,1.61,7.14,3,11.14,1.53a2.81,2.81,0,0,1,2.78.77,39.67,39.67,0,0,0,4.47,3.27c2.36,1.42,3.47,1.13,5-1.24a17.72,17.72,0,0,0,.93-1.78c1.52-3.15,2.39-3.31,4.51-.62a54.17,54.17,0,0,0,8.65,8.74c8.58,6.85,18.32,11.18,29.25,11.49,13.58.39,25.72-6,31.86-19.22.71-1.52,1.19-3.14,1.85-4.68.77-1.8,1.81-2.18,3-.8,2.22,2.55,5.11,3,8.16,3.26,1.76.15,3.45.66,5.2.91,4.35.65,6.42-.49,8.1-4.52a111.3,111.3,0,0,0,4.08-11.9c3.35-11.6,7.24-23,9.51-34.94a9.07,9.07,0,0,1,.49-1.69c.88-2.23,2.26-2.63,4-1a33,33,0,0,1,5.77,7.89,70.84,70.84,0,0,1,8.72,28.67c.12,1.17.32,2.32.45,3.48,0,1.3-.63,2.57-.12,4a4.38,4.38,0,0,1,.26-3.24A1.88,1.88,0,0,1,359.63,260.23Z"/><path class="cls-11" d="M399.8,224l.7,0a2.19,2.19,0,0,1-.32,1.73A2,2,0,0,1,399.8,224Z"/><path d="M356.65,259.64c-.67-4.28-1.17-8.59-2.06-12.82-1.94-9.26-5.46-17.86-11.43-25.33-.31-.39-.63-.78-1-1.14-2.12-2.26-2.8-2.21-3.45.82C336,234,332.11,246.47,328.35,259c-1.15,3.82-2.55,7.59-4.05,11.29s-3.48,4.6-7.29,4.07q-5.34-.74-10.65-1.59a5.06,5.06,0,0,1-3.17-1.9,7.43,7.43,0,0,0-2.33-2c-1.66,5.17-3.8,10-7.36,14.12-5.86,6.73-13.22,10.77-22.12,11.46-18.52,1.45-32.7-6.69-44.12-20.6-.47-.58-.81-1.45-1.6-1.45-1.13,0-1,1.19-1.29,1.88-2.56,5.94-4,6.35-9.12,2.47a4.47,4.47,0,0,1-.6-.45c-1.83-1.93-3.66-2.74-6.52-1.65-2.56,1-5.25-.36-7.71-1.43-6.53-2.85-13.14-5.29-20.41-5.45-2.39-.05-4.09-1.6-5.59-3.43a359,359,0,0,1-22-29.49c-1.2-1.82-2-1.37-2.82.09a44.17,44.17,0,0,0-6,17.9c-.46,5.3-1.3,10.64.37,15.95.57,1.81-.26,3.31-2.43,3.57-2.29-1.53-2.73-4-2.87-6.4-.62-10.51.5-20.75,5.23-30.36a18.43,18.43,0,0,1,4.69-6.45,7.77,7.77,0,0,0,2.21-3.29c2.24-5.69,5.08-11.1,7.77-16.58,2.19-4.48,5.72-6.4,10.46-6.35,1.64,0,2.1-.37,2.44-2.07,2.07-10.18,8-17.93,16-24.2,2.11-1.64,4.3-3.19,6.54-4.67a11.89,11.89,0,0,1,10.81-1.24c.7.23,1.3.68,2.14.36,4.32-1.64,7.49.18,10,3.56.84,1.15,1.33,1.48,2.36.2A17.66,17.66,0,0,1,224,171a4.36,4.36,0,0,0,2.28-4.6,25.39,25.39,0,0,1,.38-8,4.33,4.33,0,0,1,4.11-3.79c3.32-.2,6.73-.62,9.85,1.12a1.91,1.91,0,0,0,.93.29c7.1-.42,13.63,2.46,20.44,3.67,5.36,1,10.86.8,16.1,2.36,1.28.38,2.57.78,3.8,1.27s2.63,1.66,3.79-.45c.43-.77,1.67-.56,2.6-.48a35.79,35.79,0,0,1,11.95,3.64,6.76,6.76,0,0,0,4.55.9c1.57-.36,2.89.62,4.14,1.49,3.57,2.49,7.16,5,10.7,7.51a2.22,2.22,0,0,0,2.47.31c4.41-1.76,8.2-.76,11.16,3.06,3.91,5,7.69,10.15,11.48,15.27a6.93,6.93,0,0,1,.68,7.16,84.3,84.3,0,0,0-3.71,9.87c-.26,1-.39,1.66.49,2.44,9.6,8.5,14.15,19.7,16.9,31.83a79.6,79.6,0,0,1,1.62,11.19,3.47,3.47,0,0,1-1.11,3.14l-2,.15C357,260.49,356.85,260,356.65,259.64Z"/><path d="M151.15,243.6a2.23,2.23,0,0,1,1.84-2.46,2.08,2.08,0,0,1,2.59,1.48c3.07,12,11.71,20.18,19.63,28.85a39.78,39.78,0,0,0,11.16,8c1,.54,2.13,1,3.12,1.58s1.79,1.59,1,2.93A2.17,2.17,0,0,1,187.4,285c-4.86-2.27-9.66-4.76-13.47-8.54-6.28-6.25-12.51-12.59-17.24-20.18a40.65,40.65,0,0,1-5.14-11.37C151.42,244.46,151.27,244,151.15,243.6Z"/><path d="M344.52,251c-.42,3.64-.92,7.29-2.55,10.64-5.44,11.2-11.34,22.1-20.2,31.08-.29.3-.58.6-.89.88-1,1-2.17,1.33-3.31.22s-1-2.36.18-3.47a74.65,74.65,0,0,0,12.79-16.9c3.27-5.79,7-11.38,8.65-18a23,23,0,0,0,.77-4.65c.07-1.77.33-3.42,2.4-3.37S344.69,249.27,344.52,251Z"/><path d="M262.79,306.09a113.63,113.63,0,0,1-31.92-4.1,16.09,16.09,0,0,1-1.67-.51c-1.34-.5-2.09-1.39-1.63-2.89a2.14,2.14,0,0,1,3-1.46,95.51,95.51,0,0,0,18.1,3.64,137.94,137.94,0,0,0,26.8.44c.83-.07,1.67-.14,2.5-.17a2.13,2.13,0,0,1,2.5,2.19c.05,1.49-.85,2.14-2.35,2.35C273.52,306.22,268.92,306,262.79,306.09Z"/><path d="M266.24,316.61c-1.08-.07-2.35-.07-3.58-.25a2.21,2.21,0,0,1-2.18-2.55,2.13,2.13,0,0,1,2.48-2c8.6.89,16.66-1.77,24.8-3.75a73.37,73.37,0,0,0,19.44-7.62c1.42-.82,2.88-1.42,3.92.31s-.23,2.9-1.7,3.72C301,309.18,292,312,282.69,314.07A82.72,82.72,0,0,1,266.24,316.61Z"/><path d="M152.82,257.23a2.17,2.17,0,0,1,2.21,1.71c2.46,7.87,7.82,13.92,12.73,20.22a60.62,60.62,0,0,0,14.07,13.14c1.31.87,2.21,2,1.07,3.53s-2.44,1-3.74.14c-7.77-5.2-13.84-12.07-19.3-19.53-3.25-4.43-6.55-8.86-8.54-14.06a6.43,6.43,0,0,1-.66-3.16A2.2,2.2,0,0,1,152.82,257.23Z"/><path d="M212.16,300.54c1.44-.14,2.5.65,3.66,1.08,10.41,3.89,21.19,6.4,32,8.86a34.37,34.37,0,0,0,5.76.29c1.53.08,2.69.76,2.58,2.42s-1.42,2.23-3,2.11c-14.34-1-27.78-5.62-41.2-10.31-1.31-.46-2.19-1.26-2-2.75A1.77,1.77,0,0,1,212.16,300.54Z"/><path d="M200.71,288.9a13.75,13.75,0,0,1,1.22,3,8.81,8.81,0,0,0,3.82,6.18c1.26.95,2,2.22.77,3.63s-2.55.76-3.88-.31a13,13,0,0,1-5-7.79c-.43-2.06-1.74-3.93-2.64-5.9-.57-1.25-.95-2.59-.08-3.8,1-1.37,2.33-.84,3.66-.5,3.45.87,6.48,2.62,9.57,4.27,2,1.06,3.94,2.19,6,3.15,1.46.7,2.87,1.37,2,3.31-.91,2.1-2.56,1.5-4,.76C208.41,293,204.75,291,200.71,288.9Z"/><path d="M223.67,319.59c-.06,1.84-1.27,2.5-3.42,1.75a115.4,115.4,0,0,1-27-13.34q-1.86-1.26-3.65-2.62c-1.2-.92-1.71-2.12-.72-3.44s2.28-1.08,3.51-.15a99.23,99.23,0,0,0,20.1,11.59c2.95,1.31,6,2.43,9,3.6C222.71,317.46,223.83,318,223.67,319.59Z"/><path d="M290.19,302.54a2.24,2.24,0,0,1-2.52-1.86c-.25-1.36.49-2.18,1.75-2.65a62.2,62.2,0,0,0,21.06-13.55,46.74,46.74,0,0,0,3.14-3.58c.95-1.11,2.07-1.5,3.27-.54s1.07,2.29.13,3.52c-4.56,6-10.52,10.21-16.86,14a37.06,37.06,0,0,1-8.48,4.21Z"/><path class="cls-12" d="M356.65,259.64l1,.74c-.24,1.11-.48,2.22-.71,3.33h-.25Z"/><path class="cls-13" d="M145.36,276c-.44-.54-.89-1-.54-1.83C145.34,274.74,145.76,275.21,145.36,276Z"/><path class="cls-14" d="M298.28,253.89c-1.47.87-1.46,2.21-1.32,3.72,1.51,15.72-8.54,29.22-24,32.08-8.74,1.62-17-.37-24.78-4.35-7-3.59-12.7-8.76-17.8-14.84-8-9.51-12.63-20.45-15.47-32.32-.83-3.49-.92-7.13-2.08-10.58-.48-1.41,1.13-2.46,1.3-3.91a25.85,25.85,0,0,1,2.19-8.46c3.92-8,10.59-11.64,19.23-11.85,11.78-.29,22.25,3.92,32.27,9.7,7.19,4.14,13.26,9.35,17.34,16.68a9.52,9.52,0,0,1,1.62,4.14c.19,2.92,1.67,3.6,4.4,2.17.9-1.17,1.48-.3,1.86.4a88.33,88.33,0,0,1,6.1,14.72A2.71,2.71,0,0,1,298.28,253.89Z"/><path class="cls-15" d="M298.28,253.89a4.57,4.57,0,0,0,0-3.39,120.14,120.14,0,0,0-5.49-13.16c-.32-.61-.29-1.87-1.62-1.27,1-5.52-2.43-9.41-5.27-13.36-1.69-2.37-3-4.22-1.9-7.46,1.28-3.95.58-8.39,1.37-12.42,1.5-7.68,1.46-15.46,2.46-23.16.5-3.81,1.13-7.65.68-11.51-.12-1.1.34-1.14,1.08-1a47.58,47.58,0,0,1,10.57,3.89c.79.39.57.93.48,1.46-2.42,14.87-3.4,29.95-6.43,44.74-.22,1.06-.56,2.1-.81,3.15-.36,1.53-1.14,3.34,1,4s2.84-.95,3.33-2.73a135.75,135.75,0,0,0,3.5-19.5c1.29-10.12,2.64-20.24,4-30.7,4.32,3,8.34,5.87,12.4,8.66,1.06.72.42,1.44.21,2.18-1.41,4.81-2.81,9.63-4.24,14.44-.45,1.54-.76,3.14,1.21,3.74s2.68-.87,3.16-2.56c1.41-5,2.86-10,4.45-14.89,1.16-3.58,4.27-4.34,6.65-1.42,4.18,5.12,8,10.52,12,15.8a2.19,2.19,0,0,1,.14,2.37c-5.35,12.25-7.79,25.35-11.39,38.12-2.77,9.8-5.5,19.63-9,29.21-.91,2.46-2.24,3.25-4.69,2.55a9.54,9.54,0,0,0-3.44-.63c-4.4.44-7.07-2.78-10.39-4.62-.81-.45-.53-1.09-.56-1.73-.08-2.09-.15-4.18-.29-6.27C301.29,254.55,300.32,253.55,298.28,253.89Z"/><path class="cls-16" d="M242.7,160.72c2.33-.55,4.45.34,6.62.89,1.15.28,1.16,1.3,1.45,2.14q4.89,14.63,9.81,29.24a2,2,0,0,0,2.72,1.51c1.53-.55,1.93-1.68,1.4-3.23-2.68-7.83-5-15.79-8.1-23.49-.54-1.36-1.87-3.18-1-4.18s3,0,4.49.16c2.25.26,3.92.89,4.18,3.84.22,2.42,1.19,4.84,1.56,7.32.24,1.58.89,2.57,2.6,2.29s1.93-1.41,1.73-3a37.11,37.11,0,0,0-1.5-7.09c-.36-1.08-.07-1.51,1.11-1.55a26,26,0,0,1,12.33,2.9,3.18,3.18,0,0,1,2,3.6c-.65,6.07-1.19,12.15-1.77,18.22-.14,1.57-.25,3.14-.39,4.82-1.15-.28-1.07-1.29-1.25-2-.93-3.47-2.26-6.82-2.87-10.38-.25-1.44-1-2.63-2.67-2.31s-1.92,1.71-1.64,3.14c1.07,5.42,2.17,11,5,15.66,2.08,3.4,2.17,6.73,1.91,10.29a57.73,57.73,0,0,1-1.08,5.94,93.94,93.94,0,0,0-12.6-8.1c-7.7-4.25-15.77-7.32-24.6-8.09a2,2,0,0,1-2.09-1.69c-2.34-8.3-5.61-16.27-8.58-24.35-1.54-4.18-.77-8.58-.47-12.9a1.26,1.26,0,0,1,1.48-1.31c1.25.06,2.52,0,3.77.06.83.06,1.71.24,1.86,1.32.66,5,2.88,9.58,4.12,14.43.68,2.67,1.49,5.32,2,8,.3,1.74,1,2.72,2.74,2.38s2-1.74,1.69-3.31c-1.14-6.19-3.3-12.08-5.13-18.07C243.22,162.86,242.58,161.91,242.7,160.72Z"/><path class="cls-17" d="M169.8,207.26c1-.25,1.61.62,2,2.2a45.36,45.36,0,0,0,5.85,14.32,19.49,19.49,0,0,0,8.22,7.2,3.68,3.68,0,0,1,2.24,2.52c3.24,13.1,10.84,23.81,18.75,34.36.46.62,1.58,1.25,1,2.05s-1.73.49-2.58.18c-4-1.47-8-3-12-4.51a37.42,37.42,0,0,0-11.79-2.27,4.54,4.54,0,0,1-3.59-1.89c-8.23-9.85-15.68-20.28-23.07-30.76a1.82,1.82,0,0,1-.21-2,175.19,175.19,0,0,1,8.52-18.14C164.47,208.14,166.69,207.57,169.8,207.26Z"/><path class="cls-18" d="M219.2,273.94a26.29,26.29,0,0,1-6.89-6.5c-5.77-7.91-12-15.55-16.05-24.59-1.52-3.37-2.41-7-3.73-10.39-3.3-8.62-2.48-17.33-.83-26a105.14,105.14,0,0,1,3.08-10.61c2.36-7.91,8.12-13.58,13.09-19.76,1-1.3,2.47-1.25,3.84-.32,2.9,1.95,3.26,4,1.42,6.87-6.1,9.52-10.59,19.6-10.62,31.19A42.19,42.19,0,0,0,203.6,222a4.75,4.75,0,0,0,1.68,3c2.84,2.15,3.84,5.22,4.23,8.53a69.34,69.34,0,0,0,9.75,28.57C221.86,266.35,222.59,269.92,219.2,273.94Z"/><path class="cls-18" d="M209.53,222.44c-1.82-.87-1.67-2.45-1.95-3.78-1.35-6.54-.09-12.81,2.08-19a60.07,60.07,0,0,1,12.45-21,15,15,0,0,1,5-3.89c3.17,7.87,6.09,15.76,8.65,23.89C220.67,199.74,211.87,207.57,209.53,222.44Z"/><path class="cls-18" d="M202.81,174.89c-6.12,7.3-11.23,14.61-13.79,23.69a76.59,76.59,0,0,0-2.87,27.21,15.56,15.56,0,0,1-5.85-6.51,50.3,50.3,0,0,1-3.93-10c-1.66-5.73.08-10.94,2.7-15.92,4.11-7.83,10.79-13.13,18.05-17.79C198.66,174.54,200.42,174.39,202.81,174.89Z"/><path d="M236.18,249.06c.06-11.74,9.29-19,20.63-16,10,2.68,17.67,8.42,21.28,18.46,5,13.78-5.58,26-19.95,23.35C245.84,272.63,236.11,261.18,236.18,249.06Z"/><path class="cls-19" d="M262.62,270.74c-12,.37-23.31-12.13-21.8-23.74.89-6.81,6.37-11.11,13.21-9.82,8.82,1.66,15.58,6.42,19.36,14.74,2.42,5.32,2,10.47-2.08,15A10.53,10.53,0,0,1,262.62,270.74Z"/></svg>