<svg xmlns="http://www.w3.org/2000/svg" viewBox="0 0 62.64 61.31"><defs><style>.cls-1{fill:#b8ee77;}.cls-2{fill:#020204;}.cls-3{fill:#030305;}.cls-4{fill:#040307;}.cls-5{fill:#030205;}.cls-6{fill:#e5868d;}</style></defs><g id="레이어_2" data-name="레이어 2"><g id="레이어_1-2" data-name="레이어 1"><path d="M49.55,61.31a64.53,64.53,0,0,1-16.61-2.72,6.58,6.58,0,0,1-4.69-4.4c-.32-1-.85-.43-1.25-.24A22.75,22.75,0,0,1,17.12,56a2.81,2.81,0,0,1-3.05-2.15A10.25,10.25,0,0,1,14,48.43c.61-3.65,1.55-7.17,4.28-9.93.58-.59.15-.69-.37-.76a11.48,11.48,0,0,1-5.52-2.11,4.39,4.39,0,0,1-1.95-4.55A31,31,0,0,1,11,27.91a6.19,6.19,0,0,0-1.62-6.28A8,8,0,0,0,7.45,20c-3.11-1.6-5-4.37-7.06-7-.67-.88-.48-1.11.54-1.37,1.65-.41,3.14-1.35,4.84-1.67a25.32,25.32,0,0,1,14,1,3.86,3.86,0,0,0,2.8,0A14.39,14.39,0,0,1,26.41,10a1.68,1.68,0,0,0,1.48-1A18,18,0,0,0,29,6.21,12.73,12.73,0,0,1,32.32.61,1.53,1.53,0,0,1,34.71.54a32,32,0,0,1,9.47,14.55,13.63,13.63,0,0,0,4.23,6.37c4.6,3.92,7.55,9,10.06,14.4a44.67,44.67,0,0,1,4.17,19.36c0,2.61-.92,4.89-4.63,5.3-.39,0-.78.15-1.18.21A50.56,50.56,0,0,1,49.55,61.31Z"/><path class="cls-1" d="M1,12.53A21.71,21.71,0,0,1,12.5,10.17a21.23,21.23,0,0,1,6.64,1.35,5.27,5.27,0,0,0,4,.08,12.7,12.7,0,0,1,3.47-.86,2.47,2.47,0,0,0,2-1.45A21.43,21.43,0,0,0,30,5.86a13,13,0,0,1,2.5-4.31c.72-.82,1.28-.92,2.15-.12a32.65,32.65,0,0,1,9,14.3,11.65,11.65,0,0,0,3.52,5.59c5.23,4.36,8.53,10,11.21,16.15a44.08,44.08,0,0,1,3.57,17.42c0,3.2-1.14,4.36-4.28,5-8.17,1.56-16.11.28-24-1.81a6.71,6.71,0,0,1-4.36-3.28,3.25,3.25,0,0,1-.13-3.31c2.32-4.33,5.68-7.08,10.83-7.25,2.35-.08,3.87,1.18,5.33,2.73.32.34.54,1.31,1.19.72.43-.39-.3-.86-.61-1.22-1.67-2-3.65-3.34-6.53-2.92a9.94,9.94,0,0,1,4.13-5.22c.3-.2.93-.31.68-.78s-.79-.09-1.12.12a10.05,10.05,0,0,0-4,4.62,2.35,2.35,0,0,1-1.8,1.51A12,12,0,0,0,28.6,51a4.66,4.66,0,0,1-3.11,2.73,22.15,22.15,0,0,1-8.41,1.53,2.24,2.24,0,0,1-2.26-1.58c-.71-1.69-.4-3.38-.15-5.07a18.29,18.29,0,0,1,4.58-10.3c.63-.67,1.42-.28,2.1-.51.31-.11.87.05.83-.44s-.55-.34-.89-.33A17.76,17.76,0,0,1,16,36.59a9,9,0,0,1-3.9-2.23c-1.51-1.41-.89-3.18-.67-4.85s.88-3.31.44-5.06a8.29,8.29,0,0,0-4.15-5.19C4.78,17.59,3,15,1,12.53Z"/><path class="cls-2" d="M25.91,37.76a3.51,3.51,0,0,1-.58,0c-.37,0-1,.2-1-.33s.58-.34.92-.38A32.1,32.1,0,0,0,41.7,30.25a5.07,5.07,0,0,0,1.95-2.93c.05-.27,0-.62.45-.5s.3.44.27.71a4.74,4.74,0,0,1-1.8,3,29.55,29.55,0,0,1-8.48,5.06A31.52,31.52,0,0,1,25.91,37.76Z"/><path class="cls-3" d="M28.77,28.18A3.56,3.56,0,0,1,26.38,27a1.64,1.64,0,0,0-1.47-.55A4.15,4.15,0,0,1,22.73,26c-.27-.11-.52-.29-.39-.63s.4-.22.68-.13c2.4.78,2.45.77,4.05-1.26.26-.32.44-.31.8-.21,2.46.71,2.52.68,3.78-1.41.14-.23.26-.43.54-.34s.24.4.18.61a2.56,2.56,0,0,1-.48,1.07,4.91,4.91,0,0,0-1.28,2.69C30.36,27.32,29.85,28.14,28.77,28.18Z"/><path class="cls-4" d="M21.87,21.7a1.28,1.28,0,0,1-1.39-1.35,1.22,1.22,0,0,1,1.36-1.3,1.23,1.23,0,0,1,1.35,1.32A1.26,1.26,0,0,1,21.87,21.7Z"/><path class="cls-5" d="M31.13,16.59c1,0,1.46.43,1.48,1.3a1.23,1.23,0,0,1-1.32,1.37A1.2,1.2,0,0,1,30,18,1.2,1.2,0,0,1,31.13,16.59Z"/><path class="cls-6" d="M30.05,25.12c.06,1.13-.67,2.26-1.32,2.31s-2.23-1-2.08-1.38c.26-.58.65-1.42,1.26-1.37A4.75,4.75,0,0,1,30.05,25.12Z"/></g></g></svg>