<svg xmlns="http://www.w3.org/2000/svg" viewBox="0 0 62.67 61.38"><defs><style>.cls-1{fill:#8df5b7;}.cls-2{fill:#030302;}.cls-3{fill:#040403;}.cls-4{fill:#030303;}.cls-5{fill:#040504;}.cls-6{fill:#e5868d;}</style></defs><g id="레이어_2" data-name="레이어 2"><g id="레이어_1-2" data-name="레이어 1"><path d="M49.6,61.38A65,65,0,0,1,33,58.67a6.57,6.57,0,0,1-4.71-4.38c-.3-1-.81-.49-1.24-.29a22.17,22.17,0,0,1-9.27,2.08c-2.63,0-4-1-4-3.62-.1-5,.86-9.76,4.3-13.69.17-.21.52-.37.43-.67s-.53-.26-.82-.31a11.57,11.57,0,0,1-5.39-2.14,4.38,4.38,0,0,1-1.88-4.47A31,31,0,0,1,11,28a6.22,6.22,0,0,0-1.59-6.29,8.29,8.29,0,0,0-2-1.7c-3.11-1.61-5-4.4-7-7.06-.54-.71-.53-1,.44-1.26,1.82-.44,3.44-1.46,5.31-1.78A25.45,25.45,0,0,1,19.78,11a3.84,3.84,0,0,0,2.81,0,14.79,14.79,0,0,1,3.93-1,1.55,1.55,0,0,0,1.32-.89A16,16,0,0,0,29,6.31,12.33,12.33,0,0,1,32.24.79c1.06-1,1.45-1.06,2.55-.11a32.19,32.19,0,0,1,9.56,14.9,10.85,10.85,0,0,0,3.27,5.2c5.17,4.29,8.49,9.86,11.2,15.89a45,45,0,0,1,3.85,18.47c0,2-.49,3.82-2.42,4.86a10.29,10.29,0,0,1-3.37.78A43.26,43.26,0,0,1,49.6,61.38Z"/><path class="cls-1" d="M39.33,43.59a10.09,10.09,0,0,1,4.14-5.25c.3-.2,1-.29.67-.78s-.78,0-1.1.19A10.16,10.16,0,0,0,39,42.49a2,2,0,0,1-1.44,1.27,12.58,12.58,0,0,0-9.44,8.76.67.67,0,0,1-.45.46,24.3,24.3,0,0,1-10.53,2.4,2.26,2.26,0,0,1-2.28-1.56c-.72-1.73-.4-3.46-.15-5.19a18.27,18.27,0,0,1,4.61-10.3c.58-.62,1.35-.3,2-.46.32-.08.86.12.84-.4s-.55-.34-.87-.32c-3.09.13-6.05-.14-8.63-2.16a3.62,3.62,0,0,1-1.53-3.64,24.53,24.53,0,0,1,.46-2.83c1-3.79.26-6.34-3.66-9a27.7,27.7,0,0,1-6.45-6.33c-.16-.21-.3-.46-.46-.69a23.25,23.25,0,0,1,18.63-.8,4.53,4.53,0,0,0,3.28,0,13.63,13.63,0,0,1,3.71-.92A2.29,2.29,0,0,0,28.51,9.5,21,21,0,0,0,30,5.84a12.25,12.25,0,0,1,2.53-4.3c.68-.75,1.2-.89,2.05-.12A32.34,32.34,0,0,1,43.62,15.7a13.73,13.73,0,0,0,3.92,6C55.45,29,59.76,38.13,61.44,48.61A35.57,35.57,0,0,1,62,55.05c-.08,3.12-1.11,4.25-4.13,4.84-8.31,1.61-16.37.35-24.38-1.83A6.89,6.89,0,0,1,31.1,56.9c-2.56-1.89-3-4.07-1.22-6.72,2.3-3.49,5.38-5.67,9.71-5.94,2.47-.15,4.17,1,5.7,2.7.32.35.64,1.28,1.18.78s-.36-.93-.68-1.31C44.14,44.47,42.17,43.17,39.33,43.59Z"/><path class="cls-2" d="M25.53,37.83h-.48c-.31,0-.73,0-.7-.42s.41-.28.68-.31a31.17,31.17,0,0,0,15.49-5.84c1.44-1,2.88-2.06,3.16-4,0-.22.16-.39.38-.36a.4.4,0,0,1,.33.44,3.17,3.17,0,0,1-.47,1.59,7,7,0,0,1-2,2.22,33.64,33.64,0,0,1-15.59,6.63C26.09,37.81,25.8,37.81,25.53,37.83Z"/><path class="cls-3" d="M28.67,28.24A3.73,3.73,0,0,1,26.39,27a1.53,1.53,0,0,0-1.46-.53,4,4,0,0,1-2.08-.44c-.29-.12-.67-.25-.46-.68s.47-.12.72,0c2.24.76,2.49.7,4-1.27.3-.39.53-.32.91-.19,2.18.71,2.48.58,3.69-1.45.13-.23.26-.45.53-.33s.22.4.16.63a1.68,1.68,0,0,1-.32.77,6.68,6.68,0,0,0-1.6,3.35A1.84,1.84,0,0,1,28.67,28.24Z"/><path class="cls-4" d="M21.77,19.12a1.23,1.23,0,0,1,1.39,1.32,1.2,1.2,0,0,1-1.26,1.3,1.23,1.23,0,0,1-1.36-1.33A1.2,1.2,0,0,1,21.77,19.12Z"/><path class="cls-5" d="M30,18a1.32,1.32,0,0,1,2.63,0,1.23,1.23,0,0,1-1.37,1.32A1.25,1.25,0,0,1,30,18Z"/><path class="cls-6" d="M26.63,26.09c0-.45,1.29-1.35,1.7-1.26a2.31,2.31,0,0,1,.47.08c.41.19,1.18-.15,1.25.37a2.23,2.23,0,0,1-.82,2c-.55.45-1.06.09-1.53-.19A2.35,2.35,0,0,1,26.63,26.09Z"/></g></g></svg>