<svg xmlns="http://www.w3.org/2000/svg" viewBox="0 0 62.67 61.38"><defs><style>.cls-1{fill:#8ee5e6;}.cls-2{fill:#040303;}.cls-3{fill:#050304;}.cls-4{fill:#060506;}.cls-5{fill:#050404;}.cls-6{fill:#e5868d;}</style></defs><g id="레이어_2" data-name="레이어 2"><g id="레이어_1-2" data-name="레이어 1"><path d="M49.6,61.38a65.39,65.39,0,0,1-16.38-2.64,6.88,6.88,0,0,1-5-4.56c-.3-.93-.83-.33-1.18-.17a22.3,22.3,0,0,1-9.26,2.07c-2.64,0-4-1-4-3.61-.1-5,.85-9.76,4.29-13.7.18-.21.52-.37.44-.67s-.53-.26-.82-.31a11.58,11.58,0,0,1-5.38-2.14,4.36,4.36,0,0,1-1.89-4.47A31,31,0,0,1,11,28a6.2,6.2,0,0,0-1.59-6.29,8.29,8.29,0,0,0-2-1.7c-3.1-1.61-5-4.4-7-7.06-.54-.7-.54-1,.44-1.26,1.81-.44,3.44-1.46,5.31-1.78A25.46,25.46,0,0,1,19.78,11a3.86,3.86,0,0,0,2.8,0,15.76,15.76,0,0,1,4.06-1,1.44,1.44,0,0,0,1.19-.87A15.54,15.54,0,0,0,29,6.32,12.43,12.43,0,0,1,32.15.88C33.31-.24,33.69-.3,34.88.75a32.35,32.35,0,0,1,9.47,14.83,10.91,10.91,0,0,0,3.26,5.2c5.18,4.29,8.5,9.86,11.21,15.88a45.05,45.05,0,0,1,3.85,18.47c0,2-.49,3.83-2.42,4.87a10.23,10.23,0,0,1-3.37.78A43.26,43.26,0,0,1,49.6,61.38Z"/><path class="cls-1" d="M39.32,43.6a10.37,10.37,0,0,1,4.21-5.3c.29-.18.95-.25.6-.79s-.73,0-1,.18A10.37,10.37,0,0,0,39,42.4a2.07,2.07,0,0,1-1.49,1.36c-4.7,1.24-8,4.06-9.42,8.77-.09.28-.24.35-.47.45a24.6,24.6,0,0,1-10.4,2.4,2.36,2.36,0,0,1-2.44-1.69c-.67-1.78-.3-3.54,0-5.31a18,18,0,0,1,4.5-10c.64-.69,1.41-.33,2.1-.53.31-.1.86.09.83-.42s-.55-.34-.88-.32a17.68,17.68,0,0,1-5.23-.44,9.56,9.56,0,0,1-3.94-2.18,3.2,3.2,0,0,1-1-2.93,18.12,18.12,0,0,1,.46-2.95c1.12-3.87.26-6.6-3.93-9.31C4.85,17.53,3,15.06,1,12.54a23.3,23.3,0,0,1,18.65-.81,4.58,4.58,0,0,0,3.28,0,13.65,13.65,0,0,1,3.71-.93,2.34,2.34,0,0,0,1.95-1.37A20.37,20.37,0,0,0,30,5.87,12.47,12.47,0,0,1,32.66,1.4c.64-.67,1.1-.67,1.79,0a32.17,32.17,0,0,1,9.2,14.46,13.14,13.14,0,0,0,3.88,5.92C55.09,28.6,59.28,37.29,61.2,47.17A36.91,36.91,0,0,1,62,55c-.07,3.17-1.12,4.29-4.22,4.88-8.27,1.58-16.29.33-24.25-1.85A6.67,6.67,0,0,1,29.36,55a3.34,3.34,0,0,1-.24-3.42c2.25-4.26,5.53-7,10.57-7.31,2.48-.15,4.15,1.07,5.68,2.77.29.33.55,1.21,1.11.74s-.27-.87-.57-1.22C44.24,44.55,42.28,43.15,39.32,43.6Z"/><path class="cls-2" d="M25.94,37.82h-1c-.29,0-.6,0-.56-.42s.32-.28.56-.3a30.55,30.55,0,0,0,11.52-3.34,28.24,28.24,0,0,0,5-3.2,5.27,5.27,0,0,0,2.21-3.16c0-.25.07-.54.36-.52s.38.34.36.63a4,4,0,0,1-.74,1.87,11.38,11.38,0,0,1-3.29,2.93A33.13,33.13,0,0,1,25.94,37.82Z"/><path class="cls-3" d="M28.49,28.23a3.57,3.57,0,0,1-2-1.13,1.76,1.76,0,0,0-1.57-.59,4,4,0,0,1-2.29-.57.38.38,0,0,1-.18-.59.37.37,0,0,1,.52-.1,5.72,5.72,0,0,0,.89.36,2.31,2.31,0,0,0,3.05-1.14c.36-.65.65-.82,1.36-.52,1.44.62,3,.35,3.43-1.4.07-.29.21-.59.56-.45s.27.54.14.72a26,26,0,0,0-2.3,4.71C29.84,28,29.31,28.24,28.49,28.23Z"/><path class="cls-4" d="M21.76,19.11a1.26,1.26,0,0,1,1.42,1.35,1.21,1.21,0,0,1-1.27,1.29,1.24,1.24,0,0,1-1.39-1.3A1.21,1.21,0,0,1,21.76,19.11Z"/><path class="cls-5" d="M32.65,17.94a1.29,1.29,0,0,1-1.34,1.37A1.2,1.2,0,0,1,30,18a1.17,1.17,0,0,1,1.24-1.28A1.26,1.26,0,0,1,32.65,17.94Z"/><path class="cls-6" d="M28,24.68c.53.6,1.74-.25,2,.77a1.9,1.9,0,0,1-1.29,2.05c-.56,0-2.09-1-2.11-1.4A3.92,3.92,0,0,1,28,24.68Z"/></g></g></svg>