<svg xmlns="http://www.w3.org/2000/svg" viewBox="0 0 62.67 61.38"><defs><style>.cls-1{fill:#619ff4;}.cls-2{fill:#030104;}.cls-3{fill:#040205;}.cls-4{fill:#050206;}.cls-5{fill:#e5868d;}</style></defs><g id="레이어_2" data-name="레이어 2"><g id="레이어_1-2" data-name="레이어 1"><path d="M49.6,61.38A65,65,0,0,1,33,58.67a6.57,6.57,0,0,1-4.71-4.38c-.3-1-.81-.49-1.24-.29a22.17,22.17,0,0,1-9.27,2.08c-2.63,0-4-1-4-3.62-.1-5,.86-9.76,4.3-13.69.17-.21.52-.37.43-.67s-.53-.26-.82-.31a11.57,11.57,0,0,1-5.39-2.14,4.38,4.38,0,0,1-1.88-4.47A31,31,0,0,1,11,28a6.22,6.22,0,0,0-1.59-6.29,8.29,8.29,0,0,0-2-1.7c-3.11-1.61-5-4.4-7-7.06-.54-.71-.53-1,.44-1.26,1.82-.44,3.44-1.46,5.31-1.78A25.45,25.45,0,0,1,19.78,11a3.84,3.84,0,0,0,2.81,0,14.79,14.79,0,0,1,3.93-1,1.55,1.55,0,0,0,1.32-.89A16,16,0,0,0,29,6.31,12.38,12.38,0,0,1,32.24.79c1.06-1,1.45-1.06,2.54-.11a32.13,32.13,0,0,1,9.57,14.9,10.85,10.85,0,0,0,3.27,5.2c5.17,4.29,8.49,9.86,11.2,15.89a45,45,0,0,1,3.85,18.47c0,2-.49,3.82-2.42,4.86a10.29,10.29,0,0,1-3.37.78A43.26,43.26,0,0,1,49.6,61.38Z"/><path class="cls-1" d="M39.31,43.61a10.34,10.34,0,0,1,4.28-5.33c.27-.17.83-.26.58-.72s-.73-.09-1,.09a10.12,10.12,0,0,0-4.07,4.59,2.56,2.56,0,0,1-1.87,1.6,12.52,12.52,0,0,0-9.12,8.64.67.67,0,0,1-.42.49A24.5,24.5,0,0,1,17,55.37,2.17,2.17,0,0,1,14.89,54a8.91,8.91,0,0,1-.24-5.06,18.63,18.63,0,0,1,4.64-10.55c.53-.57,1.2-.24,1.78-.45.37-.14,1.11.17,1.07-.4s-.78-.35-1.19-.33a17.15,17.15,0,0,1-5.1-.51,9.38,9.38,0,0,1-3.8-2.2,3.14,3.14,0,0,1-.94-2.84,18.11,18.11,0,0,1,.45-2.95c1.13-3.91.25-6.62-3.91-9.31C4.87,17.54,3,15.08,1,12.54a23.27,23.27,0,0,1,18.53-.84,4.8,4.8,0,0,0,3.4,0,14,14,0,0,1,3.7-.92,2.39,2.39,0,0,0,2-1.37A20.79,20.79,0,0,0,30,5.87,12.47,12.47,0,0,1,32.66,1.4c.64-.67,1.11-.65,1.8,0a32,32,0,0,1,9.15,14.35,13.87,13.87,0,0,0,4,6.11C55.08,28.61,59.21,37.22,61.17,47A35.84,35.84,0,0,1,62,55c-.08,3.11-1.12,4.27-4.13,4.85-8.3,1.6-16.36.35-24.36-1.84a7.13,7.13,0,0,1-2.54-1.3c-2.39-1.88-2.73-3.93-1.1-6.47a12.42,12.42,0,0,1,7.53-5.72c3.06-.78,5.8-.34,7.86,2.32a4.88,4.88,0,0,0,.48.54c.23.23.42.72.83.34s-.06-.58-.24-.8C44.52,44.81,42.53,43.1,39.31,43.61Z"/><path class="cls-2" d="M25.73,37.83a1.74,1.74,0,0,1-.36,0c-.37,0-1,.19-1-.33s.58-.34.93-.38a31.76,31.76,0,0,0,16.54-6.88,4.6,4.6,0,0,0,1.84-2.85c0-.26.1-.54.38-.5s.37.37.34.67a5,5,0,0,1-2,3.18A31.83,31.83,0,0,1,29.6,37.11,22.38,22.38,0,0,1,25.73,37.83Z"/><path class="cls-3" d="M28.79,28.24a3.28,3.28,0,0,1-2.19-1,2.1,2.1,0,0,0-1.88-.73,3.74,3.74,0,0,1-1.95-.46c-.26-.11-.55-.26-.4-.62s.42-.2.69-.11c2.35.75,2.36.76,4-1.29.33-.39.57-.25.92-.13,2.07.69,2.63.47,3.63-1.39.14-.27.25-.55.59-.4s.19.42.13.64a1.5,1.5,0,0,1-.31.76c-1,.89-1.2,2.16-1.6,3.34A1.83,1.83,0,0,1,28.79,28.24Z"/><path class="cls-4" d="M21.92,21.76a1.28,1.28,0,0,1-1.4-1.32,1.2,1.2,0,0,1,1.23-1.32,1.22,1.22,0,0,1,1.43,1.24A1.26,1.26,0,0,1,21.92,21.76Z"/><path class="cls-3" d="M32.65,18a1.3,1.3,0,0,1-1.34,1.37A1.21,1.21,0,0,1,30,18a1.17,1.17,0,0,1,1.25-1.27A1.25,1.25,0,0,1,32.65,18Z"/><path class="cls-5" d="M28.16,24.68c.44.71,2-.47,1.83,1.09-.08.8-.33,1.83-1.46,1.68-.81-.11-1.72-.58-1.81-1.46A1.65,1.65,0,0,1,28.16,24.68Z"/></g></g></svg>