<svg xmlns="http://www.w3.org/2000/svg" viewBox="0 0 62.67 61.38"><defs><style>.cls-1{fill:#8384fc;}.cls-2{fill:#040302;}.cls-3{fill:#050403;}.cls-4{fill:#060503;}.cls-5{fill:#e5868d;}</style></defs><g id="레이어_2" data-name="레이어 2"><g id="레이어_1-2" data-name="레이어 1"><path d="M49.61,61.37a64.93,64.93,0,0,1-16.38-2.63,6.82,6.82,0,0,1-5-4.55c-.31-.94-.83-.35-1.18-.19a22.32,22.32,0,0,1-9.27,2.08c-2.63,0-4-1-4-3.61-.1-5,.85-9.76,4.29-13.7.18-.2.52-.36.45-.66s-.53-.27-.82-.32a11.76,11.76,0,0,1-5.29-2.06,4.43,4.43,0,0,1-2-4.66c.17-1.06.33-2.13.58-3.17a6.17,6.17,0,0,0-1.6-6.18,8.29,8.29,0,0,0-2-1.7c-3.11-1.61-5-4.4-7-7.06-.53-.69-.57-1,.42-1.26,1.82-.44,3.44-1.46,5.32-1.78A25.47,25.47,0,0,1,19.78,11a3.86,3.86,0,0,0,2.8,0,15.68,15.68,0,0,1,4.05-1,1.45,1.45,0,0,0,1.2-.86A14.67,14.67,0,0,0,29,6.32a12.68,12.68,0,0,1,3-5.36C33.31-.27,33.67-.32,35,.82a31.72,31.72,0,0,1,9.23,14.3,13.79,13.79,0,0,0,4.3,6.47c4.56,3.89,7.48,9,10,14.3a45.19,45.19,0,0,1,4.19,19.24c0,1.91-.43,3.65-2.21,4.75a9.21,9.21,0,0,1-3.57.89A41.27,41.27,0,0,1,49.61,61.37Z"/><path class="cls-1" d="M39.32,43.58a10.32,10.32,0,0,1,4.27-5.3c.27-.17.83-.26.58-.72s-.72-.09-1,.09a10.13,10.13,0,0,0-4.07,4.59,2.56,2.56,0,0,1-1.86,1.6,12.52,12.52,0,0,0-9.13,8.63.69.69,0,0,1-.42.5,24.84,24.84,0,0,1-10.52,2.4,2.29,2.29,0,0,1-2.34-1.64,9.29,9.29,0,0,1-.14-5,18.52,18.52,0,0,1,4.62-10.43c.53-.57,1.2-.24,1.77-.45.38-.14,1.11.18,1.08-.4s-.78-.35-1.18-.33c-3,.08-5.89-.26-8.37-2.23a3.53,3.53,0,0,1-1.45-3.55c.2-1.3.39-2.61.67-3.89a6.44,6.44,0,0,0-1.69-6.07A9.44,9.44,0,0,0,7.69,19.3C4.72,17.77,3,15.08,1,12.54a23.27,23.27,0,0,1,18.53-.85,4.74,4.74,0,0,0,3.4,0,13.94,13.94,0,0,1,3.7-.92,2.35,2.35,0,0,0,2-1.37A21.64,21.64,0,0,0,30,5.87,12.56,12.56,0,0,1,32.66,1.4c.64-.67,1.1-.66,1.79,0a32.12,32.12,0,0,1,9.2,14.47,13.27,13.27,0,0,0,3.88,5.92C55.1,28.6,59.28,37.3,61.2,47.19A36.22,36.22,0,0,1,62,55c-.07,3.1-1.12,4.27-4.12,4.85-8.34,1.6-16.45.34-24.48-1.88a6.71,6.71,0,0,1-2.24-1.11c-2.56-1.9-3-4.06-1.21-6.72,2.3-3.5,5.38-5.68,9.7-5.93a6.11,6.11,0,0,1,5,2c.36.38.7.77,1.06,1.15s.42.72.83.34-.05-.58-.24-.8C44.53,44.8,42.53,43.12,39.32,43.58Z"/><path class="cls-2" d="M25.74,37.82h-.25c-.4-.07-1.08.23-1.12-.33s.66-.33,1-.38a31.92,31.92,0,0,0,16.52-6.95,4.59,4.59,0,0,0,1.75-2.78c0-.26.09-.54.38-.5s.37.36.34.66a5,5,0,0,1-2,3.18,31.72,31.72,0,0,1-12.83,6.39A21.58,21.58,0,0,1,25.74,37.82Z"/><path class="cls-3" d="M28.62,28.24a3.62,3.62,0,0,1-2.21-1.17,1.64,1.64,0,0,0-1.47-.56A4.1,4.1,0,0,1,22.75,26c-.25-.11-.53-.27-.38-.63s.44-.2.7-.08a3.71,3.71,0,0,0,2,.43,2.34,2.34,0,0,0,1.91-1.43c.24-.5.48-.67,1.11-.45,2,.74,2.59.49,3.61-1.39.12-.22.19-.47.48-.41s.27.43.23.69a1,1,0,0,1-.21.55c-1.07,1-1.32,2.44-1.81,3.76A1.71,1.71,0,0,1,28.62,28.24Z"/><path class="cls-3" d="M21.8,21.76a1.26,1.26,0,0,1-1.27-1.41A1.22,1.22,0,0,1,22,19.12a1.2,1.2,0,0,1,1.22,1.32A1.27,1.27,0,0,1,21.8,21.76Z"/><path class="cls-4" d="M31.27,16.67c.92,0,1.38.53,1.35,1.37a1.22,1.22,0,0,1-1.39,1.27A1.2,1.2,0,0,1,30,18,1.2,1.2,0,0,1,31.27,16.67Z"/><path class="cls-5" d="M30.14,25.49c-.38.93-.38,2.06-1.58,2A1.91,1.91,0,0,1,26.73,26c-.05-.28.52-1.45,1.37-1.24C28.76,25,29.72,24.63,30.14,25.49Z"/></g></g></svg>