<svg id="레이어_1" data-name="레이어 1" xmlns="http://www.w3.org/2000/svg" viewBox="0 0 500 500"><defs><style>.cls-1{fill:#8ee5e6;}.cls-2{fill:#020403;}.cls-3{fill:#040403;}.cls-4{fill:#040504;}.cls-5{fill:#e5868d;}</style></defs><path d="M366.11,445.06c-36-.39-71.27-6.41-105.73-16.69-14.31-4.26-25.2-13.26-29.9-28.05-2-6.32-5.38-2.66-8-1.47A143.92,143.92,0,0,1,159.66,412c-10.66-.15-15.66-3.68-19.44-13.72-4.32-11.47-2.66-23.08-.74-34.64,3.88-23.3,9.92-45.73,27.26-63.28,3.77-3.81.83-4.42-2.4-4.85-12.78-1.67-24.54-5.6-35.15-13.42-10.12-7.46-14.27-16.83-12.37-29,1.05-6.77,2-13.59,3.68-20.22,3.84-15.31.92-28.62-10.31-40-3.77-3.83-7.41-8-12.12-10.39C78,172.1,65.8,154.13,52.71,137c-3-3.94-3.61-6.35,2.43-7.71,11.14-2.52,21-8.94,32.33-11,30.35-5.61,60.16-4.71,89.28,6.49a24.51,24.51,0,0,0,17.84.11c7.86-2.9,15.9-5.41,24.29-6.07,4.67-.37,7.34-2.68,9.37-6.59a104.18,104.18,0,0,0,7.22-17.57c3.55-11.52,8.66-22.29,16.77-31.33,9.8-10.92,12.89-11.17,23.49-1.3C302.32,86.74,321,116.73,332,151.23a86.29,86.29,0,0,0,26.95,40.6c29.27,25,48,57.39,64,91.73,18.26,39.14,26.75,80.35,26.53,123.38-.11,20.62-8.69,30.17-28.77,33.62-2.75.48-5.49,1.11-8.26,1.45-8.58,1.07-17.15,2.35-25.77,3C379.87,445.45,373,445.06,366.11,445.06Z"/><path class="cls-1" d="M56.67,134.42c39-18.23,78.13-19.81,118-5.41a30.24,30.24,0,0,0,20.81.28c8.39-2.9,16.94-5.43,25.87-6.27,4.39-.41,7.12-2.88,9.59-6.55,6.66-9.87,8.6-21.6,13.36-32.21A74.13,74.13,0,0,1,259.42,62.6c3.33-3.39,6.08-3.42,9.64-.15,18.62,17.1,34.06,36.61,45.53,59.17a247.7,247.7,0,0,1,15.16,37.14,73.46,73.46,0,0,0,25.8,36.46c10.85,8.43,20,18.85,28,30,25.33,35,44.18,73.27,54,115.46,5.08,21.79,8.05,44,7.39,66.57-.3,10-3,18.84-11.86,24.83-4.21,2.85-9.12,3-13.79,4-53.58,10.75-105.73,2.47-157.42-11.94a38.51,38.51,0,0,1-14.57-7.7c-15.84-13.33-17.44-25.36-6.1-42.62,14.47-22,33.89-35.34,61-37.23,17.51-1.22,28.78,7.67,38.88,19.85,1.36,1.63,2.32,5,4.94,3,3.26-2.46-.22-4.16-1.66-6-10.77-14-23.67-23.68-43.33-21.08,5.45-14.88,14.08-25.91,26.8-33.85,1.55-1,5.54-1.37,3.77-4.47-1.95-3.4-4.58-.35-6.44.76a62.54,62.54,0,0,0-25.75,29.16c-2.45,5.62-5.92,8.44-12,10.13-28.82,8-48.68,26-58,54.83-.5,1.54-.84,2.56-2.52,3.3-21.34,9.38-43.27,15.75-66.91,15.38-8.16-.13-12.73-3.67-15.41-10.95a41.11,41.11,0,0,1-2.26-18c2.69-29.61,10-57.44,31.17-79.88,3.31-3.5,7.7-1.54,11.44-2.75,2.32-.75,6.71,1.44,6.46-2.81-.21-3.55-4.21-1.84-6.42-1.73a128.36,128.36,0,0,1-27.33-1.73c-11.69-1.91-21.45-7.49-30.12-15.22-5.87-5.23-7.17-12.12-6.22-19.53.81-6.3,1.32-12.74,3.06-18.8,7.37-25.63-1.2-43.23-25.41-58.37C81,166.5,69.44,150.45,56.67,134.42Z"/><path class="cls-2" d="M214.32,295.55c-2.69,0-4.48.14-6.25,0a2.62,2.62,0,0,1-2.64-3c.21-1.78,1.87-1.36,3-1.44,33.29-2.13,63.26-14.06,91.28-31.36,7.47-4.62,15-9.43,21-16,3.85-4.2,6.86-8.77,7.89-14.51.24-1.36-1-4.18,2.32-3.33,2.14.54,2.48,2.35,2.11,4.27a34.1,34.1,0,0,1-13.46,21.24c-6.22,4.72-12.57,9.3-19.12,13.52-25.23,16.25-53,25.63-82.51,30.44A27.19,27.19,0,0,1,214.32,295.55Z"/><path class="cls-3" d="M233.58,234.49c-5-.08-10-1.82-12.89-5.31-4.08-5-8.49-6-14.4-5.8a19.42,19.42,0,0,1-11.49-3.19c-1.72-1.18-2.75-2.67-1.88-4.4,1.09-2.16,2.55-.14,3.77.3,13.88,5,17.76,4.06,26.11-7.73,2-2.89,3.68-2.33,6.33-1.43,12.93,4.4,16.3,3,23-9,.77-1.39,1.36-3,3.18-2.46,2.39.76,2,3.13,1.09,4.43-6.24,9.12-10.05,19.32-14.06,29.49C241,232.73,237.44,234.38,233.58,234.49Z"/><path class="cls-4" d="M189.88,176.39c5.5.24,8.21,3.54,8.17,8.77s-3.78,7.73-8.42,7.91c-5,.18-8.17-3.09-8.27-8C181.25,179.81,184.14,176.57,189.88,176.39Z"/><path class="cls-4" d="M249.45,160.73c5.48,1,9.1,3.37,8.8,9-.28,5.09-3.65,8-8.53,7.9-5.29-.14-8.13-3.43-8.19-9C241.46,162.87,245.36,161.62,249.45,160.73Z"/><path class="cls-5" d="M242,215.32c-.06,7.9-4.56,14.46-8.78,14.55-3.77.08-14.19-7.33-12.89-9.19,2.27-3.26,4-9.06,8.38-8.39S238.75,212.37,242,215.32Z"/></svg>