<svg id="레이어_1" data-name="레이어 1" xmlns="http://www.w3.org/2000/svg" viewBox="0 0 500 500"><defs><style>.cls-1{fill:#f8ea80;}.cls-2{fill:#090303;}.cls-3{fill:#100606;}.cls-4{fill:#0d0505;}.cls-5{fill:#0f0506;}</style></defs><path d="M280,406.13a91.24,91.24,0,0,1-34.69-6.79c-5.19-2.09-8.15-1-9.86,4.73-3.82,12.67-4,12.55,7.92,19,9.21,5,18.42,10,26.45,16.84,3.05,2.6,6.2,5.66,4.72,10.08-1.4,4.19-5.74,4.51-9.38,4.78-16.7,1.19-32.95-2.24-49.12-5.54a396.7,396.7,0,0,1-59-16.68c-15.84-5.89-29.48-14.88-39.45-28.77-16.13-22.47-13.79-45.1,6.72-63.53,2.75-2.47,3.23-3.72,1.15-7.07-17.27-27.79-8.15-60.77,21-75.88,4.21-2.19,6.79-4.48,7.73-9.42,1.52-8.05,6.19-15,9.33-22.48,1.35-3.21,2.57-6.47,4-9.64,1.78-4,.66-8.33,1.38-12.4,1.11-6.29-5-4.89-7.35-7.4-2.59-2.74-5.08-5.52-6.64-8.9-11.67-25.28-7.22-72.16,22.76-92.89,12.27-8.48,25.74-12.82,40.87-10,6.46,1.21,11.81,4,15.24,10,.8,1.37.57,4.07,3.45,3.45a6,6,0,0,0,5.07-5A86.5,86.5,0,0,1,246.11,80c9.59-23.61,27-35.69,52.42-35,32.87.88,58.61,15,75.11,44,5.4,9.5,6.9,20,5.17,31.07-2.27,14.46-1.74,29.61-7.78,43.11-4.17,9.33-5.07,17.54-1.43,27.07,3.06,8,2.31,16.43-1.09,24.55a57,57,0,0,0-4.12,15.45c-.56,4.82,1.05,6.83,5.78,4.21,4.26-2.37,8.39-5,12.58-7.47,2.52-1.51,5-4.31,8.12-2,2.77,2.05,2.18,5.33,1.85,8.38-1.19,11.19-4.87,21.74-8.17,32.38a180,180,0,0,1-6,17.8c-7,16.24-8,33.74-11.52,50.73C358.08,376.9,322.09,406.13,280,406.13Z"/><path class="cls-1" d="M388.31,229.53c.66,7.55-1.74,13.95-3.42,20.4s-3.74,13-6,19.3c-7.55,20.8-12.12,42.2-16.25,64-8,42-43.7,69.54-85.51,68.66-10.57-.22-20.69-2.8-30.57-6.55-8.2-3.11-12.5-.8-15.19,7.74C227,416.81,227,416.85,213,413.12c-11.7-3.12-23.31-6.56-34-12.44-6.51-3.59-13.33-7-15.44-15.15-.33-1.27-1.12-2.18-2.47-1.79-1.76.51-1.61,2-1.32,3.42,1.19,5.94,5.2,9.83,9.88,13,10.11,6.89,21.4,11.3,33.13,14.38,19.36,5.09,38.87,9.65,55.26,22.08,3.52,2.67,7.07,5.31,10.4,8.19s2.23,4.61-1.66,5.4c-8.89,1.8-17.72.27-26.41-1a403.43,403.43,0,0,1-81.71-20.69c-13.75-5.13-25.72-12.76-35.26-24.2-24.11-28.93-9-59.32,20.06-69.51,2.38-.83,7.66,0,6.36-4-1.15-3.58-5.23-.23-8,.16-3.59.51-7.2,5-10.1,3.07-4.1-2.78-6.94-7.94-7.79-12.89-4.33-25.13-2.19-45.86,20.26-57.72a61.33,61.33,0,0,1,5.52-3c4.78-1.91,7.5-4.48,8.3-10.35,1.13-8.28,5.67-15.74,9.64-23.08,4.73-8.78,5.29-18.17,5.77-27.71.15-3-1.2-4-4-4.51-4.44-.75-7.34-3.74-9.51-7.55-13.68-24-8.81-80,32-95.95,8.36-3.27,17-4.91,26-2.87,3.93.9,7.55,2.33,10.28,5.48,3,3.51,4.36,6.69-1.43,8.81a12.66,12.66,0,0,0-3,1.77c-.9.66-2.1,1.38-1.47,2.78.74,1.64,2.15,1.55,3.53.89s2.46-1.32,3.66-2c7.34-4.22,15.08-7.22,23.6-8,1.92-.17,5,.25,4.82-2.63-.24-3.3-3.37-1.8-5-1.46-7,1.42-6.51-1.67-4.86-6.72,9.69-29.66,33-43.38,63.58-37.11,22.55,4.61,41.37,15.31,54.63,34.54,7.25,10.51,10.33,22,8.4,35-2.72,18.36-3,37.22-12.7,53.94-1.11,1.91-.42,4.12.38,6.1,5.57,13.78,6.3,27.47-.3,41.21-1.07,2.24-1.92,5.09-1.56,7.45,1.31,8.36-4.41,11.7-10.17,14.8C336,250.92,320.41,253.51,304.57,255c-1.88.17-5-.86-4.78,2.29.21,3,3.33,2,5.16,1.81,19.82-1.9,39.38-4.72,55.61-17.85.71-.57,1.6-1.46,2.32-1.38,9.3.94,15.55-5.3,22.69-9.45A18.45,18.45,0,0,1,388.31,229.53Z"/><path class="cls-2" d="M263.31,259.3a113.81,113.81,0,0,1-32.4-6.55c-1.67-.57-4.21-.88-3.47-3.39s3-1.33,4.65-.78c13.07,4.4,26.41,7.09,40.29,6.48,1.6-.07,3.59-.29,3.73,2s-2,2.16-3.53,2.22C270,259.38,267.48,259.3,263.31,259.3Z"/><path class="cls-3" d="M284.44,152.48c5.79,1.5,11.58,3,17.37,4.49,1.49.38,2.64,1.11,2.37,2.78-.3,1.91-1.95,1.79-3.25,1.48-6-1.46-12.05-3-18-4.63-1.28-.35-2.73-1.19-2-3S283,152.27,284.44,152.48Z"/><path class="cls-4" d="M239.82,163.05c-4.48,4.37-10.6,6.72-15.93,10.21-1.25.81-2.66,2.36-4.35,1a2,2,0,0,1,.25-3.5c5.56-3.36,11.16-6.66,16.84-9.82C238,160.18,239.37,160.65,239.82,163.05Z"/><path class="cls-5" d="M265,180.74c-2.5-.59-6.3-.33-5.82-3.58.59-4.08,4.79-4.57,8.3-4.66,2.46-.07,6.08,0,5.68,3.35C272.66,180.24,268.06,179.66,265,180.74Z"/></svg>