<svg id="레이어_1" data-name="레이어 1" xmlns="http://www.w3.org/2000/svg" viewBox="0 0 500 500"><defs><style>.cls-1{fill:#080c0d;}.cls-2{fill:#848686;}.cls-3{fill:#838585;}.cls-4{fill:#c1c2c2;}.cls-5{fill:#7d8b8b;}</style></defs><path class="cls-1" d="M152.84,330.12v-.59a20.77,20.77,0,0,0,0-7.7v-1.19c1-12.61,5.72-24.63,6.45-37.2,1.28-21.82,6.45-43.11,8.1-64.86a127.74,127.74,0,0,1,1.78-13.19,36.52,36.52,0,0,1,6-15c2.89-4,2.11-9.66-.9-13.51-5.06-6.45-7-13.63-3.43-21.55a7.84,7.84,0,0,0,.81-5.13A15,15,0,0,1,179,133.36a9.68,9.68,0,0,0,3.68-3.31c1.12-1.84,1.1-3.23-.87-4.47a31,31,0,0,1-4.36-4c-5.23-4.91-5.81-10.75-3.28-17.08,1.1-2.76,1.4-5.78,2.39-8.43,3.11-8.39,6.25-17.12,16.51-19.62,3.22-.78,5.15-2.78,7.23-5.44,7.48-9.58,15.44-18.79,27.72-22.62,3.7-1.15,7.59-.76,11.33-1.56h1.18a17,17,0,0,0,7.11,0h.59c7.45-.17,12.9,3.91,18.36,8.28,6,4.78,11,10.47,16.21,16a5.08,5.08,0,0,1,1.33,1.94c1,3.51,3.66,5,6.91,6.17,11.77,4.31,18.87,13.13,21.07,25.1,1.12,6.09-.16,12.69-.72,19-.27,3.09-3.19,4.82-5.57,6.61-2.82,2.13-2.75,4.49.49,5.74,7.66,2.95,11.29,14,9.12,21.07-.48,1.59-1.43,3.14-1.17,4.85.39,2.54.86,5,3.47,6.52,1.86,1.05,2.78,3,3.7,4.89a103.59,103.59,0,0,1,9.43,30.72c2.67,17.57,5.39,35.12,7.41,52.77,1.29,11.17,2.52,22.35,2.63,33.61a6.69,6.69,0,0,0,2.5,5.68,9.09,9.09,0,0,1,3.47,8.08v6.78c.19,4.51-.37,9,.3,13.54v1.18c-.85,3.73-.51,7.61-1.83,11.3-2.61,7.36-6.72,13.37-13.91,16.88a5,5,0,0,0-2.89,4.41c-1.28,11.16.18,22.26.36,33.38.16,9.94,1.56,19.87.42,29.85-.46,4-.13,8.08-.78,12.09a34,34,0,0,1-1,5.22c-1.82,5.54-5.26,9.46-11.15,10.76A115.59,115.59,0,0,1,295.25,452c-15,.51-29.94,1.44-44.92,1-19.91-.59-39.8-1.7-59.3-6.27-5.38-1.26-10.89-1.87-16.27-3.18-5.58-1.36-10.37-4.25-15.16-7.22a5,5,0,0,1-2.34-4.51c-.15-19.54-.74-39.1,3.62-58.36,1.46-6.45,2.51-13,3.61-19.51a52.73,52.73,0,0,0,.47-5.89,6.08,6.08,0,0,0-2.2-5.23c-1.11-1-2.26-1.92-3.38-2.88C156.28,337.31,153.53,334.4,152.84,330.12Z"/><path class="cls-2" d="M347.16,324.2c-1.24-2.2-.41-4.57-.55-6.85s0-4.54,0-6.81c.2-.25.37-.25.53,0Z"/><path class="cls-3" d="M152.84,321.83a10.55,10.55,0,0,1,0,7.7Z"/><path class="cls-3" d="M247.63,46.85a9.14,9.14,0,0,1-7.11,0Z"/><path class="cls-4" d="M347.16,310.57h-.26l-.27,0q0-3.56,0-7.11a1.44,1.44,0,0,1,.51,0Z"/><path class="cls-5" d="M171.28,347.21c5.16,2.56,10.46,3.77,15.47,5.82A31.41,31.41,0,0,0,197,355.65a12.21,12.21,0,0,0,12.36-7.81c.57-1.47,1.46-1.54,2.65-1.74,6-1,9.21-3.8,9.65-8.36.17-1.77.15-3.55-2-4s-3,1-3.19,2.93c-.24,2.2-1.58,3.19-3.59,3.76a21.11,21.11,0,0,1-16.28-2.08c-.78-.42-1.52-.92-2.3-1.34-1.51-.81-3-.73-3.85.82a2.65,2.65,0,0,0,1.11,3.81,31.44,31.44,0,0,0,10.58,4.44c.55.11,1.3-.1,1.55.57s-.4,1.26-.9,1.69a7.91,7.91,0,0,1-8,1.56c-6.07-2-12-4.5-18.17-6.2-6.45-1.77-10.51-6.61-15.27-10.61-3.22-2.7-3.13-6.36-2.81-10.08.71-8.38,2.88-16.5,4.67-24.68a163.3,163.3,0,0,0,3.07-24.92c.67-10.44,3.29-20.63,4.51-31q1.95-16.46,4-32.89A34.54,34.54,0,0,1,179,195.89c3.52,5.17,6.18,10.66,10.22,15.2.62.69.37,1.39.16,2.2q-5.79,21.56-11.47,43.14c-.45,1.74-.77,3.75,1.67,4.34s3.06-1,3.53-3c3.14-13.13,7.31-26,10.1-39.21.37-1.75.88-1.94,2.47-1,5.94,3.47,11.53,7.71,18.49,9.07a30.77,30.77,0,0,0,4.4.42c1.6.08,2.75-.64,2.88-2.3a2.55,2.55,0,0,0-2.65-2.94c-6.2,0-11-3.38-16.05-6.24-9.9-5.6-15.12-14.82-19.36-24.84a8.4,8.4,0,0,1-.37-2.88c-.72-10.46,1.23-20.76,1.83-31.14.07-1.16.3-2.41-.71-3.35a2.54,2.54,0,0,0-2.73-.59c-1.44.5-1.84,1.66-1.87,3a141.69,141.69,0,0,1-1.36,15.08,11.34,11.34,0,0,1-1.85-12.67c1.81-3.4,2.45-6.58,1.13-10.44-1.12-3.3,1.14-5.91,3.37-8.33.64.83.24,1.35.09,1.89-.48,1.73-.24,3.26,1.69,3.8s3.07-.49,3.47-2.3.7-3.67.92-5.53a11.24,11.24,0,0,1,1.89-5.52,5.57,5.57,0,0,0,1.18-3.9c-.52-3.78,1.71-5.86,4.44-7.66a57.77,57.77,0,0,1,28.18-9.77c1-.06,2,0,2.69-.93a2.8,2.8,0,0,0,.33-2.82c-.49-1.21-1.54-1.42-2.68-1.42a42.87,42.87,0,0,0-13.12,2c-8.51,2.68-16.74,6-23.1,12.61-.51.53-.91,1.07-1.68.43a21.63,21.63,0,0,1-6.23-7.41c-1.16-2.56,1.89-9.49,4.62-10.85,4.83-2.41,9.4-5.47,15-6.18a2.5,2.5,0,0,0,2.37-3.12c-.28-1.66-1.45-2.25-3-2.13-4.44.35-8.31,2.33-12.2,4.28L183.41,96c2.45-9.08,6.84-13.13,16.66-15.26,7.88-1.71,15.58-4.4,23.8-4.33a2.58,2.58,0,0,0,2.77-2.83c-.07-1.72-1.31-2.46-3.07-2.47a68.8,68.8,0,0,0-14.92,2,3.35,3.35,0,0,1-2.34.11c.91-1.09,1.74-2.12,2.6-3.12A103.1,103.1,0,0,1,221.19,58.6c4.66-3.92,10.43-5,16.22-5.75a56.91,56.91,0,0,1,6.79-.43,23,23,0,0,1,15.57,5.24,176.43,176.43,0,0,1,18,17.15c.38.41.91.79.76,1.69-7.33-1.51-14.7-2.82-22.22-2.6h-1.48c-1.87,0-3.49.5-3.45,2.71,0,2,1.56,2.5,3.34,2.46,10.57-.24,20.8,1.94,30.87,4.76,10.71,3,17.66,10,20.52,20.9a4.48,4.48,0,0,1,.12,1.16,5.85,5.85,0,0,1-.21,1c-6-6.06-12.51-11-20.35-14.1a52.76,52.76,0,0,0-15.88-3.18c-1.72-.12-3.21.48-3.32,2.53s1.05,2.71,3,2.78c14.61.54,25.81,7.59,35,18.43,2.32,2.74,1.84,8.39-1,10.53-1.49,1.1-2.81,2.49-4.71,3-2.52.67-3.05,2.63-2.17,4.64,2,4.59,3.49,9.17,2.75,14.29-.21,1.45.86,2.39,2.35,2.51a2.52,2.52,0,0,0,2.9-2.31c.23-1.14-.16-2.37.58-3.68,2.22.9,3.15,2.83,3.86,4.8,1.4,3.9,1.43,7.8-1,11.35-1.11,1.64-.95,3-.11,4.63a14.39,14.39,0,0,1,.92,10.38,8.42,8.42,0,0,1-5.77,6c-.59-1.09-.25-2.18-.37-3.19-.19-1.67-.87-2.83-2.77-2.77s-2.57,1.24-2.54,2.94c.13,5.85,0,11.74-1.76,17.31-3.37,10.49-9,19.11-20.08,23.15-10.78,3.92-21.69,6.58-33.24,5.83-1.82-.12-3.52,0-3.65,2.34s1.51,2.9,3.49,3A78.31,78.31,0,0,0,283.77,219c8.51-4.51,13.38-12.89,16.53-22a37.81,37.81,0,0,0,1.85-9.57c.09-1.25.29-2.09,1.79-2.59,6-2,8.28-4.52,10.44-10.92,1.35.92,1.7,2.41,2.3,3.67,4.61,9.61,7,19.81,8.59,30.32,2.75,18,5.38,36.08,7.44,54.21,1,9.11,1.87,18.25,2.1,27.43,0,1.74-.27,2.39-2.14,1.58s-3.21-1.38-3.57-3.9c-.5-3.46-2-6.79-3-10.19a2.61,2.61,0,0,0-3.35-2.09c-2,.42-2.07,2-1.7,3.5.71,2.83,1.6,5.61,2.6,9-8.76-4.08-16.95-7.89-25.13-11.72-6.53-3.06-13.21-5.72-19.92-8.35a17.71,17.71,0,0,0-13.27.19c-3.56,1.37-5.41,3.94-5.2,7.73a4.1,4.1,0,0,1-2.14,4.32,10.49,10.49,0,0,0-2.61,2.77,2.47,2.47,0,0,0,.45,3.68,2.28,2.28,0,0,0,3.46-.17c3.64-5.18,8.66-3.74,13.48-2.93a37.07,37.07,0,0,1,11.91,4.32c1.66.93,3.32,1.22,4.31-.72s-.08-3.1-1.79-4.05a49.41,49.41,0,0,0-19.45-5.66c-.86-.09-2.12.43-2.31-1.14a2.68,2.68,0,0,1,1.71-3.09,13,13,0,0,1,10.05-.06c14.33,5.38,27.91,12.45,41.89,18.61,5,2.18,10,4.21,15,6.18,5.89,2.3,7.1,4.07,7.25,10.26.17,7.2.72,14.39-.64,21.54-1.8,9.46-5.76,17.21-15.8,20.25-1.57.48-1.87,1.79-2.09,3.24-1.74,11.81-.91,23.63-.34,35.46.72,15,1.64,29.95-.22,44.92-.82,6.64-3.08,9.05-9.55,10.6-8,1.93-16.22,2-24.38,2.46-12.51.75-25,2-37.55,1.18-20.45-1.35-41-2.25-61-7.16-4.59-1.12-9.28-1.8-13.9-2.8-4.12-.88-7.62-3.18-11.23-5.2A2.15,2.15,0,0,1,163.5,430c.05-12.32-.83-24.65.64-37,1.15-9.7,3.12-19.26,5-28.85A155.37,155.37,0,0,0,171.28,347.21Z"/><path class="cls-1" d="M213.59,157.65c-6.6,2.58-12.19,1.68-17.77-.53-4.39-1.73-6.88-4.71-7.38-9.42-.54-5,1.15-9.07,5.17-11.86,5.59-3.89,12.15-4.38,18.7-4.1,2.49.11,4.59,1.71,6.13,3.79,1,1.38,1.15,2.8-.24,3.93a2.45,2.45,0,0,1-3.7-.35c-1.87-2.42-4.34-2.45-7-2.07-2.14.31-4.29.64-6.4,1.14a9.63,9.63,0,0,0-6.75,4.84,6.26,6.26,0,0,0,3,8.87c4.87,2.23,9.76,3.11,14.77.44A1.74,1.74,0,0,1,213,152c4.53.46,5-3.11,6-6.09a39.17,39.17,0,0,0,1.52-7.52c.2-1.79.92-3.44,3.1-3.19s2.38,1.95,2.2,3.8c-.87,9-4.58,16.86-9.37,24.32a39.45,39.45,0,0,0-4.35,8.38c-.39,1.12-.59,2,.74,2.71,1,.53,1.86,1.38,3.16.35,3.7-3,7.79-3,12-1.2,2.36,1,4.41.3,6.51-.67a16.58,16.58,0,0,1,14-.38c1.65.7,3.16,1.71,2.35,3.76s-2.65,2-4.47,1.16a11,11,0,0,0-9.71.37,12.54,12.54,0,0,1-11.39.48,5.58,5.58,0,0,0-6.11.77c-2.86,2.28-5.83,2.34-8.69.2-1.29-1-2-.55-3,.3-5,4.09-11.24,4-16.16-.28a6.9,6.9,0,0,1-2.61-7.09,2.41,2.41,0,0,1,2.74-2.13c1.51.1,2.21,1,2.44,2.46.54,3.53,5.6,6,8.63,4.05,1.87-1.19,3.56-2.56,4.1-5.09C207.69,166.61,210.64,162.56,213.59,157.65Z"/><path class="cls-1" d="M261,288.72c8.58.4,16.28,3.6,23.7,7.61a2.47,2.47,0,0,1,1.14,3.54c-.91,1.76-2.51,1.71-4.1.92-4.85-2.44-9.75-4.76-15.1-5.93-3.09-.68-6.17-1.18-9.36-.37-1.41.36-1.75.92-1.39,2.26.68,2.53,1.36,4.15,4.8,4.61,8.41,1.15,16.17,4.88,24.23,7.48a2.52,2.52,0,0,1-1.25,4.86,12.9,12.9,0,0,1-2.58-.61q-8.28-2.71-16.56-5.5a25.3,25.3,0,0,0-7-1.27,2.73,2.73,0,0,0-3,2.24c-.51,1.54.36,2.09,1.5,2.71,2.87,1.55,5,3.54,3.85,7.28-.55,1.81,1,2.4,2.13,3.08,8.24,4.78,17.32,7,26.61,8.46,8.18,1.28,16.4,2.3,24.57,3.61a40.42,40.42,0,0,1,14,5.42c1.69,1,3,2.34,1.87,4.32s-2.88,1.45-4.57.37c-7-4.5-15.05-5.57-23.1-6.57-12.63-1.58-25.29-3-37-8.4-2.05-.94-4-2-6-3.16-2.74-1.55-4.22-3.84-3.79-7.08a2.45,2.45,0,0,0-1.45-2.82c-4.56-2.6-5.59-7.26-2.38-11.51a3.71,3.71,0,0,0,.58-4.23,12.77,12.77,0,0,1-.8-2.84c-.74-4.15.87-6.77,4.9-7.75A17.38,17.38,0,0,1,261,288.72Z"/><path class="cls-1" d="M251.69,164.72c.94-4.33.22-7.26-4.71-9.1-4.41-1.65-6.66-6-7.45-10.74-1.15-6.84,2.4-12.09,9.15-13.58a45.09,45.09,0,0,1,18.22-.21,8.27,8.27,0,0,1,6.6,5.32c.57,1.5.52,3.06-1.16,3.81a2.54,2.54,0,0,1-3.66-1.45,4.29,4.29,0,0,0-3.65-2.56,39.34,39.34,0,0,0-15.29.33c-3.92.84-5.62,3.64-4.88,7.73a10.34,10.34,0,0,0,13.4,7.88c1.86-.63,3.75-1.22,5.66-1.68,3.18-.77,5.87-1.93,7-5.46a2.51,2.51,0,0,1,3.89-1.38c1.55.86,1.48,2.31.8,3.87-1.63,3.8-3.77,6.8-8.29,7.56-2.8.46-5.47,1.63-8.19,2.48-1,.3-1.9.54-1.93,1.87-.06,3-.31,6.09-.26,9.14.07,5.09,2.54,8.26,7.66,9.39a6.54,6.54,0,0,1,5.51,5.5c.26,1.57-.06,3.05-1.83,3.57s-2.91-.42-3.32-2a2.55,2.55,0,0,0-1.95-1.91c-9.2-3.45-11.88-7.58-11.38-17.44C251.63,165.31,251.67,165,251.69,164.72Z"/><path class="cls-1" d="M239.73,122.17c10.46-.35,20.88.54,31.31,1a15.4,15.4,0,0,1,10,4.5c1.39,1.28,2,2.84.48,4.36s-2.88.93-4.15-.37a11.1,11.1,0,0,0-7.68-3.34c-15.46-.75-30.93-1.17-46.41-.64A111.87,111.87,0,0,0,202,130.58a39.51,39.51,0,0,0-5.73,2.32c-1.76.72-3.63,1.17-4.55-1s.55-3.08,2.37-3.94c7.55-3.57,15.63-4.65,23.79-5.24A196.8,196.8,0,0,1,239.73,122.17Z"/><path class="cls-1" d="M308.57,207.81c0-3.45,0-6.9,0-10.35,0-1.93.62-3.5,2.72-3.44s2.7,1.65,2.63,3.58a174.94,174.94,0,0,0,.51,23.9c1,10,4.08,19.66,5.79,29.55.72,4.17,1.66,8.3,2.49,12.45a6.17,6.17,0,0,1-.09,3.22,2.41,2.41,0,0,1-2.69,1.82,2.38,2.38,0,0,1-2.39-2.19c-1.92-13.56-5.64-26.77-7.92-40.26A104.36,104.36,0,0,1,308.57,207.81Z"/><path class="cls-1" d="M169.5,290.59c.12-.42.44-1.56.79-2.68,1.89-6.11,3.82-12.21,5.66-18.34.61-2,1.5-3.66,3.89-2.86s1.75,2.81,1.24,4.51c-1.7,5.65-3.35,11.33-5.29,16.9-.77,2.19-.18,3.47,1.37,4.87s2.5,1.88,4.64,1.19c5.29-1.69,10.74-.27,16.1.08a22.84,22.84,0,0,1,9,2.64c1.55.81,2.63,1.93,1.71,3.77s-2.28,1.9-4,1.08c-6.15-3-12.81-2.75-19.39-2.93a3.32,3.32,0,0,0-.88.11c-6.79,1.57-10.26.25-14.27-5.42A3.51,3.51,0,0,1,169.5,290.59Z"/><path class="cls-1" d="M257.18,191c.1,2.06-1.66,3.58-3.51,2.52-4.85-2.78-9.17-1.15-13.47,1-5.71,2.91-11.53,3-17.52,1.12-3.67-1.13-7.4-2.06-11.05-3.25-2-.65-3.43-.41-4.58,1.39-1,1.52-2.32,2.3-4,1.15-1.83-1.27-1.25-2.91-.32-4.44,2-3.23,5.53-4.54,9.53-3.44s8.17,2.27,12.21,3.53a17,17,0,0,0,13.73-1,30.71,30.71,0,0,1,6.9-2.6c3.77-1,7.21,0,10.54,1.69A2.38,2.38,0,0,1,257.18,191Z"/><path class="cls-1" d="M243.29,118a135.69,135.69,0,0,0-24.76,1.74c-1.72.32-3.56.35-4-1.88s1.13-3.12,3.11-3.4a168.9,168.9,0,0,1,46.51-.56,5,5,0,0,1,.87.19c2,.62,4.8.8,4,3.93s-3.2,1.66-5.15,1.3A97.11,97.11,0,0,0,243.29,118Z"/><path class="cls-1" d="M257.7,103.55c10.38.38,20.33,2.41,29.57,7.34,4.3,2.3,7.9,5.19,9.16,10.23.45,1.79.23,3.26-1.61,3.84s-3-.33-3.46-2.21c-.73-3.16-3-5-5.61-6.53-7.66-4.43-16-6.44-24.77-7.12-2.65-.21-5.31-.29-8-.41-1.64-.08-2.59-.83-2.6-2.55a2.33,2.33,0,0,1,2.57-2.58C254.55,103.51,256.13,103.55,257.7,103.55Z"/><path class="cls-1" d="M228.11,204c-5.6.31-12-2.35-18.27-5.23a2.52,2.52,0,0,1-1.6-3.12,2.46,2.46,0,0,1,3.2-1.86,14.78,14.78,0,0,1,3,1.15c11.12,5.18,22.07,5.24,32.8-1.06,1.66-1,3.32-1.28,4.34.57s0,3.11-1.65,4.14C243.74,202.53,236.87,203.91,228.11,204Z"/><path class="cls-1" d="M215.83,320.13c-7.17-2.35-15.69-3.87-22.69-9.27-1.48-1.15-1.84-2.65-.67-4.12s2.63-1.16,4-.13c5.7,4.41,12.7,5.66,19.27,8,.65.23,1.43.44,2-.1s-.12-1.26-.26-1.88a13.23,13.23,0,0,0-2.56-5c-1.15-1.48-1.17-3,.39-4.12s2.92-.35,4,1a23.06,23.06,0,0,1,4,8.48C224.41,316.84,221.28,320.14,215.83,320.13Z"/><path class="cls-1" d="M211.28,333.08a34.84,34.84,0,0,1-16-4.5c-1.61-.93-2.8-2.07-1.7-4s2.64-1.66,4.3-.7a31.91,31.91,0,0,0,10.54,3.65c3.94.71,7.24.08,9.35-3.72a5.4,5.4,0,0,1,.71-.94,2.51,2.51,0,0,1,3.68-.46,2.56,2.56,0,0,1,.73,3.42A12.38,12.38,0,0,1,211.28,333.08Z"/></svg>