<svg id="레이어_1" data-name="레이어 1" xmlns="http://www.w3.org/2000/svg" viewBox="0 0 500 500"><defs><style>.cls-1{fill:#818181;}.cls-2{fill:#322f1b;}.cls-3{fill:#6ea655;}.cls-4{fill:#3a5f2a;}.cls-5{fill:#11100b;}</style></defs><path d="M256.88,126.7c2.57,1.21,6,.68,8,2.76,3.65,3.84,7.42,3.65,11.75,1.64a5.45,5.45,0,0,1,5.63.34c3.62,2.68,7.63,2.54,11.54,1.53,6.44-1.67,12.32-.48,18.35,1.94a155.27,155.27,0,0,1,19.91,9.5,21.91,21.91,0,0,0,6.56,2.78,17.73,17.73,0,0,1,11.43,8,54.5,54.5,0,0,0,24.59,20c12.17,5.2,23.31,12.43,34.26,19.86,5.93,4,9.37,9.31,7.64,16.85a2.93,2.93,0,0,0,.27,2.16c5.09,9.85,6.25,20.65,7.69,31.38.47,3.55,1.23,7,1.68,10.6.51,4,2.6,6.64,5.91,8.8a148.45,148.45,0,0,1,16.71,13c1.47,1.3,3.65,2.36,3,4.93-.58,2.41-2.92,2.28-4.68,2.89-2.76,1-5.59,1.71-8.34,2.69A38.64,38.64,0,0,0,420.67,301c-5.84,7.46-12,14.63-21.39,17.93-.61.22-1.23.58-1,1.4.19.65.88.53,1.37.61a7.86,7.86,0,0,0,4.1-.72,11.87,11.87,0,0,1,9.49.24,3.16,3.16,0,0,0,3.26-.06c4.54-2.45,8.75-1.69,11.18,2.82,5.57,10.36,12.63,20,16.16,31.4,1,3.37-2.15,7.16-7,7.88-7.08,1.07-14.14,2.18-21.11,3.85a153.66,153.66,0,0,0-21.16,6.32c-3.44,1.38-5.79.43-8.05-2-1.4-1.51-2.95-2.9-4.26-4.48-8.06-9.83-19.11-12.08-30.83-11.28-19.16,1.3-38.28,3.24-57.4,5a44.21,44.21,0,0,0-13.91,3.22c-13.16,5.83-26.1,4.74-38.63-1.5-14-7-29-9.39-44.42-9.57-7.92-.09-15.86,0-23.72-1.24-2-.31-2.68.06-2.23,2.3.6,3,.71,6,1.08,9a2.86,2.86,0,0,1-1.56,3.25c-1.37.69-2.49.2-3.54-.77a5.51,5.51,0,0,0-2.05-1.52c-7.86-1.92-13.8-7.73-21.15-10.48-10.66-4-20.55-9.67-31.21-13.55-11-4-20.76-9.51-28.65-18.4-5.54-6.24-11.38-12.22-16.9-18.5-3.33-3.77-4.33-7.46-1.23-11.63,1.86-2.49,1-3.63-1.44-5-4.56-2.44-8.62-5.88-14.21-5.92-1.45,0-2.15-1.26-2.2-2.75a8,8,0,0,1,2.14-6c3.94-4.07,5.48-9.25,7.07-14.41,2.25-7.35,4.24-14.77,6.57-22.09a47.15,47.15,0,0,1,14.76-22.13,94,94,0,0,0,17.27-18.52,18.7,18.7,0,0,1,7.35-6.73c.77-.36,1.51-.74,1.65-1.8.68-5.28,4.08-9,7.59-12.56,1.47-1.49,2.2-2.82,1.79-5.1A9.66,9.66,0,0,1,119.07,157c9.47-5.81,19.89-8.88,30.81-10.43a4,4,0,0,0,2.11-.56c4.28-3.26,9.3-4.44,14.48-5.34,18.48-3.22,36.81-7.17,55.19-10.93a37.8,37.8,0,0,1,13.58-.69c3.26.51,6-1.6,9.17-1.84,3.91-.67,7.91.33,11.81-.55Z"/><path class="cls-1" d="M256.22,126.7c-3.88,1.39-7.87.38-11.81.55a4.85,4.85,0,0,0,.08-.55Z"/><path class="cls-2" d="M104.66,193.1c1,3.3,1.88,6.16,2.75,9,3.07,10.06,9.83,17.48,17.58,24.09,4.18,3.56,8.18,7.45,13.36,9.68,2.8,1.21,5.68,2.39,8.76,2.14,8.75-.74,16.54,2,23.65,6.65,5.66,3.7,11.9,5,18.38,5.75q16.4,1.95,32.8,3.81c3.12.35,6.28.51,9.38.6,6.94.2,13.84.94,20.8.9,7.45,0,14.85,1.13,22.28,1.83,10.1.95,19.77-1.67,29.45-4a38.43,38.43,0,0,1,9.31-1.17c12.06.06,24.12.07,36.18,0a74.62,74.62,0,0,1,8.73.69c11.47,1.23,20.91-3.58,29.77-10C396.24,237,403,229.2,410,221.61c2.64-2.88,2.7-2.8,4,1,2.66,7.82,3.37,16,4.65,24.11,1,6.12,1,12.58,4.52,18,2.58,3.92,7.06,5.64,10.54,8.54,2.87,2.4,6.15,4.34,8.84,7.43a96.77,96.77,0,0,0-13.74,5.43c-6.33,3.31-10.77,8.64-15.18,14-4.66,5.66-9.69,10.83-16.86,13.31a5.74,5.74,0,0,1-.89.39c-1.11.21-1.84,2.1-2.7,1.46-1.58-1.16-3.55-2.23-3.9-4.55-.28-1.88-.72-3.87-2.9-4.21-2.34-.36-3.7,1.41-4.94,3.12-3.69,5.1-5.15,11.18-7.48,16.88-2.84,7-6.49,13.17-12.56,18.17A16.58,16.58,0,0,1,351.06,349c-15.41,1.13-30.76,2.9-46.2,3.86A113.35,113.35,0,0,0,272,359.57c-10.19,3.79-20.08.52-29.41-4-10.58-5.13-21.73-7.67-33.37-8.86-5.65-.58-11.26-.43-16.89-.51A152.57,152.57,0,0,1,170,344.33c-4.16-.68-5.61.79-5.13,5.11.12,1.08,0,2.18.18,3.25.19,1.24,1.21,2.69,0,3.59-1,.7-2.35-.18-3.34-.71-5.14-2.8-10.21-5.73-15.32-8.58-1.18-.66-1-1.48-.5-2.44,2.88-5.11,5.68-10.25,11.22-13.13a8.33,8.33,0,0,1,5.5-1,227.74,227.74,0,0,0,22.9,2.19c7.22.38,14.4,1.35,21.58,2.22a102,102,0,0,0,14,.27,17.54,17.54,0,0,1,11,3.25c5.35,3.85,11.76,5.5,17.69,8.13a2.77,2.77,0,0,0,3.92-1.83c.71-1.95-.29-3.3-2.18-4-4.92-2-10.23-3.29-14.52-6.41-5.82-4.21-12.13-5.29-19-5-9.23.44-18.29-1.54-27.42-2.41-3.88-.38-7.78-.35-11.67-.67-5-.4-10-.54-14.8-1.64-4.56-1-8.1.52-11.63,2.7-5.68,3.5-9,9-11.95,14.71-1.09,2.08-2.18,2.33-4,1.41-11.6-5.9-23.81-10.43-35.51-16.09a15.75,15.75,0,0,1-4.1-2.62C88,316.09,79.24,307.52,71.49,298a3.16,3.16,0,0,1-.53-3.86c2-3.86,3.84-7.75,7.14-10.78a15.87,15.87,0,0,0,4.56-8.8,3.48,3.48,0,0,0-2.46-4.37c-2.18-.67-3,1-3.53,2.83a23.43,23.43,0,0,1-.9,3.1c-2.39,5.76-5,6.59-10.16,3.24A43.57,43.57,0,0,0,57,274.77c-.95-.36-2.17-.61-.91-1.87,4.79-4.8,5.73-11.3,7.69-17.31,2.25-6.88,4.15-13.88,6.28-20.8.39-1.27.41-3.31,2-3.36,1.26,0,2.08,1.68,2.93,2.82,4.29,5.82,7.07,12.39,9.72,19,1.24,3.11,2.26,6.3,4.34,9,3.13,4.1,7.42,6.19,12.24,7.42A332.1,332.1,0,0,0,136,276.47c2.4.34,3.87,1.92,5.55,3.17,5.13,3.8,10.14,7.77,15.16,11.71a4.64,4.64,0,0,0,4.47.91c19.61-4.95,39.24-9.78,58.88-14.63a33.41,33.41,0,0,1,8.33-1.16,12.34,12.34,0,0,0,2.55-.36c2-.4,3.58-1.41,3.08-3.74s-2.44-2.43-4.39-2.28c-8.12.65-15.92,2.87-23.78,4.84-14.26,3.59-28.55,7.07-42.8,10.73a5.68,5.68,0,0,1-5.58-1.29c-5-4.08-10.29-7.92-15.43-11.87-3.79-2.91-8.49-2.16-12.74-3.06-9-1.89-18-3.41-27-5.61-5.75-1.42-9.05-5-11.06-10.33-3.07-8.22-6.43-16.34-11.81-23.41-.39-.52-.81-1-1.25-1.5-3.59-3.89-3.69-4,.14-7.8,4.22-4.21,8.62-8.23,13-12.32a75.53,75.53,0,0,0,9.88-11.61A38.81,38.81,0,0,1,104.66,193.1Z"/><path class="cls-3" d="M146.65,187.88a5.06,5.06,0,0,0,2.71-2.52c.8-1.65,1.12-3.79,3.72-3.62a6.08,6.08,0,0,0,4.12.17c10.31-3.93,21.24-4.93,32-6.69a74,74,0,0,1,7.41-.84c3-.18,5.15-1.3,5.95-4.38,4-1.77,8-2.92,12.25-.72,1.38,1.71,3.13,2,5.25,1.68,13.73-2.12,27.59-3.29,41.41-4.5,11.46-1,23.21-2.05,34.46,2.27a4.53,4.53,0,0,0,5.16-.78c3.21-2.84,6.45-1.9,9.69-.06.42,4.28,3.33,5.64,7.1,6.47,20.76,4.59,38.36,15.68,55.57,27.47,2.23,1.52,4.17,2.79,6.65.72,2.89.1,4.89,1.32,5.37,4.37-1.76,2.68-.83,4.73,1.59,6.28,3.93,2.5,7.87,5,11.91,7.29,2.11,1.19,2.23,2,.51,3.74-7.31,7.45-14.62,14.83-24.21,19.45-6,2.9-12.09,4.35-18.84,3.07-3.36-.63-6.93-.2-10.41-.2-11.19,0-22.38.16-33.56-.06-7-.14-13.46,2-20,3.55-8.29,2-16.49,1.86-24.82.71-6.78-.95-13.63-.8-20.45-1.14-18.28-.91-36.54-2.09-54.64-4.92-3.31-.52-6.65-.88-10-1.43a18.58,18.58,0,0,1-6.92-2.66c-6.35-4-12.92-7.51-20.54-8.38-.73-.09-1.32-.31-1.52-1-1.59-5.37-6-8.91-8.68-13.61-1.49-2.64-3-5.25-4.4-8-2.35-4.64-2.24-9.12,1.17-13.31,1.25-1.53,1.47-3.1-.21-4.54-.84-1.79.81-2,1.7-2.71S145.57,188.51,146.65,187.88Z"/><path class="cls-4" d="M152.58,182c-1.63.58-1.89,2.47-3.22,3.33.09-2.49-1.7-3.52-3.49-4.64a119.69,119.69,0,0,0-22.78-11c-1.66-.61-2.84-1.42-3-3.29a4.59,4.59,0,0,1,2.26-4.39c4-2.76,8.45-4.36,13-5.79,3.71-1.16,7.44-2.3,11.19-3.32,2.64-.72,4.66-.09,5.55,2.86.77,2.59,2,5,2.34,7.73.22,1.95,1.12,3,3.11,3,2.25-.09,2.9-1.58,2.83-3.56a24.18,24.18,0,0,0-2.94-9.87c-1.29-2.56-.35-3.39,1.79-4.29,4.45-1.86,9.24-2.14,13.89-3.07,10.48-2.1,21-4.14,31.46-6.21,2.54-.5,5.1-.91,7.61-1.53,2.22-.56,3.32.24,3.61,2.4.65,5,1.35,10,1.93,15.08a4.49,4.49,0,0,0,3.81,4.26c1.93.4,3.63-2,2.91-3.94-2.19-5.95-1.3-12.42-3.25-18.41-.39-1.2.48-1.43,1.43-1.57,3.61-.56,7.16-1.52,10.9-.77a10.19,10.19,0,0,0,5.79-.19c5.86-2.34,12-1.66,18-1.5,2.74.06,5.63,1,7.09,3.42,2.07,3.37,4.85,2.62,7.7,2.14a14.28,14.28,0,0,0,3.05-1.1c2.15-.91,4-1.22,6.37.13,4.25,2.47,9,2.16,13.57.92,4.75-1.29,9.07-.62,13.54,1.23,6,2.49,12.08,4.76,17.69,8.12,1.8,1.07,2.47,1.85,1.12,3.93a28.22,28.22,0,0,0-3.73,7.19c-.61,2-.44,3.74,1.71,4.57s3.31-.6,4.08-2.5a29,29,0,0,1,2.33-4.62c.94-1.5,1.19-4.28,3.11-4.13a11.1,11.1,0,0,1,7.12,2.77,60.12,60.12,0,0,1,6.59,8c6,8.28,14.46,13.12,23.55,17.3a188.93,188.93,0,0,1,34.88,20.67c6,4.52,4.69,11-1.07,15.39-1,.79-1.85-.2-2.6-.66-4.08-2.46-8.13-5-12.17-7.52-1.77-1.11-3.55-2.13-5.77-1.65-1.36-1.84-2.77-3.62-5.27-3.95-2.27-4.19-6.23-6.51-10.08-8.9-6.25-3.91-12.68-7.53-18.93-11.45-11.09-7-23.67-10.13-36.09-13.66-1.36-.39-2.84.36-4.1-.57-2.08-.32-3.95-1.47-6.17-1.38a3.11,3.11,0,0,0-2.92,1.41c-2.23-2.77-5.34-3.89-8.63-4.76-8.17-2.16-16.4-2.27-24.82-1.79-12.56.72-25,2.64-37.51,3.56-3.79.28-7.53.9-11.29,1.41-2.21.29-3.72,1.6-5.29,2.92-4-1.75-7.78-.06-11.63.58-14.53-.55-28.51,2.92-42.52,6C157,177,153.79,178.34,152.58,182Z"/><path class="cls-5" d="M364.65,349.76c10.28-7.28,14-17.72,17.66-28.14,1.9-5.37,1.84-5.36,6.21-2.2a9,9,0,0,1,2.06,2c3.92,5.36,8.23,6.68,14.73,4.75,1.41-.42,3.47-2,4.29-.15.56,1.23-1.91,1.92-3.1,2.72-4.45,3-7.87,6.65-8.95,12.2-.39,2-1.8,3.69-2.57,5.6s-1.3,3.87,1.17,5,4-.28,4.52-2.29c2.25-8.72,8-14.51,14.78-20,6.24-5.11,5.76-5.55,9.56,1.68,2.32,4.4,4.78,8.75,7.48,12.92,2,3.15,3,6.7,4.58,10,.75,1.58.23,2.53-1.49,2.75a199.42,199.42,0,0,0-42.15,10.06c-1.61.57-2.43-.13-3.38-1.09-2.83-2.85-5.58-5.8-8.55-8.49C377,353,371.56,350.67,364.65,349.76Z"/><path class="cls-4" d="M146.65,187.88c-1.23,2-4.41,1.37-5.18,3.94-2.41-1.27-4.15-.38-5.47,1.74-4.44,7.08-3.79,14.1.09,21.2,3.22,5.89,7.22,11.25,11.5,17a13.34,13.34,0,0,1-8.88-2.62c-8.62-6.08-16.94-12.54-22.36-21.87a39,39,0,0,1-5.61-19.1c-.1-6,4.22-9.22,7.83-12.89.86-.87,1.84-.1,2.72.24,7.92,3,15.63,6.47,22.69,11.23A15,15,0,0,0,146.65,187.88Z"/><path d="M325.79,278.37c5.53,1.21,10.36,2.37,15.24,3.29,5.3,1,10.66,1.66,16,2.68a21.24,21.24,0,0,1,13.57,8.76c1.22,1.68,1.26,2.92-.13,4.58a314.21,314.21,0,0,0-20.1,27.09,6.64,6.64,0,0,0-.88,1.35c-1.93,5.34-3.56,5.21-9.52,3.22-4.6-1.54-9-3.63-13.94-4.23a20.11,20.11,0,0,0-7.61.77c-8.9,2.27-17.72,5-27.11,3.64-1.23-.18-1.69.71-2.31,1.45a103.73,103.73,0,0,1-11.25,11.23c-3.51,3.1-7.88,3.95-11.93,5.65a2.63,2.63,0,0,1-3.35-1.31,2.69,2.69,0,0,1,.83-3.75,9,9,0,0,1,2.87-1.49c8-2,13.43-7.8,17.89-13.92a434.07,434.07,0,0,1,33-39.66c2.27-2.46,4.29-5.15,6.46-7.7C324.22,279.09,325.09,278.26,325.79,278.37Z"/><path d="M214.38,169.76c0-2.07,1-3,3.1-3.44,6.48-1.34,13.06-1.74,19.61-2.48,7.08-.81,14.16-1.81,21.27-2.3,13.37-.91,26.81-2.47,39.82,2.64,2.1.83,3.72,1.74,3.74,4.24-1.31,2.11-3.15,2.39-5.34,1.58-13.57-5-27.5-3.16-41.36-2-7.21.6-14.39,1.66-21.59,2.3q-7.11.64-14.13,1.82C217.25,172.47,215.08,172.75,214.38,169.76Z"/><path d="M311,168.39c4.07-1.5,7.55.94,11.25,1.76,16.91,3.74,31.37,12.7,45.8,21.69,3.21,2,6.31,4.16,9.43,6.31,1.67,1.14,2.94,2.58,2.72,4.82-1.58,2.21-3.32,2.31-5.53.75-18.48-13.06-37.7-24.63-60.2-29.56C310.67,173.32,310,171.83,311,168.39Z"/><path d="M152.58,182c-.58-2.75.79-4.14,3.23-5.12,8.6-3.43,17.75-4.3,26.74-5.87,5.19-.9,10.45-1.34,15.68-2a5.62,5.62,0,0,1,4.52,1.3c.27,3-1,4.4-4.19,4.71a301.85,301.85,0,0,0-35.09,5.62,35.15,35.15,0,0,0-6.33,2.37C155.34,183.8,153.8,183.73,152.58,182Z"/><path class="cls-5" d="M295,323.19a87.06,87.06,0,0,1,9.22-12.08c7.17-8.37,14.65-16.46,21.92-24.72a2.48,2.48,0,0,1,3-1c8.7,2.05,17.52,3.53,26.37,4.82,3,.44,5.46,2,7.85,3.72,1.27.91,1.13,1.75.11,2.91a231.71,231.71,0,0,0-18.23,24.74c-1.47,2.22-2.73,2.37-5,1.44-5.39-2.22-10.84-4.35-16.86-4.21-4.18.1-8,1.6-12,2.63C306.09,322.8,300.82,323.94,295,323.19Z"/></svg>