<svg id="레이어_1" data-name="레이어 1" xmlns="http://www.w3.org/2000/svg" viewBox="0 0 500 500"><defs><style>.cls-1{fill:#f3a61d;}.cls-2{fill:#2c5b2f;}.cls-3{fill:#273828;}.cls-4{fill:#162f18;}</style></defs><path d="M141.73,193.84c-5.94-16.65-11.78-32.93-17.54-49.25-1.44-4.09-.27-7.6,2.83-9.33s6.84-.76,9.76,2.59c2.08,2.4,3.21,6.53,6.3,6.88,2.76.32,5.84-1.81,8.73-3,4.07-1.66,8.11-3.4,12.14-5.16,4.62-2,8.38-5.1,12-8.62,11.11-10.76,24.67-17.63,38.86-23.33,29.61-11.88,60.54-18.48,92-22.88,2.24-.31,4.83-.88,3.29,2.86-10.24,25-24.93,46.14-50.79,57-16,6.69-33.11,7.81-50.19,8.78-21.08,1.2-42.1.25-63.07-1.79-2.93-.28-3.36.65-3.61,3.33A23.33,23.33,0,0,0,148,169.66c3.77,4.6,7.19,9.48,10.84,14.34,2-1.39,3.1-3.94,4.59-6.15,4-5.88,8.82-10.78,15.29-13.9,8-3.87,15.64-3.23,22.85,2.12s14.78,5.94,22.5,2c26.86-13.75,54.39-13.63,82.39-4.39,21.76,7.18,40.82,19.18,58.65,33.3a20.79,20.79,0,0,1,5.32,6.07c14.53,25.81,23.53,53.27,24,83.07.64,39-15.08,70.83-43.83,96.6a194.72,194.72,0,0,1-42.74,28.67c-7.39,3.73-15.62,4.2-23.63,5.2-23.62,2.94-47.18,2.9-70.34-3.28-42-11.2-66.75-38.65-75.49-80.88-1.38-6.67-1.9-13.51-3-20.24a61.43,61.43,0,0,0-3.72-12.66,25.2,25.2,0,0,1-1.31-14.22,20,20,0,0,0-6.12-19.05c-3-2.83-6.27-5.38-9.31-8.16a29.45,29.45,0,0,1-3.54-39.43,55.47,55.47,0,0,0,4.83-7C121.78,201.35,129.44,194.22,141.73,193.84Z"/><path class="cls-1" d="M264.42,413.41c-25.44.4-47-2.11-67.26-11.26C168,389,151.39,365.72,143.78,335.24c-2.18-8.73-2.07-17.77-4.25-26.45-.95-3.78-2.2-7.5-3.5-11.18a22.06,22.06,0,0,1-1-11.51c1.6-8.93-1.05-16.56-7.91-22.62-2.1-1.85-4.24-3.65-6.38-5.46-11.9-10.06-13.49-24.72-4.17-37.3a105.53,105.53,0,0,0,7-10.47c4.17-7.27,10.51-11.61,18.61-11.92,12-.46,19.09-7.34,24.86-16.68,4.08-6.6,9.59-11.62,17-14.31a16.25,16.25,0,0,1,15.9,2.35c8.94,6.61,18,6.79,27.86,1.89,25.71-12.72,52.09-11.9,78.59-2.67,20.55,7.15,38.69,18.61,55.59,32.16a17.53,17.53,0,0,1,4.26,5.14c14.07,25,22.83,51.62,23.13,80.47.42,38.78-15.84,69.88-45,94.73a198.73,198.73,0,0,1-38.42,25.33c-7.23,3.72-15.36,4-23.21,5.09C275.54,412.82,268.25,413.09,264.42,413.41Z"/><path class="cls-2" d="M154.18,143.75c6.94-2.7,13.88-5.39,20.25-9.31,4.45-2.74,7.32-7.19,11.47-10.28,14.53-10.86,31.09-17.36,48.13-23,21.63-7.14,43.91-11.31,66.29-15.1,1.87-.32,3.44-.16,2.26,2.5-9.17,20.53-21.8,38-42.6,48.27-9.12,4.5-19,6.22-28.9,7.59a294.87,294.87,0,0,1-49.79,2.4c-8.5-.27-17-1-25.48-1.54C155.4,144.63,153.69,145.36,154.18,143.75Z"/><path class="cls-3" d="M139.55,154.38c-1,6.11,1.73,10.87,5.09,15.43,2.13,2.88,4.06,5.93,6.21,8.78,1.39,1.84,3.41,3.55,2.35,6.12-1.28,3.1-4.25,4.34-7.08,5.17-2.13.62-3.48-1.21-4.13-3.13-4.78-14.17-9.46-28.37-14.19-42.56-.81-2.42.1-4.05,2-5.26s3.57-.18,4.81,1.41C137.79,144.39,141.34,148.32,139.55,154.38Z"/><path class="cls-4" d="M150.44,145.12l1.71,1.62a12.3,12.3,0,0,1-2,0c-.57-.06-1.6.36-1.56-.62S149.64,145.17,150.44,145.12Z"/></svg>