<svg id="레이어_1" data-name="레이어 1" xmlns="http://www.w3.org/2000/svg" viewBox="0 0 500 500"><defs><style>.cls-1{fill:#b8ee77;}.cls-2{fill:#030101;}.cls-3{fill:#110607;}.cls-4{fill:#0f0506;}.cls-5{fill:#e8888f;}</style></defs><path d="M145.32,179.37c28.38-30.65,69.85-35.23,102.38-11.08,6.11-16.18,19.69-24,34.21-30.86C338,111,396.85,102,458.27,109c8.81,1,17.39,3.4,25,8.34,10.05,6.53,11.29,13.51,3.5,22.64-11.6,13.6-26,24-40.08,34.85-26.58,20.5-54.32,39.52-79.41,61.93-19.88,17.75-20.92,21.56-11.37,46.6,6.1,16,13.24,31.65,18.88,47.82,7.12,20.38.87,34.28-19,43.1-24.49,10.84-50.64,10.91-76.74,10.43-3.45-.06-6.56-2.11-9.46-4.16-4.67-3.32-9.14-7.15-11.63-12.14C248.7,350,232.46,346,214.12,346.28c-13.93.23-27.94-.56-41.69,2.85-12.1,3-21.37,9.6-27.72,20.38-3.68,6.24-7.26,12.57-12.28,17.89-6.16,6.53-12.36,7.64-20.26,3.38-7.39-4-12.11-10.51-15.89-17.73-11.89-22.68-15.18-47.34-16.1-72.45a213.93,213.93,0,0,1,4-48.88c1.44-7.44-.72-10.11-8.65-10.69-13.74-1-27.18-3.2-39.57-9.69A62.28,62.28,0,0,1,20.34,220c-16.68-16.88-16.23-40.41,1.57-56.13s39.36-20,62.27-19a97.19,97.19,0,0,1,33.7,7.16C132.09,158.1,139.16,164.88,145.32,179.37Z"/><path class="cls-1" d="M485.32,126c-14.55,1.24-27.39,2.74-40.27,3.29a28.88,28.88,0,0,0-18.1,7.19c-9.72,8.05-20,15.4-29.85,23.34a16.7,16.7,0,0,1-11.69,4.09c-12.09-.27-24.26.63-36.29-.31-10.49-.82-18.63,2.25-25.93,9.47-4.19,4.14-9.12,7.52-13.72,11.24-1.6,1.28-2.83,2.88-1.12,4.69,1.42,1.48,3,.25,4.24-.74,2.33-1.82,5-3.41,6.85-5.62,10.78-12.56,24.57-16.32,40.37-13.94,23.59,3.54,43.89-2.58,60.1-20.38,18-19.77,42.45-13.75,66.09-17.57-2.84,7.07-7.28,11.12-11.69,15.07-19.08,17-39.93,31.82-60.28,47.25C394.32,208,374.45,222.67,356.61,240c-10.68,10.35-13.92,21.24-8.92,35.53,6,17.27,13.77,33.8,20.37,50.8,8.66,22.29,7.53,36.9-24,47.13-20.15,6.54-41.25,6.78-62.26,6.7-4,0-7.19-1.95-10.12-4.38-4.79-4-9.46-8.26-12.4-13.69-7.13-13.2-18.43-18.86-32.83-19.77-18-1.13-36-1.8-53.8,1.81-14.49,2.94-25.53,10.7-32.82,23.76A112.48,112.48,0,0,1,130.53,382c-6.23,8-12.07,8.49-19.82,1.8-7.31-6.32-11.63-14.69-14.88-23.62-12.68-34.8-13.29-70.44-7.13-106.5,2-11.87-1.33-16.52-13.2-17.47C60.92,235,46.73,232.46,34,224.58c-9.14-5.68-16.46-13-19.86-23.5-1.33-4.15-1-7.49,4.23-8.28a2,2,0,0,0,.77-.22c17.92-11,33.3-5.63,47.31,7.56,5.37,5.06,10.82,5.52,17.38,2.31,5.52-2.71,11.56-4.34,17.27-6.67,1.74-.72,5-.95,4-3.95s-3.49-1.46-5.44-.74c-6,2.22-12.23,4.14-18.07,6.81-4.53,2.08-7.92,1.41-11.79-1.49-6.67-5-13.84-9.28-20.56-14.2a9.77,9.77,0,0,0-10.42-1.37c-6.75,2.61-13.72,4.66-20.61,6.89-3.76,1.22-5.07-.06-3.77-3.88,2.88-8.47,8.43-14.9,15.52-20.08,24.51-17.92,69.55-19.08,95-2.46a37.28,37.28,0,0,1,11.08,10.44c4.71,7.15,7.06,14.37,1.27,22.28-1.3,1.78-4.5,4.92-.84,6.73,3.39,1.68,4.1-2.54,5.16-4.7,9.09-18.64,22.62-32.24,43.59-36.07,23.12-4.22,45.08-2.13,62.8,15.87a8.74,8.74,0,0,0,2.42,2.11c3.44,1.47,6.39,8.33,9.39,4.92,3.45-3.91-3.43-5.94-5.95-8.35-2.8-2.68-1.64-4.67-.44-7a44.85,44.85,0,0,1,18-19c35.13-20,73.3-30.17,113.16-34.71,27.05-3.08,54.14-4.37,81,1.71C472.57,117,479.39,119.29,485.32,126Z"/><path class="cls-2" d="M202,275a44.83,44.83,0,0,1-30-13.62c-5.81-6-11.71-10.65-20.48-10.28-1.91.08-4.43-.38-4.29-2.62.18-3,3-2.48,5.07-2.18,9.34,1.37,18.67,2.23,28,.19,1.83-.4,3.67-.77,5.45-1.34C198,241.25,198,241.3,210.69,247c11.09,5,22.21,5.7,33.33-.13,1.89-1,4.43-3.81,6.13-.48,1.55,3.06-2,4.27-3.89,4.81-7.57,2.2-12.61,7.6-18,12.74A39.13,39.13,0,0,1,202,275Z"/><path class="cls-3" d="M222.17,214.82c4.78,2.76,10.17,4.85,13.58,9.32,1.67,2.19-1.25,3.55-2.92,2.67a78.53,78.53,0,0,1-12.69-8.11C217.9,216.88,220,215.65,222.17,214.82Z"/><path class="cls-4" d="M180.18,216.64a3,3,0,0,1-2,3.3c-4.56,1.81-8.43,5.62-13.8,5a1.52,1.52,0,0,1-.89-2.48c3.61-3.62,8.45-5.15,13-7.1C178,214.73,179.62,214.76,180.18,216.64Z"/><path class="cls-5" d="M228.07,256.2c-15.36,19.46-41.6,17.82-56.63-3.4,8.28-1.11,16.63-1.68,23.75-6.49,2-1.34,3.5-.38,5.08.69C208.59,252.66,217.93,255.37,228.07,256.2Z"/></svg>